<svg  version="1.1" xmlns="http://www.w3.org/2000/svg"
	 viewBox="0 0 64.875 76.25" overflow="visible" enable-background="new 0 0 64.875 76.25" xml:space="preserve">
<g>
	<g id="XMLID_1_">
		<g>
			<path fill="none" stroke="#FFFFFF" stroke-width="2" d="M63.875,62.57c0,7-5.041,12.68-11.262,12.68H12.261
				C6.039,75.25,1,69.57,1,62.57V13.68C1,6.68,6.039,1,12.261,1h31.673l19.939,27.74v33.83H63.875z"/>
		</g>
	</g>
	<polyline fill="none" stroke="#FFFFFF" stroke-width="2" points="42.625,1 42.438,28.875 63.875,28.745 	"/>
	<rect x="4.958" y="33.417" fill="#FFFFFF" stroke="#FFFFFF" width="55.333" height="4.833"/>
	<rect x="4.708" y="60.417" fill="#FFFFFF" stroke="#FFFFFF" width="55.333" height="4.833"/>
	<rect x="4.958" y="42.667" fill="#FFFFFF" stroke="#FFFFFF" width="55.333" height="12.583"/>
	<g>
		<rect x="12.438" y="43.625" fill="none" width="38.332" height="13.667"/>
		<path fill="none" d="M13.361,44.27c0.686-0.127,1.694-0.211,2.842-0.211c1.4,0,2.38,0.211,3.052,0.756
			c0.574,0.449,0.882,1.106,0.882,1.975c0,1.189-0.854,2.016-1.666,2.311v0.041c0.658,0.266,1.022,0.883,1.26,1.75
			c0.294,1.078,0.574,2.311,0.756,2.674h-2.184c-0.14-0.266-0.378-1.035-0.644-2.197c-0.266-1.19-0.672-1.498-1.554-1.512h-0.63
			v3.709h-2.114V44.27z M15.476,48.314h0.84c1.064,0,1.694-0.531,1.694-1.357c0-0.854-0.588-1.303-1.568-1.303
			c-0.518,0-0.812,0.029-0.966,0.07V48.314z"/>
		<path fill="#FFFFFF" d="M23.231,50.807c0.07,0.896,0.938,1.316,1.932,1.316c0.728,0,1.316-0.098,1.89-0.294l0.28,1.442
			c-0.7,0.293-1.554,0.434-2.478,0.434c-2.324,0-3.654-1.344-3.654-3.5c0-1.736,1.092-3.654,3.458-3.654
			c2.212,0,3.052,1.723,3.052,3.416c0,0.364-0.042,0.686-0.07,0.854L23.231,50.807z M25.737,49.352c0-0.504-0.224-1.387-1.19-1.387
			c-0.91,0-1.274,0.826-1.33,1.387H25.737z"/>
		<path fill="#FFFFFF" d="M35.68,53.193c-0.564,0.191-1.633,0.455-2.7,0.455c-1.476,0-2.544-0.371-3.288-1.08
			c-0.732-0.707-1.14-1.764-1.14-2.951c0.012-2.688,1.968-4.225,4.62-4.225c1.043,0,1.848,0.204,2.245,0.385l-0.385,1.476
			c-0.443-0.204-0.984-0.349-1.872-0.349c-1.524,0-2.688,0.865-2.688,2.617c0,1.68,1.056,2.651,2.556,2.651
			c0.408,0,0.744-0.048,0.889-0.108v-1.703h-1.249v-1.428h3.012V53.193z"/>
		<path fill="#FFFFFF" d="M38.535,51.201c0.061,0.768,0.805,1.128,1.656,1.128c0.624,0,1.128-0.084,1.62-0.252l0.239,1.235
			c-0.6,0.252-1.332,0.373-2.123,0.373c-1.992,0-3.133-1.152-3.133-3c0-1.488,0.937-3.133,2.965-3.133
			c1.896,0,2.615,1.477,2.615,2.928c0,0.313-0.035,0.588-0.06,0.732L38.535,51.201z M40.684,49.953c0-0.432-0.192-1.188-1.02-1.188
			c-0.781,0-1.093,0.707-1.141,1.188H40.684z"/>
		<path fill="#FFFFFF" d="M44.715,47.697l0.576,0.983c0.168,0.3,0.324,0.589,0.48,0.876h0.023c0.156-0.324,0.301-0.611,0.457-0.912
			l0.516-0.947h1.98l-1.933,2.796l1.956,3.071h-2.064l-0.588-1.056c-0.168-0.288-0.324-0.588-0.456-0.888h-0.036
			c-0.144,0.313-0.3,0.6-0.443,0.888l-0.553,1.056h-2.004l1.992-2.987l-1.943-2.88H44.715z"/>
	</g>
</g>
</svg>
