<svg  version="1.1" xmlns="http://www.w3.org/2000/svg"
	 viewBox="0 0 67.29 71.102" overflow="visible" enable-background="new 0 0 67.29 71.102" xml:space="preserve">
<g>
	<g>
		<g id="XMLID_3_">
			<g>
				<path fill="none" stroke="#FFFFFF" stroke-width="2" d="M7.024,61.301c-1.828,0,0.458,1.481-1.016,0.574
					C3.013,60.033,1,56.595,1,52.661V11.64C1,5.766,5.486,1,11.024,1h29.192L56.8,23.474l0.063,2.853l0.105,4.846"/>
			</g>
		</g>
		<g>
			<path fill="none" stroke="#FFFFFF" stroke-width="2" d="M56.811,23.477"/>
		</g>
	</g>
	<g>
		<g id="XMLID_1_">
			<g>
				<path fill="none" stroke="#FFFFFF" stroke-width="2" d="M58.034,58.186v1.466l0,0c0,5.77-4.153,10.45-9.281,10.45H15.495
					c-5.128,0-9.281-4.681-9.281-10.45V19.357c0-5.769,4.153-10.451,9.281-10.451h26.103L57.877,30.98l0.156,7.563"/>
			</g>
		</g>
		<polyline fill="none" stroke="#FFFFFF" stroke-width="2" points="40.52,8.906 40.816,30.76 57.879,30.984 		"/>
		<circle fill="none" stroke="#FFFFFF" stroke-width="2" cx="58.162" cy="48.323" r="8.127"/>
		<polyline fill="none" stroke="#FFFFFF" points="55.553,47.922 57.833,51.287 61.459,45.93 		"/>
	</g>
	<rect x="10.718" y="37.5" fill="#FFFFFF" width="34.167" height="2.333"/>
	<rect x="10.718" y="44" fill="#FFFFFF" width="34.167" height="2.333"/>
	<rect x="10.718" y="49.917" fill="#FFFFFF" width="34.166" height="2.333"/>
	<rect x="10.718" y="56.417" fill="#FFFFFF" width="34.166" height="2.333"/>
</g>
<line fill="none" stroke="#FFFFFF" stroke-width="2" x1="38.895" y1="1" x2="39.02" y2="8.906"/>
<line fill="none" x1="56.811" y1="23.964" x2="52.744" y2="24.02"/>
<line fill="none" stroke="#FFFFFF" stroke-width="2" x1="56.811" y1="23.964" x2="52.744" y2="24.02"/>
</svg>
