<svg  version="1.1" xmlns="http://www.w3.org/2000/svg"
	 viewBox="0 0 75.576 71.867" overflow="visible" enable-background="new 0 0 75.576 71.867" xml:space="preserve">
<g>
	<line fill="none" stroke="#474747" stroke-width="2" x1="2.559" y1="15.683" x2="59.394" y2="15.683"/>
	<g>
		<g>
			<path fill="none" stroke="#3F3F3F" stroke-width="2" d="M34.014,51.994c0-11.632,9.43-21.061,21.062-21.061
				c1.48,0,2.926,0.156,4.319,0.447V6.832H2.559v57.717h35.635C35.579,61.041,34.014,56.705,34.014,51.994z"/>
		</g>
	</g>
	<circle fill="none" stroke="#404040" stroke-width="2" cx="55.481" cy="51.942" r="16.537"/>
	<line fill="none" stroke="#404040" stroke-width="2" x1="55.014" y1="38.81" x2="55.014" y2="52.885"/>
	<line fill="none" stroke="#404040" stroke-width="2" x1="54.427" y1="52.709" x2="66.067" y2="52.709"/>
	<circle fill="#474747" stroke="#404040" cx="54.953" cy="52.509" r="1.387"/>
	<line fill="none" stroke="#404040" stroke-width="2" x1="11.489" y1="21.034" x2="11.489" y2="54.69"/>
	<line fill="none" stroke="#404040" stroke-width="2" x1="47.532" y1="20.932" x2="47.532" y2="27.821"/>
	<line fill="none" stroke="#404040" stroke-width="2" x1="27.493" y1="20.932" x2="27.493" y2="54.854"/>
	<line fill="none" stroke="#404040" stroke-width="2" x1="7.779" y1="26.451" x2="51.597" y2="26.451"/>
	<line fill="none" stroke="#404040" stroke-width="2" x1="7.603" y1="35.934" x2="35.165" y2="35.934"/>
	<line fill="none" stroke="#404040" stroke-width="2" x1="7.642" y1="46.771" x2="30.688" y2="46.771"/>
	<line fill="none" stroke="#404040" stroke-width="2" x1="11.274" y1="2.314" x2="11.274" y2="11.798"/>
	<line fill="none" stroke="#404040" stroke-width="2" x1="50.846" y1="2.188" x2="50.846" y2="11.671"/>
	<line fill="none" stroke="#404040" stroke-width="2" x1="41.18" y1="52.829" x2="44.264" y2="52.829"/>
	<line fill="none" stroke="#404040" stroke-width="2" x1="55.264" y1="66.121" x2="55.264" y2="63.037"/>
</g>
</svg>
