<svg version="1.1" xmlns="http://www.w3.org/2000/svg"
	 viewBox="0 0 75.576 71.867" overflow="visible" enable-background="new 0 0 75.576 71.867" xml:space="preserve">
<line fill="none" stroke="#000000" stroke-width="2" x1="9.716" y1="0.127" x2="9.716" y2="9.611"/>
<line fill="none" stroke="#000000" stroke-width="2" x1="49.287" y1="0" x2="49.287" y2="9.484"/>
<line fill="none" stroke="#000000" stroke-width="2" x1="1" y1="13.495" x2="57.835" y2="13.495"/>
<g>
	<g>
		<path fill="none" stroke="#000000" stroke-width="2" d="M32.455,49.806c0-11.631,9.43-21.06,21.061-21.06
			c1.481,0,2.926,0.156,4.32,0.447V4.644H1v57.718h35.635C34.021,58.853,32.455,54.518,32.455,49.806z"/>
	</g>
</g>
<circle fill="none" stroke="#000000" cx="53.923" cy="49.755" r="16.537"/>
<line fill="none" stroke="#000000" x1="53.455" y1="36.622" x2="53.455" y2="50.697"/>
<line fill="none" stroke="#000000" x1="52.868" y1="50.521" x2="64.509" y2="50.521"/>
<circle fill="#070707" cx="53.515" cy="50.441" r="1.267"/>
<line fill="none" stroke="#000000" x1="9.931" y1="18.846" x2="9.931" y2="52.503"/>
<line fill="none" stroke="#000000" x1="45.974" y1="18.744" x2="45.974" y2="25.634"/>
<line fill="none" stroke="#000000" x1="25.934" y1="18.744" x2="25.934" y2="52.667"/>
<line fill="#B3B3B3" stroke="#000000" x1="6.221" y1="24.263" x2="50.038" y2="24.263"/>
<line fill="#B3B3B3" stroke="#000000" x1="6.044" y1="33.746" x2="33.606" y2="33.746"/>
<line fill="#B3B3B3" stroke="#000000" x1="6.083" y1="44.583" x2="29.13" y2="44.583"/>
</svg>
