<?xml version="1.0" encoding="iso-8859-1"?>
<svg xmlns="http://www.w3.org/2000/svg" xmlns:xlink="http://www.w3.org/1999/xlink" version="1.1" viewBox="0 0 44 44" enable-background="new 0 0 44 44" width="512px" height="512px">
  <path d="M22,0C9.8,0,0,9.8,0,22s9.8,22,22,22s22-9.8,22-22S34.2,0,22,0z M34,23c0,0.6-0.4,1-1,1h-8.5c-0.3,0-0.5,0.2-0.5,0.5V33  c0,0.6-0.4,1-1,1h-2c-0.6,0-1-0.4-1-1v-8.5c0-0.3-0.2-0.5-0.5-0.5H11c-0.6,0-1-0.4-1-1v-2c0-0.6,0.4-1,1-1h8.5  c0.3,0,0.5-0.2,0.5-0.5V11c0-0.6,0.4-1,1-1h2c0.6,0,1,0.4,1,1v8.5c0,0.3,0.2,0.5,0.5,0.5H33c0.6,0,1,0.4,1,1V23z" fill="#FFFFFF"/>
</svg>
