<svg  version="1.1" xmlns="http://www.w3.org/2000/svg" viewBox="0 0 78 57.375"
	 overflow="visible" enable-background="new 0 0 78 57.375" xml:space="preserve">
<g>
	<g>
		<g>
			<path fill="none" stroke="#3F3F3F" stroke-width="2" d="M67.975,38.602h-7.227c-4.211,0-7.625-3.119-7.625-6.968V25.03
				c0-3.849,3.414-6.969,7.625-6.969h7.227c0.195,0,0.389,0.014,0.58,0.027C67.615,8.51,58.818,1,48.096,1H28.613
				C17.897,1,9.107,8.496,8.154,18.061h5.298c4.213,0,7.625,3.12,7.625,6.969v6.604c0,3.849-3.412,6.968-7.625,6.968H8.114
				c0.578,9.9,9.521,17.773,20.499,17.773h19.482c10.986,0,19.936-7.889,20.498-17.802C68.39,38.588,68.184,38.602,67.975,38.602z"
				/>
		</g>
	</g>
	<g>
		<line fill="none" stroke="#3F3F3F" x1="26.234" y1="20.507" x2="49.195" y2="20.507"/>
		<line fill="none" stroke="#3F3F3F" x1="26.234" y1="16.148" x2="49.195" y2="16.148"/>
		<line fill="none" stroke="#3F3F3F" x1="26.234" y1="25.808" x2="49.195" y2="25.808"/>
		<line fill="none" stroke="#3F3F3F" x1="26.234" y1="30.134" x2="49.195" y2="30.134"/>
		<line fill="none" stroke="#3F3F3F" x1="26.234" y1="35.434" x2="49.195" y2="35.434"/>
		<line fill="none" stroke="#3F3F3F" x1="26.234" y1="40.273" x2="49.195" y2="40.273"/>
	</g>
	<line fill="none" stroke="#3F3F3F" x1="4.686" y1="24.722" x2="14.854" y2="24.722"/>
	<line fill="none" stroke="#3F3F3F" x1="4.686" y1="32.35" x2="15.078" y2="32.35"/>
	<polyline fill="none" stroke="#3F3F3F" points="13.261,22.435 17.463,28.247 13.261,34.837 	"/>
	<line fill="none" stroke="#3F3F3F" x1="59.537" y1="24.785" x2="69.703" y2="24.785"/>
	<line fill="none" stroke="#3F3F3F" x1="59.537" y1="32.413" x2="69.928" y2="32.413"/>
	<polyline fill="none" stroke="#3F3F3F" points="68.111,22.498 72.313,28.308 68.111,34.898 	"/>
</g>
</svg>
