<svg  version="1.1" xmlns="http://www.w3.org/2000/svg"
	 viewBox="0 0 76.451 57.375" overflow="visible" enable-background="new 0 0 76.451 57.375" xml:space="preserve">
<g>
	<g>
		<g>
			<path fill="none" stroke="#3F3F3F" stroke-width="2" d="M69.022,38.602h-7.228c-4.209,0-7.625-3.119-7.625-6.968V25.03
				c0-3.849,3.416-6.969,7.625-6.969h7.228c0.196,0,0.388,0.014,0.58,0.027C68.662,8.51,59.865,1,49.143,1H29.659
				c-8.42,0-15.647,4.632-18.823,11.256h2.379c2.643,0,4.783,1.957,4.783,4.373v4.144c0,2.414-2.141,4.371-4.783,4.371H9.106v8.113
				h4.453c2.643,0,4.783,1.956,4.783,4.372v4.145c0,2.414-2.142,4.371-4.783,4.371h-2.184c3.406,6.069,10.307,10.231,18.284,10.231
				h19.482c10.986,0,19.937-7.89,20.498-17.802C69.438,38.588,69.231,38.602,69.022,38.602z"/>
		</g>
	</g>
	<g>
		<line fill="none" stroke="#3F3F3F" x1="27.281" y1="20.507" x2="50.242" y2="20.507"/>
		<line fill="none" stroke="#3F3F3F" x1="27.281" y1="16.148" x2="50.242" y2="16.148"/>
		<line fill="none" stroke="#3F3F3F" x1="27.281" y1="25.808" x2="50.242" y2="25.808"/>
		<line fill="none" stroke="#3F3F3F" x1="27.281" y1="30.134" x2="50.242" y2="30.134"/>
		<line fill="none" stroke="#3F3F3F" x1="27.281" y1="35.434" x2="50.242" y2="35.434"/>
		<line fill="none" stroke="#3F3F3F" x1="27.281" y1="40.273" x2="50.242" y2="40.273"/>
	</g>
	<line fill="none" stroke="#3F3F3F" x1="60.584" y1="24.785" x2="70.752" y2="24.785"/>
	<line fill="none" stroke="#3F3F3F" x1="60.584" y1="32.413" x2="70.975" y2="32.413"/>
	<polyline fill="none" stroke="#3F3F3F" points="69.158,22.498 73.361,28.308 69.158,34.898 	"/>
	<g>
		<line fill="none" stroke="#3F3F3F" x1="0.696" y1="16.074" x2="10.424" y2="16.074"/>
		<line fill="none" stroke="#3F3F3F" x1="0.713" y1="19.807" x2="10.584" y2="19.807"/>
		<polyline fill="none" stroke="#3F3F3F" points="9.276,14.955 12.302,17.799 9.276,21.023 		"/>
	</g>
	<g>
		<line fill="none" stroke="#3F3F3F" x1="1.105" y1="39.008" x2="10.833" y2="39.008"/>
		<line fill="none" stroke="#3F3F3F" x1="1.122" y1="42.741" x2="10.993" y2="42.741"/>
		<polyline fill="none" stroke="#3F3F3F" points="9.686,37.891 12.712,40.732 9.686,43.958 		"/>
	</g>
</g>
</svg>
