<svg  version="1.1" xmlns="http://www.w3.org/2000/svg"
	 viewBox="0 0 78.041 57.375" overflow="visible" enable-background="new 0 0 78.041 57.375" xml:space="preserve">
<g>
	<g>
		<g>
			<path fill="none" stroke="#3F3F3F" stroke-width="2" d="M17.547,41.602c5.334,0,9.66-3.951,9.66-8.828v-8.366
				c0-4.875-4.326-8.829-9.66-8.829h-2.329C17.312,7.232,25.47,1,35.235,1h19.482c11.352,0,20.555,8.41,20.555,18.785v17.807
				c0,10.373-9.203,18.784-20.555,18.784H35.235c-9.842,0-18.06-6.329-20.071-14.772h2.383V41.602z"/>
		</g>
	</g>
	<line fill="none" stroke="#3F3F3F" x1="1.769" y1="22.05" x2="18.357" y2="22.05"/>
	<line fill="none" stroke="#3F3F3F" x1="1.769" y1="34.497" x2="18.724" y2="34.497"/>
	<polyline fill="none" stroke="#3F3F3F" points="15.759,18.318 22.615,27.801 15.759,38.555 	"/>
	<line fill="none" stroke="#3F3F3F" x1="37.383" y1="19.869" x2="60.343" y2="19.869"/>
	<line fill="none" stroke="#3F3F3F" x1="37.383" y1="15.51" x2="60.343" y2="15.51"/>
	<line fill="none" stroke="#3F3F3F" x1="37.383" y1="25.17" x2="60.343" y2="25.17"/>
	<line fill="none" stroke="#3F3F3F" x1="37.383" y1="29.497" x2="60.343" y2="29.497"/>
	<line fill="none" stroke="#3F3F3F" x1="37.383" y1="34.796" x2="60.343" y2="34.796"/>
	<line fill="none" stroke="#3F3F3F" x1="37.383" y1="39.635" x2="60.343" y2="39.635"/>
</g>
</svg>
