<svg  version="1.1" xmlns="http://www.w3.org/2000/svg"
	 viewBox="0 0 78.042 57.375" overflow="visible" enable-background="new 0 0 78.042 57.375" xml:space="preserve">
<g>
	<g>
		<g>
			<path fill="none" stroke="#3F3F3F" stroke-width="2" d="M58.806,41.602c-5.334,0-9.66-3.951-9.66-8.828v-8.366
				c0-4.875,4.326-8.829,9.66-8.829h2.329C59.042,7.232,50.883,1,41.12,1H21.635C10.284,1,1.081,9.41,1.081,19.785v17.807
				c0,10.373,9.203,18.784,20.554,18.784h19.482c9.842,0,18.061-6.329,20.071-14.772h-2.383V41.602z"/>
		</g>
	</g>
	<line fill="none" stroke="#3F3F3F" x1="54.952" y1="21.455" x2="71.542" y2="21.455"/>
	<line fill="none" stroke="#3F3F3F" x1="54.952" y1="33.9" x2="71.907" y2="33.9"/>
	<polyline fill="none" stroke="#3F3F3F" points="68.943,17.723 75.799,27.206 68.943,37.958 	"/>
	<line fill="none" stroke="#3F3F3F" x1="17.234" y1="19.146" x2="40.196" y2="19.146"/>
	<line fill="none" stroke="#3F3F3F" x1="17.234" y1="14.788" x2="40.196" y2="14.788"/>
	<line fill="none" stroke="#3F3F3F" x1="17.234" y1="24.448" x2="40.196" y2="24.448"/>
	<line fill="none" stroke="#3F3F3F" x1="17.234" y1="28.774" x2="40.196" y2="28.774"/>
	<line fill="none" stroke="#3F3F3F" x1="17.234" y1="34.074" x2="40.196" y2="34.074"/>
	<line fill="none" stroke="#3F3F3F" x1="17.234" y1="38.913" x2="40.196" y2="38.913"/>
</g>
</svg>
