<svg  version="1.1" xmlns="http://www.w3.org/2000/svg"
	 viewBox="0 0 61.658 71.017" overflow="visible" enable-background="new 0 0 61.658 71.017" xml:space="preserve">
<circle fill="#FFFFFF" stroke="#3F3F3F" cx="30.829" cy="40.188" r="30.329"/>
<path fill="#3F3F3F" stroke="#3F3F3F" d="M11.311,10.267c-0.662-0.662-1.735-0.662-2.396,0l-7.188,7.189
	c-0.662,0.661-0.662,1.734,0,2.396l0,0c0.662,0.662,1.734,0.662,2.396,0l7.189-7.189C11.973,12.002,11.973,10.929,11.311,10.267
	L11.311,10.267z"/>
<rect x="4.635" y="15.169" transform="matrix(0.7249 -0.6888 0.6888 0.7249 -9.2536 10.5554)" fill="none" stroke="#3F3F3F" width="7.907" height="3.389"/>
<g>
	<path fill="#3F3F3F" stroke="#3F3F3F" d="M50.61,10.204c0.662-0.662,1.735-0.662,2.396,0l7.188,7.188
		c0.662,0.662,0.662,1.734,0,2.396l0,0c-0.662,0.662-1.734,0.662-2.396,0L50.61,12.6C49.949,11.938,49.949,10.866,50.61,10.204
		L50.61,10.204z"/>
	
		<rect x="49.378" y="15.106" transform="matrix(-0.725 -0.6888 0.6888 -0.725 80.4263 65.713)" fill="none" stroke="#3F3F3F" width="7.908" height="3.389"/>
</g>
<path fill="#3F3F3F" stroke="#3F3F3F" d="M30.829,40.188l0.062-26.506c0,0,20.591-0.071,25.216,26.035H31.255"/>
<line fill="none" stroke="#3F3F3F" stroke-width="2" x1="3.946" y1="40.234" x2="9.719" y2="40.234"/>
<line fill="none" stroke="#3F3F3F" stroke-width="2" x1="31.094" y1="67.089" x2="31.094" y2="61.219"/>
<circle fill="#3F3F3F" stroke="#3F3F3F" cx="31.094" cy="4.167" r="3.667"/>
<line fill="none" stroke="#3F3F3F" x1="29.469" y1="9.781" x2="29.469" y2="7.328"/>
<line fill="none" stroke="#3F3F3F" x1="32.597" y1="9.93" x2="32.597" y2="7.406"/>
</svg>
