<?xml version="1.0" encoding="UTF-8" standalone="no"?>
<!-- Created with Inkscape (http://www.inkscape.org/) -->

<svg
   xmlns:dc="http://purl.org/dc/elements/1.1/"
   xmlns:cc="http://creativecommons.org/ns#"
   xmlns:rdf="http://www.w3.org/1999/02/22-rdf-syntax-ns#"
   xmlns:svg="http://www.w3.org/2000/svg"
   xmlns="http://www.w3.org/2000/svg"
   xmlns:sodipodi="http://sodipodi.sourceforge.net/DTD/sodipodi-0.dtd"
   xmlns:inkscape="http://www.inkscape.org/namespaces/inkscape"
   width="144.61966mm"
   height="47.579491mm"
   viewBox="0 0 144.61966 47.579491"
   version="1.1"
   id="svg8"
   inkscape:version="0.92.3 (2405546, 2018-03-11)"
   sodipodi:docname="keyscore-header.dark.svg">
  <defs
     id="defs2" />
  <sodipodi:namedview
     id="base"
     pagecolor="#ff00ff"
     bordercolor="#666666"
     borderopacity="1.0"
     inkscape:pageopacity="0"
     inkscape:pageshadow="2"
     inkscape:zoom="0.98994949"
     inkscape:cx="212.00226"
     inkscape:cy="122.94423"
     inkscape:document-units="mm"
     inkscape:current-layer="g4035"
     showgrid="false"
     inkscape:window-width="1408"
     inkscape:window-height="1083"
     inkscape:window-x="2710"
     inkscape:window-y="183"
     inkscape:window-maximized="0"
     fit-margin-top="0"
     fit-margin-left="0"
     fit-margin-right="0"
     fit-margin-bottom="0" />
  <metadata
     id="metadata5">
    <rdf:RDF>
      <cc:Work
         rdf:about="">
        <dc:format>image/svg+xml</dc:format>
        <dc:type
           rdf:resource="http://purl.org/dc/dcmitype/StillImage" />
        <dc:title></dc:title>
      </cc:Work>
    </rdf:RDF>
  </metadata>
  <g
     inkscape:label="Layer 1"
     inkscape:groupmode="layer"
     id="layer1"
     transform="translate(-46.038487,-115.45583)">
    <g
       style="overflow:visible"
       id="g4305"
       transform="matrix(0.26458333,0,0,0.26458333,-2.0123547,58.728271)">
      <path
         id="path3815"
         d="M 129.142,330.68795"
         inkscape:connector-curvature="0"
         style="fill:#ffffff;stroke:#000000;stroke-width:2" />
      <g
         id="g4087"
         transform="translate(-3.253,-45.649051)">
	<path
   id="path3817"
   d="M 260.494,374"
   inkscape:connector-curvature="0"
   style="fill:none;stroke:#000000;stroke-width:4" />

	<g
   id="g4083"
   transform="translate(55.534967,58.497967)">
		
		
		
		
		
		
		
		
		<g
   id="g4035">
			
			
			<rect
   id="rect3979"
   height="169.828"
   width="536.59399"
   y="206.55447"
   x="134.32751"
   style="fill:none;stroke:#ffffff;stroke-width:10" />

			<path
   id="path3981"
   d="M 531.117,388.107"
   inkscape:connector-curvature="0"
   style="fill:#ffffff;stroke:#000000;stroke-width:4" />

			<g
   id="g4009">
				<path
   id="path3983"
   d="m 290.57,341.378 c -0.399,0 -1.077,-0.079 -1.077,0.539 0,0.319 0.24,0.438 0.519,0.559 l 4.788,2.175 c 1.237,0.559 1.875,1.336 1.875,2.713 0,1.935 -1.317,2.853 -3.152,2.853 h -2.953 c -0.997,0 -1.675,-0.04 -2.394,-0.599 -0.359,-0.279 -0.878,-0.639 -0.878,-1.117 0,-0.538 0.459,-0.957 0.998,-0.957 0.299,0 0.519,0.1 0.738,0.339 0.339,0.379 0.938,0.419 1.536,0.419 h 2.594 c 0.678,0 1.596,0.06 1.596,-1.058 0,-0.459 -0.559,-0.758 -0.997,-0.957 l -4.509,-2.055 c -1.057,-0.479 -1.676,-1.098 -1.676,-2.335 0,-1.516 1.197,-2.434 2.633,-2.434 h 3.272 c 1.057,0 1.496,0.06 2.214,0.658 0.359,0.3 0.758,0.539 0.758,1.077 0,0.539 -0.459,0.958 -0.978,0.958 -0.359,0 -0.579,-0.14 -0.818,-0.399 -0.319,-0.339 -0.658,-0.379 -1.177,-0.379 z"
   inkscape:connector-curvature="0"
   style="fill:#ffffff" />

				<path
   id="path3985"
   d="m 307.008,341.378 c -0.2,0 -0.399,0.061 -0.599,0.18 l -2.833,1.775 v 5.566 c 0,0.658 -0.14,1.316 -0.958,1.316 -0.818,0 -0.958,-0.658 -0.958,-1.316 V 336.83 c 0,-0.658 0.14,-1.317 0.958,-1.317 0.818,0 0.958,0.659 0.958,1.317 v 4.289 l 1.556,-1.018 c 0.499,-0.319 1.077,-0.639 1.716,-0.639 h 1.277 c 0.379,0 1.057,0 1.855,0.698 0.858,0.738 0.818,1.557 0.858,2.594 l 0.2,6.024 c 0.02,0.679 -0.08,1.437 -0.938,1.437 -0.778,0 -0.938,-0.658 -0.958,-1.297 l -0.199,-5.905 c -0.04,-0.917 0.02,-1.636 -1.058,-1.636 h -0.877 z"
   inkscape:connector-curvature="0"
   style="fill:#ffffff" />

				<path
   id="path3987"
   d="m 319.237,341.378 c -0.559,0 -1.317,-0.119 -1.317,-0.957 0,-0.818 0.679,-0.958 1.317,-0.958 h 2.633 c 0.998,0 1.716,0.1 2.474,0.858 0.738,0.737 0.838,1.316 0.858,2.273 l 0.2,6.504 c 0.02,0.559 -0.26,1.117 -0.898,1.117 -0.499,0 -0.998,-0.419 -0.978,-0.958 l -1.316,0.679 c -0.539,0.279 -0.559,0.279 -1.177,0.279 h -1.835 c -0.858,0 -1.476,-0.1 -2.174,-0.679 -0.798,-0.658 -0.998,-1.356 -0.998,-2.354 v -0.838 c 0,-0.918 0.219,-1.496 0.938,-2.135 0.659,-0.578 1.396,-0.718 2.234,-0.718 h 4.11 v -0.439 c 0,-1.437 -0.319,-1.676 -1.696,-1.676 h -2.375 z m -0.02,4.031 c -0.519,0 -1.277,0.14 -1.277,0.838 v 1.276 c 0,0.639 0.778,0.778 1.237,0.778 h 2.115 l 2.115,-1.098 v -0.419 c 0,-1.057 -0.299,-1.376 -1.356,-1.376 h -2.834 z"
   inkscape:connector-curvature="0"
   style="fill:#ffffff" />

				<path
   id="path3989"
   d="m 339.765,346.067 c 0,1.376 -0.1,1.896 -1.217,2.772 l -1.157,0.918 c -0.399,0.319 -1.018,0.858 -1.536,0.858 h -1.297 c -0.858,0 -1.257,-0.559 -1.875,-1.138 l -0.379,-0.359 v 3.851 c 0,0.658 -0.14,1.316 -0.958,1.316 -0.818,0 -0.958,-0.658 -0.958,-1.316 V 340.88 c 0,-0.679 0.08,-1.417 0.958,-1.417 0.778,0 0.958,0.618 0.958,1.257 v 0.239 l 0.379,-0.339 c 0.499,-0.438 1.256,-1.157 1.795,-1.157 h 1.316 c 0.459,0 1.077,0.479 1.596,0.878 l 1.157,0.897 c 1.117,0.878 1.217,1.417 1.217,2.773 v 2.056 z m -1.916,-2.315 c 0,-0.358 -0.1,-0.578 -0.399,-0.838 l -1.436,-1.196 c -0.18,-0.16 -0.399,-0.34 -0.659,-0.34 h -0.499 c -0.279,0 -0.619,0.359 -0.818,0.559 l -1.197,1.138 c -0.399,0.379 -0.539,0.599 -0.539,1.018 v 1.875 c 0,0.279 0.08,0.638 0.279,0.817 l 1.457,1.377 c 0.279,0.279 0.579,0.538 0.818,0.538 h 0.499 c 0.259,0 0.479,-0.179 0.659,-0.339 l 1.436,-1.197 c 0.299,-0.259 0.399,-0.479 0.399,-0.838 z"
   inkscape:connector-curvature="0"
   style="fill:#ffffff" />

				<path
   id="path3991"
   d="m 348.263,350.216 c -0.798,0 -1.117,0 -1.716,-0.519 l -0.818,-0.719 c -0.758,-0.678 -0.978,-1.117 -0.978,-2.154 v -3.69 c 0,-1.018 0.14,-1.616 0.938,-2.294 l 0.678,-0.579 c 0.898,-0.777 1.337,-0.798 2.115,-0.798 h 1.756 c 0.938,0 1.376,0.1 2.114,0.698 l 0.778,0.618 c 0.877,0.698 0.998,1.437 0.998,2.494 v 1.536 c 0,1.097 -0.18,1.416 -1.317,1.416 h -6.145 v 0.639 c 0,0.18 0.14,0.419 0.279,0.559 l 0.479,0.519 c 0.259,0.279 0.638,0.359 1.277,0.359 h 4.109 c 0.638,0 1.317,0.14 1.317,0.957 0,0.838 -0.758,0.958 -1.317,0.958 z m -1.596,-5.905 h 5.546 v -1.157 c 0,-0.358 0.02,-0.658 -0.239,-0.897 l -0.738,-0.639 c -0.239,-0.219 -0.618,-0.239 -0.917,-0.239 h -1.616 c -0.359,0 -0.659,0 -0.978,0.22 l -0.659,0.479 c -0.239,0.18 -0.399,0.319 -0.399,0.878 z"
   inkscape:connector-curvature="0"
   style="fill:#ffffff" />

				<path
   id="path3993"
   d="m 380.94,341.877 v -1.098 c 0,-0.658 0.14,-1.316 0.957,-1.316 0.818,0 0.958,0.658 0.958,1.316 v 0.778 c 0,0.479 -0.04,0.798 -0.239,1.217 l -4.828,10.514 c -0.419,0.897 -0.639,0.997 -1.517,0.997 h -1.476 c -0.559,0 -1.316,-0.119 -1.316,-0.957 0,-0.818 0.678,-0.958 1.316,-0.958 h 1.316 l 1.416,-2.933 h -0.1 c -0.798,0 -0.838,-0.358 -1.137,-1.018 l -2.354,-5.206 c -0.259,-0.579 -0.458,-1.018 -0.458,-1.576 v -0.858 c 0,-0.658 0.14,-1.316 0.957,-1.316 0.818,0 0.958,0.658 0.958,1.316 v 1.098 l 2.573,5.646 h 0.419 z"
   inkscape:connector-curvature="0"
   style="fill:#ffffff" />

				<path
   id="path3995"
   d="m 387.842,343.035 c 0,-1.277 0.259,-1.716 1.217,-2.494 0.938,-0.777 1.376,-1.077 2.713,-1.077 h 1.516 c 1.337,0 1.776,0.3 2.714,1.077 0.957,0.778 1.217,1.217 1.217,2.494 v 3.61 c 0,1.257 -0.319,1.736 -1.316,2.574 -0.998,0.838 -1.396,0.997 -2.614,0.997 h -1.516 c -1.217,0 -1.616,-0.159 -2.613,-0.997 -0.998,-0.838 -1.316,-1.317 -1.316,-2.574 v -3.61 z m 1.915,3.61 c 0,0.399 0.14,0.658 0.698,1.138 0.419,0.358 0.718,0.519 1.316,0.519 h 1.516 c 0.599,0 0.898,-0.16 1.317,-0.519 0.559,-0.479 0.698,-0.738 0.698,-1.138 v -3.61 c 0,-0.399 -0.14,-0.658 -0.698,-1.138 -0.419,-0.358 -0.719,-0.519 -1.317,-0.519 h -1.516 c -0.599,0 -0.897,0.16 -1.316,0.519 -0.559,0.479 -0.698,0.738 -0.698,1.138 z"
   inkscape:connector-curvature="0"
   style="fill:#ffffff" />

				<path
   id="path3997"
   d="m 411.582,348.8 c 0,0.438 0.079,1.416 -0.938,1.416 -0.818,0 -0.958,-0.679 -0.958,-1.337 v -0.319 l -1.556,1.018 c -0.619,0.399 -1.138,0.639 -1.656,0.639 h -1.416 c -0.539,0 -1.138,-0.159 -1.775,-0.698 -0.858,-0.738 -0.838,-1.556 -0.878,-2.594 l -0.199,-6.024 c -0.021,-0.698 0.079,-1.437 0.957,-1.437 0.818,0 0.918,0.698 0.938,1.316 l 0.199,5.886 c 0.021,0.438 0.04,0.957 0.2,1.236 0.159,0.279 0.658,0.399 1.117,0.399 h 0.638 c 0.22,0 0.419,-0.06 0.599,-0.18 l 2.813,-1.775 v -5.566 c 0,-0.658 0.14,-1.316 0.957,-1.316 0.818,0 0.958,0.658 0.958,1.316 z"
   inkscape:connector-curvature="0"
   style="fill:#ffffff" />

				<path
   id="path3999"
   d="m 416.569,340.88 c 0,-0.698 0.079,-1.417 0.957,-1.417 0.758,0 0.958,0.639 0.958,1.277 v 0.777 l 1.496,-1.236 c 0.538,-0.439 1.097,-0.818 1.695,-0.818 h 1.536 c 0.738,0 1.356,0.239 1.875,0.758 0.639,0.639 0.858,1.297 0.858,2.175 0,0.658 -0.12,1.337 -0.938,1.337 -0.698,0 -0.978,-0.559 -0.978,-1.177 0,-0.319 0,-0.559 -0.2,-0.838 -0.239,-0.34 -0.698,-0.34 -1.156,-0.34 h -0.559 c -0.359,0 -0.619,0.18 -0.958,0.459 l -2.673,2.215 v 4.848 c 0,0.658 -0.14,1.316 -0.958,1.316 -0.817,0 -0.957,-0.658 -0.957,-1.316 v -8.02 z"
   inkscape:connector-curvature="0"
   style="fill:#ffffff" />

				<path
   id="path4001"
   d="m 448.108,341.378 h -0.539 c -0.559,0 -1.316,-0.119 -1.316,-0.957 0,-0.818 0.679,-0.958 1.316,-0.958 h 0.539 v -0.259 c 0,-1.098 0.06,-1.896 0.918,-2.733 0.917,-0.878 1.775,-0.958 2.952,-0.958 h 1.297 c 0.658,0 1.396,0.061 1.396,0.958 0,0.818 -0.658,0.957 -1.316,0.957 h -1.497 c -1.296,0 -1.835,0.26 -1.835,1.656 v 0.379 h 1.695 c 0.639,0 1.317,0.14 1.317,0.958 0,0.838 -0.759,0.957 -1.317,0.957 h -1.695 v 7.521 c 0,0.658 -0.14,1.316 -0.958,1.316 -0.817,0 -0.957,-0.658 -0.957,-1.316 z"
   inkscape:connector-curvature="0"
   style="fill:#ffffff" />

				<path
   id="path4003"
   d="m 465.344,348.301 h 1.436 c 0.639,0 1.317,0.14 1.317,0.957 0,0.838 -0.759,0.958 -1.317,0.958 h -4.867 c -0.559,0 -1.316,-0.12 -1.316,-0.958 0,-0.817 0.678,-0.957 1.316,-0.957 h 1.516 v -10.873 h -1.516 c -0.559,0 -1.316,-0.119 -1.316,-0.957 0,-0.818 0.678,-0.958 1.316,-0.958 h 2.015 c 1.098,0 1.417,0.2 1.417,1.337 v 11.451 z"
   inkscape:connector-curvature="0"
   style="fill:#ffffff" />

				<path
   id="path4005"
   d="m 474.022,343.035 c 0,-1.277 0.259,-1.716 1.217,-2.494 0.938,-0.777 1.376,-1.077 2.713,-1.077 h 1.516 c 1.337,0 1.776,0.3 2.714,1.077 0.957,0.778 1.217,1.217 1.217,2.494 v 3.61 c 0,1.257 -0.319,1.736 -1.316,2.574 -0.998,0.838 -1.396,0.997 -2.614,0.997 h -1.516 c -1.217,0 -1.616,-0.159 -2.613,-0.997 -0.998,-0.838 -1.316,-1.317 -1.316,-2.574 v -3.61 z m 1.915,3.61 c 0,0.399 0.14,0.658 0.698,1.138 0.419,0.358 0.718,0.519 1.316,0.519 h 1.516 c 0.599,0 0.898,-0.16 1.317,-0.519 0.559,-0.479 0.698,-0.738 0.698,-1.138 v -3.61 c 0,-0.399 -0.14,-0.658 -0.698,-1.138 -0.419,-0.358 -0.719,-0.519 -1.317,-0.519 h -1.516 c -0.599,0 -0.897,0.16 -1.316,0.519 -0.559,0.479 -0.698,0.738 -0.698,1.138 z"
   inkscape:connector-curvature="0"
   style="fill:#ffffff" />

				<path
   id="path4007"
   d="m 494.031,345.788 1.037,1.775 0.599,-1.775 0.199,-4.947 c 0.021,-0.658 0.14,-1.377 0.958,-1.377 0.838,0 0.957,0.719 0.938,1.377 l -0.2,5.326 -0.938,2.833 c -0.199,0.578 -0.299,1.217 -0.978,1.217 h -0.737 c -0.34,0 -0.619,-0.359 -0.799,-0.618 l -1.037,-1.557 -1.037,1.557 c -0.18,0.259 -0.459,0.618 -0.798,0.618 H 490.5 c -0.679,0 -0.778,-0.639 -0.978,-1.217 l -0.938,-2.833 -0.199,-5.326 c -0.021,-0.658 0.1,-1.377 0.938,-1.377 0.817,0 0.938,0.719 0.957,1.377 l 0.199,4.947 0.599,1.775 1.038,-1.775 v -1.756 c 0,-0.658 0.14,-1.336 0.957,-1.336 0.818,0 0.958,0.678 0.958,1.336 z"
   inkscape:connector-curvature="0"
   style="fill:#ffffff" />

			</g>

			<line
   id="line4011"
   y2="349.45599"
   x2="269.01099"
   y1="349.45599"
   x1="148.804"
   style="fill:none;stroke:#ffffff;stroke-width:2" />

			<line
   id="line4013"
   y2="349.87201"
   x2="656.68201"
   y1="349.87201"
   x1="524.302"
   style="fill:none;stroke:#ffffff;stroke-width:2" />

			<g
   id="g4033">
				<polyline
   id="polyline4015"
   points="148.862,356.851 148.862,245.682 662.498,245.682 662.498,356.851     "
   style="fill:none" />

				<path
   id="path4017"
   d="m 158.725,246.467 c 0,-2.793 1.222,-4.363 4.364,-4.363 3.142,0 4.364,1.57 4.364,4.363 v 20.074 l 26.62,-22.604 c 1.047,-0.873 2.182,-1.746 3.579,-1.746 2.531,0 4.189,2.095 4.189,4.539 0,1.483 -0.96,2.705 -2.007,3.665 l -30.111,25.66 29.937,25.66 c 1.135,0.96 2.182,2.182 2.182,3.753 0,2.443 -1.658,4.538 -4.189,4.538 -1.833,0 -3.316,-1.571 -4.713,-2.618 l -25.485,-21.907 v 20.161 c 0,2.793 -1.222,4.364 -4.364,4.364 -3.142,0 -4.364,-1.571 -4.364,-4.364 v -59.175 z"
   inkscape:connector-curvature="0"
   style="fill:#ffffff" />

				<path
   id="path4019"
   d="m 260.316,301.279 c 2.269,0 4.364,1.222 4.364,4.363 0,3.143 -2.095,4.364 -4.364,4.364 h -38.752 v -67.902 h 38.752 c 2.269,0 4.364,1.222 4.364,4.363 0,3.143 -2.095,4.364 -4.364,4.364 h -30.024 v 20.859 h 12.83 c 2.269,0 4.364,1.222 4.364,4.364 0,3.142 -2.095,4.364 -4.364,4.364 h -12.83 v 20.859 h 30.024 z"
   inkscape:connector-curvature="0"
   style="fill:#ffffff" />

				<path
   id="path4021"
   d="m 310.325,305.642 c 0,2.793 -1.222,4.364 -4.364,4.364 -3.142,0 -4.364,-1.571 -4.364,-4.364 v -27.929 l -17.194,-22.344 v -8.902 c 0,-2.793 1.222,-4.363 4.364,-4.363 3.142,0 4.364,1.57 4.364,4.363 v 5.936 l 12.83,16.67 12.83,-16.67 v -5.936 c 0,-2.793 1.222,-4.363 4.364,-4.363 3.142,0 4.364,1.57 4.364,4.363 v 8.902 l -17.194,22.344 z"
   inkscape:connector-curvature="0"
   style="fill:#ffffff" />

				<path
   id="path4023"
   d="m 387.303,292.9 c 1.746,2.27 3.055,4.276 3.055,7.244 0,6.546 -4.975,9.862 -10.997,9.862 H 360.16 c -3.316,0 -6.196,-0.611 -8.815,-2.793 -2.356,-1.92 -4.102,-5.063 -4.102,-8.117 0,-2.793 1.571,-5.236 4.626,-5.236 2.531,0 4.102,2.095 4.102,4.451 0,2.618 1.396,2.968 3.84,2.968 h 18.939 c 0.698,0 2.88,0.262 2.88,-1.048 0,-0.698 -1.222,-2.007 -1.571,-2.531 l -29.936,-38.489 c -1.833,-2.356 -2.88,-4.103 -2.88,-7.157 0,-3.491 1.658,-6.458 4.626,-8.379 2.444,-1.57 4.451,-1.57 7.244,-1.57 h 18.503 c 3.316,0 6.109,0.698 8.641,2.88 2.27,2.008 4.102,5.236 4.102,8.292 0,2.792 -1.396,5.062 -4.538,5.062 -2.618,0 -4.189,-1.658 -4.189,-4.102 0,-2.968 -1.483,-3.404 -4.189,-3.404 H 358.94 c -0.96,0 -2.967,-0.262 -2.967,1.222 0,0.786 0.96,1.833 1.309,2.356 z"
   inkscape:connector-curvature="0"
   style="fill:#ffffff" />

				<path
   id="path4025"
   d="m 433.561,310.006 c -6.546,0 -10.3,-2.618 -13.092,-8.291 l -8.03,-16.234 c -1.483,-2.968 -2.356,-5.76 -2.356,-9.164 0,-3.84 0.698,-6.196 2.444,-9.688 l 8.029,-16.146 c 2.968,-6.022 6.721,-8.379 13.44,-8.379 h 14.838 c 1.92,0 4.363,1.047 4.363,4.363 0,3.143 -2.356,4.364 -4.363,4.364 h -14.576 c -3.753,0 -4.363,0.35 -6.021,3.666 l -7.594,15.187 c -1.135,2.356 -1.833,3.927 -1.833,6.633 0,2.443 0.786,3.928 1.833,6.022 l 7.419,15.099 c 1.745,3.579 2.618,3.841 6.546,3.841 h 14.227 c 1.92,0 4.363,1.047 4.363,4.363 0,3.143 -2.356,4.364 -4.363,4.364 z"
   inkscape:connector-curvature="0"
   style="fill:#ffffff" />

				<path
   id="path4027"
   d="m 513.769,266.629 c 1.658,3.403 2.269,5.935 2.269,9.688 0,4.189 -1.134,6.808 -2.88,10.386 l -8.029,16.06 c -2.095,4.189 -5.586,7.244 -10.648,7.244 -5.062,0 -8.553,-3.055 -10.647,-7.244 l -8.03,-16.06 c -1.745,-3.578 -2.88,-6.196 -2.88,-10.386 0,-3.753 0.611,-6.284 2.27,-9.688 l 8.728,-17.369 c 2.095,-4.102 5.673,-7.156 10.561,-7.156 4.888,0 8.466,3.055 10.561,7.156 z M 497.448,253.45 c -0.698,-1.396 -1.135,-2.618 -2.968,-2.618 -1.833,0 -2.269,1.222 -2.967,2.618 l -7.855,15.798 c -1.31,2.531 -2.008,4.189 -2.008,7.069 0,2.27 0.524,3.84 1.484,5.761 l 8.379,16.583 c 0.61,1.222 1.222,2.618 2.967,2.618 1.746,0 2.356,-1.396 2.968,-2.618 l 8.379,-16.583 c 0.96,-1.921 1.483,-3.491 1.483,-5.761 0,-2.88 -0.698,-4.538 -2.007,-7.069 z"
   inkscape:connector-curvature="0"
   style="fill:#ffffff" />

				<path
   id="path4029"
   d="m 544.49,305.642 c 0,2.793 -1.222,4.364 -4.363,4.364 -3.143,0 -4.364,-1.571 -4.364,-4.364 v -63.538 h 29.325 c 6.896,0 13.79,4.888 13.79,12.655 v 6.022 c 0,8.204 -6.808,12.394 -13.79,12.394 h -8.029 l 19.638,28.104 c 0.96,1.309 2.182,2.967 2.182,4.625 0,2.444 -2.007,4.103 -4.451,4.103 -1.745,0 -2.88,-1.047 -3.84,-2.443 l -24.089,-34.388 h -2.008 v 32.466 z m 0,-41.195 h 19.376 c 2.444,0 6.284,-0.174 6.284,-3.665 v -6.022 c 0,-3.491 -3.578,-3.928 -6.196,-3.928 H 544.49 Z"
   inkscape:connector-curvature="0"
   style="fill:#ffffff" />

				<path
   id="path4031"
   d="m 637.354,301.279 c 2.269,0 4.363,1.222 4.363,4.363 0,3.143 -2.095,4.364 -4.363,4.364 h -38.752 v -67.902 h 38.752 c 2.269,0 4.363,1.222 4.363,4.363 0,3.143 -2.095,4.364 -4.363,4.364 H 607.33 v 20.859 h 12.83 c 2.27,0 4.364,1.222 4.364,4.364 0,3.142 -2.095,4.364 -4.364,4.364 h -12.83 v 20.859 h 30.024 z"
   inkscape:connector-curvature="0"
   style="fill:#ffffff" />

			</g>

		</g>

		
		
		
		
		
		
		
		
		
		
		
		
		
		
		
		
		
		
		
	</g>

	<path
   id="path4085"
   d="M 279.921,377.325"
   inkscape:connector-curvature="0"
   style="fill:none;stroke:#000000;stroke-width:4" />

</g>
    </g>
  </g>
</svg>
