<?xml version="1.0" encoding="utf-8"?>
<!-- Generator: Adobe Illustrator 12.0.0, SVG Export Plug-In . SVG Version: 6.00 Build 51448)  -->
<!DOCTYPE svg PUBLIC "-//W3C//DTD SVG 1.1//EN" "http://www.w3.org/Graphics/SVG/1.1/DTD/svg11.dtd" [
	<!ENTITY ns_svg "http://www.w3.org/2000/svg">
	<!ENTITY ns_xlink "http://www.w3.org/1999/xlink">
]>
<svg  version="1.1" id="Ebene_1" xmlns="&ns_svg;" xmlns:xlink="&ns_xlink;" width="989.127" height="575.014"
	 viewBox="0 0 989.127 575.014" overflow="visible" enable-background="new 0 0 989.127 575.014" xml:space="preserve">
<g>
	<g>
		<g>
			
				<line fill-rule="evenodd" clip-rule="evenodd" fill="none" stroke="#000000" stroke-width="2" x1="599.097" y1="444.159" x2="599.097" y2="437.575"/>
			
				<line fill-rule="evenodd" clip-rule="evenodd" fill="none" stroke="#000000" stroke-width="2" x1="626.542" y1="466.28" x2="620.367" y2="466.28"/>
			<polygon fill-rule="evenodd" clip-rule="evenodd" stroke="#000000" stroke-width="2" points="599.93,447.79 592.066,452.663 
				593.806,456.891 602.395,453.825 			"/>
			
				<line fill-rule="evenodd" clip-rule="evenodd" fill="none" stroke="#000000" stroke-width="2" x1="647.726" y1="437.42" x2="647.726" y2="444.004"/>
			<path fill-rule="evenodd" clip-rule="evenodd" fill="none" stroke="#000000" stroke-width="2" d="M599.743,434.563"/>
			
				<line fill-rule="evenodd" clip-rule="evenodd" fill="none" stroke="#000000" stroke-width="2" x1="608.498" y1="461.286" x2="604.206" y2="456.553"/>
			<polygon fill-rule="evenodd" clip-rule="evenodd" stroke="#000000" stroke-width="2" points="611.441,463.221 608.986,472.559 
				613,474.299 617.154,465.719 			"/>
			<path fill-rule="evenodd" clip-rule="evenodd" fill="none" stroke="#000000" stroke-width="2" d="M647.314,434.715"/>
			<polygon fill-rule="evenodd" clip-rule="evenodd" stroke="#000000" stroke-width="2" points="647.123,447.477 644.781,453.567 
				653.541,456.182 655.173,451.905 			"/>
			
				<line fill-rule="evenodd" clip-rule="evenodd" fill="none" stroke="#000000" stroke-width="2" x1="643.056" y1="456.405" x2="638.656" y2="461.026"/>
			<polygon fill-rule="evenodd" clip-rule="evenodd" stroke="#000000" stroke-width="2" points="635.603,463.02 629.898,465.536 
				634.323,474.008 638.322,472.231 			"/>
		</g>
	</g>
	<polygon fill-rule="evenodd" clip-rule="evenodd" points="643.667,456.234 637.185,462.715 629.525,450.812 631.763,448.573 	"/>
	<polygon fill-rule="evenodd" clip-rule="evenodd" points="609.717,462.548 603.236,456.067 615.139,448.406 617.378,450.644 	"/>
	<path fill="none" stroke="#000000" stroke-width="5" d="M647.521,439.398c0.037,0.554,0.056,1.112,0.056,1.675
		c0,13.485-10.782,24.416-24.083,24.416c-13.302,0-24.084-10.931-24.084-24.416c0-0.565,0.02-1.126,0.057-1.682"/>
	<path fill-rule="evenodd" clip-rule="evenodd" fill="none" stroke="#000000" stroke-width="7" d="M632.037,438.376
		c0.594,1.247,0.926,2.643,0.926,4.115c0,5.292-4.291,9.583-9.584,9.583c-5.292,0-9.582-4.291-9.582-9.583
		c0-1.475,0.333-2.871,0.928-4.119"/>
</g>
<g>
	<g>
		<line fill="none" x1="243.628" y1="36.684" x2="243.628" y2="82.241"/>
		<path d="M240.641,36.4c0,15.186,0,30.372,0,45.557c0,3.841,5.975,4.431,5.975,0.566c0-15.186,0-30.372,0-45.557
			C246.615,33.125,240.641,32.536,240.641,36.4L240.641,36.4z"/>
	</g>
</g>
<g>
	<line fill="#BF2D2D" x1="243.961" y1="98.646" x2="243.961" y2="189.574"/>
	<g>
		<line fill="none" x1="243.961" y1="98.646" x2="243.961" y2="189.574"/>
		<path d="M240.974,98.363c0,30.31,0,60.619,0,90.928c0,3.841,5.975,4.431,5.975,0.566c0-30.31,0-60.619,0-90.928
			C246.949,95.088,240.974,94.499,240.974,98.363L240.974,98.363z"/>
	</g>
</g>
<g>
	<path fill-rule="evenodd" clip-rule="evenodd" fill="none" stroke="#000000" stroke-width="7" d="M674.327,431.424
		c-1.171,3.191-2.038,6.549-2.565,10.041c-4.214,27.941,15.02,54.012,42.963,58.226c27.942,4.215,54.011-15.023,58.225-42.965
		c0.501-3.32,0.672-6.612,0.535-9.845c0,0,0.146-6.178-2.976-11.976"/>
	<g>
		<g>
			<g>
				<g>
					<path d="M707.347,518.042l8.806,1.354l4.912-18.047l-12.556-1.895L707.347,518.042z M678.455,475.949L664.58,488.49
						l5.188,7.242l16.053-9.44L678.455,475.949z M673.53,438.184l-18.691-0.631l-1.306,8.813l18.104,4.374L673.53,438.184z
						 M672.287,457.922l-17.391,6.884l2.321,8.599l18.345-3.214L672.287,457.922z M683.569,507.942l7.659,4.551l10.913-15.091
						l-10.896-6.516L683.569,507.942z M761.798,482.693l17.057,7.673l4.548-7.657l-15.092-10.914L761.798,482.693z M772.432,452.8
						l-1.894,12.558l18.588,1.157l1.354-8.803L772.432,452.8z M747.205,495.042l12.674,13.755l7.19-5.256l-9.594-15.963
						L747.205,495.042z M728.248,499.969l6.411,18.505l8.643-2.163l-2.729-19.39L728.248,499.969z"/>
				</g>
				<g>
					<path fill="none" stroke="#000000" stroke-width="3" d="M707.347,518.042l8.806,1.354l4.912-18.047l-12.556-1.895
						L707.347,518.042z M678.455,475.949L664.58,488.49l5.188,7.242l16.053-9.44L678.455,475.949z M673.53,438.184l-18.691-0.631
						l-1.306,8.813l18.104,4.374L673.53,438.184z M672.287,457.922l-17.391,6.884l2.321,8.599l18.345-3.214L672.287,457.922z
						 M683.569,507.942l7.659,4.551l10.913-15.091l-10.896-6.516L683.569,507.942z M761.798,482.693l17.057,7.673l4.548-7.657
						l-15.092-10.914L761.798,482.693z M772.432,452.8l-1.894,12.558l18.588,1.157l1.354-8.803L772.432,452.8z M747.205,495.042
						l12.674,13.755l7.19-5.256l-9.594-15.963L747.205,495.042z M728.248,499.969l6.411,18.505l8.643-2.163l-2.729-19.39
						L728.248,499.969z"/>
				</g>
			</g>
			
				<circle fill-rule="evenodd" clip-rule="evenodd" fill="none" stroke="#000000" stroke-width="3" cx="722.451" cy="452.498" r="18.417"/>
			<path fill-rule="evenodd" clip-rule="evenodd" stroke="#000000" stroke-width="2" d="M725.355,499.826
				c-6.578-14.696,1.639-28.45,1.639-28.45c-7.473,4.199-15.716-3.354-15.716-3.354s1.889,15.911-10.114,26.644
				c0,0,7.573,6.833,23.529,5.53L725.355,499.826z"/>
			<path fill-rule="evenodd" clip-rule="evenodd" stroke="#000000" stroke-width="2" d="M769.856,451.814
				c-14.696,6.579-28.451-1.638-28.451-1.638c4.2,7.473-3.353,15.716-3.353,15.716s15.911-1.889,26.643,10.114
				c0,0,6.834-7.574,5.53-23.53L769.856,451.814z"/>
			<path fill-rule="evenodd" clip-rule="evenodd" stroke="#000000" stroke-width="2" d="M674.998,456.742
				c14.694-6.579,28.45,1.639,28.45,1.639c-4.2-7.472,3.352-15.715,3.352-15.715s-15.91,1.888-26.642-10.115
				c0,0-6.834,7.573-5.531,23.528L674.998,456.742z"/>
		</g>
		<g>
			<circle stroke="#FFFFFF" stroke-width="2" cx="942.477" cy="331.169" r="13.219"/>
			<path fill="none" stroke="#020202" stroke-width="3" d="M840.695,288.95l84.272,43.644c0,0-1.604-21.056,17.948-18.298
				l-66.629-64.816"/>
			<line fill="none" stroke="#020202" x1="885.535" y1="268.705" x2="931.415" y2="310.447"/>
			<path stroke="#000000" stroke-width="4" d="M809.564,298.583c-6.041,0-10.943-4.9-10.943-10.942v-43.318
				c0-6.042,4.902-10.942,10.943-10.942l28.726,9.119c6.045,0,10.944,6.724,10.944,12.768v24.166
				c0,6.042-4.899,12.767-10.944,12.767L809.564,298.583z"/>
			<circle fill="#010101" stroke="#FFFFFF" stroke-width="3" cx="856.667" cy="265.703" r="26.463"/>
			<path fill="none" stroke="#000000" stroke-width="2" d="M831.759,244.843c0,0-16.188,25.841,2.492,42.965"/>
			<g>
				<g>
					<g>
						<g>
							<path d="M914.24,453.958c-0.013-1.789-0.269-3.516-0.692-5.174l6.676-3.499l-1.427-3.456l-7.152,2.052
								c-1.892-3.483-4.724-6.368-8.146-8.351l2.068-6.732l-3.462-1.411l-3.346,6.104c-1.951-0.567-4.012-0.875-6.147-0.86
								c-2.104,0.015-4.13,0.344-6.047,0.921l-3.419-6.032l-3.437,1.459l2.139,6.649c-3.391,2.007-6.191,4.899-8.05,8.381
								l-7.14-1.943l-1.379,3.468l6.659,3.384c-0.426,1.71-0.67,3.491-0.658,5.334c0.014,1.995,0.32,3.916,0.842,5.745l-6.396,3.782
								l1.523,3.408l6.909-2.365c1.944,3.365,4.77,6.148,8.164,8.041l-1.889,6.922l3.475,1.384l3.222-6.354
								c1.842,0.499,3.773,0.78,5.774,0.767c2.064-0.014,4.053-0.335,5.938-0.891l3.464,6.12l3.44-1.472l-2.157-6.705
								c3.391-1.986,6.193-4.862,8.066-8.322l7.138,1.946l1.382-3.471l-6.628-3.364C913.996,457.671,914.252,455.847,914.24,453.958
								z"/>
						</g>
						<g>
							<path fill="none" stroke="#000000" d="M914.24,453.958c-0.013-1.789-0.269-3.516-0.692-5.174l6.676-3.499l-1.427-3.456
								l-7.152,2.052c-1.892-3.483-4.724-6.368-8.146-8.351l2.068-6.732l-3.462-1.411l-3.346,6.104
								c-1.951-0.567-4.012-0.875-6.147-0.86c-2.104,0.015-4.13,0.344-6.047,0.921l-3.419-6.032l-3.437,1.459l2.139,6.649
								c-3.391,2.007-6.191,4.899-8.05,8.381l-7.14-1.943l-1.379,3.468l6.659,3.384c-0.426,1.71-0.67,3.491-0.658,5.334
								c0.014,1.995,0.32,3.916,0.842,5.745l-6.396,3.782l1.523,3.408l6.909-2.365c1.944,3.365,4.77,6.148,8.164,8.041l-1.889,6.922
								l3.475,1.384l3.222-6.354c1.842,0.499,3.773,0.78,5.774,0.767c2.064-0.014,4.053-0.335,5.938-0.891l3.464,6.12l3.44-1.472
								l-2.157-6.705c3.391-1.986,6.193-4.862,8.066-8.322l7.138,1.946l1.382-3.471l-6.628-3.364
								C913.996,457.671,914.252,455.847,914.24,453.958z"/>
						</g>
					</g>
					<path fill-rule="evenodd" clip-rule="evenodd" fill="#FFFFFF" stroke="#FFFFFF" d="M892.786,443.205
						c-6.419,0.05-11.583,5.285-11.541,11.706c0.049,6.414,5.29,11.583,11.705,11.541c6.418-0.043,11.582-5.284,11.541-11.699
						C904.449,448.335,899.204,443.161,892.786,443.205z"/>
				</g>
				<path fill="none" stroke="#FFFFFF" d="M908.849,452.318c1.275,8.796-4.817,16.969-13.612,18.249
					c-8.793,1.277-16.965-4.813-18.248-13.612c-1.28-8.799,4.816-16.969,13.61-18.244
					C899.396,437.426,907.57,443.52,908.849,452.318z"/>
			</g>
			<circle fill="#FFFFFF" cx="857.025" cy="265.345" r="14.321"/>
			<circle fill="#FFFFFF" cx="942.55" cy="330.81" r="7.153"/>
			<path fill="none" stroke="#020202" stroke-width="3" d="M920.146,405.811l29.538-58.271c-14.701,6.424-23.073-8.738-23.073-8.738
				l-23.591,60.704L920.146,405.811z"/>
			<polyline fill="none" stroke="#000000" stroke-width="2" points="904.329,399.369 899.687,419.398 908.991,422.429 
				918.517,405.051 			"/>
			<line fill="none" stroke="#020202" x1="939.295" y1="356.196" x2="919.979" y2="395.39"/>
			<circle cx="857.025" cy="265.343" r="8.674"/>
			<circle cx="942.492" cy="330.785" r="5.235"/>
			<polygon stroke="#000000" points="874.212,442.469 866.647,427.281 872.558,407.005 902.996,405.415 899.813,417.319 
				878.314,415 872.828,427.111 			"/>
			<polygon fill="#010101" stroke="#000000" points="914.051,456.537 929.725,450.046 938.5,431.072 916.576,409.896 
				911.168,420.958 928.907,433.325 925.179,445.861 			"/>
		</g>
		<path fill="#FFFFFF" stroke="#000000" stroke-width="2" d="M151.782,404.48"/>
		<g>
			<path fill="none" stroke="#000000" stroke-width="4" d="M310.675,436.582"/>
			<g>
				<rect x="670" y="85.969" fill="none" stroke="#020202" stroke-width="3" width="24.486" height="130.595"/>
				<rect x="706.601" y="49.599" fill="none" stroke="#020202" stroke-width="3" width="24.487" height="167.326"/>
				<rect x="741.08" y="123.381" fill="none" stroke="#020202" stroke-width="3" width="24.486" height="93.183"/>
				<rect x="638.199" y="183.343" fill="none" stroke="#020202" stroke-width="3" width="24.489" height="33.157"/>
				<polyline fill="none" stroke="#020202" stroke-width="4" points="241.974,217.431 799.34,217.431 780.834,208.37 				"/>
				<g>
					<g>
						<g>
							<line fill="none" x1="174.558" y1="73.907" x2="174.558" y2="183.353"/>
							<path d="M171.571,73.624c0,36.482,0,72.964,0,109.446c0,3.841,5.975,4.431,5.975,0.566c0-36.482,0-72.964,0-109.446
								C177.545,70.349,171.571,69.759,171.571,73.624L171.571,73.624z"/>
						</g>
					</g>
					<g>
						<g>
							<line fill="none" x1="174.558" y1="35.835" x2="174.558" y2="58.906"/>
							<path d="M171.571,35.552c0,7.69,0,15.381,0,23.071c0,3.841,5.975,4.431,5.975,0.566c0-7.69,0-15.38,0-23.071
								C177.545,32.277,171.571,31.688,171.571,35.552L171.571,35.552z"/>
						</g>
					</g>
					<g>
						<g>
							<line fill="none" x1="209.554" y1="35.835" x2="209.554" y2="212.906"/>
							<path d="M206.566,35.552c0,49.926,0,99.851,0,149.777c0,9.098,0,18.196,0,27.293c0,3.841,5.975,4.431,5.975,0.566
								c0-49.926,0-99.851,0-149.777c0-9.098,0-18.196,0-27.293C212.541,32.277,206.566,31.688,206.566,35.552L206.566,35.552z"/>
						</g>
					</g>
					<path fill="none" stroke="#000000" stroke-width="4" d="M187.508,66.122c0,3.49-2.833,6.323-6.324,6.323h-12.921
						c-3.49,0-6.324-2.833-6.324-6.323l0,0c0-3.493,2.833-6.323,6.324-6.323h12.921C184.675,59.798,187.508,62.628,187.508,66.122
						L187.508,66.122z"/>
					<path fill="none" stroke="#000000" stroke-width="4" d="M255.388,90.322c0,3.491-2.833,6.324-6.324,6.324h-7.603h-5.318
						c-3.49,0-6.323-2.833-6.323-6.324l0,0c0-3.492,2.833-6.323,6.323-6.323h12.921C252.555,83.999,255.388,86.83,255.388,90.322
						L255.388,90.322z"/>
					<path fill="#010101" d="M227.3,115.64c0,4.803-3.895,8.694-8.694,8.694h-17.767c-4.799,0-8.694-3.892-8.694-8.694l0,0
						c0-4.803,3.895-8.694,8.694-8.694h17.767C223.405,106.946,227.3,110.837,227.3,115.64L227.3,115.64z"/>
				</g>
				<polyline fill="none" stroke="#020202" stroke-width="5" points="283.749,221.38 369.135,120.108 423.742,195.564 
					452.038,130.533 561.253,107.697 644.653,25.786 				"/>
				<g>
					<g>
						<polyline fill="none" stroke="#000000" stroke-width="4" points="166.839,438.685 134.558,449.535 134.558,487.509 
							122.394,490.302 						"/>
						<path fill="none" stroke="#000000" stroke-width="4" d="M123.74,492.999c0,2.979-2.397,5.396-5.349,5.396
							c-2.956,0-5.35-2.417-5.35-5.396c0-2.976,2.394-5.39,5.35-5.39C121.343,487.609,123.74,490.023,123.74,492.999z"/>
						<polyline fill="none" stroke="#000000" stroke-width="4" points="151.69,443.851 151.882,461.417 134.572,474.056 						"/>
					</g>
					<g>
						<g>
							<polyline fill="none" stroke="#000000" stroke-width="4" points="233.767,428.294 233.767,432.631 233.767,540.421 
								242.904,545.529 							"/>
							<polyline fill="none" stroke="#000000" stroke-width="4" points="246.743,428.294 246.743,519.845 266.546,530.604 							
								"/>
							<polyline fill="none" stroke="#000000" stroke-width="4" points="169.705,522.583 178.096,515.819 178.096,515.328 
								178.096,431.058 							"/>
							<path fill="none" stroke="#000000" stroke-width="4" d="M250.08,548.598c0,2.862-2.318,5.184-5.181,5.184
								s-5.184-2.321-5.184-5.184c0-2.859,2.321-5.181,5.184-5.181S250.08,545.739,250.08,548.598z"/>
							<circle fill="none" stroke="#000000" stroke-width="4" cx="303.056" cy="498.103" r="5.182"/>
							<polyline fill="none" stroke="#000000" stroke-width="4" points="246.557,488.974 290.491,513.257 301.341,501.144 							
								"/>
							<polyline fill="none" stroke="#000000" stroke-width="4" points="177.799,460.615 188.722,499.554 188.475,520.405 
								188.475,537.92 184.007,547.417 							"/>
							<polyline fill="none" stroke="#000000" stroke-width="4" points="178.794,433.871 204.112,489.926 204.112,513.121 
								204.112,513.844 188.475,534.497 							"/>
							<circle fill="none" stroke="#000000" stroke-width="4" cx="166.355" cy="524.388" r="5.182"/>
							<path fill="none" stroke="#000000" stroke-width="4" d="M274.92,532.083c0,2.861-2.321,5.183-5.184,5.183
								s-5.181-2.321-5.181-5.183c0-2.859,2.318-5.181,5.181-5.181S274.92,529.223,274.92,532.083z"/>
							<polyline fill="none" stroke="#000000" stroke-width="4" points="233.767,432.631 215.035,453.482 215.035,564.48 							"/>
							<circle fill="none" stroke="#000000" stroke-width="4" cx="215.283" cy="567.831" r="5.182"/>
							<path fill="none" stroke="#000000" stroke-width="4" d="M186.954,550.393c0,2.862-2.321,5.183-5.181,5.183
								c-2.862,0-5.184-2.32-5.184-5.183c0-2.859,2.321-5.181,5.184-5.181C184.632,545.212,186.954,547.534,186.954,550.393z"/>
						</g>
						<polyline fill="none" stroke="#000000" stroke-width="4" points="177.887,457.432 151.205,482.502 151.205,502.937 
							140.404,513.735 						"/>
						<circle fill="none" stroke="#000000" stroke-width="4" cx="137.648" cy="516.583" r="5.182"/>
						<polyline fill="none" stroke="#000000" stroke-width="4" points="246.766,453.586 261.287,460.536 274.318,504.318 						"/>
					</g>
				</g>
				<g>
					<g>
						<g>
							<g>
								<path fill="none" d="M125.506,336.881c0,4.261-3.453,7.717-7.717,7.717c-4.262,0-7.714-3.456-7.714-7.717
									c0-4.262,3.453-7.715,7.714-7.715C122.053,329.167,125.506,332.62,125.506,336.881z"/>
								<path d="M124.012,336.74c-0.417,7.742-11.161,8.425-12.415,0.722c-0.572-3.51,2.453-6.258,5.611-6.772
									c3.916-0.638,6.633,2.979,6.82,6.453c0.104,1.929,3.057,1.385,2.954-0.521c-0.269-5.004-4.081-8.68-9.052-8.948
									c-5.155-0.277-9.088,4.208-9.35,9.067c-0.277,5.154,4.208,9.09,9.066,9.352c5.155,0.278,9.09-4.21,9.352-9.069
									C127.104,335.093,124.116,334.808,124.012,336.74z"/>
							</g>
						</g>
						<g>
							<path d="M125.372,332.461c-1.044-3.386-4.325-3.217-4.325-3.217s-2.06-0.535-2.342-0.229l12.895-15.029l2.385,1.187
								l-8.121,18.305"/>
						</g>
						<g>
							<path fill="#010101" d="M128.595,314.011l-2.446,1.932c0,0-18.555-1.507-26.391,2.635
								C99.758,318.578,114.427,310.998,128.595,314.011z"/>
						</g>
						<g>
							<g>
								<path fill="none" d="M152.717,331.674c-2.891-16.44-17.243-28.931-34.51-28.931c-19.352,0-35.039,15.689-35.039,35.042
									c0,19.352,15.687,35.039,35.039,35.039c0.669,0,1.335-0.018,1.996-0.056c0,0,8.715,0.975,19.119-6.829"/>
								<path d="M157.149,330.893c-3.56-18.125-18.592-31.487-37.085-32.602c-18.171-1.096-34.779,11.407-39.864,28.617
									c-5.053,17.1,2.707,35.636,17.742,44.819c14.095,8.608,31.118,7.063,44.292-2.354c4.72-3.375-1.126-10.222-5.823-6.865
									c-9.72,6.949-21.252,7.583-32.05,2.535c-12.872-6.019-19.136-21.596-15.719-35.01c3.357-13.182,15.648-22.547,29.141-22.808
									c15.002-0.289,27.661,10.763,30.503,25.231C149.403,338.144,158.269,336.592,157.149,330.893L157.149,330.893z"/>
							</g>
						</g>
					</g>
					<g>
						<g>
							<g>
								<circle fill="none" cx="92.625" cy="246.443" r="18.869"/>
								<path d="M108.507,246.16c-0.308,8.75-6.617,15.849-15.599,16.165c-8.749,0.308-15.865-7.08-16.165-15.599
									c-0.308-8.75,7.079-15.865,15.599-16.165C101.092,230.253,108.208,237.639,108.507,246.16
									c0.134,3.817,6.11,4.419,5.975,0.566c-0.425-12.107-9.236-21.706-21.573-22.14c-12.104-0.426-21.729,9.875-22.14,21.573
									c-0.425,12.104,9.876,21.729,21.573,22.14c12.104,0.426,21.729-9.876,22.14-21.573
									C114.617,242.87,108.643,242.294,108.507,246.16z"/>
							</g>
						</g>
						<g>
							<path d="M107.742,238.507c-3.083-9.541-12.813-9.058-12.813-9.058s-6.105-1.501-6.949-0.64l38.294-42.424l7.068,3.342
								l-24.149,51.637"/>
						</g>
						<g>
							<path d="M118.903,182.154l-7.31,7.685c0,0-55.464-5.998-78.886,10.491C32.708,200.33,76.554,170.164,118.903,182.154z"/>
						</g>
						<g>
							<g>
								<path fill="none" d="M142.304,308.562"/>
								<path d="M141.879,313.043c5.762,0,6.646-8.962,0.85-8.962C136.967,304.081,136.083,313.043,141.879,313.043L141.879,313.043
									z"/>
							</g>
						</g>
						<g>
							<g>
								<path fill="none" d="M174.559,228.249c-7.068-40.202-42.163-70.747-84.389-70.747c-47.323,0-85.687,38.363-85.687,85.689
									c0,44.285,33.599,80.727,76.698,85.218"/>
								<path d="M178.991,227.467c-8.528-46.291-51.25-78.126-97.935-73.998c-45.446,4.019-80.691,44.206-81.053,89.296
									c-0.369,45.973,35.398,85.024,80.754,90.124c5.782,0.65,6.604-8.315,0.85-8.962c-22.853-2.569-43.176-14.421-56.961-32.777
									c-13.952-18.578-18.406-42.741-13.836-65.301c9.4-46.411,59.499-73.895,103.942-60.065
									c28.662,8.919,49.974,33.924,55.376,63.246C171.179,234.735,180.042,233.177,178.991,227.467L178.991,227.467z"/>
							</g>
						</g>
					</g>
					<g>
						<polyline fill="none" points="177.337,416.098 177.337,283.313 989.127,283.313 989.127,416.098 						"/>
						<path d="M189.117,284.251c0-3.336,1.459-5.212,5.212-5.212s5.212,1.876,5.212,5.212v23.978l31.796-27
							c1.251-1.043,2.606-2.085,4.274-2.085c3.023,0,5.004,2.502,5.004,5.421c0,1.772-1.147,3.231-2.398,4.378l-35.966,30.649
							l35.758,30.65c1.355,1.146,2.606,2.605,2.606,4.482c0,2.919-1.981,5.421-5.004,5.421c-2.189,0-3.961-1.877-5.63-3.128
							l-30.441-26.166v24.081c0,3.336-1.459,5.213-5.212,5.213s-5.212-1.877-5.212-5.213V284.251z"/>
						<path d="M310.463,349.72c2.71,0,5.212,1.459,5.212,5.212s-2.502,5.213-5.212,5.213h-46.287v-81.106h46.287
							c2.71,0,5.212,1.459,5.212,5.212s-2.502,5.212-5.212,5.212h-35.862v24.916h15.325c2.711,0,5.213,1.459,5.213,5.212
							s-2.502,5.212-5.213,5.212h-15.325v24.916H310.463z"/>
						<path d="M370.197,354.932c0,3.336-1.46,5.213-5.213,5.213s-5.212-1.877-5.212-5.213v-33.359l-20.538-26.688v-10.634
							c0-3.336,1.459-5.212,5.212-5.212s5.212,1.876,5.212,5.212v7.089l15.325,19.912l15.325-19.912v-7.089
							c0-3.336,1.459-5.212,5.212-5.212s5.213,1.876,5.213,5.212v10.634l-20.537,26.688V354.932z"/>
						<path d="M462.144,339.712c2.085,2.71,3.648,5.107,3.648,8.652c0,7.818-5.941,11.78-13.135,11.78h-22.936
							c-3.961,0-7.401-0.729-10.529-3.336c-2.814-2.294-4.899-6.047-4.899-9.695c0-3.336,1.877-6.255,5.525-6.255
							c3.023,0,4.899,2.502,4.899,5.316c0,3.128,1.668,3.545,4.587,3.545h22.622c0.834,0,3.44,0.313,3.44-1.251
							c0-0.834-1.459-2.398-1.876-3.023l-35.758-45.974c-2.189-2.815-3.44-4.9-3.44-8.549c0-4.17,1.98-7.714,5.525-10.008
							c2.919-1.876,5.316-1.876,8.652-1.876h22.102c3.961,0,7.297,0.834,10.32,3.44c2.711,2.397,4.899,6.255,4.899,9.903
							c0,3.336-1.668,6.047-5.421,6.047c-3.127,0-5.004-1.981-5.004-4.9c0-3.544-1.772-4.066-5.004-4.066h-22.101
							c-1.147,0-3.545-0.313-3.545,1.459c0,0.938,1.146,2.189,1.563,2.815L462.144,339.712z"/>
						<path d="M517.395,360.145c-7.818,0-12.301-3.128-15.638-9.903l-9.591-19.391c-1.772-3.545-2.814-6.881-2.814-10.947
							c0-4.587,0.834-7.401,2.919-11.571l9.591-19.287c3.545-7.193,8.027-10.008,16.055-10.008h17.723
							c2.293,0,5.212,1.251,5.212,5.212c0,3.753-2.814,5.212-5.212,5.212h-17.41c-4.482,0-5.212,0.417-7.193,4.379l-9.069,18.139
							c-1.355,2.815-2.189,4.691-2.189,7.923c0,2.919,0.938,4.691,2.189,7.194l8.861,18.035c2.085,4.274,3.127,4.587,7.818,4.587
							h16.993c2.293,0,5.212,1.251,5.212,5.212c0,3.753-2.814,5.213-5.212,5.213H517.395z"/>
						<path d="M613.2,308.333c1.98,4.065,2.71,7.089,2.71,11.571c0,5.004-1.354,8.131-3.439,12.406l-9.592,19.183
							c-2.502,5.004-6.672,8.652-12.718,8.652c-6.047,0-10.217-3.648-12.719-8.652l-9.591-19.183
							c-2.085-4.274-3.44-7.401-3.44-12.406c0-4.482,0.729-7.506,2.711-11.571l10.425-20.746c2.502-4.899,6.776-8.548,12.614-8.548
							s10.112,3.649,12.614,8.548L613.2,308.333z M593.705,292.591c-0.834-1.668-1.355-3.127-3.544-3.127
							c-2.189,0-2.711,1.459-3.545,3.127l-9.383,18.87c-1.563,3.023-2.397,5.004-2.397,8.444c0,2.711,0.626,4.587,1.772,6.88
							l10.008,19.808c0.729,1.46,1.46,3.128,3.545,3.128s2.814-1.668,3.544-3.128l10.008-19.808c1.147-2.293,1.772-4.169,1.772-6.88
							c0-3.44-0.834-5.421-2.397-8.444L593.705,292.591z"/>
						<path d="M649.894,354.932c0,3.336-1.459,5.213-5.212,5.213c-3.754,0-5.213-1.877-5.213-5.213v-75.894h35.028
							c8.235,0,16.471,5.838,16.471,15.116v7.193c0,9.799-8.131,14.803-16.471,14.803h-9.592l23.457,33.569
							c1.146,1.563,2.605,3.544,2.605,5.525c0,2.919-2.397,4.899-5.316,4.899c-2.085,0-3.44-1.251-4.587-2.919l-28.773-41.075
							h-2.397V354.932z M649.894,305.727h23.144c2.919,0,7.506-0.208,7.506-4.378v-7.193c0-4.17-4.274-4.691-7.401-4.691h-23.248
							V305.727z"/>
						<path d="M760.815,349.72c2.71,0,5.212,1.459,5.212,5.212s-2.502,5.213-5.212,5.213h-46.287v-81.106h46.287
							c2.71,0,5.212,1.459,5.212,5.212s-2.502,5.212-5.212,5.212h-35.862v24.916h15.325c2.71,0,5.212,1.459,5.212,5.212
							s-2.502,5.212-5.212,5.212h-15.325v24.916H760.815z"/>
					</g>
					<rect x="146.739" y="223.837" fill="none" stroke="#FFFFFF" stroke-width="10" width="658.018" height="211.234"/>
					<rect x="154.692" y="229.949" fill="none" stroke="#000000" stroke-width="6" width="643.111" height="199.044"/>
					<g>
						<path d="M346.6,397.618c-0.477,0-1.287-0.096-1.287,0.643c0,0.382,0.286,0.524,0.62,0.668l5.719,2.597
							c1.478,0.667,2.24,1.597,2.24,3.241c0,2.312-1.572,3.407-3.765,3.407H346.6c-1.191,0-2.001-0.048-2.859-0.715
							c-0.429-0.334-1.048-0.763-1.048-1.334c0-0.644,0.548-1.145,1.191-1.145c0.357,0,0.62,0.119,0.882,0.405
							c0.405,0.453,1.12,0.501,1.834,0.501h3.098c0.811,0,1.907,0.071,1.907-1.264c0-0.548-0.667-0.905-1.191-1.144l-5.385-2.454
							c-1.263-0.572-2.002-1.311-2.002-2.788c0-1.811,1.43-2.907,3.146-2.907h3.908c1.263,0,1.787,0.071,2.645,0.786
							c0.429,0.357,0.906,0.644,0.906,1.287s-0.548,1.144-1.168,1.144c-0.429,0-0.691-0.167-0.977-0.477
							c-0.381-0.405-0.787-0.452-1.406-0.452H346.6z"/>
						<path d="M366.235,397.618c-0.238,0-0.477,0.071-0.715,0.214l-3.384,2.121v6.648c0,0.786-0.167,1.572-1.144,1.572
							c-0.978,0-1.144-0.786-1.144-1.572v-14.417c0-0.786,0.166-1.572,1.144-1.572c0.977,0,1.144,0.786,1.144,1.572v5.123
							l1.858-1.215c0.596-0.381,1.287-0.763,2.05-0.763h1.524c0.453,0,1.263,0,2.217,0.834c1.024,0.882,0.977,1.858,1.024,3.098
							l0.238,7.196c0.023,0.811-0.096,1.716-1.12,1.716c-0.93,0-1.12-0.786-1.144-1.549l-0.238-7.054
							c-0.048-1.096,0.023-1.953-1.264-1.953H366.235z"/>
						<path d="M380.84,397.618c-0.667,0-1.572-0.144-1.572-1.145c0-0.977,0.811-1.144,1.572-1.144h3.146
							c1.191,0,2.05,0.119,2.955,1.024c0.882,0.882,1.001,1.573,1.024,2.717l0.238,7.769c0.024,0.667-0.31,1.334-1.072,1.334
							c-0.596,0-1.191-0.5-1.167-1.144l-1.573,0.81c-0.644,0.334-0.667,0.334-1.405,0.334h-2.192c-1.025,0-1.764-0.119-2.598-0.811
							c-0.953-0.786-1.191-1.62-1.191-2.812v-1.001c0-1.096,0.262-1.787,1.12-2.55c0.786-0.69,1.668-0.857,2.669-0.857h4.908v-0.524
							c0-1.716-0.381-2.001-2.025-2.001H380.84z M380.817,402.43c-0.619,0-1.525,0.167-1.525,1.001v1.525
							c0,0.763,0.93,0.93,1.478,0.93h2.526l2.525-1.311v-0.501c0-1.263-0.357-1.645-1.62-1.645H380.817z"/>
						<path d="M405.36,403.217c0,1.644-0.119,2.264-1.453,3.312l-1.382,1.097c-0.477,0.381-1.216,1.024-1.835,1.024h-1.549
							c-1.025,0-1.502-0.667-2.24-1.358l-0.453-0.429v4.599c0,0.786-0.166,1.573-1.144,1.573c-0.977,0-1.144-0.787-1.144-1.573
							v-14.439c0-0.811,0.096-1.692,1.144-1.692c0.93,0,1.144,0.739,1.144,1.501v0.286l0.453-0.405
							c0.596-0.523,1.501-1.382,2.145-1.382h1.573c0.548,0,1.286,0.572,1.906,1.049l1.382,1.072
							c1.334,1.048,1.453,1.691,1.453,3.312V403.217z M403.073,400.453c0-0.429-0.119-0.69-0.477-1.001l-1.716-1.43
							c-0.215-0.19-0.477-0.404-0.786-0.404h-0.596c-0.334,0-0.739,0.429-0.978,0.667l-1.43,1.358
							c-0.477,0.452-0.644,0.715-0.644,1.215v2.24c0,0.333,0.096,0.763,0.334,0.977l1.739,1.645
							c0.334,0.333,0.691,0.644,0.978,0.644h0.596c0.31,0,0.571-0.215,0.786-0.405l1.716-1.43c0.357-0.31,0.477-0.572,0.477-1.001
							V400.453z"/>
						<path d="M415.511,408.173c-0.954,0-1.335,0-2.05-0.619l-0.977-0.858c-0.906-0.81-1.168-1.334-1.168-2.573v-4.408
							c0-1.216,0.167-1.931,1.12-2.74l0.81-0.691c1.072-0.929,1.597-0.953,2.526-0.953h2.097c1.12,0,1.645,0.119,2.526,0.834
							l0.929,0.739c1.049,0.834,1.191,1.715,1.191,2.979v1.834c0,1.312-0.214,1.692-1.572,1.692h-7.34v0.763
							c0,0.214,0.167,0.5,0.334,0.667l0.572,0.619c0.31,0.334,0.762,0.43,1.524,0.43h4.909c0.763,0,1.572,0.166,1.572,1.144
							c0,1.001-0.905,1.144-1.572,1.144H415.511z M413.604,401.12h6.625v-1.382c0-0.429,0.023-0.786-0.286-1.072l-0.882-0.763
							c-0.286-0.262-0.738-0.285-1.096-0.285h-1.931c-0.429,0-0.786,0-1.167,0.262l-0.787,0.572
							c-0.285,0.214-0.477,0.381-0.477,1.048V401.12z"/>
						<path d="M454.542,398.213v-1.311c0-0.787,0.167-1.573,1.144-1.573s1.144,0.786,1.144,1.573v0.929
							c0,0.572-0.048,0.953-0.286,1.454l-5.766,12.558c-0.501,1.072-0.763,1.191-1.812,1.191h-1.764
							c-0.667,0-1.572-0.144-1.572-1.145c0-0.977,0.811-1.144,1.572-1.144h1.573l1.691-3.503h-0.119
							c-0.953,0-1.001-0.429-1.358-1.215l-2.812-6.22c-0.31-0.69-0.548-1.215-0.548-1.882v-1.024c0-0.787,0.167-1.573,1.144-1.573
							c0.978,0,1.144,0.786,1.144,1.573v1.311l3.074,6.743h0.501L454.542,398.213z"/>
						<path d="M462.786,399.595c0-1.525,0.31-2.05,1.453-2.979c1.12-0.93,1.645-1.287,3.241-1.287h1.811
							c1.597,0,2.121,0.357,3.241,1.287c1.144,0.929,1.453,1.453,1.453,2.979v4.313c0,1.502-0.381,2.073-1.572,3.074
							s-1.668,1.191-3.122,1.191h-1.811c-1.454,0-1.931-0.19-3.122-1.191s-1.572-1.572-1.572-3.074V399.595z M465.073,403.908
							c0,0.477,0.167,0.787,0.834,1.358c0.501,0.429,0.858,0.62,1.573,0.62h1.811c0.715,0,1.072-0.191,1.573-0.62
							c0.667-0.571,0.834-0.882,0.834-1.358v-4.313c0-0.477-0.167-0.786-0.834-1.358c-0.501-0.429-0.858-0.619-1.573-0.619h-1.811
							c-0.715,0-1.072,0.19-1.573,0.619c-0.667,0.572-0.834,0.882-0.834,1.358V403.908z"/>
						<path d="M491.141,406.482c0,0.523,0.096,1.691-1.12,1.691c-0.977,0-1.144-0.811-1.144-1.597v-0.381l-1.858,1.215
							c-0.738,0.477-1.358,0.763-1.978,0.763h-1.692c-0.644,0-1.358-0.19-2.12-0.834c-1.025-0.882-1.001-1.858-1.049-3.098
							l-0.238-7.196c-0.023-0.834,0.096-1.716,1.144-1.716c0.978,0,1.097,0.834,1.12,1.573l0.238,7.029
							c0.023,0.524,0.048,1.144,0.238,1.478c0.19,0.333,0.786,0.477,1.335,0.477h0.762c0.263,0,0.501-0.072,0.715-0.215l3.36-2.121
							v-6.647c0-0.787,0.167-1.573,1.144-1.573s1.144,0.786,1.144,1.573V406.482z"/>
						<path d="M497.098,397.022c0-0.834,0.096-1.692,1.144-1.692c0.905,0,1.144,0.763,1.144,1.525v0.929l1.788-1.477
							c0.643-0.524,1.311-0.978,2.025-0.978h1.834c0.882,0,1.621,0.286,2.24,0.905c0.763,0.763,1.024,1.549,1.024,2.598
							c0,0.786-0.143,1.597-1.12,1.597c-0.834,0-1.167-0.667-1.167-1.406c0-0.381,0-0.667-0.238-1.001
							c-0.286-0.404-0.834-0.404-1.382-0.404h-0.668c-0.429,0-0.738,0.214-1.144,0.548l-3.193,2.645v5.791
							c0,0.786-0.166,1.572-1.144,1.572c-0.977,0-1.144-0.786-1.144-1.572V397.022z"/>
						<path d="M534.77,397.618h-0.643c-0.668,0-1.573-0.144-1.573-1.145c0-0.977,0.811-1.144,1.573-1.144h0.643v-0.31
							c0-1.311,0.072-2.264,1.097-3.265c1.096-1.048,2.121-1.144,3.526-1.144h1.549c0.786,0,1.668,0.071,1.668,1.144
							c0,0.978-0.786,1.144-1.572,1.144h-1.787c-1.549,0-2.192,0.311-2.192,1.979v0.452h2.025c0.763,0,1.572,0.167,1.572,1.144
							c0,1.001-0.905,1.145-1.572,1.145h-2.025v8.983c0,0.786-0.167,1.572-1.144,1.572c-0.978,0-1.145-0.786-1.145-1.572V397.618z"
							/>
						<path d="M555.358,405.886h1.716c0.763,0,1.572,0.166,1.572,1.144c0,1.001-0.905,1.144-1.572,1.144h-5.814
							c-0.667,0-1.572-0.143-1.572-1.144c0-0.978,0.81-1.144,1.572-1.144h1.812v-12.987h-1.812c-0.667,0-1.572-0.143-1.572-1.144
							c0-0.977,0.81-1.144,1.572-1.144h2.407c1.311,0,1.691,0.238,1.691,1.597V405.886z"/>
						<path d="M565.723,399.595c0-1.525,0.31-2.05,1.453-2.979c1.12-0.93,1.645-1.287,3.241-1.287h1.811
							c1.597,0,2.121,0.357,3.241,1.287c1.144,0.929,1.453,1.453,1.453,2.979v4.313c0,1.502-0.381,2.073-1.572,3.074
							s-1.668,1.191-3.122,1.191h-1.811c-1.454,0-1.931-0.19-3.122-1.191s-1.572-1.572-1.572-3.074V399.595z M568.01,403.908
							c0,0.477,0.167,0.787,0.834,1.358c0.501,0.429,0.858,0.62,1.573,0.62h1.811c0.715,0,1.072-0.191,1.573-0.62
							c0.667-0.571,0.834-0.882,0.834-1.358v-4.313c0-0.477-0.167-0.786-0.834-1.358c-0.501-0.429-0.858-0.619-1.573-0.619h-1.811
							c-0.715,0-1.072,0.19-1.573,0.619c-0.667,0.572-0.834,0.882-0.834,1.358V403.908z"/>
						<path d="M589.623,402.883l1.239,2.121l0.715-2.121l0.238-5.909c0.024-0.786,0.167-1.645,1.144-1.645
							c1.001,0,1.145,0.858,1.12,1.645l-0.238,6.362l-1.12,3.384c-0.238,0.69-0.357,1.453-1.167,1.453h-0.882
							c-0.405,0-0.738-0.429-0.953-0.738l-1.239-1.859l-1.239,1.859c-0.214,0.31-0.548,0.738-0.953,0.738h-0.882
							c-0.81,0-0.929-0.763-1.167-1.453l-1.12-3.384l-0.238-6.362c-0.023-0.786,0.119-1.645,1.12-1.645
							c0.977,0,1.12,0.858,1.144,1.645l0.238,5.909l0.715,2.121l1.239-2.121v-2.097c0-0.786,0.167-1.597,1.144-1.597
							c0.978,0,1.144,0.811,1.144,1.597V402.883z"/>
					</g>
					<line fill="none" stroke="#000000" stroke-width="2" x1="177.267" y1="407.264" x2="320.849" y2="407.264"/>
					<line fill="none" stroke="#000000" stroke-width="2" x1="625.782" y1="407.761" x2="783.903" y2="407.761"/>
				</g>
				<path fill-rule="evenodd" clip-rule="evenodd" fill="none" stroke="#000000" stroke-width="2" d="M532.899,555.027"/>
				<path fill-rule="evenodd" clip-rule="evenodd" fill="none" stroke="#000000" stroke-width="2" d="M490.384,538.069"/>
				<polyline fill="none" stroke="#020202" stroke-width="4" points="623.12,28.642 645.832,23.988 642.853,46.7 				"/>
				<circle stroke="#020202" stroke-width="4" cx="368.638" cy="120.108" r="4.468"/>
				<circle stroke="#020202" stroke-width="4" cx="422.997" cy="195.812" r="4.468"/>
				<circle stroke="#020202" stroke-width="4" cx="452.036" cy="130.533" r="4.469"/>
				<circle fill="#010101" stroke="#020202" stroke-width="4" cx="561.252" cy="107.697" r="4.469"/>
				<g>
					<polyline fill="none" stroke="#000000" stroke-width="2" points="424.934,159.465 359,72.218 242.516,217.431 					"/>
					<polyline fill="none" stroke="#000000" stroke-width="2" points="583.123,93.208 571.054,126.763 459.801,145.929 
						444.866,185.734 439.194,178.259 					"/>
					<polyline fill="none" stroke="#000000" stroke-width="2" points="601.916,14.23 615.856,0.718 593.208,63.689 					"/>
					<line fill="none" stroke="#010101" stroke-width="2" x1="617.907" y1="18.407" x2="615.917" y2="1.025"/>
				</g>
				<path fill="none" stroke="#020202" d="M781.049,219.332"/>
				<path fill="none" stroke="#020202" d="M786.945,214.552"/>
				<line fill="none" stroke="#000000" stroke-width="2" x1="647.13" y1="96.905" x2="669.794" y2="96.905"/>
				<path fill="none" stroke="#000000" stroke-width="2" d="M694.127,96.907"/>
				<line fill="none" stroke="#000000" stroke-width="2" x1="706.461" y1="96.907" x2="694.127" y2="96.907"/>
				<line fill="none" stroke="#000000" stroke-width="2" x1="762.211" y1="96.907" x2="731.127" y2="96.907"/>
				<line fill="none" stroke="#000000" stroke-width="2" x1="622.461" y1="135.905" x2="669.794" y2="135.905"/>
				<line fill="none" stroke="#000000" stroke-width="2" x1="706.461" y1="135.907" x2="694.127" y2="135.907"/>
				<line fill="none" stroke="#000000" stroke-width="2" x1="741.961" y1="135.907" x2="731.127" y2="135.907"/>
				<line fill="none" stroke="#000000" stroke-width="2" x1="774.961" y1="135.907" x2="764.127" y2="135.907"/>
				<line fill="none" stroke="#000000" stroke-width="2" x1="605.794" y1="170.905" x2="669.794" y2="170.905"/>
				<line fill="none" stroke="#000000" stroke-width="2" x1="706.461" y1="170.907" x2="694.127" y2="170.907"/>
				<line fill="none" stroke="#000000" stroke-width="2" x1="741.961" y1="170.907" x2="731.127" y2="170.907"/>
				<line fill="none" stroke="#000000" stroke-width="2" x1="794.794" y1="170.907" x2="764.127" y2="170.907"/>
			</g>
			<line fill="none" stroke="#FFFFFF" x1="807.103" y1="240.988" x2="807.103" y2="275.986"/>
			<path fill="none" stroke="#000000" stroke-width="4" d="M333.88,440.552"/>
		</g>
	</g>
</g>
</svg>
