<svg  version="1.1" xmlns="http://www.w3.org/2000/svg"
	 viewBox="0 0 78.053 57.375" overflow="visible" enable-background="new 0 0 78.053 57.375" xml:space="preserve">
<g>
	<g>
		<g>
			<path fill="none" stroke="#3F3F3F" stroke-width="2" d="M64.857,46.143c-2.642,0-4.783-1.955-4.783-4.369v-4.146
				c0-2.416,2.143-4.372,4.783-4.372h4.366v-8.129c-0.06,0.002-0.114,0.016-0.176,0.016h-4.535c-2.641,0-4.783-1.957-4.783-4.371
				v-4.144c0-2.416,2.144-4.373,4.783-4.373h2.981C64.318,5.632,57.09,1,48.671,1H29.187C18.472,1,9.682,8.496,8.73,18.061h4.82
				c4.213,0,7.625,3.12,7.625,6.969v6.604c0,3.849-3.412,6.968-7.625,6.968H8.691c0.577,9.9,9.52,17.773,20.498,17.773h19.482
				c7.978,0,14.877-4.162,18.283-10.232H64.857z"/>
		</g>
	</g>
	<g>
		<line fill="none" stroke="#3F3F3F" x1="26.809" y1="20.507" x2="49.77" y2="20.507"/>
		<line fill="none" stroke="#3F3F3F" x1="26.809" y1="16.148" x2="49.77" y2="16.148"/>
		<line fill="none" stroke="#3F3F3F" x1="26.809" y1="25.808" x2="49.77" y2="25.808"/>
		<line fill="none" stroke="#3F3F3F" x1="26.809" y1="30.134" x2="49.77" y2="30.134"/>
		<line fill="none" stroke="#3F3F3F" x1="26.809" y1="35.434" x2="49.77" y2="35.434"/>
		<line fill="none" stroke="#3F3F3F" x1="26.809" y1="40.273" x2="49.77" y2="40.273"/>
	</g>
	<g>
		<line fill="none" stroke="#3F3F3F" x1="5.112" y1="24.785" x2="15.28" y2="24.785"/>
		<line fill="none" stroke="#3F3F3F" x1="5.112" y1="32.413" x2="15.503" y2="32.413"/>
		<polyline fill="none" stroke="#3F3F3F" points="13.686,22.498 17.888,28.308 13.686,34.898 		"/>
	</g>
	<g>
		<line fill="none" stroke="#3F3F3F" x1="63.529" y1="16.074" x2="73.255" y2="16.074"/>
		<line fill="none" stroke="#3F3F3F" x1="63.545" y1="19.807" x2="73.416" y2="19.807"/>
		<polyline fill="none" stroke="#3F3F3F" points="72.109,14.955 75.134,17.799 72.109,21.023 		"/>
	</g>
	<g>
		<line fill="none" stroke="#3F3F3F" x1="63.939" y1="39.008" x2="73.665" y2="39.008"/>
		<line fill="none" stroke="#3F3F3F" x1="63.954" y1="42.741" x2="73.825" y2="42.741"/>
		<polyline fill="none" stroke="#3F3F3F" points="72.518,37.891 75.544,40.732 72.518,43.958 		"/>
	</g>
</g>
</svg>
