<svg xmlns="http://www.w3.org/2000/svg" viewBox="0 0 80 80">
<g>
	<g>
		<path fill="none" stroke="#000000" stroke-width="2" d="M66.658,46.143c-2.641,0-4.783-1.956-4.783-4.37v-4.145
			c0-2.416,2.143-4.372,4.783-4.372h4.367v-8.129c-0.06,0.002-0.115,0.016-0.176,0.016h-4.535c-2.641,0-4.783-1.957-4.783-4.371
			v-4.144c0-2.416,2.143-4.373,4.783-4.373h2.981C66.119,5.632,58.892,1,50.473,1H30.989C20.274,1,11.484,8.496,10.531,18.061h4.821
			c4.213,0,7.625,3.12,7.625,6.969v6.604c0,3.849-3.412,6.968-7.625,6.968h-4.86c0.578,9.9,9.52,17.773,20.498,17.773h19.483
			c7.977,0,14.877-4.162,18.283-10.232H66.658z"/>
	</g>
</g>
<g>
	<line fill="none" stroke="#000000" x1="28.611" y1="20.507" x2="51.572" y2="20.507"/>
	<line fill="none" stroke="#000000" x1="28.611" y1="16.148" x2="51.572" y2="16.148"/>
	<line fill="none" stroke="#000000" x1="28.611" y1="25.808" x2="51.572" y2="25.808"/>
	<line fill="none" stroke="#000000" x1="28.611" y1="30.134" x2="51.572" y2="30.134"/>
	<line fill="none" stroke="#000000" x1="28.611" y1="35.434" x2="51.572" y2="35.434"/>
	<line fill="none" stroke="#000000" x1="28.611" y1="40.273" x2="51.572" y2="40.273"/>
</g>
<g>
	<line fill="none" stroke="#000000" x1="6.913" y1="24.785" x2="17.081" y2="24.785"/>
	<line fill="none" stroke="#000000" x1="6.913" y1="32.413" x2="17.305" y2="32.413"/>
	<polyline fill="none" stroke="#000000" points="15.488,22.498 19.69,28.308 15.488,34.899 	"/>
</g>
<g>
	<line fill="none" stroke="#000000" x1="65.33" y1="16.074" x2="75.057" y2="16.074"/>
	<line fill="none" stroke="#000000" x1="65.347" y1="19.807" x2="75.218" y2="19.807"/>
	<polyline fill="none" stroke="#000000" points="73.91,14.955 76.936,17.799 73.91,21.023 	"/>
</g>
<g>
	<line fill="none" stroke="#000000" x1="65.74" y1="39.008" x2="75.467" y2="39.008"/>
	<line fill="none" stroke="#000000" x1="65.756" y1="42.741" x2="75.627" y2="42.741"/>
	<polyline fill="none" stroke="#000000" points="74.32,37.89 77.346,40.733 74.32,43.958 	"/>
</g>
</svg>
