<svg  xmlns="http://www.w3.org/2000/svg" viewBox="0 0 80 80">
<g>
	<g>
		<path fill="none" stroke="#000000" stroke-width="2" d="M69.875,38.602h-7.227c-4.21,0-7.625-3.119-7.625-6.968V25.03
			c0-3.849,3.415-6.969,7.625-6.969h7.227c0.196,0,0.388,0.014,0.58,0.027C69.516,8.51,60.719,1,49.996,1H30.513
			C19.798,1,11.008,8.496,10.054,18.061h5.298c4.213,0,7.625,3.12,7.625,6.969v6.604c0,3.849-3.412,6.968-7.625,6.968h-5.338
			c0.579,9.9,9.521,17.773,20.499,17.773h19.483c10.986,0,19.936-7.889,20.498-17.802C70.29,38.588,70.084,38.602,69.875,38.602z"/>
	</g>
</g>
<g>
	<line fill="none" stroke="#000000" x1="28.135" y1="20.507" x2="51.096" y2="20.507"/>
	<line fill="none" stroke="#000000" x1="28.135" y1="16.148" x2="51.096" y2="16.148"/>
	<line fill="none" stroke="#000000" x1="28.135" y1="25.808" x2="51.096" y2="25.808"/>
	<line fill="none" stroke="#000000" x1="28.135" y1="30.134" x2="51.096" y2="30.134"/>
	<line fill="none" stroke="#000000" x1="28.135" y1="35.434" x2="51.096" y2="35.434"/>
	<line fill="none" stroke="#000000" x1="28.135" y1="40.273" x2="51.096" y2="40.273"/>
</g>
<line fill="none" stroke="#000000" x1="6.586" y1="24.722" x2="16.754" y2="24.722"/>
<line fill="none" stroke="#000000" x1="6.586" y1="32.35" x2="16.978" y2="32.35"/>
<polyline fill="none" stroke="#000000" points="15.161,22.435 19.363,28.247 15.161,34.837 "/>
<line fill="none" stroke="#000000" x1="61.437" y1="24.785" x2="71.604" y2="24.785"/>
<line fill="none" stroke="#000000" x1="61.437" y1="32.413" x2="71.828" y2="32.413"/>
<polyline fill="none" stroke="#000000" points="70.012,22.498 74.214,28.308 70.012,34.899 "/>
</svg>
