<svg  version="1.1" xmlns="http://www.w3.org/2000/svg"
	 viewBox="0 0 76.451 57.375" overflow="visible" enable-background="new 0 0 76.451 57.375" xml:space="preserve">
<g>
	<g>
		<path fill="none" stroke="#000000" stroke-width="2" d="M68.326,38.602h-7.227c-4.21,0-7.625-3.119-7.625-6.968V25.03
			c0-3.849,3.415-6.969,7.625-6.969h7.227c0.196,0,0.388,0.014,0.58,0.027C67.966,8.51,59.169,1,48.447,1H28.963
			c-8.42,0-15.648,4.632-18.824,11.256h2.379c2.643,0,4.784,1.957,4.784,4.373v4.144c0,2.414-2.141,4.371-4.784,4.371H8.41v8.113
			h4.453c2.643,0,4.783,1.956,4.783,4.372v4.145c0,2.414-2.141,4.37-4.783,4.37h-2.184c3.407,6.07,10.307,10.232,18.285,10.232
			h19.483c10.986,0,19.936-7.889,20.498-17.802C68.741,38.588,68.535,38.602,68.326,38.602z"/>
	</g>
</g>
<g>
	<line fill="none" stroke="#000000" x1="26.585" y1="20.507" x2="49.546" y2="20.507"/>
	<line fill="none" stroke="#000000" x1="26.585" y1="16.148" x2="49.546" y2="16.148"/>
	<line fill="none" stroke="#000000" x1="26.585" y1="25.808" x2="49.546" y2="25.808"/>
	<line fill="none" stroke="#000000" x1="26.585" y1="30.134" x2="49.546" y2="30.134"/>
	<line fill="none" stroke="#000000" x1="26.585" y1="35.434" x2="49.546" y2="35.434"/>
	<line fill="none" stroke="#000000" x1="26.585" y1="40.273" x2="49.546" y2="40.273"/>
</g>
<line fill="none" stroke="#000000" x1="59.887" y1="24.785" x2="70.055" y2="24.785"/>
<line fill="none" stroke="#000000" x1="59.887" y1="32.413" x2="70.279" y2="32.413"/>
<polyline fill="none" stroke="#000000" points="68.462,22.498 72.665,28.308 68.462,34.899 "/>
<g>
	<line fill="none" stroke="#000000" x1="0" y1="16.074" x2="9.727" y2="16.074"/>
	<line fill="none" stroke="#000000" x1="0.016" y1="19.807" x2="9.887" y2="19.807"/>
	<polyline fill="none" stroke="#000000" points="8.58,14.955 11.605,17.799 8.58,21.023 	"/>
</g>
<g>
	<line fill="none" stroke="#000000" x1="0.409" y1="39.008" x2="10.136" y2="39.008"/>
	<line fill="none" stroke="#000000" x1="0.426" y1="42.741" x2="10.297" y2="42.741"/>
	<polyline fill="none" stroke="#000000" points="8.989,37.89 12.015,40.733 8.989,43.958 	"/>
</g>
</svg>
