<svg  version="1.1" xmlns="http://www.w3.org/2000/svg"
	 viewBox="0 0 78.041 57.375" overflow="visible" enable-background="new 0 0 78.041 57.375" xml:space="preserve">
<g>
	<g>
		<path fill="none" stroke="#000000" stroke-width="2" d="M19.316,41.602c5.334,0,9.66-3.952,9.66-8.828v-8.367
			c0-4.875-4.326-8.829-9.66-8.829h-2.329C19.08,7.232,27.239,1,37.004,1h19.483c11.352,0,20.554,8.41,20.554,18.785v17.807
			c0,10.373-9.202,18.784-20.554,18.784H37.004c-9.842,0-18.06-6.329-20.071-14.773H19.316z"/>
	</g>
</g>
<line fill="none" stroke="#000000" x1="3.537" y1="22.05" x2="20.126" y2="22.05"/>
<line fill="none" stroke="#000000" x1="3.537" y1="34.497" x2="20.492" y2="34.497"/>
<polyline fill="none" stroke="#000000" points="17.528,18.318 24.384,27.801 17.528,38.554 "/>
<line fill="none" stroke="#000000" x1="39.152" y1="19.869" x2="62.113" y2="19.869"/>
<line fill="none" stroke="#000000" x1="39.152" y1="15.51" x2="62.113" y2="15.51"/>
<line fill="none" stroke="#000000" x1="39.152" y1="25.17" x2="62.113" y2="25.17"/>
<line fill="none" stroke="#000000" x1="39.152" y1="29.497" x2="62.113" y2="29.497"/>
<line fill="none" stroke="#000000" x1="39.152" y1="34.796" x2="62.113" y2="34.796"/>
<line fill="none" stroke="#000000" x1="39.152" y1="39.635" x2="62.113" y2="39.635"/>
</svg>
