<svg  xmlns="http://www.w3.org/2000/svg" viewBox="0 0 80 80">
<g>
	<g>
		<path fill="none" stroke="#000000" stroke-width="2" d="M58.725,41.602c-5.334,0-9.66-3.952-9.66-8.828v-8.367
			c0-4.875,4.326-8.829,9.66-8.829h2.329C58.961,7.232,50.802,1,41.038,1H21.554C10.203,1,1,9.41,1,19.785v17.807
			c0,10.373,9.203,18.784,20.554,18.784h19.483c9.842,0,18.06-6.329,20.071-14.773H58.725z"/>
	</g>
</g>
<line fill="none" stroke="#000000" x1="54.871" y1="21.455" x2="71.46" y2="21.455"/>
<line fill="none" stroke="#000000" x1="54.871" y1="33.901" x2="71.826" y2="33.901"/>
<polyline fill="none" stroke="#000000" points="68.862,17.723 75.718,27.206 68.862,37.958 "/>
<line fill="none" stroke="#000000" x1="17.153" y1="19.146" x2="40.115" y2="19.146"/>
<line fill="none" stroke="#000000" x1="17.153" y1="14.788" x2="40.115" y2="14.788"/>
<line fill="none" stroke="#000000" x1="17.153" y1="24.448" x2="40.115" y2="24.448"/>
<line fill="none" stroke="#000000" x1="17.153" y1="28.774" x2="40.115" y2="28.774"/>
<line fill="none" stroke="#000000" x1="17.153" y1="34.074" x2="40.115" y2="34.074"/>
<line fill="none" stroke="#000000" x1="17.153" y1="38.913" x2="40.115" y2="38.913"/>
</svg>
