<svg  version="1.1" xmlns="http://www.w3.org/2000/svg"
	 overflow="visible" enable-background="new 0 0 76.5 44.75" xml:space="preserve">
<g>
	<rect fill="none" width="76.5" height="44.75"/>
</g>
<g>
	<path fill="#FFFFFF" d="M2.84,23.735c2.13,0,2.43-1.17,2.43-2.22c0-0.84-0.12-1.68-0.24-2.52c-0.12-0.84-0.24-1.68-0.24-2.49
		c0-2.76,1.83-3.93,4.38-3.93h0.6v1.65H9.26c-1.77,0.03-2.4,0.96-2.4,2.58c0,0.69,0.12,1.41,0.21,2.13
		c0.12,0.75,0.24,1.47,0.24,2.28c0.03,1.92-0.84,2.88-2.16,3.24v0.06c1.32,0.33,2.19,1.35,2.16,3.27c0,0.81-0.12,1.56-0.24,2.279
		c-0.09,0.75-0.21,1.44-0.21,2.16c0,1.68,0.72,2.58,2.4,2.61h0.51v1.649H9.14c-2.46,0-4.35-1.08-4.35-4.109
		c0-0.811,0.12-1.65,0.27-2.46c0.09-0.81,0.21-1.62,0.21-2.399c0-0.96-0.3-2.25-2.43-2.25V23.735z"/>
	<path fill="#FFFFFF" d="M16.271,14.927h2.376v12.177c0,4.833-2.376,6.318-5.508,6.318c-0.891,0-1.944-0.189-2.511-0.432
		l0.324-1.917c0.486,0.188,1.188,0.351,1.998,0.351c2.106,0,3.321-0.945,3.321-4.509V14.927z"/>
	<path fill="#FFFFFF" d="M22.265,30.264c1.053,0.674,2.565,1.188,4.185,1.188c2.403,0,3.807-1.242,3.807-3.105
		c0-1.674-0.972-2.673-3.429-3.591c-2.97-1.08-4.806-2.646-4.806-5.184c0-2.835,2.349-4.941,5.886-4.941
		c1.836,0,3.213,0.432,3.996,0.891l-0.648,1.917c-0.567-0.351-1.782-0.864-3.429-0.864c-2.484,0-3.429,1.485-3.429,2.727
		c0,1.701,1.107,2.538,3.618,3.51c3.078,1.215,4.617,2.673,4.617,5.346c0,2.808-2.052,5.265-6.345,5.265
		c-1.755,0-3.672-0.54-4.644-1.188L22.265,30.264z"/>
	<path fill="#FFFFFF" d="M53.044,33.125V14.927h2.592l5.806,9.207c1.322,2.133,2.402,4.023,3.24,5.913l0.08-0.027
		c-0.216-2.43-0.27-4.644-0.27-7.452v-7.641h2.214v18.198H64.33l-5.778-9.234c-1.269-2.025-2.483-4.104-3.375-6.075l-0.081,0.027
		c0.136,2.295,0.162,4.482,0.162,7.506v7.776H53.044z"/>
	<path fill="#FFFFFF" d="M76.438,25.265c-2.13,0-2.43,1.29-2.43,2.25c0,0.779,0.12,1.59,0.24,2.399s0.24,1.649,0.24,2.46
		c0,3.029-1.891,4.109-4.351,4.109h-0.63v-1.649h0.51c1.681-0.03,2.4-0.931,2.4-2.61c0-0.72-0.12-1.41-0.21-2.16
		c-0.12-0.72-0.24-1.47-0.24-2.279c-0.03-1.92,0.84-2.94,2.16-3.27v-0.06c-1.32-0.36-2.19-1.32-2.16-3.24
		c0-0.81,0.12-1.53,0.24-2.28c0.09-0.72,0.21-1.44,0.21-2.13c0-1.62-0.63-2.55-2.4-2.58h-0.51v-1.65h0.6
		c2.551,0,4.381,1.17,4.381,3.93c0,0.81-0.12,1.65-0.24,2.49c-0.12,0.84-0.24,1.68-0.24,2.52c0,1.05,0.3,2.22,2.43,2.22V25.265z"/>
</g>
<circle fill="none" stroke="#FFFFFF" stroke-width="2" cx="42.313" cy="24.188" r="8.563"/>
</svg>
