<svg version="1.1" xmlns="http://www.w3.org/2000/svg"
	 viewBox="0 0 62.847 77.502" overflow="visible" enable-background="new 0 0 62.847 77.502" xml:space="preserve">
<polygon fill="none" stroke="#FFFFFF" points="62.347,15.336 62.347,77.002 0.5,77.002 0.5,0.5 46.437,0.5 "/>
<polyline fill="none" stroke="#FFFFFF" points="45.898,0.678 45.898,14.977 62.347,14.977 "/>
<line fill="none" stroke="#FFFFFF" x1="7.471" y1="36.523" x2="52.516" y2="36.523"/>
<line fill="none" stroke="#FFFFFF" x1="7.471" y1="45.104" x2="52.516" y2="45.104"/>
<line fill="none" stroke="#FFFFFF" x1="7.471" y1="53.682" x2="52.516" y2="53.682"/>
<line fill="none" stroke="#FFFFFF" x1="7.471" y1="62.264" x2="52.516" y2="62.264"/>
<line fill="none" stroke="#FFFFFF" stroke-width="2" x1="29.234" y1="18.252" x2="29.234" y2="30.252"/>
<line fill="none" stroke="#FFFFFF" stroke-width="2" x1="23.568" y1="23.918" x2="35.235" y2="23.918"/>
<rect x="7.588" y="66.877" fill="#FFFFFF" stroke="#FFFFFF" width="45" height="5.375"/>
<g>
</g>
<g>
	<path d="M21.476,66.896h0.528v3.605h1.728v0.438h-2.256V66.896z"/>
	<path d="M25.394,71.006c-0.78,0-1.392-0.576-1.392-1.494c0-0.973,0.642-1.542,1.44-1.542c0.834,0,1.398,0.605,1.398,1.487
		c0,1.08-0.75,1.549-1.44,1.549H25.394z M25.412,70.609c0.504,0,0.882-0.474,0.882-1.134c0-0.492-0.246-1.11-0.87-1.11
		c-0.618,0-0.888,0.576-0.888,1.128c0,0.637,0.36,1.116,0.87,1.116H25.412z"/>
	<path d="M29.995,70.514c0,0.672-0.138,1.074-0.414,1.332c-0.288,0.258-0.696,0.348-1.062,0.348c-0.348,0-0.732-0.084-0.966-0.24
		l0.132-0.407c0.192,0.126,0.492,0.233,0.852,0.233c0.54,0,0.936-0.282,0.936-1.02v-0.318h-0.012
		c-0.156,0.271-0.474,0.486-0.924,0.486c-0.72,0-1.236-0.612-1.236-1.422c0-0.984,0.642-1.536,1.314-1.536
		c0.504,0,0.774,0.258,0.906,0.498h0.012l0.018-0.433h0.468c-0.018,0.204-0.024,0.438-0.024,0.792V70.514z M29.467,69.176
		c0-0.084-0.006-0.162-0.03-0.234c-0.096-0.312-0.348-0.564-0.738-0.564c-0.504,0-0.864,0.427-0.864,1.104
		c0,0.564,0.294,1.044,0.858,1.044c0.33,0,0.624-0.204,0.732-0.546c0.03-0.084,0.042-0.187,0.042-0.282V69.176z"/>
	<path d="M33.35,70.514c0,0.672-0.139,1.074-0.414,1.332c-0.288,0.258-0.696,0.348-1.063,0.348c-0.348,0-0.732-0.084-0.966-0.24
		l0.132-0.407c0.192,0.126,0.492,0.233,0.852,0.233c0.541,0,0.936-0.282,0.936-1.02v-0.318h-0.012
		c-0.156,0.271-0.474,0.486-0.924,0.486c-0.72,0-1.236-0.612-1.236-1.422c0-0.984,0.642-1.536,1.313-1.536
		c0.504,0,0.774,0.258,0.906,0.498h0.012l0.019-0.433h0.468c-0.018,0.204-0.023,0.438-0.023,0.792V70.514z M32.821,69.176
		c0-0.084-0.006-0.162-0.03-0.234c-0.096-0.312-0.348-0.564-0.738-0.564c-0.503,0-0.863,0.427-0.863,1.104
		c0,0.564,0.294,1.044,0.857,1.044c0.33,0,0.625-0.204,0.732-0.546c0.029-0.084,0.042-0.187,0.042-0.282V69.176z"/>
	<path d="M34.52,69.577c0.012,0.714,0.462,1.009,0.99,1.009c0.377,0,0.611-0.066,0.804-0.145l0.096,0.372
		c-0.187,0.084-0.51,0.186-0.972,0.186c-0.889,0-1.428-0.594-1.428-1.464c0-0.882,0.521-1.571,1.367-1.571
		c0.948,0,1.194,0.834,1.194,1.367c0,0.108-0.006,0.192-0.019,0.252L34.52,69.577z M36.061,69.199
		c0.007-0.33-0.137-0.857-0.725-0.857c-0.541,0-0.769,0.491-0.811,0.857H36.061z"/>
	<path d="M37.23,68.941c0-0.342-0.006-0.636-0.023-0.906h0.462l0.024,0.57h0.018c0.133-0.39,0.456-0.636,0.811-0.636
		c0.054,0,0.096,0.006,0.144,0.018v0.492c-0.06-0.006-0.114-0.012-0.187-0.012c-0.371,0-0.635,0.281-0.707,0.672
		c-0.012,0.078-0.019,0.162-0.019,0.252v1.548h-0.528L37.23,68.941z"/>
</g>
</svg>
