<?xml version="1.0" encoding="utf-8"?>
<!-- Generator: Adobe Illustrator 12.0.0, SVG Export Plug-In . SVG Version: 6.00 Build 51448)  -->
<!DOCTYPE svg PUBLIC "-//W3C//DTD SVG 1.1//EN" "http://www.w3.org/Graphics/SVG/1.1/DTD/svg11.dtd" [
	<!ENTITY ns_svg "http://www.w3.org/2000/svg">
	<!ENTITY ns_xlink "http://www.w3.org/1999/xlink">
]>
<svg  version="1.1" id="Ebene_1" xmlns="&ns_svg;" xmlns:xlink="&ns_xlink;" width="1596.17" height="518.847"
	 viewBox="0 0 1596.17 518.847" overflow="visible" enable-background="new 0 0 1596.17 518.847" xml:space="preserve">
<g>
	<rect x="10" y="10" fill="none" stroke="#FFFFFF" stroke-width="20" width="1576.17" height="498.847"/>
	<g>
		<path fill="#FFFFFF" d="M470.941,437.022c-1.171,0-3.167-0.232-3.167,1.578c0,0.938,0.705,1.288,1.528,1.647l14.065,6.389
			c3.634,1.643,5.508,3.924,5.508,7.967c0,5.688-3.87,8.386-9.261,8.386h-8.668c-2.932,0-4.925-0.118-7.037-1.765
			c-1.055-0.815-2.578-1.876-2.578-3.278c0-1.577,1.347-2.812,2.931-2.812c0.878,0,1.523,0.297,2.163,0.998
			c1.001,1.113,2.757,1.231,4.516,1.231h7.621c1.991,0,4.687,0.174,4.687-3.113c0-1.349-1.644-2.226-2.928-2.811l-13.245-6.036
			c-3.106-1.404-4.922-3.224-4.922-6.857c0-4.452,3.51-7.149,7.733-7.149h9.606c3.11,0,4.395,0.176,6.506,1.929
			c1.052,0.885,2.229,1.583,2.229,3.163c0,1.585-1.348,2.814-2.877,2.814c-1.057,0-1.701-0.411-2.404-1.168
			c-0.932-0.995-1.928-1.113-3.457-1.113H470.941z"/>
		<path fill="#FFFFFF" d="M519.224,437.022c-0.588,0-1.174,0.179-1.762,0.529l-8.319,5.208v16.351c0,1.933-0.416,3.867-2.817,3.867
			c-2.4,0-2.811-1.935-2.811-3.867v-35.452c0-1.927,0.411-3.864,2.811-3.864c2.401,0,2.817,1.938,2.817,3.864v12.599l4.57-2.989
			c1.466-0.938,3.164-1.875,5.04-1.875h3.752c1.113,0,3.104,0,5.444,2.045c2.522,2.168,2.403,4.578,2.522,7.625l0.588,17.69
			c0.057,1.993-0.235,4.225-2.757,4.225c-2.281,0-2.754-1.935-2.814-3.81l-0.585-17.347c-0.115-2.691,0.063-4.805-3.106-4.805
			L519.224,437.022L519.224,437.022z"/>
		<path fill="#FFFFFF" d="M555.143,437.022c-1.641,0-3.864-0.349-3.864-2.812c0-2.403,1.994-2.813,3.864-2.813h7.739
			c2.926,0,5.04,0.292,7.267,2.517c2.168,2.164,2.461,3.866,2.515,6.678l0.588,19.104c0.063,1.641-0.762,3.282-2.633,3.282
			c-1.466,0-2.933-1.23-2.878-2.814l-3.86,1.994c-1.583,0.82-1.646,0.82-3.459,0.82h-5.393c-2.516,0-4.334-0.3-6.385-2
			c-2.344-1.931-2.931-3.979-2.931-6.912v-2.462c0-2.696,0.645-4.395,2.755-6.273c1.937-1.695,4.1-2.111,6.561-2.111h12.07v-1.284
			c0-4.227-0.935-4.928-4.982-4.928h-6.977v0.016H555.143z M555.086,448.858c-1.527,0-3.752,0.416-3.752,2.462v3.75
			c0,1.874,2.286,2.284,3.634,2.284h6.214l6.21-3.229v-1.231c0-3.104-0.881-4.041-3.982-4.041L555.086,448.858L555.086,448.858z"/>
		<path fill="#FFFFFF" d="M615.438,450.792c0,4.041-0.292,5.57-3.574,8.144l-3.399,2.697c-1.173,0.931-2.989,2.516-4.513,2.516
			h-3.809c-2.518,0-3.692-1.643-5.507-3.343l-1.114-1.056v11.316c0,1.935-0.409,3.86-2.813,3.86c-2.404,0-2.814-1.926-2.814-3.86
			v-35.51c0-1.999,0.235-4.161,2.814-4.161c2.286,0,2.813,1.81,2.813,3.692v0.702l1.114-1.002c1.466-1.284,3.689-3.393,5.272-3.393
			h3.867c1.348,0,3.164,1.405,4.687,2.578l3.399,2.631c3.281,2.579,3.574,4.161,3.574,8.146L615.438,450.792L615.438,450.792z
			 M609.814,443.996c0-1.053-0.293-1.697-1.173-2.468l-4.217-3.506c-0.527-0.471-1.17-1-1.937-1h-1.465
			c-0.814,0-1.819,1.052-2.398,1.641l-3.517,3.342c-1.173,1.113-1.584,1.766-1.584,2.995v5.508c0,0.818,0.236,1.872,0.821,2.395
			l4.279,4.046c0.814,0.82,1.698,1.58,2.398,1.58h1.465c0.76,0,1.409-0.524,1.937-0.994l4.217-3.518
			c0.884-0.762,1.173-1.406,1.173-2.462V443.996L609.814,443.996z"/>
		<path fill="#FFFFFF" d="M640.401,462.982c-2.344,0-3.282,0-5.041-1.528l-2.404-2.111c-2.225-1.989-2.871-3.282-2.871-6.329V442.18
			c0-2.995,0.411-4.748,2.754-6.738l1.99-1.7c2.639-2.285,3.93-2.345,6.213-2.345h5.157c2.757,0,4.042,0.292,6.211,2.045
			l2.286,1.817c2.576,2.051,2.932,4.225,2.932,7.325v4.512c0,3.223-0.533,4.16-3.87,4.16h-18.051v1.876
			c0,0.531,0.413,1.229,0.816,1.646l1.41,1.522c0.759,0.821,1.873,1.056,3.746,1.056h12.071c1.873,0,3.871,0.411,3.871,2.813
			c0,2.461-2.23,2.813-3.871,2.813H640.401z M635.714,445.634h16.291v-3.399c0-1.047,0.057-1.934-0.703-2.631l-2.169-1.881
			c-0.696-0.643-1.81-0.698-2.69-0.698h-4.744c-1.056,0-1.937,0-2.878,0.646l-1.935,1.404c-0.698,0.534-1.168,0.939-1.168,2.58
			v3.979H635.714z"/>
		<path fill="#FFFFFF" d="M736.385,438.489v-3.229c0-1.934,0.418-3.862,2.812-3.862c2.403,0,2.816,1.929,2.816,3.862v2.285
			c0,1.406-0.121,2.344-0.705,3.575l-14.176,30.882c-1.233,2.637-1.882,2.929-4.459,2.929h-4.336c-1.647,0-3.866-0.348-3.866-2.812
			c0-2.396,1.99-2.813,3.866-2.813h3.861l4.158-8.615h-0.292c-2.34,0-2.459-1.052-3.338-2.989l-6.913-15.291
			c-0.763-1.7-1.349-2.995-1.349-4.63v-2.521c0-1.932,0.414-3.862,2.812-3.862c2.403,0,2.816,1.929,2.816,3.862v3.229l7.557,16.582
			h1.239L736.385,438.489z"/>
		<path fill="#FFFFFF" d="M756.661,441.884c0-3.746,0.762-5.04,3.574-7.323c2.76-2.28,4.044-3.16,7.968-3.16h4.458
			c3.93,0,5.217,0.88,7.974,3.16c2.812,2.283,3.576,3.577,3.576,7.323v10.605c0,3.691-0.942,5.1-3.868,7.562
			c-2.931,2.46-4.102,2.929-7.675,2.929h-4.458c-3.574,0-4.745-0.469-7.67-2.929c-2.932-2.462-3.868-3.87-3.868-7.562v-10.605
			H756.661z M762.287,452.49c0,1.17,0.408,1.934,2.049,3.341c1.233,1.053,2.112,1.529,3.861,1.529h4.458
			c1.762,0,2.634-0.469,3.868-1.529c1.646-1.404,2.047-2.163,2.047-3.341v-10.605c0-1.167-0.413-1.928-2.047-3.342
			c-1.234-1.052-2.111-1.522-3.868-1.522h-4.458c-1.754,0-2.628,0.464-3.861,1.522c-1.646,1.406-2.049,2.169-2.049,3.342V452.49z"/>
		<path fill="#FFFFFF" d="M826.393,458.824c0,1.284,0.23,4.158-2.76,4.158c-2.403,0-2.809-1.999-2.809-3.927v-0.938l-4.574,2.989
			c-1.816,1.172-3.344,1.882-4.863,1.882h-4.16c-1.584,0-3.34-0.468-5.216-2.051c-2.512-2.17-2.46-4.569-2.576-7.619l-0.579-17.696
			c-0.063-2.051,0.225-4.22,2.807-4.22c2.403,0,2.699,2.046,2.76,3.861l0.584,17.294c0.057,1.286,0.113,2.806,0.586,3.627
			c0.463,0.819,1.926,1.172,3.275,1.172h1.883c0.642,0,1.226-0.181,1.755-0.533l8.267-5.21v-16.35c0-1.934,0.406-3.861,2.805-3.861
			c2.403,0,2.812,1.928,2.812,3.861L826.393,458.824L826.393,458.824z"/>
		<path fill="#FFFFFF" d="M841.041,435.56c0-2.053,0.235-4.163,2.812-4.163c2.226,0,2.816,1.876,2.816,3.747v2.282l4.396-3.631
			c1.576-1.285,3.217-2.398,4.979-2.398h4.508c2.171,0,3.982,0.698,5.51,2.226c1.876,1.877,2.518,3.81,2.518,6.388
			c0,1.935-0.35,3.929-2.753,3.929c-2.054,0-2.881-1.641-2.881-3.457c0-0.938,0-1.647-0.584-2.46c-0.7-1-2.05-1-3.392-1h-1.645
			c-1.053,0-1.82,0.529-2.82,1.348l-7.848,6.508v14.238c0,1.934-0.414,3.866-2.816,3.866c-2.391,0-2.811-1.933-2.811-3.866V435.56
			H841.041L841.041,435.56z"/>
		<path fill="#FFFFFF" d="M933.682,437.022h-1.584c-1.642,0-3.859-0.349-3.859-2.812c0-2.403,1.995-2.813,3.859-2.813h1.584v-0.766
			c0-3.225,0.186-5.568,2.697-8.023c2.695-2.58,5.215-2.814,8.676-2.814h3.809c1.933,0,4.102,0.18,4.102,2.814
			c0,2.397-1.934,2.812-3.866,2.812h-4.401c-3.805,0-5.388,0.763-5.388,4.861v1.116h4.979c1.876,0,3.866,0.41,3.866,2.813
			c0,2.463-2.23,2.812-3.866,2.812h-4.979v22.092c0,1.933-0.413,3.866-2.816,3.866c-2.394,0-2.812-1.934-2.812-3.866V437.022
			L933.682,437.022z"/>
		<path fill="#FFFFFF" d="M984.311,457.357h4.218c1.881,0,3.871,0.411,3.871,2.813c0,2.461-2.23,2.813-3.871,2.813h-14.291
			c-1.646,0-3.868-0.352-3.868-2.813c0-2.401,1.993-2.813,3.868-2.813h4.452v-31.938h-4.452c-1.646,0-3.868-0.351-3.868-2.812
			c0-2.403,1.993-2.814,3.868-2.814h5.92c3.226,0,4.161,0.59,4.161,3.928L984.311,457.357L984.311,457.357z"/>
		<path fill="#FFFFFF" d="M1009.802,441.884c0-3.746,0.762-5.04,3.573-7.323c2.761-2.28,4.045-3.16,7.968-3.16h4.46
			c3.929,0,5.22,0.88,7.975,3.16c2.81,2.283,3.574,3.577,3.574,7.323v10.605c0,3.691-0.936,5.1-3.861,7.562
			c-2.933,2.46-4.104,2.929-7.683,2.929h-4.453c-3.578,0-4.744-0.469-7.674-2.929c-2.934-2.462-3.869-3.87-3.869-7.562v-10.605
			H1009.802z M1015.431,452.49c0,1.17,0.413,1.934,2.046,3.341c1.235,1.053,2.111,1.529,3.866,1.529h4.453
			c1.762,0,2.638-0.469,3.868-1.529c1.646-1.404,2.047-2.163,2.047-3.341v-10.605c0-1.167-0.406-1.928-2.047-3.342
			c-1.23-1.052-2.114-1.522-3.868-1.522h-4.453c-1.76,0-2.631,0.464-3.866,1.522c-1.641,1.406-2.046,2.169-2.046,3.342V452.49z"/>
		<path fill="#FFFFFF" d="M1068.577,449.971l3.048,5.214l1.762-5.214l0.579-14.527c0.063-1.933,0.418-4.043,2.816-4.043
			c2.466,0,2.813,2.11,2.76,4.043l-0.592,15.641l-2.755,8.323c-0.584,1.695-0.876,3.577-2.872,3.577h-2.164
			c-1.005,0-1.819-1.055-2.352-1.814l-3.041-4.579l-3.045,4.579c-0.535,0.76-1.349,1.814-2.349,1.814h-2.161
			c-1.998,0-2.289-1.882-2.881-3.577l-2.755-8.323l-0.584-15.641c-0.062-1.933,0.292-4.043,2.752-4.043
			c2.399,0,2.761,2.11,2.813,4.043l0.586,14.527l1.755,5.214l3.052-5.214v-5.157c0-1.934,0.414-3.924,2.812-3.924
			c2.403,0,2.813,1.99,2.813,3.924v5.157H1068.577z"/>
	</g>
	<line fill="none" stroke="#FFFFFF" stroke-width="2" x1="54.518" y1="460.746" x2="407.612" y2="460.746"/>
	<line fill="none" stroke="#FFFFFF" stroke-width="2" x1="1157.497" y1="461.967" x2="1546.342" y2="461.967"/>
	<g>
		<path fill="#FFFFFF" d="M83.659,158.228c0-8.203,3.589-12.811,12.82-12.811c9.228,0,12.819,4.607,12.819,12.811v58.966
			l78.193-66.396c3.075-2.564,6.408-5.129,10.507-5.129c7.435,0,12.306,6.154,12.306,13.334c0,4.351-2.82,7.945-5.896,10.765
			l-88.448,75.374l87.94,75.373c3.333,2.819,6.409,6.408,6.409,11.023c0,7.171-4.871,13.33-12.306,13.33
			c-5.384,0-9.735-4.614-13.843-7.691l-74.854-64.349v59.22c0,8.206-3.594,12.82-12.819,12.82c-9.234,0-12.819-4.614-12.819-12.82
			V158.226h-0.009V158.228z"/>
		<path fill="#FFFFFF" d="M382.071,319.233c6.669,0,12.819,3.588,12.819,12.815c0,9.231-6.152,12.82-12.819,12.82H268.243V145.415
			h113.828c6.669,0,12.819,3.589,12.819,12.817c0,9.23-6.152,12.813-12.819,12.813h-88.187v61.272h37.687
			c6.664,0,12.817,3.589,12.817,12.819c0,9.228-6.156,12.815-12.817,12.815h-37.687v61.271h88.187V319.233z"/>
		<path fill="#FFFFFF" d="M528.965,332.048c0,8.206-3.592,12.82-12.816,12.82c-9.234,0-12.82-4.614-12.82-12.82v-82.043
			l-50.505-65.63v-26.144c0-8.21,3.594-12.817,12.82-12.817c9.228,0,12.818,4.607,12.818,12.817v17.434l37.688,48.967l37.686-48.967
			v-17.434c0-8.21,3.589-12.817,12.817-12.817c9.23,0,12.816,4.607,12.816,12.817v26.144l-50.503,65.63V332.048L528.965,332.048z"/>
		<path fill="#FFFFFF" d="M755.077,294.621c5.128,6.667,8.972,12.562,8.972,21.278c0,19.228-14.612,28.97-32.299,28.97h-56.4
			c-9.738,0-18.196-1.796-25.89-8.203c-6.918-5.642-12.054-14.874-12.054-23.844c0-8.205,4.616-15.381,13.591-15.381
			c7.432,0,12.05,6.152,12.05,13.073c0,7.692,4.098,8.719,11.281,8.719h55.632c2.042,0,8.457,0.768,8.457-3.078
			c0-2.051-3.591-5.895-4.613-7.436l-87.933-113.057c-5.384-6.917-8.458-12.051-8.458-21.018c0-10.255,4.864-18.969,13.587-24.617
			c7.174-4.606,13.072-4.606,21.277-4.606h54.345c9.742,0,17.944,2.045,25.387,8.458c6.673,5.898,12.049,15.381,12.049,24.356
			c0,8.201-4.099,14.869-13.329,14.869c-7.687,0-12.301-4.866-12.301-12.049c0-8.717-4.359-9.999-12.306-9.999h-54.35
			c-2.821,0-8.715-0.77-8.715,3.593c0,2.304,2.819,5.384,3.846,6.916L755.077,294.621z"/>
		<path fill="#FFFFFF" d="M890.952,344.872c-19.223,0-30.25-7.69-38.454-24.354l-23.585-47.687
			c-4.355-8.717-6.918-16.918-6.918-26.918c0-11.278,2.047-18.2,7.176-28.459l23.587-47.424
			c8.712-17.69,19.741-24.612,39.474-24.612h43.587c5.638,0,12.809,3.075,12.809,12.816c0,9.231-6.913,12.814-12.809,12.814h-42.815
			c-11.022,0-12.816,1.032-17.688,10.768l-22.308,44.614c-3.331,6.917-5.381,11.536-5.381,19.483c0,7.178,2.308,11.538,5.381,17.686
			l21.796,44.355c5.123,10.512,7.688,11.282,19.226,11.282h41.794c5.639,0,12.812,3.073,12.812,12.816
			c0,9.231-6.914,12.819-12.812,12.819H890.952L890.952,344.872z"/>
		<path fill="#FFFFFF" d="M1126.555,217.452c4.871,9.996,6.668,17.438,6.668,28.458c0,12.301-3.334,19.997-8.463,30.508
			l-23.579,47.178c-6.163,12.301-16.407,21.279-31.277,21.279c-14.872,0-25.124-8.979-31.274-21.279l-23.585-47.178
			c-5.128-10.511-8.463-18.202-8.463-30.508c0-11.023,1.798-18.458,6.669-28.458l25.643-51.013
			c6.15-12.054,16.66-21.021,31.021-21.021s24.872,8.972,31.027,21.021L1126.555,217.452z M1078.611,178.742
			c-2.042-4.101-3.331-7.69-8.715-7.69c-5.386,0-6.665,3.593-8.715,7.69l-23.072,46.402c-3.851,7.437-5.897,12.307-5.897,20.766
			c0,6.668,1.537,11.279,4.358,16.922l24.611,48.71c1.79,3.596,3.587,7.691,8.715,7.691c5.129,0,6.921-4.1,8.715-7.691l24.617-48.71
			c2.823-5.643,4.356-10.254,4.356-16.922c0-8.459-2.055-13.33-5.898-20.766L1078.611,178.742z"/>
		<path fill="#FFFFFF" d="M1216.796,332.048c0,8.206-3.594,12.82-12.818,12.82c-9.237,0-12.816-4.614-12.816-12.82V145.415h86.135
			c20.258,0,40.509,14.357,40.509,37.174v17.684c0,24.099-19.999,36.407-40.509,36.407h-23.585l57.686,82.554
			c2.817,3.849,6.413,8.714,6.413,13.585c0,7.18-5.896,12.057-13.073,12.057c-5.129,0-8.462-3.076-11.279-7.177l-70.762-101.01
			h-5.899V332.048L1216.796,332.048z M1216.796,211.043h56.908c7.178,0,18.456-0.509,18.456-10.767v-17.684
			c0-10.254-10.504-11.542-18.191-11.542h-57.173V211.043z"/>
		<path fill="#FFFFFF" d="M1489.567,319.233c6.673,0,12.818,3.588,12.818,12.815c0,9.231-6.151,12.82-12.818,12.82h-113.828V145.415
			h113.828c6.673,0,12.818,3.589,12.818,12.817c0,9.23-6.151,12.813-12.818,12.813h-88.185v61.272h37.688
			c6.665,0,12.811,3.589,12.811,12.819c0,9.228-6.15,12.815-12.811,12.815h-37.688v61.271h88.185V319.233z"/>
	</g>
</g>
</svg>
