<?xml version="1.0" encoding="UTF-8" standalone="no"?>
<svg
   xmlns:dc="http://purl.org/dc/elements/1.1/"
   xmlns:cc="http://creativecommons.org/ns#"
   xmlns:rdf="http://www.w3.org/1999/02/22-rdf-syntax-ns#"
   xmlns:svg="http://www.w3.org/2000/svg"
   xmlns="http://www.w3.org/2000/svg"
   xmlns:sodipodi="http://sodipodi.sourceforge.net/DTD/sodipodi-0.dtd"
   xmlns:inkscape="http://www.inkscape.org/namespaces/inkscape"
   viewBox="0 0 32 32"
   version="1.1"
   id="svg11"
   sodipodi:docname="documentation.svg"
   inkscape:version="0.92.3 (2405546, 2018-03-11)">
  <metadata
     id="metadata15">
    <rdf:RDF>
      <cc:Work
         rdf:about="">
        <dc:format>image/svg+xml</dc:format>
        <dc:type
           rdf:resource="http://purl.org/dc/dcmitype/StillImage" />
      </cc:Work>
    </rdf:RDF>
  </metadata>
  <sodipodi:namedview
     pagecolor="#ffffff"
     bordercolor="#666666"
     borderopacity="1"
     objecttolerance="10"
     gridtolerance="10"
     guidetolerance="10"
     inkscape:pageopacity="0"
     inkscape:pageshadow="2"
     inkscape:window-width="640"
     inkscape:window-height="480"
     id="namedview13"
     showgrid="false"
     inkscape:zoom="7.375"
     inkscape:cx="16"
     inkscape:cy="16"
     inkscape:window-x="0"
     inkscape:window-y="36"
     inkscape:window-maximized="0"
     inkscape:current-layer="svg11" />
  <defs
     id="defs4">
    <style
       id="style2">.cls-1{fill:#231f20;}</style>
  </defs>
  <title
     id="title6" />
  <g
     data-name="Layer 3"
     id="Layer_3"
     style="fill:#ffffff">
    <path
       class="cls-1"
       d="M3.82,22.9l-.36.36a1.87,1.87,0,0,0,0,2.64L6.1,28.54a1.85,1.85,0,0,0,1.32.55h0a1.86,1.86,0,0,0,1.32-.55l.37-.37a14,14,0,0,0,13.79,0l.37.37a1.85,1.85,0,0,0,1.32.55h0a1.85,1.85,0,0,0,1.32-.55l2.64-2.64a1.87,1.87,0,0,0,0-2.64l-.37-.37a13.94,13.94,0,0,0,0-13.78l.37-.37a1.87,1.87,0,0,0,0-2.64L25.91,3.45a1.85,1.85,0,0,0-1.32-.55h0a1.85,1.85,0,0,0-1.32.55l-.37.37a14,14,0,0,0-13.79,0l-.37-.37a1.85,1.85,0,0,0-1.32-.55h0a1.85,1.85,0,0,0-1.32.55L3.46,6.1a1.87,1.87,0,0,0,0,2.64l.36.36a14,14,0,0,0,0,13.8Zm0-6.9A12.14,12.14,0,0,1,5.2,10.47L8,13.32A8.34,8.34,0,0,0,7.6,16,8.45,8.45,0,0,0,8,18.68L5.2,21.52A12.14,12.14,0,0,1,3.86,16Zm6.4-3.15.17-.28.16-.25.19-.25.19-.24.21-.23.22-.23.22-.2.25-.22.22-.16.28-.21.23-.14.3-.18.34-.16.22-.11a6.63,6.63,0,0,1,5.1,0,6.46,6.46,0,0,1,1.1.6A6.63,6.63,0,0,1,22,13.45a6.57,6.57,0,0,1,0,5.09q-.12.29-.27.56l-.12.2c-.07.11-.13.22-.2.33l-.17.23-.2.27-.2.22-.22.24-.22.2-.24.22-.24.18-.26.19-.26.16-.27.17-.27.14-.29.14,0,0a6.52,6.52,0,0,1-9.08-6A6.44,6.44,0,0,1,10,13.45l0,0c0-.1.1-.2.14-.3ZM4.78,24.57l4.1-4.1.07.1c.11.17.23.33.35.49l.17.22a8.57,8.57,0,0,0,1.25,1.24l.22.16c.16.12.33.25.5.36l.09.07L7.42,27.22ZM16,28.13a12.06,12.06,0,0,1-5.51-1.33L13.32,24a8.33,8.33,0,0,0,5.35,0l2.84,2.84A12.14,12.14,0,0,1,16,28.13Zm11.23-3.56h0l-2.64,2.65-4.11-4.11.1-.07c.17-.11.33-.23.49-.35l.22-.17a8.57,8.57,0,0,0,1.24-1.24l.17-.22c.12-.16.24-.33.35-.5l.07-.1,4.11,4.11ZM28.13,16a12.06,12.06,0,0,1-1.33,5.51L24,18.67a8.34,8.34,0,0,0,0-5.35l2.84-2.84A12.06,12.06,0,0,1,28.13,16ZM24.59,4.77l2.64,2.65.66-.66-4.77,4.77-.07-.1c-.11-.17-.23-.33-.35-.49l-.17-.23c-.18-.22-.37-.43-.56-.63l0,0c-.2-.2-.41-.39-.63-.56L21,9.29,20.57,9l-.1-.07ZM16,3.86A12.14,12.14,0,0,1,21.52,5.2L18.68,8a8.51,8.51,0,0,0-5.35,0L10.48,5.2A12.06,12.06,0,0,1,16,3.86Zm-8.58.91.88.88h0l3.23,3.23-.1.07c-.17.11-.33.23-.49.35l-.23.17a8.57,8.57,0,0,0-1.24,1.24l-.17.23c-.12.16-.24.32-.35.48l-.07.1-4.1-4.1Z"
       id="path8"
       style="fill:#ffffff" />
  </g>
</svg>
