<?xml version="1.0" encoding="utf-8"?>
<!-- Generator: Adobe Illustrator 12.0.0, SVG Export Plug-In . SVG Version: 6.00 Build 51448)  -->
<!DOCTYPE svg PUBLIC "-//W3C//DTD SVG 1.1//EN" "http://www.w3.org/Graphics/SVG/1.1/DTD/svg11.dtd" [
	<!ENTITY ns_svg "http://www.w3.org/2000/svg">
	<!ENTITY ns_xlink "http://www.w3.org/1999/xlink">
]>
<svg  version="1.1" id="Ebene_1" xmlns="&ns_svg;" xmlns:xlink="&ns_xlink;" width="1661.877" height="1052.937"
	 viewBox="0 0 1661.877 1052.937" overflow="visible" enable-background="new 0 0 1661.877 1052.937" xml:space="preserve">
<g>
	<g>
		<path fill="#FFFFFF" stroke="#FFFFFF" stroke-width="4" d="M1480.878,494.168"/>
		<path fill="none" stroke="#FFFFFF" stroke-width="7" d="M1532.666,468.668c0,25.186-20.414,45.605-45.604,45.605
			c-25.186,0-45.599-20.419-45.599-45.605c0-18.175,10.635-33.87,26.02-41.197c5.934-2.825,12.571-4.405,19.579-4.405
			C1507.657,423.066,1532.666,438.891,1532.666,468.668z"/>
		<g>
			<g>
				<path fill="none" d="M1471.346,509.664c-0.411-0.207-0.814-0.41-1.212-0.617c-61.032-31.529-7.188-78.494-7.188-78.494
					l-78.891-15.321v107.485L1471.346,509.664z"/>
				<path fill="#FFFFFF" d="M1471.867,508.257c-11.199-5.704-22.247-13.452-27.248-25.42c-3.39-8.112-2.308-17.139,0.75-25.147
					c3.729-9.764,10.687-19.099,18.549-25.992c1.043-0.915,0.411-2.397-0.829-2.638c-26.297-5.107-52.594-10.214-78.891-15.321
					c-0.75-0.146-1.636,0.589-1.636,1.352c0,35.829,0,71.657,0,107.485c0,0.982,0.725,1.773,1.755,1.619
					c29.097-4.351,58.193-8.702,87.29-13.053c1.915-0.286,1.389-3.24-0.521-2.954c-29.097,4.351-58.193,8.702-87.29,13.053
					c0.585,0.54,1.17,1.079,1.755,1.619c0-35.828,0-71.657,0-107.485c-0.546,0.451-1.091,0.901-1.636,1.352
					c26.297,5.107,52.594,10.214,78.891,15.321c-0.276-0.879-0.553-1.758-0.829-2.638c-8.936,7.834-16.467,18.442-20.305,29.683
					c-2.911,8.524-2.863,17.613,0.619,25.947c5.107,12.224,17.207,20.264,28.535,26.032
					C1472.551,511.949,1473.568,509.123,1471.867,508.257z"/>
			</g>
		</g>
		<g>
			<g>
				<g>
					<g>
						<path fill="none" stroke="#FFFFFF" stroke-width="3" d="M1587.719,800.685c-0.022-3.084-0.428-6.075-1.159-8.936l11.47-6.009
							l-2.46-5.955l-12.318,3.534c-3.26-6.007-8.133-11.002-14.033-14.419l3.556-11.57l-5.966-2.432l-5.759,10.509
							c-3.363-0.979-6.919-1.499-10.601-1.475c-3.626,0.025-7.123,0.58-10.428,1.574l-5.883-10.38l-5.923,2.515l3.678,11.431
							c-5.845,3.458-10.659,8.467-13.862,14.468l-12.304-3.348l-2.377,5.974l11.437,5.811c-0.734,2.949-1.115,6.036-1.094,9.215
							c0.023,3.438,0.525,6.759,1.424,9.912l-10.995,6.503l2.626,5.876l11.89-4.071c3.351,5.802,8.228,10.604,14.08,13.866
							l-3.252,11.911l5.988,2.385l5.54-10.926c3.175,0.861,6.514,1.32,9.963,1.297c3.56-0.023,6.993-0.559,10.244-1.518
							l5.957,10.528l5.929-2.536l-3.71-11.531c5.847-3.423,10.668-8.396,13.896-14.361l12.294,3.354l2.382-5.983l-11.383-5.778
							C1587.336,807.103,1587.741,803.942,1587.719,800.685z"/>
					</g>
				</g>
				<path fill-rule="evenodd" clip-rule="evenodd" fill="none" stroke="#FFFFFF" stroke-width="2" d="M1550.748,782.156
					c-11.062,0.086-19.959,9.107-19.888,20.171c0.085,11.055,9.118,19.961,20.172,19.887c11.059-0.072,19.957-9.104,19.886-20.159
					C1570.848,790.997,1561.807,782.081,1550.748,782.156z"/>
			</g>
		</g>
		<path fill="none" stroke="#FFFFFF" stroke-width="2" d="M1660.877,585.648c0,12.581-10.197,22.782-22.775,22.782
			c-12.583,0-22.78-10.201-22.78-22.782c0-12.58,10.197-22.777,22.78-22.777C1650.68,562.871,1660.877,573.068,1660.877,585.648z"/>
		<path fill="none" stroke="#FFFFFF" stroke-width="3" d="M1457.541,506.003l146.939,76.932c0,0-2.762-36.286,29.206-33.254
			l-114.814-111.694"/>
		<line fill="none" stroke="#FFFFFF" x1="1538.252" y1="474.564" x2="1617.313" y2="546.496"/>
		<path fill="none" stroke="#FFFFFF" stroke-width="4" d="M1510.359,467.051c0,13.627-11.05,24.679-24.679,24.679
			c-13.627,0-24.681-11.051-24.681-24.679c0-13.631,11.054-24.677,24.681-24.677C1499.309,442.374,1510.359,453.42,1510.359,467.051
			z"/>
		<path fill="none" stroke="#FFFFFF" stroke-width="2" d="M1650.554,586.178c0,6.808-5.516,12.323-12.324,12.323
			c-6.808,0-12.327-5.516-12.327-12.323c0-6.802,5.52-12.323,12.327-12.323C1645.039,573.854,1650.554,579.376,1650.554,586.178z"/>
		<path fill="none" stroke="#FFFFFF" stroke-width="3" d="M1599.62,715.998l50.9-100.413
			c-25.333,11.068-39.759-15.058-39.759-15.058l-40.652,104.604L1599.62,715.998z"/>
		<polyline fill="none" stroke="#FFFFFF" stroke-width="2" points="1572.364,704.895 1564.366,739.41 1580.396,744.632 
			1596.812,714.687 		"/>
		<line fill="none" stroke="#FFFFFF" x1="1630.896" y1="630.499" x2="1597.607" y2="698.04"/>
		<path fill="none" d="M1647.149,586.138c0,4.979-4.038,9.019-9.021,9.019c-4.983,0-9.021-4.04-9.021-9.019
			c0-4.985,4.037-9.021,9.021-9.021C1643.111,577.116,1647.149,581.152,1647.149,586.138z"/>
		<polygon fill="#FFFFFF" stroke="#FFFFFF" points="1519.745,780.89 1506.708,754.717 1516.894,719.776 1569.342,717.037 
			1563.858,737.549 1526.811,733.556 1517.356,754.421 		"/>
		<polygon fill="#FFFFFF" stroke="#FFFFFF" points="1587.394,805.13 1614.401,793.945 1629.523,761.249 1591.744,724.76 
			1582.426,743.823 1612.995,765.131 1606.571,786.733 		"/>
		<g>
			<line fill="#D50C1C" x1="1394.904" y1="435.91" x2="1394.904" y2="502.252"/>
			<g>
				<line fill="none" x1="1394.904" y1="435.91" x2="1394.904" y2="502.252"/>
				<path fill="#FFFFFF" d="M1393.388,438.375c0,22.114,0,44.228,0,66.342c0-0.767,3.031-3.294,3.031-4.931
					c0-22.114,0-44.229,0-66.342C1396.419,434.211,1393.388,436.739,1393.388,438.375L1393.388,438.375z"/>
			</g>
		</g>
	</g>
	<g>
		<g>
			<g>
				<path fill="#FFFFFF" d="M1170.241,840.141l-22.176,23.389l9.877,11.753l26.328-18.35L1170.241,840.141z M1157.25,809.987
					l-28.963,14.138l5.128,14.464l31.09-7.955L1157.25,809.987z M1156.766,775.91l-32.199,1.398l-1.073,15.314l31.687,5.109
					L1156.766,775.91z M1183.273,894.428l13.762,6.802l16.747-27.377l-19.585-9.746L1183.273,894.428z M1328.627,787.894
					l-1.586,21.826l32.088-0.479l1.156-15.304L1328.627,787.894z M1225.467,908.626l15.308,1.153l6.045-31.657l-21.825-1.587
					L1225.467,908.626z M1314.327,840.663l30.322,10.918l6.799-13.758l-27.381-16.748L1314.327,840.663z M1290.894,863.819
					l23.598,21.947l11.657-9.984l-18.604-26.15L1290.894,863.819z M1258.975,874.799l13.472,30.943l14.563-4.862l-7.265-32.952
					L1258.975,874.799z"/>
			</g>
			<g>
				<path fill="none" stroke="#FFFFFF" stroke-width="3" d="M1170.241,840.141l-22.176,23.389l9.877,11.753l26.328-18.35
					L1170.241,840.141z M1157.25,809.987l-28.963,14.138l5.128,14.464l31.09-7.955L1157.25,809.987z M1156.766,775.91l-32.199,1.398
					l-1.073,15.314l31.687,5.109L1156.766,775.91z M1183.273,894.428l13.762,6.802l16.747-27.377l-19.585-9.746L1183.273,894.428z
					 M1328.627,787.894l-1.586,21.826l32.088-0.479l1.156-15.304L1328.627,787.894z M1225.467,908.626l15.308,1.153l6.045-31.657
					l-21.825-1.587L1225.467,908.626z M1314.327,840.663l30.322,10.918l6.799-13.758l-27.381-16.748L1314.327,840.663z
					 M1290.894,863.819l23.598,21.947l11.657-9.984l-18.604-26.15L1290.894,863.819z M1258.975,874.799l13.472,30.943l14.563-4.862
					l-7.265-32.952L1258.975,874.799z"/>
			</g>
		</g>
		<path fill-rule="evenodd" clip-rule="evenodd" fill="none" stroke="#FFFFFF" stroke-width="6" d="M1274.368,797.311
			c-1.271,17.481-16.474,30.622-33.957,29.352c-17.482-1.272-30.619-16.473-29.349-33.954c1.271-17.479,16.471-30.622,33.95-29.352
			C1262.498,764.627,1275.637,779.833,1274.368,797.311z"/>
		<path fill-rule="evenodd" clip-rule="evenodd" fill="#FFFFFF" stroke="#FFFFFF" stroke-width="2" d="M1253.989,874.938
			c-13.254-24.378-0.961-49.097-0.961-49.097c-12.281,8.204-27.446-3.678-27.446-3.678s5.357,27.088-13.842,47.119
			c0,0,13.919,10.734,41.162,6.377L1253.989,874.938z"/>
		<path fill-rule="evenodd" clip-rule="evenodd" fill="#FFFFFF" stroke="#FFFFFF" stroke-width="2" d="M1326.664,786.891
			c-25.572,13.09-51.692,0.615-51.692,0.615c8.73,12.348-3.672,27.446-3.672,27.446s28.481-5.172,49.708,14.187
			c0,0,11.208-13.858,6.425-41.155L1326.664,786.891z"/>
		<path fill-rule="evenodd" clip-rule="evenodd" fill="#FFFFFF" stroke="#FFFFFF" stroke-width="2" d="M1161.692,805.878
			c24.374-13.255,49.097-0.961,49.097-0.961c-8.206-12.28,3.674-27.445,3.674-27.445s-27.084,5.356-47.113-13.843
			c0,0-10.736,13.921-6.381,41.159L1161.692,805.878z"/>
	</g>
	<g>
		<g>
			<g>
				<path fill="#FFFFFF" d="M1005.288,812.541l2.997,7.286l14.802-5.283l-4.247-10.398L1005.288,812.541z M1022.553,770.858
					l-15.097-4.506l-2.814,7.37l13.875,7.629L1022.553,770.858z M1114.364,773.988l-2.813-7.372l-15.096,4.504l4.036,10.494
					L1114.364,773.988z M1034.444,846.825l6.916,3.002l7.16-14.786l-9.846-4.306L1034.444,846.825z M1096.127,814.101l15.093,4.506
					l2.814-7.37l-13.874-7.632L1096.127,814.101z M1070.481,834.723l7.624,14.602l6.891-3.063l-4.686-15.874L1070.481,834.723z"/>
			</g>
			<g>
				<path fill="none" stroke="#FFFFFF" stroke-width="4" d="M1005.288,812.541l2.997,7.286l14.802-5.283l-4.247-10.398
					L1005.288,812.541z M1022.553,770.858l-15.097-4.506l-2.814,7.37l13.875,7.629L1022.553,770.858z M1114.364,773.988
					l-2.813-7.372l-15.096,4.504l4.036,10.494L1114.364,773.988z M1034.444,846.825l6.916,3.002l7.16-14.786l-9.846-4.306
					L1034.444,846.825z M1096.127,814.101l15.093,4.506l2.814-7.37l-13.874-7.632L1096.127,814.101z M1070.481,834.723l7.624,14.602
					l6.891-3.063l-4.686-15.874L1070.481,834.723z"/>
			</g>
		</g>
		<path fill-rule="evenodd" clip-rule="evenodd" fill="#FFFFFF" d="M1060.069,773.175c-13.41,0-24.283,10.896-24.283,24.331
			s10.873,24.331,24.283,24.331c13.413,0,24.285-10.896,24.285-24.331S1073.482,773.175,1060.069,773.175z"/>
		<polygon fill-rule="evenodd" clip-rule="evenodd" fill="#FFFFFF" points="1095.932,820.418 1084.76,831.588 1071.56,811.075 
			1075.418,807.217 		"/>
		<polygon fill-rule="evenodd" clip-rule="evenodd" fill="#FFFFFF" points="1037.428,829.575 1026.258,818.408 1046.771,805.204 
			1050.627,809.063 		"/>
		<polygon fill-rule="evenodd" clip-rule="evenodd" fill="#FFFFFF" points="1024.536,768.777 1039.151,757.608 1052.353,778.12 
			1045.05,781.978 		"/>
		<polygon fill-rule="evenodd" clip-rule="evenodd" fill="#FFFFFF" points="1082.061,760.537 1093.231,771.706 1072.718,784.906 
			1068.859,781.049 		"/>
		<path fill-rule="evenodd" clip-rule="evenodd" fill="#FFFFFF" d="M1059.936,777.518c-10.315,0-18.673,8.378-18.673,18.718
			s8.357,18.716,18.673,18.716c10.322,0,18.684-8.376,18.684-18.716S1070.258,777.518,1059.936,777.518z"/>
	</g>
	<path fill="#FFFFFF" stroke="#000000" stroke-width="2" d="M263.735,721.468"/>
	<g>
		<path fill="none" stroke="#000000" stroke-width="4" d="M534.093,769.031"/>
		<g>
			<rect x="1153.283" y="151.072" fill="none" stroke="#FFFFFF" stroke-width="3" width="42.194" height="225.04"/>
			<rect x="1216.353" y="88.399" fill="none" stroke="#FFFFFF" stroke-width="3" width="42.196" height="288.336"/>
			<rect x="1277.766" y="215.54" fill="none" stroke="#FFFFFF" stroke-width="3" width="42.195" height="160.572"/>
			<rect x="1098.481" y="318.866" fill="none" stroke="#FFFFFF" stroke-width="3" width="42.2" height="57.137"/>
			<polyline fill="none" stroke="#FFFFFF" stroke-width="7" points="426.047,375.883 1386.5,375.883 1354.611,360.269 			"/>
			<g>
				<g>
					<g>
						<line fill="none" x1="296.089" y1="176.276" x2="296.089" y2="330.946"/>
						<path fill="#FFFFFF" d="M293.102,175.993c0,48.747,0,97.494,0,146.241c0,2.81,0,5.619,0,8.429
							c0,3.841,5.975,4.431,5.975,0.566c0-48.747,0-97.494,0-146.241c0-2.81,0-5.619,0-8.429
							C299.077,172.718,293.102,172.129,293.102,175.993L293.102,175.993z"/>
					</g>
				</g>
				<g>
					<g>
						<line fill="none" x1="354.672" y1="78.466" x2="354.672" y2="396.129"/>
						<path fill="#FFFFFF" d="M351.641,83.397c0,40.235,0,80.471,0,120.707c0,58.265,0,116.53,0,174.795c0,7.387,0,14.774,0,22.161
							c0,0.669,2.518-2.908,2.734-3.26c1-1.626,3.327-4.577,3.327-6.602c0-40.235,0-80.471,0-120.707c0-58.265,0-116.53,0-174.795
							c0-7.387,0-14.774,0-22.161c0-0.669-2.518,2.908-2.734,3.26C353.969,78.422,351.641,81.372,351.641,83.397L351.641,83.397z"/>
					</g>
				</g>
				<g>
					<g>
						<line fill="none" x1="411.591" y1="186.908" x2="411.591" y2="361.293"/>
						<path fill="#FFFFFF" d="M408.604,186.625c0,49.903,0,99.807,0,149.71c0,8.225,0,16.45,0,24.674
							c0,3.841,5.975,4.431,5.975,0.566c0-49.904,0-99.807,0-149.71c0-8.225,0-16.45,0-24.674
							C414.579,183.35,408.604,182.761,408.604,186.625L408.604,186.625z"/>
					</g>
				</g>
				<g>
					<g>
						<line fill="none" x1="411.591" y1="78.466" x2="411.591" y2="159.476"/>
						<path fill="#FFFFFF" d="M408.604,78.183c0,27.003,0,54.006,0,81.009c0,3.841,5.975,4.431,5.975,0.566
							c0-27.003,0-54.006,0-81.009C414.579,74.908,408.604,74.319,408.604,78.183L408.604,78.183z"/>
					</g>
				</g>
				<path fill="#FFFFFF" d="M385.253,215.986c0,8.276-6.712,14.982-14.983,14.982h-30.614c-8.271,0-14.984-6.706-14.984-14.982l0,0
					c0-8.276,6.713-14.982,14.984-14.982h30.614C378.541,201.004,385.253,207.709,385.253,215.986L385.253,215.986z"/>
				<path fill="none" stroke="#FFFFFF" stroke-width="4" d="M434.291,173.305c0,6.015-4.882,10.896-10.896,10.896h-22.267
					c-6.014,0-10.897-4.882-10.897-10.896l0,0c0-6.02,4.883-10.896,10.897-10.896h22.267
					C429.409,162.408,434.291,167.285,434.291,173.305L434.291,173.305z"/>
			</g>
			<polyline fill="none" stroke="#FFFFFF" stroke-width="5" points="487.694,377.519 634.832,203.006 728.93,333.033 777.69,220.97 
				965.891,181.619 1121.604,40.471 			"/>
			<g>
				<g>
					<polyline fill="none" stroke="#FFFFFF" stroke-width="4" points="282.235,759.21 226.608,777.907 226.608,843.344 
						205.648,858.497 					"/>
					<path fill="none" stroke="#FFFFFF" stroke-width="4" d="M207.966,863.141c0,5.134-4.129,9.299-9.217,9.299
						c-5.094,0-9.218-4.165-9.218-9.299c0-5.125,4.125-9.285,9.218-9.285C203.837,853.855,207.966,858.016,207.966,863.141z"/>
					<polyline fill="none" stroke="#FFFFFF" stroke-width="4" points="256.132,768.113 256.461,798.382 226.631,820.162 					"/>
				</g>
				<g>
					<g>
						<polyline fill="none" stroke="#FFFFFF" stroke-width="4" points="401.564,756.307 401.564,758.78 401.564,992.771 
							417.309,1001.574 						"/>
						<polyline fill="none" stroke="#FFFFFF" stroke-width="4" points="423.927,756.307 423.927,957.313 458.051,975.854 						"/>
						<polyline fill="none" stroke="#FFFFFF" stroke-width="4" points="291.173,962.031 305.633,950.376 305.633,949.531 
							305.633,756.066 						"/>
						<path fill="none" stroke="#FFFFFF" stroke-width="4" d="M432.675,1005.863c0,4.93-3.994,8.93-8.927,8.93
							c-4.931,0-8.933-4-8.933-8.93c0-4.928,4.001-8.928,8.933-8.928C428.681,996.936,432.675,1000.936,432.675,1005.863z"/>
						<path fill="none" stroke="#FFFFFF" stroke-width="4" d="M531.894,880.937c0,4.934-4,8.933-8.933,8.933
							c-4.927,0-8.928-3.999-8.928-8.933c0-4.93,4.001-8.927,8.928-8.927C527.894,872.01,531.894,876.007,531.894,880.937z"/>
						<polyline fill="none" stroke="#FFFFFF" stroke-width="4" points="423.605,855.868 499.311,908.052 518.009,887.177 						"/>
						<polyline fill="none" stroke="#FFFFFF" stroke-width="4" points="305.123,803.446 323.944,877.44 323.517,913.369 
							323.517,981.462 315.819,997.828 						"/>
						<polyline fill="none" stroke="#FFFFFF" stroke-width="4" points="303.836,758.913 347.466,872.849 347.466,945.558 
							347.466,951.975 320.517,987.562 						"/>
						<path fill="none" stroke="#FFFFFF" stroke-width="4" d="M294.33,967.144c0,4.934-3.998,8.933-8.926,8.933
							c-4.934,0-8.933-3.999-8.933-8.933s3.999-8.928,8.933-8.928C290.332,958.216,294.33,962.21,294.33,967.144z"/>
						<path fill="none" stroke="#FFFFFF" stroke-width="4" d="M473.481,979.402c0,4.931-4,8.932-8.932,8.932
							c-4.934,0-8.929-4.001-8.929-8.932c0-4.929,3.995-8.927,8.929-8.927C469.48,970.476,473.481,974.474,473.481,979.402z"/>
						<polyline fill="none" stroke="#FFFFFF" stroke-width="4" points="401.564,758.78 369.286,794.708 369.286,1034.229 						"/>
						<path fill="none" stroke="#FFFFFF" stroke-width="4" d="M378.644,1042.002c0,4.935-4,8.935-8.932,8.935
							c-4.933,0-8.929-4-8.929-8.935c0-4.931,3.996-8.927,8.929-8.927C374.643,1033.075,378.644,1037.071,378.644,1042.002z"/>
						<path fill="none" stroke="#FFFFFF" stroke-width="4" d="M319.897,1006.956c0,4.931-4.001,8.929-8.929,8.929
							c-4.932,0-8.932-3.998-8.932-8.929c0-4.929,4-8.929,8.932-8.929C315.896,998.027,319.897,1002.027,319.897,1006.956z"/>
					</g>
					<polyline fill="none" stroke="#FFFFFF" stroke-width="4" points="305.272,801.516 259.293,844.717 259.293,890.269 
						240.682,908.876 					"/>
					<path fill="none" stroke="#FFFFFF" stroke-width="4" d="M244.864,913.782c0,4.933-4,8.933-8.933,8.933s-8.928-4-8.928-8.933
						c0-4.932,3.995-8.929,8.928-8.929S244.864,908.851,244.864,913.782z"/>
					<polyline fill="none" stroke="#FFFFFF" stroke-width="4" points="423.966,794.887 448.986,806.862 471.443,889.201 					"/>
				</g>
			</g>
			<g>
				<g>
					<g>
						<g>
							<path fill="none" d="M267.07,585.96c-4.983-28.33-29.714-49.855-59.468-49.855c-33.347,0-60.377,27.037-60.377,60.386
								c0,33.347,27.031,60.379,60.377,60.379c1.153,0,2.3-0.029,3.438-0.096c0,0,15.018,1.68,32.946-11.767"/>
							<path fill="#FFFFFF" d="M271.502,585.179c-4.202-22.371-19.44-40.8-40.559-49.248c-21.212-8.484-45.703-4.11-63.577,9.659
								c-17.873,13.768-26.458,36.483-24.178,58.626c2.282,22.158,17,41.155,36.638,50.902c21.903,10.87,47.718,7.432,67.072-6.679
								c4.689-3.419-1.153-10.27-5.823-6.865c-16.508,12.036-36.87,14.049-55.718,6.199c-21.211-8.834-34.363-31.002-33.587-53.661
								c0.788-23.02,16.342-42.724,37.67-50.518c22.258-8.133,47.483,0.312,62.092,18.347c5.787,7.145,9.418,15.811,11.107,24.799
								C263.709,592.442,272.574,590.886,271.502,585.179L271.502,585.179z"/>
						</g>
					</g>
					<g>
						<g>
							<path fill="none" d="M221.901,598.378c0,7.343-5.947,13.298-13.297,13.298c-7.344,0-13.293-5.955-13.293-13.298
								c0-7.345,5.949-13.295,13.293-13.295C215.954,585.083,221.901,591.033,221.901,598.378z"/>
							<path fill="#FFFFFF" d="M218.914,598.095c-0.652,12.933-18.616,13.996-20.58,1.122c-0.889-5.827,4.2-10.313,9.431-11.11
								c6.492-0.99,10.892,5.06,11.181,10.792c0.195,3.858,6.101,2.77,5.909-1.041c-0.443-8.779-7.255-15.322-15.968-15.762
								c-9.083-0.458-16.128,7.368-16.563,15.999c-0.458,9.082,7.366,16.133,15.997,16.568c9.085,0.459,16.132-7.37,16.567-16.002
								C225.083,594.802,219.108,594.231,218.914,598.095z"/>
						</g>
					</g>
					<g>
						<path fill="#FFFFFF" d="M221.673,590.762c-1.801-5.833-7.456-5.544-7.456-5.544s-3.546-0.921-4.035-0.394l22.22-25.9
							l4.111,2.046l-13.995,31.542"/>
					</g>
					<g>
						<path fill="#FFFFFF" d="M225.503,555.521l-4.215,3.329c0,0-31.976-2.595-45.479,4.541
							C175.809,563.391,201.088,550.328,225.503,555.521z"/>
					</g>
				</g>
				<g>
					<g>
						<g>
							<path fill="none" d="M190.864,441.385c0,17.954-14.555,32.516-32.516,32.516c-17.958,0-32.517-14.562-32.517-32.516
								c0-17.958,14.558-32.515,32.517-32.515C176.31,408.87,190.864,423.426,190.864,441.385z"/>
							<path fill="#FFFFFF" d="M186.383,440.96c-0.318,15.321-11.943,28.134-27.61,28.459c-15.323,0.318-28.145-12.421-28.46-27.61
								c-0.318-15.325,12.421-28.144,27.611-28.459C173.25,413.033,186.068,425.769,186.383,440.96
								c0.119,5.742,9.082,6.638,8.962,0.85c-0.421-20.305-15.922-36.993-36.572-37.421c-20.308-0.421-37.007,16.555-37.422,36.571
								c-0.421,20.307,16.559,37.006,36.573,37.421c20.307,0.421,37.006-16.557,37.421-36.572
								C195.465,436.033,186.503,435.16,186.383,440.96z"/>
						</g>
					</g>
					<g>
						<path fill="#FFFFFF" d="M184.398,427.71c-5.312-16.441-22.078-15.608-22.078-15.608s-10.522-2.587-11.976-1.103l65.988-73.105
							l12.181,5.759l-41.614,88.98"/>
						<g>
							<path fill="none" d="M184.398,427.71c-5.312-16.441-22.078-15.608-22.078-15.608s-10.522-2.587-11.976-1.103l65.988-73.105
								l12.181,5.759l-41.614,88.98"/>
							<path fill="#FFFFFF" d="M185.753,427.066c-3.141-8.918-10.137-14.617-19.4-16.174c-2.297-0.386-3.603-0.229-5.383-0.626
								c-3.008-0.672-8.399-2.451-11.269-0.622c0.625,0.739,1.249,1.478,1.873,2.216c21.996-24.368,43.992-48.737,65.988-73.105
								c-0.583,0.182-1.166,0.364-1.749,0.546c4.06,1.92,8.12,3.839,12.181,5.759c-0.295-0.642-0.591-1.285-0.886-1.927
								c-13.872,29.66-27.743,59.32-41.615,88.98c-0.821,1.757,2.001,2.779,2.814,1.041c13.871-29.66,27.743-59.32,41.614-88.98
								c0.369-0.787-0.196-1.602-0.886-1.927c-4.06-1.92-8.12-3.839-12.181-5.759c-0.656-0.311-1.322,0.073-1.749,0.546
								c-21.996,24.368-43.992,48.737-65.988,73.105c-0.986,1.092,0.629,3.008,1.873,2.216c2.99-1.906,9.7,1.036,13.365,1.316
								c8.933,0.683,15.741,6.309,18.69,14.683C183.685,430.176,186.391,428.875,185.753,427.066L185.753,427.066z"/>
						</g>
					</g>
					<g>
						<path fill="#FFFFFF" d="M203.632,330.603l-12.597,13.242c0,0-95.576-10.336-135.936,18.079
							C55.1,361.923,130.656,309.94,203.632,330.603z"/>
						<g>
							<path fill="none" d="M203.632,330.603l-12.597,13.242c0,0-95.576-10.336-135.936,18.079
								C55.1,361.923,130.656,309.94,203.632,330.603z"/>
							<path fill="#FFFFFF" d="M202.661,329.458c-3.703,3.893-7.406,7.786-11.109,11.679c-0.48,0.504-0.96,1.009-1.44,1.514
								c0.479-0.503,1.552-0.251,0.616-0.347c-1.139-0.116-2.279-0.217-3.419-0.315c-11.814-1.017-23.684-1.451-35.539-1.472
								c-17.439-0.029-34.951,0.987-52.161,3.889c-15.851,2.673-32.116,7.133-45.48,16.373c-1.591,1.101,0.36,3.372,1.941,2.288
								c13.883-9.52,29.694-16.775,45.361-22.743c32.186-12.261,68.028-17.599,101.68-8.314c1.854,0.511,2.905-2.3,1.041-2.814
								c-33.768-9.316-69.091-4.258-101.573,7.513c-16.795,6.086-33.664,13.931-48.451,24.071c0.647,0.763,1.294,1.525,1.941,2.288
								c13.938-9.637,31.15-13.699,47.65-16.292c17.506-2.75,35.324-3.44,53.022-3.236c10.602,0.123,21.215,0.616,31.776,1.568
								c2.137,0.192,2.966,0.428,4.549-1.235c3.845-4.042,7.69-8.084,11.535-12.126C205.92,330.361,203.997,328.055,202.661,329.458
								z"/>
						</g>
					</g>
					<g>
						<g>
							<path fill="none" d="M297.538,409.032c-12.179-69.277-72.655-121.912-145.418-121.912
								c-81.548,0-147.655,66.108-147.655,147.661c0,76.313,57.899,139.109,132.166,146.847"/>
							<path fill="#FFFFFF" d="M301.969,408.251c-8.077-44.699-35.962-83.989-75.566-106.269
								c-40.252-22.645-89.458-25.228-132.153-7.963c-40.878,16.53-72.892,51.589-86.731,93.292
								c-14.398,43.385-7.822,92.403,17.178,130.59c24.976,38.15,66.208,63.273,111.508,68.209c5.783,0.63,6.607-8.335,0.85-8.963
								c-45.348-4.941-86.132-31.435-109.027-70.917c-23.264-40.119-24.959-89.918-5.72-131.918
								c18.605-40.617,56.824-70.384,100.336-79.656c45.598-9.717,94.133,4.21,127.948,36.179
								c22.234,21.02,37.083,48.92,42.514,78.979C294.138,415.524,303.001,413.963,301.969,408.251L301.969,408.251z"/>
						</g>
					</g>
				</g>
				<rect x="267.682" y="409.77" fill="none" stroke="#FFFFFF" stroke-width="11" width="1104.458" height="350.553"/>
				<path fill="#FFFFFF" stroke="#000000" stroke-width="4" d="M1091.11,798.067"/>
				<g>
					<path fill="#FFFFFF" d="M596,701.888c-0.821,0-2.217-0.164-2.217,1.109c0,0.656,0.493,0.903,1.067,1.149l9.855,4.476
						c2.546,1.149,3.86,2.751,3.86,5.584c0,3.983-2.71,5.872-6.488,5.872H596c-2.053,0-3.449-0.082-4.927-1.231
						c-0.739-0.575-1.807-1.314-1.807-2.3c0-1.108,0.944-1.971,2.053-1.971c0.616,0,1.068,0.205,1.52,0.698
						c0.698,0.779,1.93,0.861,3.162,0.861h5.338c1.396,0,3.285,0.124,3.285-2.176c0-0.944-1.15-1.561-2.053-1.971l-9.28-4.229
						c-2.176-0.985-3.449-2.259-3.449-4.805c0-3.12,2.464-5.009,5.42-5.009h6.734c2.176,0,3.08,0.123,4.558,1.354
						c0.739,0.616,1.561,1.109,1.561,2.218s-0.944,1.971-2.012,1.971c-0.739,0-1.191-0.287-1.684-0.821
						c-0.657-0.698-1.355-0.78-2.422-0.78H596z"/>
					<path fill="#FFFFFF" d="M629.833,701.888c-0.411,0-0.821,0.123-1.232,0.37l-5.831,3.654v11.456c0,1.354-0.288,2.71-1.971,2.71
						s-1.971-1.355-1.971-2.71v-24.842c0-1.355,0.287-2.711,1.971-2.711s1.971,1.355,1.971,2.711v8.828l3.203-2.095
						c1.026-0.657,2.217-1.313,3.531-1.313h2.628c0.78,0,2.176,0,3.819,1.437c1.766,1.52,1.684,3.203,1.766,5.338l0.411,12.401
						c0.041,1.396-0.165,2.956-1.93,2.956c-1.601,0-1.93-1.355-1.971-2.669l-0.411-12.154c-0.082-1.889,0.041-3.367-2.176-3.367
						H629.833z"/>
					<path fill="#FFFFFF" d="M655.004,701.888c-1.15,0-2.71-0.246-2.71-1.971c0-1.684,1.396-1.971,2.71-1.971h5.42
						c2.053,0,3.531,0.205,5.092,1.766c1.519,1.519,1.725,2.71,1.766,4.681l0.411,13.386c0.041,1.15-0.534,2.3-1.848,2.3
						c-1.027,0-2.053-0.862-2.012-1.971l-2.71,1.396c-1.109,0.575-1.15,0.575-2.423,0.575h-3.777c-1.766,0-3.039-0.205-4.476-1.396
						c-1.642-1.354-2.053-2.792-2.053-4.845v-1.725c0-1.889,0.452-3.08,1.93-4.394c1.355-1.19,2.875-1.479,4.599-1.479h8.458v-0.903
						c0-2.956-0.657-3.449-3.49-3.449H655.004z M654.963,710.183c-1.068,0-2.628,0.287-2.628,1.725v2.628
						c0,1.313,1.601,1.601,2.546,1.601h4.352l4.353-2.258v-0.862c0-2.177-0.616-2.833-2.792-2.833H654.963z"/>
					<path fill="#FFFFFF" d="M697.255,711.537c0,2.833-0.206,3.901-2.505,5.708l-2.381,1.889c-0.821,0.657-2.094,1.766-3.162,1.766
						h-2.669c-1.766,0-2.587-1.149-3.86-2.341l-0.78-0.739v7.925c0,1.355-0.288,2.711-1.971,2.711s-1.971-1.355-1.971-2.711v-24.883
						c0-1.396,0.164-2.915,1.971-2.915c1.602,0,1.971,1.272,1.971,2.587v0.492l0.78-0.698c1.027-0.903,2.587-2.381,3.696-2.381h2.71
						c0.944,0,2.217,0.985,3.285,1.807l2.381,1.848c2.299,1.807,2.505,2.915,2.505,5.707V711.537z M693.313,706.774
						c0-0.739-0.206-1.191-0.821-1.725l-2.957-2.464c-0.37-0.328-0.821-0.698-1.355-0.698h-1.026c-0.575,0-1.273,0.739-1.684,1.15
						l-2.464,2.34c-0.821,0.78-1.108,1.232-1.108,2.095v3.859c0,0.575,0.164,1.314,0.575,1.684l2.998,2.833
						c0.575,0.575,1.191,1.108,1.684,1.108h1.026c0.534,0,0.985-0.369,1.355-0.697l2.957-2.464c0.616-0.534,0.821-0.985,0.821-1.725
						V706.774z"/>
					<path fill="#FFFFFF" d="M714.747,720.078c-1.643,0-2.299,0-3.531-1.067l-1.684-1.479c-1.56-1.396-2.012-2.3-2.012-4.435v-7.597
						c0-2.094,0.287-3.325,1.93-4.722l1.396-1.19c1.848-1.602,2.751-1.643,4.353-1.643h3.614c1.93,0,2.833,0.205,4.352,1.437
						l1.602,1.273c1.807,1.437,2.053,2.956,2.053,5.133v3.161c0,2.259-0.37,2.916-2.71,2.916h-12.647v1.313
						c0,0.37,0.287,0.862,0.575,1.149l0.985,1.068c0.534,0.574,1.314,0.738,2.628,0.738h8.459c1.314,0,2.71,0.288,2.71,1.972
						c0,1.725-1.561,1.971-2.71,1.971H714.747z M711.462,707.924h11.415v-2.382c0-0.738,0.041-1.354-0.493-1.848l-1.52-1.313
						c-0.493-0.452-1.273-0.493-1.889-0.493h-3.326c-0.739,0-1.355,0-2.012,0.452l-1.355,0.985
						c-0.493,0.369-0.821,0.657-0.821,1.807V707.924z"/>
					<path fill="#FFFFFF" d="M782.004,702.914v-2.258c0-1.355,0.287-2.71,1.971-2.71s1.971,1.354,1.971,2.71v1.602
						c0,0.985-0.082,1.643-0.493,2.505l-9.937,21.639c-0.862,1.848-1.314,2.054-3.121,2.054h-3.039c-1.15,0-2.71-0.247-2.71-1.972
						c0-1.684,1.396-1.971,2.71-1.971h2.71l2.916-6.036h-0.206c-1.642,0-1.725-0.739-2.34-2.094l-4.845-10.717
						c-0.534-1.191-0.944-2.095-0.944-3.244v-1.766c0-1.355,0.287-2.71,1.971-2.71s1.971,1.354,1.971,2.71v2.258l5.297,11.621h0.862
						L782.004,702.914z"/>
					<path fill="#FFFFFF" d="M796.211,705.296c0-2.628,0.534-3.531,2.504-5.133c1.93-1.602,2.833-2.217,5.584-2.217h3.121
						c2.751,0,3.655,0.615,5.584,2.217c1.971,1.602,2.505,2.505,2.505,5.133v7.433c0,2.587-0.657,3.572-2.71,5.297
						c-2.053,1.725-2.875,2.053-5.379,2.053H804.3c-2.505,0-3.326-0.328-5.379-2.053s-2.71-2.71-2.71-5.297V705.296z
						 M800.153,712.729c0,0.821,0.287,1.354,1.437,2.34c0.862,0.739,1.478,1.067,2.71,1.067h3.121c1.232,0,1.848-0.328,2.71-1.067
						c1.15-0.985,1.438-1.519,1.438-2.34v-7.433c0-0.821-0.288-1.354-1.438-2.341c-0.862-0.738-1.478-1.067-2.71-1.067H804.3
						c-1.232,0-1.848,0.329-2.71,1.067c-1.15,0.986-1.437,1.52-1.437,2.341V712.729z"/>
					<path fill="#FFFFFF" d="M845.074,717.163c0,0.903,0.164,2.915-1.93,2.915c-1.683,0-1.971-1.396-1.971-2.751v-0.657
						l-3.203,2.095c-1.273,0.82-2.341,1.313-3.408,1.313h-2.916c-1.108,0-2.34-0.328-3.654-1.438
						c-1.766-1.519-1.725-3.202-1.807-5.338l-0.411-12.4c-0.041-1.438,0.164-2.956,1.971-2.956c1.684,0,1.889,1.437,1.93,2.71
						l0.411,12.113c0.041,0.903,0.082,1.971,0.41,2.546c0.329,0.574,1.355,0.82,2.3,0.82h1.314c0.452,0,0.862-0.123,1.232-0.369
						l5.79-3.654v-11.456c0-1.355,0.287-2.71,1.971-2.71s1.971,1.354,1.971,2.71V717.163z"/>
					<path fill="#FFFFFF" d="M855.338,700.861c0-1.438,0.164-2.915,1.971-2.915c1.561,0,1.971,1.313,1.971,2.628v1.602l3.08-2.546
						c1.108-0.903,2.258-1.684,3.49-1.684h3.161c1.52,0,2.792,0.492,3.86,1.561c1.313,1.313,1.766,2.669,1.766,4.476
						c0,1.354-0.247,2.751-1.931,2.751c-1.437,0-2.012-1.15-2.012-2.423c0-0.657,0-1.149-0.41-1.725
						c-0.493-0.698-1.438-0.698-2.382-0.698h-1.149c-0.739,0-1.273,0.37-1.972,0.944l-5.502,4.559v9.978
						c0,1.354-0.287,2.71-1.971,2.71s-1.971-1.355-1.971-2.71V700.861z"/>
					<path fill="#FFFFFF" d="M920.254,701.888h-1.108c-1.149,0-2.71-0.246-2.71-1.971c0-1.684,1.396-1.971,2.71-1.971h1.108v-0.534
						c0-2.258,0.124-3.9,1.89-5.625c1.889-1.807,3.654-1.972,6.077-1.972h2.669c1.354,0,2.874,0.124,2.874,1.972
						c0,1.684-1.355,1.971-2.71,1.971h-3.08c-2.669,0-3.777,0.534-3.777,3.408v0.78h3.49c1.313,0,2.71,0.287,2.71,1.971
						c0,1.725-1.561,1.971-2.71,1.971h-3.49v15.48c0,1.354-0.287,2.71-1.971,2.71s-1.972-1.355-1.972-2.71V701.888z"/>
					<path fill="#FFFFFF" d="M955.732,716.136h2.957c1.313,0,2.71,0.288,2.71,1.972c0,1.725-1.561,1.971-2.71,1.971h-10.02
						c-1.149,0-2.71-0.246-2.71-1.971c0-1.684,1.396-1.972,2.71-1.972h3.121v-22.378h-3.121c-1.149,0-2.71-0.246-2.71-1.971
						c0-1.684,1.396-1.972,2.71-1.972h4.147c2.258,0,2.915,0.411,2.915,2.752V716.136z"/>
					<path fill="#FFFFFF" d="M973.593,705.296c0-2.628,0.533-3.531,2.505-5.133c1.93-1.602,2.833-2.217,5.584-2.217h3.121
						c2.751,0,3.654,0.615,5.584,2.217c1.971,1.602,2.505,2.505,2.505,5.133v7.433c0,2.587-0.657,3.572-2.71,5.297
						c-2.054,1.725-2.874,2.053-5.379,2.053h-3.121c-2.505,0-3.326-0.328-5.379-2.053s-2.71-2.71-2.71-5.297V705.296z
						 M977.535,712.729c0,0.821,0.288,1.354,1.438,2.34c0.862,0.739,1.479,1.067,2.71,1.067h3.121c1.231,0,1.848-0.328,2.71-1.067
						c1.149-0.985,1.437-1.519,1.437-2.34v-7.433c0-0.821-0.287-1.354-1.437-2.341c-0.862-0.738-1.479-1.067-2.71-1.067h-3.121
						c-1.231,0-1.848,0.329-2.71,1.067c-1.149,0.986-1.438,1.52-1.438,2.341V712.729z"/>
					<path fill="#FFFFFF" d="M1014.777,710.963l2.136,3.654l1.231-3.654l0.41-10.184c0.041-1.355,0.288-2.833,1.972-2.833
						c1.725,0,1.971,1.478,1.93,2.833l-0.411,10.963l-1.93,5.831c-0.41,1.191-0.615,2.505-2.012,2.505h-1.52
						c-0.698,0-1.272-0.739-1.643-1.272l-2.135-3.203l-2.136,3.203c-0.369,0.533-0.944,1.272-1.642,1.272h-1.52
						c-1.396,0-1.602-1.313-2.012-2.505l-1.931-5.831l-0.41-10.963c-0.041-1.355,0.205-2.833,1.93-2.833
						c1.684,0,1.93,1.478,1.971,2.833l0.411,10.184l1.231,3.654l2.136-3.654v-3.614c0-1.354,0.287-2.751,1.971-2.751
						s1.971,1.396,1.971,2.751V710.963z"/>
				</g>
				<line fill="none" stroke="#FFFFFF" stroke-width="2" x1="304.205" y1="718.513" x2="551.625" y2="718.513"/>
				<line fill="none" stroke="#FFFFFF" stroke-width="2" x1="1077.083" y1="719.369" x2="1349.558" y2="719.369"/>
				<g>
					<polyline fill="none" points="304.325,675.952 304.325,504.918 1353.67,504.918 1353.67,675.952 					"/>
					<path fill="#FFFFFF" d="M324.625,506.535c0-5.749,2.515-8.982,8.982-8.982s8.982,3.233,8.982,8.982v41.318l54.792-46.528
						c2.156-1.796,4.491-3.593,7.366-3.593c5.209,0,8.623,4.312,8.623,9.341c0,3.054-1.976,5.569-4.132,7.545l-61.978,52.815
						l61.619,52.816c2.335,1.977,4.491,4.491,4.491,7.725c0,5.03-3.414,9.342-8.623,9.342c-3.772,0-6.827-3.233-9.701-5.39
						l-52.457-45.091v41.498c0,5.749-2.515,8.982-8.982,8.982s-8.982-3.233-8.982-8.982V506.535z"/>
					<path fill="#FFFFFF" d="M533.729,619.352c4.671,0,8.982,2.516,8.982,8.982c0,6.468-4.312,8.982-8.982,8.982h-79.763V497.552
						h79.763c4.671,0,8.982,2.515,8.982,8.982c0,6.467-4.312,8.982-8.982,8.982h-61.798v42.936h26.408
						c4.671,0,8.982,2.515,8.982,8.982s-4.312,8.983-8.982,8.983h-26.408v42.935H533.729z"/>
					<path fill="#FFFFFF" d="M636.662,628.334c0,5.749-2.515,8.982-8.982,8.982s-8.982-3.233-8.982-8.982v-57.486l-35.39-45.989
						v-18.324c0-5.749,2.515-8.982,8.982-8.982s8.982,3.233,8.982,8.982v12.216l26.408,34.312l26.408-34.312v-12.216
						c0-5.749,2.515-8.982,8.982-8.982s8.982,3.233,8.982,8.982v18.324l-35.39,45.989V628.334z"/>
					<path fill="#FFFFFF" d="M795.105,602.105c3.593,4.671,6.288,8.803,6.288,14.911c0,13.474-10.24,20.3-22.635,20.3h-39.522
						c-6.827,0-12.755-1.258-18.145-5.749c-4.85-3.952-8.443-10.419-8.443-16.707c0-5.748,3.234-10.778,9.521-10.778
						c5.209,0,8.443,4.312,8.443,9.162c0,5.389,2.874,6.107,7.904,6.107H777.5c1.438,0,5.928,0.539,5.928-2.155
						c0-1.438-2.515-4.132-3.233-5.21l-61.619-79.224c-3.772-4.851-5.928-8.443-5.928-14.731c0-7.186,3.414-13.294,9.521-17.246
						c5.03-3.233,9.162-3.233,14.911-3.233h38.084c6.827,0,12.575,1.437,17.785,5.928c4.671,4.132,8.443,10.779,8.443,17.066
						c0,5.749-2.875,10.419-9.342,10.419c-5.389,0-8.623-3.414-8.623-8.443c0-6.108-3.054-7.006-8.623-7.006h-38.085
						c-1.976,0-6.108-0.539-6.108,2.515c0,1.617,1.976,3.772,2.694,4.851L795.105,602.105z"/>
					<path fill="#FFFFFF" d="M890.313,637.316c-13.473,0-21.198-5.39-26.946-17.066l-16.527-33.414
						c-3.054-6.107-4.851-11.856-4.851-18.863c0-7.904,1.438-12.755,5.03-19.94l16.527-33.234
						c6.107-12.396,13.832-17.246,27.665-17.246h30.54c3.952,0,8.982,2.156,8.982,8.982c0,6.467-4.851,8.982-8.982,8.982H891.75
						c-7.725,0-8.982,0.719-12.396,7.545l-15.629,31.258c-2.336,4.85-3.772,8.084-3.772,13.653c0,5.03,1.616,8.084,3.772,12.396
						l15.27,31.078c3.593,7.365,5.39,7.904,13.474,7.904h29.282c3.952,0,8.982,2.156,8.982,8.982c0,6.468-4.851,8.982-8.982,8.982
						H890.313z"/>
					<path fill="#FFFFFF" d="M1055.404,548.033c3.413,7.006,4.671,12.216,4.671,19.94c0,8.624-2.336,14.012-5.929,21.377
						l-16.527,33.056c-4.312,8.622-11.497,14.91-21.916,14.91c-10.42,0-17.605-6.288-21.917-14.91l-16.527-33.056
						c-3.593-7.365-5.929-12.754-5.929-21.377c0-7.725,1.258-12.935,4.671-19.94l17.965-35.75
						c4.312-8.443,11.677-14.731,21.737-14.731c10.06,0,17.425,6.288,21.736,14.731L1055.404,548.033z M1021.81,520.906
						c-1.438-2.875-2.335-5.39-6.107-5.39c-3.773,0-4.671,2.515-6.108,5.39l-16.168,32.516c-2.695,5.21-4.132,8.623-4.132,14.551
						c0,4.67,1.078,7.905,3.054,11.857l17.246,34.133c1.258,2.515,2.515,5.389,6.108,5.389c3.593,0,4.85-2.874,6.107-5.389
						l17.246-34.133c1.976-3.952,3.054-7.187,3.054-11.857c0-5.928-1.437-9.341-4.132-14.551L1021.81,520.906z"/>
					<path fill="#FFFFFF" d="M1118.635,628.334c0,5.749-2.516,8.982-8.982,8.982s-8.982-3.233-8.982-8.982V497.552h60.361
						c14.191,0,28.384,10.06,28.384,26.048v12.396c0,16.887-14.013,25.51-28.384,25.51h-16.527l40.42,57.846
						c1.977,2.695,4.491,6.108,4.491,9.521c0,5.03-4.132,8.443-9.162,8.443c-3.593,0-5.928-2.155-7.904-5.03l-49.582-70.78h-4.132
						V628.334z M1118.635,543.542h39.881c5.03,0,12.935-0.359,12.935-7.545v-12.396c0-7.186-7.365-8.084-12.755-8.084h-40.061
						V543.542z"/>
					<path fill="#FFFFFF" d="M1309.774,619.352c4.671,0,8.982,2.516,8.982,8.982c0,6.468-4.312,8.982-8.982,8.982h-79.763V497.552
						h79.763c4.671,0,8.982,2.515,8.982,8.982c0,6.467-4.312,8.982-8.982,8.982h-61.798v42.936h26.408
						c4.67,0,8.981,2.515,8.981,8.982s-4.312,8.983-8.981,8.983h-26.408v42.935H1309.774z"/>
				</g>
			</g>
			<polyline fill="none" stroke="#FFFFFF" stroke-width="4" points="1085.497,45.392 1124.634,37.372 1117.501,76.51 			"/>
			<path fill="#FFFFFF" stroke="#FFFFFF" stroke-width="4" d="M641.674,203.006c0,4.251-3.444,7.699-7.699,7.699
				c-4.255,0-7.698-3.448-7.698-7.699c0-4.25,3.443-7.698,7.698-7.698C638.229,195.308,641.674,198.756,641.674,203.006z"/>
			<path fill="#FFFFFF" stroke="#FFFFFF" stroke-width="4" d="M735.344,333.46c0,4.253-3.443,7.704-7.698,7.704
				c-4.255,0-7.7-3.45-7.7-7.704c0-4.251,3.444-7.7,7.7-7.7C731.901,325.76,735.344,329.208,735.344,333.46z"/>
			<circle fill="#FFFFFF" stroke="#FFFFFF" stroke-width="4" cx="777.687" cy="220.97" r="7.701"/>
			<path fill="#FFFFFF" stroke="#FFFFFF" stroke-width="4" d="M973.587,181.619c0,4.251-3.447,7.699-7.696,7.699
				c-4.257,0-7.706-3.448-7.706-7.699s3.449-7.7,7.706-7.7C970.14,173.919,973.587,177.368,973.587,181.619z"/>
			<g>
				<polyline fill="none" stroke="#FFFFFF" stroke-width="2" points="741.764,274.114 628.298,124.805 427.839,373.314 				"/>
				<polyline fill="none" stroke="#FFFFFF" stroke-width="2" points="1013.994,159.002 993.226,216.427 801.77,249.227 
					776.065,317.345 766.305,304.555 				"/>
				<polyline fill="none" stroke="#FFFFFF" stroke-width="2" points="1046.334,23.844 1070.324,0.72 1031.352,108.484 				"/>
				<line fill="none" stroke="#FFFFFF" stroke-width="2" x1="1073.854" y1="30.991" x2="1070.429" y2="1.245"/>
			</g>
			<path fill="none" stroke="#020202" d="M1344.642,394.667"/>
			<path fill="none" stroke="#020202" d="M1354.8,386.431"/>
			<line fill="none" stroke="#FFFFFF" stroke-width="2" x1="1114.041" y1="180.583" x2="1153.095" y2="180.583"/>
			<line fill="none" stroke="#FFFFFF" stroke-width="2" x1="1216.28" y1="180.586" x2="1195.027" y2="180.586"/>
			<line fill="none" stroke="#FFFFFF" stroke-width="2" x1="1312.349" y1="180.586" x2="1258.786" y2="180.586"/>
			<line fill="none" stroke="#FFFFFF" stroke-width="2" x1="1071.531" y1="247.787" x2="1153.095" y2="247.787"/>
			<line fill="none" stroke="#FFFFFF" stroke-width="2" x1="1216.28" y1="247.791" x2="1195.027" y2="247.791"/>
			<line fill="none" stroke="#FFFFFF" stroke-width="2" x1="1277.454" y1="247.791" x2="1258.786" y2="247.791"/>
			<line fill="none" stroke="#FFFFFF" stroke-width="2" x1="1338.321" y1="247.791" x2="1319.649" y2="247.791"/>
			<line fill="none" stroke="#FFFFFF" stroke-width="2" x1="1042.811" y1="308.1" x2="1153.095" y2="308.1"/>
			<line fill="none" stroke="#FFFFFF" stroke-width="2" x1="1216.28" y1="308.103" x2="1195.027" y2="308.103"/>
			<line fill="none" stroke="#FFFFFF" stroke-width="2" x1="1277.454" y1="308.103" x2="1258.786" y2="308.103"/>
			<line fill="none" stroke="#FFFFFF" stroke-width="2" x1="1372.495" y1="308.103" x2="1319.649" y2="308.103"/>
		</g>
		<path fill="none" stroke="#000000" stroke-width="4" d="M574.081,775.876"/>
	</g>
	<path fill="none" stroke="#FFFFFF" stroke-width="7" d="M1164.872,760.165c-9.477,19.815-5.601,30.588-5.601,30.588
		c0,46.987,38.093,85.081,85.081,85.081c46.994,0,85.086-38.094,85.086-85.081c0,0,1.293-15.94-6.895-27.143"/>
	<path fill="none" stroke="#FFFFFF" stroke-width="9" d="M1041.095,760.595c-17.043,8.359-21.001,27.344-20.541,35.172
		c0,21.889,17.742,39.634,39.634,39.634c21.889,0,39.634-17.745,39.634-39.634c0,0-3.155-43.079-37.619-34.463"/>
	<g>
		<g>
			<line fill="none" x1="296.089" y1="78.466" x2="296.089" y2="150.859"/>
			<path fill="#FFFFFF" d="M293.102,78.183c0,24.131,0,48.262,0,72.393c0,3.841,5.975,4.431,5.975,0.566c0-24.131,0-48.262,0-72.393
				C299.077,74.908,293.102,74.319,293.102,78.183L293.102,78.183z"/>
		</g>
	</g>
	<path fill="none" stroke="#FFFFFF" stroke-width="4" d="M317.975,163.612c0,5.657-4.882,10.25-10.896,10.25h-22.268
		c-6.014,0-10.896-4.593-10.896-10.25l0,0c0-5.664,4.882-10.25,10.896-10.25h22.268
		C313.093,153.362,317.975,157.949,317.975,163.612L317.975,163.612z"/>
</g>
</svg>
