<?xml version="1.0" encoding="windows-1252"?>
<!-- Generator: Adobe Illustrator 19.2.1, SVG Export Plug-In . SVG Version: 6.00 Build 0)  -->
<svg version="1.1" id="Layer_1" xmlns="http://www.w3.org/2000/svg" xmlns:xlink="http://www.w3.org/1999/xlink" x="0px" y="0px" viewBox="0 0 301.3 691.6" style="enable-background:new 0 0 301.3 691.6;" xml:space="preserve">
<g>
	<polygon points="283.5,457.5 7.5,457.5 7.5,513.5 28.6,513.5 55,691.6 236,691.6 262.4,513.5 283.5,513.5  "/>
	<path d="M172.8,381.4c0,0,36.9-76.9,128.5-38.3C301.3,343.1,259.8,422.1,172.8,381.4z"/>
	<path d="M0,315.8c0,0,80.1-29.2,118.7,62.3C118.7,378.1,33.8,405.6,0,315.8z"/>
	<path d="M157.9,179.2c0,0-28.9,127.8-28.9,165.4s1.3,100.6,1.3,100.6h42.1c0,0-12.4-54.2-12.4-98.7L157.9,179.2z"/>
	<path d="M274.4,87.1c-30.1-80.6-82.8-12-82.8-12s54.2-75-37-75s-37,75-37,75s-51.7-67-82.8,12s59.9,58.4,59.9,58.4   s-72,24.6-14.1,82.5s74.1-38.9,74.1-38.9s17.2,95.9,74.1,38.9s-14.1-82.5-14.1-82.5S304.5,167.7,274.4,87.1z M154.4,155.2   c-17.7,0-32-14.3-32-32s14.3-32,32-32s32,14.3,32,32S172.1,155.2,154.4,155.2z"/>
</g>
</svg>