<?xml version="1.0" encoding="windows-1252"?>
<!-- Generator: Adobe Illustrator 19.2.1, SVG Export Plug-In . SVG Version: 6.00 Build 0)  -->
<svg version="1.1" id="Layer_1" xmlns="http://www.w3.org/2000/svg" xmlns:xlink="http://www.w3.org/1999/xlink" x="0px" y="0px" viewBox="0 0 202.3 294" style="enable-background:new 0 0 202.3 294;" xml:space="preserve">
<g>
	<polygon points="193.9,129.5 0,129.5 0,168.9 14.8,168.9 33.4,294 160.6,294 179.2,168.9 193.9,168.9  "/>
	<path d="M108.2,119c0-0.6-0.1-1.2-0.1-1.8l0.1,0c0-6.8-6.3-10.7-6.3-22.9c0-11.6,6.3-14.6,6.3-28s-9.8-20.7-9.8-30   c0-9.3,7-20.3,7-20.3s-15.2,6.1-15.2,19.9c0,13.8,5.6,15.8,5.6,30.4S88,81.5,88,93.7c0,10.8,7,12.4,7,25.3"/>
	<path d="M112,74.3c0,0,25.9-54,90.3-26.9C202.3,47.4,173.1,102.9,112,74.3z"/>
	<path d="M40.1,50.1c0,0,25.1-9.2,37.2,19.5C77.3,69.7,50.7,78.3,40.1,50.1z"/>
</g>
</svg>