<?xml version="1.0" encoding="windows-1252"?>
<!-- Generator: Adobe Illustrator 19.2.1, SVG Export Plug-In . SVG Version: 6.00 Build 0)  -->
<svg version="1.1" id="Layer_1" xmlns="http://www.w3.org/2000/svg" xmlns:xlink="http://www.w3.org/1999/xlink" x="0px" y="0px" viewBox="0 0 211.7 359.1" style="enable-background:new 0 0 211.7 359.1;" xml:space="preserve">
<g>
	<polygon points="201.4,194.6 7.5,194.6 7.5,234 22.3,234 40.9,359.1 168.1,359.1 186.6,234 201.4,234  "/>
	<path d="M107.8,185.5c0.9-27,6.6-53.4,6.2-79.7c-0.2-15.3,2.4-32.4,1.6-47.7c-1.2-23-15.3-34.9-2.8-58.1   c-24.9,12.7-9.9,43.1-11.6,63.9C99.2,89.7,89.1,160.4,84,185.5H107.8z"/>
	<path d="M121.4,140.1c0,0,25.9-54,90.3-26.9C211.7,113.2,182.6,168.7,121.4,140.1z"/>
	<path d="M0,94c0,0,56.3-20.5,83.4,43.8C83.4,137.8,23.8,157.2,0,94z"/>
</g>
</svg>