<?xml version="1.0" encoding="utf-8"?>
<!-- Generator: Adobe Illustrator 12.0.0, SVG Export Plug-In . SVG Version: 6.00 Build 51448)  -->
<!DOCTYPE svg PUBLIC "-//W3C//DTD SVG 1.1//EN" "http://www.w3.org/Graphics/SVG/1.1/DTD/svg11.dtd" [
	<!ENTITY ns_svg "http://www.w3.org/2000/svg">
	<!ENTITY ns_xlink "http://www.w3.org/1999/xlink">
]>
<svg  version="1.1" id="Ebene_1" xmlns="&ns_svg;" xmlns:xlink="&ns_xlink;" width="74.75" height="45.334"
	 viewBox="0 0 74.75 45.334" overflow="visible" enable-background="new 0 0 74.75 45.334" xml:space="preserve">
<g>
	<g>
		<path fill="#FFFFFF" d="M74.75,37.375C74.75,16.733,58.017,0,37.375,0S0,16.733,0,37.375h28.71
			c-0.05-0.389-0.085-0.783-0.085-1.186c0-4.903,3.862-8.895,8.708-9.124l3.709-12.747l5.902-7.601l0.757,9.207l-3.899,13.401
			c1.905,1.676,3.114,4.126,3.114,6.864c0,0.402-0.035,0.797-0.085,1.186H74.75z M13.159,32.288l-8.735-2.336l1.335-4.991
			l8.735,2.337L13.159,32.288z M20.042,19.324l-6.374-6.414l3.665-3.642l6.373,6.415L20.042,19.324z M39.542,11.5h-5.166V2.458
			h5.167L39.542,11.5z M68.576,24.878l1.335,4.991l-8.735,2.336l-1.335-4.99L68.576,24.878z M57.604,9.597l3.666,3.643l-6.375,6.414
			l-3.664-3.642L57.604,9.597z"/>
	</g>
</g>
</svg>
