<?xml version="1.0" encoding="utf-8"?>
<!-- Generator: Adobe Illustrator 12.0.0, SVG Export Plug-In . SVG Version: 6.00 Build 51448)  -->
<!DOCTYPE svg PUBLIC "-//W3C//DTD SVG 1.1//EN" "http://www.w3.org/Graphics/SVG/1.1/DTD/svg11.dtd" [
	<!ENTITY ns_svg "http://www.w3.org/2000/svg">
	<!ENTITY ns_xlink "http://www.w3.org/1999/xlink">
]>
<svg  version="1.1" id="Ebene_1" xmlns="&ns_svg;" xmlns:xlink="&ns_xlink;" width="807.477" height="511.99"
	 viewBox="0 0 807.477 511.99" overflow="visible" enable-background="new 0 0 807.477 511.99" xml:space="preserve">
<g>
	<path fill="#FFFFFF" stroke="#FFFFFF" stroke-width="4" d="M719.026,240.945"/>
	<path fill="none" stroke="#FFFFFF" stroke-width="5" d="M743.214,228.07c0,12.236-9.918,22.157-22.156,22.157
		c-12.236,0-22.154-9.921-22.154-22.157c0-8.83,5.167-16.456,12.642-20.015c2.883-1.373,6.107-2.14,9.513-2.14
		C731.064,205.915,743.214,213.603,743.214,228.07z"/>
	<g>
		<g>
			<path fill="none" d="M713.909,248.473c-0.2-0.101-0.396-0.199-0.589-0.3c-29.652-15.318-3.492-38.136-3.492-38.136l-38.328-7.443
				v52.221L713.909,248.473z"/>
			<path fill="#FFFFFF" d="M714.429,247.066c-9.824-5.002-16.661-13.274-12.092-24.371c1.774-4.309,4.966-8.433,8.461-11.514
				c1.039-0.917,0.414-2.396-0.829-2.638c-12.776-2.481-25.552-4.962-38.328-7.443c-0.75-0.146-1.636,0.589-1.636,1.352
				c0,17.407,0,34.813,0,52.221c0,0.982,0.725,1.772,1.755,1.619c14.136-2.114,28.272-4.229,42.409-6.342
				c1.915-0.287,1.389-3.24-0.521-2.955c-14.136,2.114-28.272,4.229-42.409,6.342c0.585,0.54,1.17,1.079,1.755,1.619
				c0-17.407,0-34.814,0-52.221c-0.546,0.451-1.091,0.901-1.636,1.352c12.776,2.481,25.552,4.962,38.328,7.443
				c-0.276-0.879-0.553-1.758-0.829-2.638c-4.758,4.195-8.708,9.888-10.463,15.994c-3.335,11.601,5.452,20.135,14.994,24.993
				C715.114,250.758,716.13,247.932,714.429,247.066z"/>
		</g>
	</g>
	<g>
		<g>
			<g>
				<g>
					<path fill="none" stroke="#FFFFFF" stroke-width="3" d="M770.933,389.864c-0.011-1.498-0.225-2.943-0.58-4.332l5.59-2.929
						l-1.195-2.893l-5.988,1.717c-1.583-2.916-3.954-5.331-6.819-6.991l1.732-5.636l-2.898-1.182l-2.801,5.11
						c-1.634-0.475-3.359-0.732-5.147-0.721c-1.761,0.012-3.457,0.288-5.063,0.771l-2.861-5.05l-2.878,1.222l1.791,5.566
						c-2.838,1.68-5.184,4.102-6.738,7.017l-5.979-1.627l-1.154,2.902l5.575,2.833c-0.355,1.432-0.562,2.923-0.551,4.467
						c0.012,1.67,0.268,3.277,0.704,4.809l-5.354,3.167l1.276,2.854l5.784-1.981c1.628,2.817,3.993,5.148,6.835,6.732l-1.582,5.795
						l2.909,1.158l2.698-5.32c1.542,0.419,3.158,0.654,4.834,0.643c1.729-0.012,3.393-0.28,4.972-0.746l2.899,5.124l2.881-1.232
						l-1.806-5.613c2.839-1.662,5.184-4.07,6.752-6.967l5.976,1.63l1.157-2.907l-5.549-2.816
						C770.729,392.973,770.944,391.446,770.933,389.864z"/>
				</g>
			</g>
			<path fill-rule="evenodd" clip-rule="evenodd" fill="none" stroke="#FFFFFF" stroke-width="2" d="M752.971,380.862
				c-5.374,0.042-9.697,4.425-9.662,9.8c0.041,5.371,4.43,9.698,9.8,9.662c5.373-0.035,9.696-4.423,9.662-9.794
				C762.737,385.157,758.344,380.826,752.971,380.862z"/>
		</g>
	</g>
	<circle fill="none" stroke="#FFFFFF" stroke-width="2" cx="795.411" cy="285.39" r="11.066"/>
	<path fill="none" stroke="#FFFFFF" stroke-width="3" d="M707.687,246.695l71.39,37.377c0,0-1.342-17.629,14.189-16.156
		l-55.782-54.266"/>
	<line fill="none" stroke="#FFFFFF" x1="746.901" y1="231.42" x2="785.312" y2="266.368"/>
	<circle fill="none" stroke="#FFFFFF" stroke-width="4" cx="721.358" cy="227.77" r="11.99"/>
	<circle fill="none" stroke="#FFFFFF" cx="795.473" cy="285.647" r="5.988"/>
	<path fill="none" stroke="#FFFFFF" stroke-width="3" d="M776.715,348.719l24.729-48.785c-12.308,5.378-19.316-7.315-19.316-7.315
		l-19.751,50.821L776.715,348.719z"/>
	<polyline fill="none" stroke="#FFFFFF" stroke-width="2" points="763.473,343.325 759.587,360.094 767.375,362.631 
		775.351,348.083 	"/>
	<line fill="none" stroke="#FFFFFF" x1="791.911" y1="307.18" x2="775.738" y2="339.995"/>
	<circle fill="none" cx="795.424" cy="285.627" r="4.383"/>
	<polygon fill="#FFFFFF" stroke="#FFFFFF" points="737.422,380.247 731.088,367.531 736.038,350.555 761.519,349.224 
		758.855,359.19 740.856,357.25 736.262,367.387 	"/>
	<polygon fill="#FFFFFF" stroke="#FFFFFF" points="770.776,392.024 783.897,386.589 791.244,370.705 772.889,352.976 
		768.362,362.238 783.213,372.59 780.092,383.085 	"/>
	<g>
		<line fill="#D50C1C" x1="677.255" y1="212.641" x2="677.255" y2="244.873"/>
		<g>
			<line fill="none" x1="677.255" y1="212.641" x2="677.255" y2="244.873"/>
			<path fill="#FFFFFF" d="M675.74,215.106c0,10.744,0,21.488,0,32.232c0-0.768,3.031-3.295,3.031-4.932c0-10.743,0-21.487,0-32.231
				C678.771,210.942,675.74,213.47,675.74,215.106L675.74,215.106z"/>
		</g>
	</g>
</g>
<g>
	<g>
		<g>
			<path fill="#FFFFFF" d="M569.562,409.519l-10.774,11.363l4.799,5.71l12.791-8.915L569.562,409.519z M575.893,435.894l6.687,3.305
				l8.137-13.301l-9.516-4.735L575.893,435.894z M563.25,394.87l-14.071,6.868l2.491,7.027l15.104-3.865L563.25,394.87z
				 M563.015,378.313l-15.644,0.68l-0.521,7.44l15.395,2.482L563.015,378.313z M596.393,442.792l7.438,0.561l2.937-15.381
				l-10.604-0.771L596.393,442.792z M612.672,426.358l6.546,15.033l7.075-2.362l-3.529-16.01L612.672,426.358z M639.565,409.773
				l14.732,5.305l3.303-6.685l-13.303-8.137L639.565,409.773z M646.513,384.135l-0.771,10.604l15.59-0.232l0.562-7.436
				L646.513,384.135z M628.18,421.023l11.465,10.663l5.664-4.851l-9.039-12.705L628.18,421.023z"/>
		</g>
		<g>
			<path fill="none" stroke="#FFFFFF" stroke-width="3" d="M569.562,409.519l-10.774,11.363l4.799,5.71l12.791-8.915
				L569.562,409.519z M575.893,435.894l6.687,3.305l8.137-13.301l-9.516-4.735L575.893,435.894z M563.25,394.87l-14.071,6.868
				l2.491,7.027l15.104-3.865L563.25,394.87z M563.015,378.313l-15.644,0.68l-0.521,7.44l15.395,2.482L563.015,378.313z
				 M596.393,442.792l7.438,0.561l2.937-15.381l-10.604-0.771L596.393,442.792z M612.672,426.358l6.546,15.033l7.075-2.362
				l-3.529-16.01L612.672,426.358z M639.565,409.773l14.732,5.305l3.303-6.685l-13.303-8.137L639.565,409.773z M646.513,384.135
				l-0.771,10.604l15.59-0.232l0.562-7.436L646.513,384.135z M628.18,421.023l11.465,10.663l5.664-4.851l-9.039-12.705
				L628.18,421.023z"/>
		</g>
	</g>
	
		<circle fill-rule="evenodd" clip-rule="evenodd" fill="none" stroke="#FFFFFF" stroke-width="3" cx="604.773" cy="387.106" r="15.418"/>
	<path fill-rule="evenodd" clip-rule="evenodd" fill="#FFFFFF" stroke="#FFFFFF" stroke-width="2" d="M610.25,426.425
		c-6.439-11.844-0.467-23.854-0.467-23.854c-5.967,3.986-13.335-1.786-13.335-1.786s2.603,13.16-6.725,22.893
		c0,0,6.762,5.215,19.998,3.098L610.25,426.425z"/>
	<path fill-rule="evenodd" clip-rule="evenodd" fill="#FFFFFF" stroke="#FFFFFF" stroke-width="2" d="M644.299,383.479
		c-11.843,6.438-23.854,0.468-23.854,0.468c3.988,5.966-1.784,13.335-1.784,13.335s13.159-2.604,22.891,6.724
		c0,0,5.217-6.764,3.099-19.998L644.299,383.479z"/>
	<path fill-rule="evenodd" clip-rule="evenodd" fill="#FFFFFF" stroke="#FFFFFF" stroke-width="2" d="M565.409,392.873
		c11.842-6.439,23.854-0.467,23.854-0.467c-3.987-5.966,1.784-13.334,1.784-13.334s-13.158,2.603-22.89-6.726
		c0,0-5.216,6.764-3.1,19.997L565.409,392.873z"/>
</g>
<g>
	<g>
		<g>
			<path fill="#FFFFFF" d="M497.809,374.887l-7.335-2.189l-1.367,3.581l6.741,3.706L497.809,374.887z M489.42,395.138l1.456,3.54
				l7.191-2.566l-2.063-5.053L489.42,395.138z M542.415,376.408l-1.367-3.582l-7.334,2.188l1.961,5.099L542.415,376.408z
				 M533.554,395.896l7.333,2.189l1.367-3.581l-6.74-3.708L533.554,395.896z M503.585,411.795l3.36,1.458l3.479-7.184l-4.783-2.092
				L503.585,411.795z M521.094,405.916l3.704,7.094l3.348-1.488l-2.276-7.712L521.094,405.916z"/>
		</g>
		<g>
			<path fill="none" stroke="#FFFFFF" stroke-width="4" d="M497.809,374.887l-7.335-2.189l-1.367,3.581l6.741,3.706L497.809,374.887
				z M489.42,395.138l1.456,3.54l7.191-2.566l-2.063-5.053L489.42,395.138z M542.415,376.408l-1.367-3.582l-7.334,2.188l1.961,5.099
				L542.415,376.408z M533.554,395.896l7.333,2.189l1.367-3.581l-6.74-3.708L533.554,395.896z M503.585,411.795l3.36,1.458
				l3.479-7.184l-4.783-2.092L503.585,411.795z M521.094,405.916l3.704,7.094l3.348-1.488l-2.276-7.712L521.094,405.916z"/>
		</g>
	</g>
	<ellipse fill-rule="evenodd" clip-rule="evenodd" fill="#FFFFFF" cx="516.036" cy="387.833" rx="11.798" ry="11.821"/>
	<polygon fill-rule="evenodd" clip-rule="evenodd" fill="#FFFFFF" points="533.459,398.965 528.032,404.392 521.619,394.426 
		523.493,392.551 	"/>
	<polygon fill-rule="evenodd" clip-rule="evenodd" fill="#FFFFFF" points="505.036,403.415 499.609,397.989 509.575,391.574 
		511.449,393.449 	"/>
	<polygon fill-rule="evenodd" clip-rule="evenodd" fill="#FFFFFF" points="498.772,373.876 505.873,368.45 512.287,378.416 
		508.739,380.29 	"/>
	<polygon fill-rule="evenodd" clip-rule="evenodd" fill="#FFFFFF" points="526.72,369.873 532.147,375.299 522.181,381.712 
		520.306,379.838 	"/>
	<path fill-rule="evenodd" clip-rule="evenodd" fill="#FFFFFF" d="M515.971,378.123c-5.012,0-9.072,4.07-9.072,9.094
		s4.061,9.093,9.072,9.093c5.015,0,9.077-4.069,9.077-9.093S520.986,378.123,515.971,378.123z"/>
</g>
<path fill="#FFFFFF" stroke="#000000" stroke-width="2" d="M129.142,350.891"/>
<g>
	<path fill="none" stroke="#000000" stroke-width="4" d="M260.494,374"/>
	<g>
		<rect x="561.323" y="73.768" fill="none" stroke="#FFFFFF" stroke-width="3" width="20.5" height="109.334"/>
		<rect x="591.965" y="43.318" fill="none" stroke="#FFFFFF" stroke-width="3" width="20.501" height="140.086"/>
		<rect x="620.831" y="105.089" fill="none" stroke="#FFFFFF" stroke-width="3" width="20.5" height="78.013"/>
		<rect x="534.698" y="155.29" fill="none" stroke="#FFFFFF" stroke-width="3" width="20.503" height="27.76"/>
		<polyline fill="none" stroke="#FFFFFF" stroke-width="5" points="208,182.991 674.63,182.991 659.137,175.405 		"/>
		<g>
			<g>
				<g>
					<line fill="none" x1="144.861" y1="86.013" x2="144.861" y2="161.158"/>
					<path fill="#FFFFFF" d="M141.874,85.73c0,25.048,0,50.097,0,75.145c0,3.841,5.975,4.431,5.975,0.566
						c0-25.048,0-50.097,0-75.145C147.848,82.455,141.874,81.866,141.874,85.73L141.874,85.73z"/>
				</g>
			</g>
			<g>
				<g>
					<line fill="none" x1="173.323" y1="38.493" x2="173.323" y2="195.256"/>
					<path fill="#FFFFFF" d="M170.292,43.423c0,48.978,0,97.956,0,146.934c0,3.276,0,6.553,0,9.83c0,0.669,2.518-2.908,2.734-3.26
						c1-1.626,3.327-4.576,3.327-6.601c0-48.978,0-97.956,0-146.934c0-3.276,0-6.553,0-9.83c0-0.669-2.518,2.908-2.734,3.26
						C172.62,38.448,170.292,41.398,170.292,43.423L170.292,43.423z"/>
				</g>
			</g>
			<g>
				<g>
					<line fill="none" x1="200.977" y1="91.665" x2="200.977" y2="176.388"/>
					<path fill="#FFFFFF" d="M197.989,91.381c0,28.241,0,56.482,0,84.724c0,3.841,5.975,4.431,5.975,0.566
						c0-28.241,0-56.482,0-84.724C203.964,88.106,197.989,87.517,197.989,91.381L197.989,91.381z"/>
				</g>
			</g>
			<g>
				<g>
					<line fill="none" x1="200.977" y1="38.493" x2="200.977" y2="77.851"/>
					<path fill="#FFFFFF" d="M197.989,38.209c0,13.12,0,26.239,0,39.358c0,3.841,5.975,4.431,5.975,0.566c0-13.12,0-26.239,0-39.358
						C203.964,34.935,197.989,34.345,197.989,38.209L197.989,38.209z"/>
				</g>
			</g>
			<path fill="#FFFFFF" d="M188.18,105.306c0,4.021-3.261,7.279-7.279,7.279h-14.874c-4.019,0-7.28-3.258-7.28-7.279l0,0
				c0-4.021,3.261-7.279,7.28-7.279h14.874C184.919,98.027,188.18,101.285,188.18,105.306L188.18,105.306z"/>
			<path fill="none" stroke="#FFFFFF" stroke-width="4" d="M212.005,84.569c0,2.922-2.372,5.294-5.294,5.294h-10.818
				c-2.922,0-5.294-2.372-5.294-5.294l0,0c0-2.925,2.372-5.294,5.294-5.294h10.818C209.633,79.275,212.005,81.645,212.005,84.569
				L212.005,84.569z"/>
		</g>
		<polyline fill="none" stroke="#FFFFFF" stroke-width="5" points="237.951,183.786 309.437,99 355.154,162.172 378.843,107.727 
			470.28,88.609 540.102,20.033 		"/>
		<g>
			<g>
				<polyline fill="none" stroke="#FFFFFF" stroke-width="4" points="140.073,374.086 113.047,383.17 113.047,414.962 
					102.864,422.324 				"/>
				<path fill="none" stroke="#FFFFFF" stroke-width="4" d="M103.99,424.581c0,2.494-2.006,4.518-4.478,4.518
					c-2.475,0-4.479-2.023-4.479-4.518c0-2.49,2.004-4.512,4.479-4.512C101.984,420.069,103.99,422.09,103.99,424.581z"/>
				<polyline fill="none" stroke="#FFFFFF" stroke-width="4" points="127.391,378.412 127.551,393.118 113.059,403.7 				"/>
			</g>
			<g>
				<g>
					<polyline fill="none" stroke="#FFFFFF" stroke-width="4" points="196.105,365.388 196.105,369.019 196.105,482.703 
						203.755,486.979 					"/>
					<polyline fill="none" stroke="#FFFFFF" stroke-width="4" points="206.97,365.388 206.97,465.475 223.549,474.483 					"/>
					<polyline fill="none" stroke="#FFFFFF" stroke-width="4" points="142.472,467.767 149.498,462.105 149.498,461.694 
						149.498,367.701 					"/>
					<circle fill="none" stroke="#FFFFFF" stroke-width="4" cx="205.424" cy="489.548" r="4.339"/>
					<circle fill="none" stroke="#FFFFFF" stroke-width="4" cx="254.115" cy="428.854" r="4.339"/>
					<polyline fill="none" stroke="#FFFFFF" stroke-width="4" points="206.813,416.189 243.595,441.542 252.679,431.4 					"/>
					<polyline fill="none" stroke="#FFFFFF" stroke-width="4" points="149.25,394.121 158.394,430.07 158.187,447.526 
						158.187,480.609 154.447,488.56 					"/>
					<polyline fill="none" stroke="#FFFFFF" stroke-width="4" points="150.082,370.055 171.279,422.009 171.279,457.334 
						171.279,460.452 158.187,477.742 					"/>
					<circle fill="none" stroke="#FFFFFF" stroke-width="4" cx="139.668" cy="469.28" r="4.338"/>
					<circle fill="none" stroke="#FFFFFF" stroke-width="4" cx="226.221" cy="475.721" r="4.339"/>
					<polyline fill="none" stroke="#FFFFFF" stroke-width="4" points="196.105,369.019 180.423,386.474 180.423,502.844 					"/>
					<circle fill="none" stroke="#FFFFFF" stroke-width="4" cx="180.631" cy="505.649" r="4.339"/>
					<circle fill="none" stroke="#FFFFFF" stroke-width="4" cx="152.575" cy="491.051" r="4.339"/>
				</g>
				<polyline fill="none" stroke="#FFFFFF" stroke-width="4" points="149.322,389.782 126.984,410.771 126.984,432.902 
					117.941,441.942 				"/>
				<circle fill="none" stroke="#FFFFFF" stroke-width="4" cx="115.635" cy="444.326" r="4.339"/>
				<polyline fill="none" stroke="#FFFFFF" stroke-width="4" points="206.989,386.561 219.145,392.379 230.055,432.383 				"/>
			</g>
		</g>
		<g>
			<g>
				<g>
					<g>
						<path fill="none" d="M130.762,285.055c-2.421-13.764-14.437-24.222-28.892-24.222c-16.201,0-29.334,13.136-29.334,29.338
							c0,16.201,13.133,29.335,29.334,29.335c0.56,0,1.118-0.015,1.67-0.047c0,0,7.296,0.816,16.007-5.717"/>
						<path fill="#FFFFFF" d="M135.194,284.274c-3.099-15.447-15.699-26.746-31.462-27.887c-15.56-1.126-29.806,9.58-34.31,24.211
							c-4.476,14.54,2.063,30.334,14.69,38.368c12.079,7.686,27.026,6.232,38.346-1.791c4.732-3.355-1.116-10.201-5.823-6.865
							c-18.3,12.972-44.662-3.821-38.771-26.588c2.75-10.629,12.707-18.156,23.581-18.407c12.266-0.284,22.522,8.742,24.885,20.521
							C127.471,291.519,136.336,289.969,135.194,284.274L135.194,284.274z"/>
					</g>
				</g>
				<g>
					<g>
						<path fill="none" d="M108.817,291.088c0,3.567-2.89,6.461-6.46,6.461c-3.568,0-6.458-2.894-6.458-6.461
							c0-3.568,2.89-6.459,6.458-6.459C105.927,284.629,108.817,287.52,108.817,291.088z"/>
						<path fill="#FFFFFF" d="M105.83,290.805c-0.243,4.509-6.203,4.984-6.939,0.466c-0.326-2.002,1.588-3.373,3.283-3.649
							c2.386-0.389,3.586,2.074,3.689,3.987c0.208,3.858,6.114,2.771,5.909-1.041c-0.265-4.926-4.273-8.665-9.132-8.926
							c-5.233-0.281-9.458,4.121-9.729,9.163c-0.282,5.232,4.12,9.46,9.162,9.731c5.234,0.282,9.459-4.122,9.731-9.165
							C112.012,287.512,106.038,286.942,105.83,290.805z"/>
					</g>
				</g>
				<g>
					<path fill="#FFFFFF" d="M108.706,287.388c-0.875-2.834-3.622-2.693-3.622-2.693s-1.723-0.447-1.96-0.191l10.795-12.583
						l1.998,0.994l-6.799,15.324"/>
				</g>
				<g>
					<path fill="#FFFFFF" d="M110.567,270.267l-2.048,1.617c0,0-15.535-1.261-22.096,2.206
						C86.423,274.09,98.705,267.744,110.567,270.267z"/>
				</g>
			</g>
			<g>
				<g>
					<g>
						<circle fill="none" cx="77.94" cy="214.814" r="15.798"/>
						<path fill="#FFFFFF" d="M89.257,214.39c-0.617,14.498-20.776,15.409-22.625,1.006c-0.825-6.43,5.007-11.155,10.727-11.889
							c7.109-0.913,11.684,5.888,11.947,12.089c0.246,5.785,9.106,4.148,8.863-1.563c-0.458-10.762-9.143-19.044-19.804-19.497
							c-11.224-0.478-20.242,9-20.704,19.854c-0.478,11.224,9.001,20.242,19.854,20.704c11.224,0.478,20.242-9.001,20.703-19.854
							C98.465,209.453,89.503,208.592,89.257,214.39z"/>
					</g>
				</g>
				<g>
					<path fill="#FFFFFF" d="M90.597,208.171c-2.581-7.988-10.727-7.583-10.727-7.583s-5.112-1.257-5.818-0.536l32.06-35.518
						l5.918,2.798l-20.218,43.23"/>
					<g>
						<path fill="none" d="M90.597,208.171c-2.581-7.988-10.727-7.583-10.727-7.583s-5.112-1.257-5.818-0.536l32.06-35.518
							l5.918,2.798l-20.218,43.23"/>
						<path fill="#FFFFFF" d="M91.952,207.527c-1.729-4.526-5.021-7.255-9.732-8.242c-2.485-0.521-6.313-1.603-8.812-0.588
							c0.625,0.738,1.249,1.477,1.873,2.215c10.687-11.839,21.374-23.678,32.06-35.518c-0.583,0.182-1.166,0.364-1.749,0.547
							c1.973,0.933,3.945,1.865,5.918,2.798c-0.295-0.643-0.591-1.285-0.887-1.928c-6.739,14.41-13.479,28.82-20.218,43.23
							c-0.822,1.757,2.001,2.779,2.813,1.041c6.74-14.41,13.479-28.82,20.219-43.23c0.368-0.787-0.197-1.602-0.887-1.928
							c-1.973-0.933-3.945-1.865-5.918-2.798c-0.656-0.31-1.322,0.074-1.749,0.547c-10.687,11.839-21.374,23.678-32.06,35.518
							c-1.09,1.208,0.623,2.724,1.873,2.215c1.62-0.658,4.292,0.59,6.089,0.711c4.139,0.277,7.015,2.922,8.457,6.697
							C89.931,210.621,92.639,209.325,91.952,207.527L91.952,207.527z"/>
					</g>
				</g>
				<g>
					<path fill="#FFFFFF" d="M99.941,160.992l-6.12,6.434c0,0-46.435-5.022-66.043,8.783
						C27.777,176.208,64.486,150.953,99.941,160.992z"/>
					<g>
						<path fill="none" d="M99.941,160.992l-6.12,6.434c0,0-46.435-5.022-66.043,8.783
							C27.777,176.208,64.486,150.953,99.941,160.992z"/>
						<path fill="#FFFFFF" d="M98.97,159.848c-1.799,1.891-3.598,3.783-5.397,5.674c-1.133,1.191,0.247,0.396,0.159,0.386
							c-0.583-0.06-1.166-0.11-1.75-0.161c-5.828-0.502-11.683-0.699-17.531-0.706c-15.783-0.02-34.163,0.877-47.645,10.023
							c0.647,0.763,1.294,1.525,1.941,2.288c19.834-13.553,47.139-21.268,70.672-14.954c1.856,0.498,2.908-2.313,1.041-2.814
							c-24.686-6.623-52.862,1.272-73.655,15.48c-1.597,1.091,0.356,3.364,1.941,2.288c13.807-9.367,33.523-9.548,49.581-9.288
							c4.911,0.08,9.83,0.33,14.72,0.792c3.023,0.285,5.982-4.744,7.862-6.72C102.229,160.75,100.306,158.444,98.97,159.848z"/>
					</g>
				</g>
				<g>
					<g>
						<path fill="none" d="M146.536,199.582c-5.917-33.658-35.299-59.23-70.65-59.23c-39.62,0-71.737,32.118-71.737,71.74
							c0,37.076,28.13,67.585,64.212,71.345"/>
						<path fill="#FFFFFF" d="M150.968,198.801c-4.111-22.127-17.567-41.435-37.039-52.771
							c-19.783-11.517-43.785-12.982-65.144-5.204C5.064,156.748-12.951,210.785,10.024,250.48
							c12.135,20.966,33.965,34.708,57.912,37.438c5.781,0.658,6.602-8.307,0.85-8.963c-22.885-2.608-42.765-16.48-53.169-37.023
							c-10.429-20.592-8.869-45.787,3.139-65.325c11.729-19.084,32.978-31.122,55.311-31.761
							c23.324-0.667,44.932,11.145,57.999,30.231c5.155,7.531,8.382,16.362,10.04,25.286
							C143.164,206.067,152.028,204.509,150.968,198.801L150.968,198.801z"/>
					</g>
				</g>
			</g>
			<rect x="131.059" y="199.455" fill="none" stroke="#FFFFFF" stroke-width="10" width="536.594" height="169.828"/>
			<path fill="#FFFFFF" stroke="#000000" stroke-width="4" d="M531.117,388.107"/>
			<g>
				<path fill="#FFFFFF" d="M290.57,341.378c-0.399,0-1.077-0.079-1.077,0.539c0,0.319,0.24,0.438,0.519,0.559l4.788,2.175
					c1.237,0.559,1.875,1.336,1.875,2.713c0,1.935-1.317,2.853-3.152,2.853h-2.953c-0.997,0-1.675-0.04-2.394-0.599
					c-0.359-0.279-0.878-0.639-0.878-1.117c0-0.538,0.459-0.957,0.998-0.957c0.299,0,0.519,0.1,0.738,0.339
					c0.339,0.379,0.938,0.419,1.536,0.419h2.594c0.678,0,1.596,0.06,1.596-1.058c0-0.459-0.559-0.758-0.997-0.957l-4.509-2.055
					c-1.057-0.479-1.676-1.098-1.676-2.335c0-1.516,1.197-2.434,2.633-2.434h3.272c1.057,0,1.496,0.06,2.214,0.658
					c0.359,0.3,0.758,0.539,0.758,1.077c0,0.539-0.459,0.958-0.978,0.958c-0.359,0-0.579-0.14-0.818-0.399
					c-0.319-0.339-0.658-0.379-1.177-0.379H290.57z"/>
				<path fill="#FFFFFF" d="M307.008,341.378c-0.2,0-0.399,0.061-0.599,0.18l-2.833,1.775v5.566c0,0.658-0.14,1.316-0.958,1.316
					s-0.958-0.658-0.958-1.316v-12.069c0-0.658,0.14-1.317,0.958-1.317s0.958,0.659,0.958,1.317v4.289l1.556-1.018
					c0.499-0.319,1.077-0.639,1.716-0.639h1.277c0.379,0,1.057,0,1.855,0.698c0.858,0.738,0.818,1.557,0.858,2.594l0.2,6.024
					c0.02,0.679-0.08,1.437-0.938,1.437c-0.778,0-0.938-0.658-0.958-1.297l-0.199-5.905c-0.04-0.917,0.02-1.636-1.058-1.636H307.008
					z"/>
				<path fill="#FFFFFF" d="M319.237,341.378c-0.559,0-1.317-0.119-1.317-0.957c0-0.818,0.679-0.958,1.317-0.958h2.633
					c0.998,0,1.716,0.1,2.474,0.858c0.738,0.737,0.838,1.316,0.858,2.273l0.2,6.504c0.02,0.559-0.26,1.117-0.898,1.117
					c-0.499,0-0.998-0.419-0.978-0.958l-1.316,0.679c-0.539,0.279-0.559,0.279-1.177,0.279h-1.835c-0.858,0-1.476-0.1-2.174-0.679
					c-0.798-0.658-0.998-1.356-0.998-2.354v-0.838c0-0.918,0.219-1.496,0.938-2.135c0.659-0.578,1.396-0.718,2.234-0.718h4.11
					v-0.439c0-1.437-0.319-1.676-1.696-1.676H319.237z M319.217,345.409c-0.519,0-1.277,0.14-1.277,0.838v1.276
					c0,0.639,0.778,0.778,1.237,0.778h2.115l2.115-1.098v-0.419c0-1.057-0.299-1.376-1.356-1.376H319.217z"/>
				<path fill="#FFFFFF" d="M339.765,346.067c0,1.376-0.1,1.896-1.217,2.772l-1.157,0.918c-0.399,0.319-1.018,0.858-1.536,0.858
					h-1.297c-0.858,0-1.257-0.559-1.875-1.138l-0.379-0.359v3.851c0,0.658-0.14,1.316-0.958,1.316s-0.958-0.658-0.958-1.316V340.88
					c0-0.679,0.08-1.417,0.958-1.417c0.778,0,0.958,0.618,0.958,1.257v0.239l0.379-0.339c0.499-0.438,1.256-1.157,1.795-1.157h1.316
					c0.459,0,1.077,0.479,1.596,0.878l1.157,0.897c1.117,0.878,1.217,1.417,1.217,2.773V346.067z M337.849,343.752
					c0-0.358-0.1-0.578-0.399-0.838l-1.436-1.196c-0.18-0.16-0.399-0.34-0.659-0.34h-0.499c-0.279,0-0.619,0.359-0.818,0.559
					l-1.197,1.138c-0.399,0.379-0.539,0.599-0.539,1.018v1.875c0,0.279,0.08,0.638,0.279,0.817l1.457,1.377
					c0.279,0.279,0.579,0.538,0.818,0.538h0.499c0.259,0,0.479-0.179,0.659-0.339l1.436-1.197c0.299-0.259,0.399-0.479,0.399-0.838
					V343.752z"/>
				<path fill="#FFFFFF" d="M348.263,350.216c-0.798,0-1.117,0-1.716-0.519l-0.818-0.719c-0.758-0.678-0.978-1.117-0.978-2.154
					v-3.69c0-1.018,0.14-1.616,0.938-2.294l0.678-0.579c0.898-0.777,1.337-0.798,2.115-0.798h1.756c0.938,0,1.376,0.1,2.114,0.698
					l0.778,0.618c0.877,0.698,0.998,1.437,0.998,2.494v1.536c0,1.097-0.18,1.416-1.317,1.416h-6.145v0.639
					c0,0.18,0.14,0.419,0.279,0.559l0.479,0.519c0.259,0.279,0.638,0.359,1.277,0.359h4.109c0.638,0,1.317,0.14,1.317,0.957
					c0,0.838-0.758,0.958-1.317,0.958H348.263z M346.667,344.311h5.546v-1.157c0-0.358,0.02-0.658-0.239-0.897l-0.738-0.639
					c-0.239-0.219-0.618-0.239-0.917-0.239h-1.616c-0.359,0-0.659,0-0.978,0.22l-0.659,0.479c-0.239,0.18-0.399,0.319-0.399,0.878
					V344.311z"/>
				<path fill="#FFFFFF" d="M380.94,341.877v-1.098c0-0.658,0.14-1.316,0.957-1.316c0.818,0,0.958,0.658,0.958,1.316v0.778
					c0,0.479-0.04,0.798-0.239,1.217l-4.828,10.514c-0.419,0.897-0.639,0.997-1.517,0.997h-1.476c-0.559,0-1.316-0.119-1.316-0.957
					c0-0.818,0.678-0.958,1.316-0.958h1.316l1.416-2.933h-0.1c-0.798,0-0.838-0.358-1.137-1.018l-2.354-5.206
					c-0.259-0.579-0.458-1.018-0.458-1.576v-0.858c0-0.658,0.14-1.316,0.957-1.316c0.818,0,0.958,0.658,0.958,1.316v1.098
					l2.573,5.646h0.419L380.94,341.877z"/>
				<path fill="#FFFFFF" d="M387.842,343.035c0-1.277,0.259-1.716,1.217-2.494c0.938-0.777,1.376-1.077,2.713-1.077h1.516
					c1.337,0,1.776,0.3,2.714,1.077c0.957,0.778,1.217,1.217,1.217,2.494v3.61c0,1.257-0.319,1.736-1.316,2.574
					c-0.998,0.838-1.396,0.997-2.614,0.997h-1.516c-1.217,0-1.616-0.159-2.613-0.997c-0.998-0.838-1.316-1.317-1.316-2.574V343.035z
					 M389.757,346.645c0,0.399,0.14,0.658,0.698,1.138c0.419,0.358,0.718,0.519,1.316,0.519h1.516c0.599,0,0.898-0.16,1.317-0.519
					c0.559-0.479,0.698-0.738,0.698-1.138v-3.61c0-0.399-0.14-0.658-0.698-1.138c-0.419-0.358-0.719-0.519-1.317-0.519h-1.516
					c-0.599,0-0.897,0.16-1.316,0.519c-0.559,0.479-0.698,0.738-0.698,1.138V346.645z"/>
				<path fill="#FFFFFF" d="M411.582,348.8c0,0.438,0.079,1.416-0.938,1.416c-0.818,0-0.958-0.679-0.958-1.337v-0.319l-1.556,1.018
					c-0.619,0.399-1.138,0.639-1.656,0.639h-1.416c-0.539,0-1.138-0.159-1.775-0.698c-0.858-0.738-0.838-1.556-0.878-2.594
					l-0.199-6.024c-0.021-0.698,0.079-1.437,0.957-1.437c0.818,0,0.918,0.698,0.938,1.316l0.199,5.886
					c0.021,0.438,0.04,0.957,0.2,1.236c0.159,0.279,0.658,0.399,1.117,0.399h0.638c0.22,0,0.419-0.06,0.599-0.18l2.813-1.775v-5.566
					c0-0.658,0.14-1.316,0.957-1.316c0.818,0,0.958,0.658,0.958,1.316V348.8z"/>
				<path fill="#FFFFFF" d="M416.569,340.88c0-0.698,0.079-1.417,0.957-1.417c0.758,0,0.958,0.639,0.958,1.277v0.777l1.496-1.236
					c0.538-0.439,1.097-0.818,1.695-0.818h1.536c0.738,0,1.356,0.239,1.875,0.758c0.639,0.639,0.858,1.297,0.858,2.175
					c0,0.658-0.12,1.337-0.938,1.337c-0.698,0-0.978-0.559-0.978-1.177c0-0.319,0-0.559-0.2-0.838
					c-0.239-0.34-0.698-0.34-1.156-0.34h-0.559c-0.359,0-0.619,0.18-0.958,0.459l-2.673,2.215v4.848c0,0.658-0.14,1.316-0.958,1.316
					c-0.817,0-0.957-0.658-0.957-1.316V340.88z"/>
				<path fill="#FFFFFF" d="M448.108,341.378h-0.539c-0.559,0-1.316-0.119-1.316-0.957c0-0.818,0.679-0.958,1.316-0.958h0.539
					v-0.259c0-1.098,0.06-1.896,0.918-2.733c0.917-0.878,1.775-0.958,2.952-0.958h1.297c0.658,0,1.396,0.061,1.396,0.958
					c0,0.818-0.658,0.957-1.316,0.957h-1.497c-1.296,0-1.835,0.26-1.835,1.656v0.379h1.695c0.639,0,1.317,0.14,1.317,0.958
					c0,0.838-0.759,0.957-1.317,0.957h-1.695v7.521c0,0.658-0.14,1.316-0.958,1.316c-0.817,0-0.957-0.658-0.957-1.316V341.378z"/>
				<path fill="#FFFFFF" d="M465.344,348.301h1.436c0.639,0,1.317,0.14,1.317,0.957c0,0.838-0.759,0.958-1.317,0.958h-4.867
					c-0.559,0-1.316-0.12-1.316-0.958c0-0.817,0.678-0.957,1.316-0.957h1.516v-10.873h-1.516c-0.559,0-1.316-0.119-1.316-0.957
					c0-0.818,0.678-0.958,1.316-0.958h2.015c1.098,0,1.417,0.2,1.417,1.337V348.301z"/>
				<path fill="#FFFFFF" d="M474.022,343.035c0-1.277,0.259-1.716,1.217-2.494c0.938-0.777,1.376-1.077,2.713-1.077h1.516
					c1.337,0,1.776,0.3,2.714,1.077c0.957,0.778,1.217,1.217,1.217,2.494v3.61c0,1.257-0.319,1.736-1.316,2.574
					c-0.998,0.838-1.396,0.997-2.614,0.997h-1.516c-1.217,0-1.616-0.159-2.613-0.997c-0.998-0.838-1.316-1.317-1.316-2.574V343.035z
					 M475.937,346.645c0,0.399,0.14,0.658,0.698,1.138c0.419,0.358,0.718,0.519,1.316,0.519h1.516c0.599,0,0.898-0.16,1.317-0.519
					c0.559-0.479,0.698-0.738,0.698-1.138v-3.61c0-0.399-0.14-0.658-0.698-1.138c-0.419-0.358-0.719-0.519-1.317-0.519h-1.516
					c-0.599,0-0.897,0.16-1.316,0.519c-0.559,0.479-0.698,0.738-0.698,1.138V346.645z"/>
				<path fill="#FFFFFF" d="M494.031,345.788l1.037,1.775l0.599-1.775l0.199-4.947c0.021-0.658,0.14-1.377,0.958-1.377
					c0.838,0,0.957,0.719,0.938,1.377l-0.2,5.326L496.624,349c-0.199,0.578-0.299,1.217-0.978,1.217h-0.737
					c-0.34,0-0.619-0.359-0.799-0.618l-1.037-1.557l-1.037,1.557c-0.18,0.259-0.459,0.618-0.798,0.618H490.5
					c-0.679,0-0.778-0.639-0.978-1.217l-0.938-2.833l-0.199-5.326c-0.021-0.658,0.1-1.377,0.938-1.377
					c0.817,0,0.938,0.719,0.957,1.377l0.199,4.947l0.599,1.775l1.038-1.775v-1.756c0-0.658,0.14-1.336,0.957-1.336
					c0.818,0,0.958,0.678,0.958,1.336V345.788z"/>
			</g>
			<line fill="none" stroke="#FFFFFF" stroke-width="2" x1="148.804" y1="349.456" x2="269.011" y2="349.456"/>
			<line fill="none" stroke="#FFFFFF" stroke-width="2" x1="524.302" y1="349.872" x2="656.682" y2="349.872"/>
			<g>
				<polyline fill="none" points="148.862,356.851 148.862,245.682 662.498,245.682 662.498,356.851 				"/>
				<path fill="#FFFFFF" d="M158.725,246.467c0-2.793,1.222-4.363,4.364-4.363c3.142,0,4.364,1.57,4.364,4.363v20.074l26.62-22.604
					c1.047-0.873,2.182-1.746,3.579-1.746c2.531,0,4.189,2.095,4.189,4.539c0,1.483-0.96,2.705-2.007,3.665l-30.111,25.66
					l29.937,25.66c1.135,0.96,2.182,2.182,2.182,3.753c0,2.443-1.658,4.538-4.189,4.538c-1.833,0-3.316-1.571-4.713-2.618
					l-25.485-21.907v20.161c0,2.793-1.222,4.364-4.364,4.364c-3.142,0-4.364-1.571-4.364-4.364V246.467z"/>
				<path fill="#FFFFFF" d="M260.316,301.279c2.269,0,4.364,1.222,4.364,4.363c0,3.143-2.095,4.364-4.364,4.364h-38.752v-67.902
					h38.752c2.269,0,4.364,1.222,4.364,4.363c0,3.143-2.095,4.364-4.364,4.364h-30.024v20.859h12.83
					c2.269,0,4.364,1.222,4.364,4.364c0,3.142-2.095,4.364-4.364,4.364h-12.83v20.859H260.316z"/>
				<path fill="#FFFFFF" d="M310.325,305.642c0,2.793-1.222,4.364-4.364,4.364c-3.142,0-4.364-1.571-4.364-4.364v-27.929
					l-17.194-22.344v-8.902c0-2.793,1.222-4.363,4.364-4.363c3.142,0,4.364,1.57,4.364,4.363v5.936l12.83,16.67l12.83-16.67v-5.936
					c0-2.793,1.222-4.363,4.364-4.363c3.142,0,4.364,1.57,4.364,4.363v8.902l-17.194,22.344V305.642z"/>
				<path fill="#FFFFFF" d="M387.303,292.9c1.746,2.27,3.055,4.276,3.055,7.244c0,6.546-4.975,9.862-10.997,9.862H360.16
					c-3.316,0-6.196-0.611-8.815-2.793c-2.356-1.92-4.102-5.063-4.102-8.117c0-2.793,1.571-5.236,4.626-5.236
					c2.531,0,4.102,2.095,4.102,4.451c0,2.618,1.396,2.968,3.84,2.968h18.939c0.698,0,2.88,0.262,2.88-1.048
					c0-0.698-1.222-2.007-1.571-2.531l-29.936-38.489c-1.833-2.356-2.88-4.103-2.88-7.157c0-3.491,1.658-6.458,4.626-8.379
					c2.444-1.57,4.451-1.57,7.244-1.57h18.503c3.316,0,6.109,0.698,8.641,2.88c2.27,2.008,4.102,5.236,4.102,8.292
					c0,2.792-1.396,5.062-4.538,5.062c-2.618,0-4.189-1.658-4.189-4.102c0-2.968-1.483-3.404-4.189-3.404h-18.503
					c-0.96,0-2.967-0.262-2.967,1.222c0,0.786,0.96,1.833,1.309,2.356L387.303,292.9z"/>
				<path fill="#FFFFFF" d="M433.561,310.006c-6.546,0-10.3-2.618-13.092-8.291l-8.03-16.234c-1.483-2.968-2.356-5.76-2.356-9.164
					c0-3.84,0.698-6.196,2.444-9.688l8.029-16.146c2.968-6.022,6.721-8.379,13.44-8.379h14.838c1.92,0,4.363,1.047,4.363,4.363
					c0,3.143-2.356,4.364-4.363,4.364h-14.576c-3.753,0-4.363,0.35-6.021,3.666l-7.594,15.187c-1.135,2.356-1.833,3.927-1.833,6.633
					c0,2.443,0.786,3.928,1.833,6.022l7.419,15.099c1.745,3.579,2.618,3.841,6.546,3.841h14.227c1.92,0,4.363,1.047,4.363,4.363
					c0,3.143-2.356,4.364-4.363,4.364H433.561z"/>
				<path fill="#FFFFFF" d="M513.769,266.629c1.658,3.403,2.269,5.935,2.269,9.688c0,4.189-1.134,6.808-2.88,10.386l-8.029,16.06
					c-2.095,4.189-5.586,7.244-10.648,7.244c-5.062,0-8.553-3.055-10.647-7.244l-8.03-16.06c-1.745-3.578-2.88-6.196-2.88-10.386
					c0-3.753,0.611-6.284,2.27-9.688l8.728-17.369c2.095-4.102,5.673-7.156,10.561-7.156s8.466,3.055,10.561,7.156L513.769,266.629z
					 M497.448,253.45c-0.698-1.396-1.135-2.618-2.968-2.618s-2.269,1.222-2.967,2.618l-7.855,15.798
					c-1.31,2.531-2.008,4.189-2.008,7.069c0,2.27,0.524,3.84,1.484,5.761l8.379,16.583c0.61,1.222,1.222,2.618,2.967,2.618
					c1.746,0,2.356-1.396,2.968-2.618l8.379-16.583c0.96-1.921,1.483-3.491,1.483-5.761c0-2.88-0.698-4.538-2.007-7.069
					L497.448,253.45z"/>
				<path fill="#FFFFFF" d="M544.49,305.642c0,2.793-1.222,4.364-4.363,4.364c-3.143,0-4.364-1.571-4.364-4.364v-63.538h29.325
					c6.896,0,13.79,4.888,13.79,12.655v6.022c0,8.204-6.808,12.394-13.79,12.394h-8.029l19.638,28.104
					c0.96,1.309,2.182,2.967,2.182,4.625c0,2.444-2.007,4.103-4.451,4.103c-1.745,0-2.88-1.047-3.84-2.443l-24.089-34.388h-2.008
					V305.642z M544.49,264.447h19.376c2.444,0,6.284-0.174,6.284-3.665v-6.022c0-3.491-3.578-3.928-6.196-3.928H544.49V264.447z"/>
				<path fill="#FFFFFF" d="M637.354,301.279c2.269,0,4.363,1.222,4.363,4.363c0,3.143-2.095,4.364-4.363,4.364h-38.752v-67.902
					h38.752c2.269,0,4.363,1.222,4.363,4.363c0,3.143-2.095,4.364-4.363,4.364H607.33v20.859h12.83c2.27,0,4.364,1.222,4.364,4.364
					c0,3.142-2.095,4.364-4.364,4.364h-12.83v20.859H637.354z"/>
			</g>
		</g>
		<polyline fill="none" stroke="#FFFFFF" stroke-width="4" points="522.074,22.424 541.088,18.527 538.594,37.542 		"/>
		<circle fill="#FFFFFF" stroke="#FFFFFF" stroke-width="4" cx="309.021" cy="99" r="3.74"/>
		<circle fill="#FFFFFF" stroke="#FFFFFF" stroke-width="4" cx="354.53" cy="162.38" r="3.74"/>
		<circle fill="#FFFFFF" stroke="#FFFFFF" stroke-width="4" cx="378.842" cy="107.727" r="3.742"/>
		<circle fill="#FFFFFF" stroke="#FFFFFF" stroke-width="4" cx="470.277" cy="88.609" r="3.742"/>
		<g>
			<polyline fill="none" stroke="#FFFFFF" stroke-width="2" points="361.389,133.547 306.262,61.006 208.871,181.743 			"/>
			<polyline fill="none" stroke="#FFFFFF" stroke-width="2" points="493.65,77.621 483.56,105.52 390.542,121.456 378.054,154.55 
				373.312,148.336 			"/>
			<polyline fill="none" stroke="#FFFFFF" stroke-width="2" points="509.363,11.955 521.018,0.72 502.083,53.077 			"/>
			<line fill="none" stroke="#FFFFFF" stroke-width="2" x1="522.733" y1="15.427" x2="521.069" y2="0.975"/>
		</g>
		<path fill="none" stroke="#020202" d="M654.293,192.117"/>
		<path fill="none" stroke="#020202" d="M659.229,188.115"/>
		<line fill="none" stroke="#FFFFFF" stroke-width="2" x1="542.257" y1="88.105" x2="561.232" y2="88.105"/>
		<line fill="none" stroke="#FFFFFF" stroke-width="2" x1="591.929" y1="88.107" x2="581.604" y2="88.107"/>
		<line fill="none" stroke="#FFFFFF" stroke-width="2" x1="638.604" y1="88.107" x2="612.581" y2="88.107"/>
		<line fill="none" stroke="#FFFFFF" stroke-width="2" x1="521.604" y1="120.756" x2="561.232" y2="120.756"/>
		<line fill="none" stroke="#FFFFFF" stroke-width="2" x1="591.929" y1="120.758" x2="581.604" y2="120.758"/>
		<line fill="none" stroke="#FFFFFF" stroke-width="2" x1="621.651" y1="120.758" x2="612.581" y2="120.758"/>
		<line fill="none" stroke="#FFFFFF" stroke-width="2" x1="649.279" y1="120.758" x2="640.208" y2="120.758"/>
		<line fill="none" stroke="#FFFFFF" stroke-width="2" x1="507.651" y1="150.059" x2="561.232" y2="150.059"/>
		<line fill="none" stroke="#FFFFFF" stroke-width="2" x1="591.929" y1="150.06" x2="581.604" y2="150.06"/>
		<line fill="none" stroke="#FFFFFF" stroke-width="2" x1="621.651" y1="150.06" x2="612.581" y2="150.06"/>
		<line fill="none" stroke="#FFFFFF" stroke-width="2" x1="665.882" y1="150.06" x2="640.208" y2="150.06"/>
	</g>
	<path fill="none" stroke="#000000" stroke-width="4" d="M279.921,377.325"/>
</g>
<path fill="none" stroke="#FFFFFF" stroke-width="5" d="M566.954,370.664c-4.604,9.627-2.722,14.86-2.722,14.86
	c0,22.829,18.508,41.337,41.337,41.337c22.831,0,41.338-18.508,41.338-41.337c0,0,0.628-7.744-3.35-13.187"/>
<path fill="none" stroke="#FFFFFF" stroke-width="5" d="M507.303,370.873c-11.094,5.441-10.466,16.116-10.466,16.116
	c0,10.635,8.62,19.256,19.256,19.256c10.635,0,19.256-8.621,19.256-19.256c0,0-1.047-20.93-17.791-16.744"/>
<g>
	<g>
		<line fill="none" x1="144.861" y1="38.493" x2="144.861" y2="73.665"/>
		<path fill="#FFFFFF" d="M141.874,38.209c0,11.724,0,23.448,0,35.172c0,3.841,5.975,4.431,5.975,0.566c0-11.724,0-23.448,0-35.172
			C147.848,34.935,141.874,34.345,141.874,38.209L141.874,38.209z"/>
	</g>
</g>
<path fill="none" stroke="#FFFFFF" stroke-width="4" d="M155.494,79.86c0,2.749-2.372,4.98-5.293,4.98h-10.819
	c-2.922,0-5.293-2.231-5.293-4.98l0,0c0-2.751,2.372-4.98,5.293-4.98H150.2C153.122,74.88,155.494,77.109,155.494,79.86
	L155.494,79.86z"/>
</svg>
