<svg version="1.1" xmlns="http://www.w3.org/2000/svg"
	 viewBox="0 0 62.847 77.502" overflow="visible" enable-background="new 0 0 62.847 77.502" xml:space="preserve">
<polygon fill="none" stroke="#000000" points="62.347,15.336 62.347,77.002 0.5,77.002 0.5,0.5 46.437,0.5 "/>
<polyline fill="none" stroke="#000000" points="45.898,0.678 45.898,14.977 62.347,14.977 "/>
<line fill="none" stroke="#000000" x1="7.471" y1="36.523" x2="52.516" y2="36.523"/>
<line fill="none" stroke="#000000" x1="7.471" y1="45.104" x2="52.516" y2="45.104"/>
<line fill="none" stroke="#000000" x1="7.471" y1="53.682" x2="52.516" y2="53.682"/>
<line fill="none" stroke="#000000" x1="7.471" y1="62.264" x2="52.516" y2="62.264"/>
<line fill="none" stroke="#000000" stroke-width="2" x1="29.234" y1="18.252" x2="29.234" y2="30.252"/>
<line fill="none" stroke="#000000" stroke-width="2" x1="23.568" y1="23.918" x2="35.235" y2="23.918"/>
<rect x="7.588" y="66.877" stroke="#000000" width="45" height="5.375"/>
<g>
</g>
<g>
	<path fill="#FFFFFF" d="M28.117,71.813c-0.186,0.096-0.576,0.192-1.068,0.192c-1.14,0-1.992-0.721-1.992-2.053
		c0-1.271,0.858-2.124,2.112-2.124c0.498,0,0.822,0.108,0.96,0.181l-0.132,0.426c-0.192-0.096-0.474-0.168-0.81-0.168
		c-0.948,0-1.578,0.605-1.578,1.668c0,0.996,0.57,1.626,1.548,1.626c0.324,0,0.648-0.066,0.858-0.168L28.117,71.813z"/>
	<path fill="#FFFFFF" d="M28.711,71.304c0.234,0.149,0.57,0.264,0.93,0.264c0.534,0,0.846-0.276,0.846-0.69
		c0-0.371-0.216-0.594-0.762-0.798c-0.66-0.239-1.068-0.588-1.068-1.151c0-0.63,0.522-1.099,1.308-1.099
		c0.408,0,0.714,0.097,0.888,0.198l-0.144,0.426c-0.126-0.078-0.396-0.191-0.762-0.191c-0.552,0-0.762,0.33-0.762,0.605
		c0,0.378,0.246,0.564,0.804,0.78c0.684,0.27,1.026,0.594,1.026,1.188c0,0.624-0.456,1.171-1.41,1.171
		c-0.39,0-0.816-0.12-1.032-0.265L28.711,71.304z"/>
	<path fill="#FFFFFF" d="M32.623,71.939l-1.326-4.044h0.57l0.63,1.992c0.169,0.546,0.318,1.044,0.433,1.512h0.012
		c0.113-0.468,0.275-0.978,0.462-1.506l0.685-1.998h0.558l-1.446,4.044H32.623z"/>
</g>
</svg>
