<svg  version="1.1" xmlns="http://www.w3.org/2000/svg"
	 viewBox="0 0 61.205 72.791" overflow="visible" enable-background="new 0 0 61.205 72.791" xml:space="preserve">
<g>
	<g>
		<path fill="none" d="M51.777,21.011H10.399c-0.347,1.96-0.534,4.007-0.534,6.115v19.142c0,14.095,8.216,25.523,18.349,25.523
			h6.307c10.133,0,18.349-11.429,18.349-25.523V27.126c0-2.12-0.189-4.178-0.539-6.147C52.146,20.992,51.964,21.011,51.777,21.011z"
			/>
	</g>
	<g>
		<path fill="none" stroke="#000000" stroke-width="2" d="M51.777,21.011H10.399c-0.347,1.96-0.534,4.007-0.534,6.115v19.142
			c0,14.095,8.216,25.523,18.349,25.523h6.307c10.133,0,18.349-11.429,18.349-25.523V27.126c0-2.12-0.189-4.178-0.539-6.147
			C52.146,20.992,51.964,21.011,51.777,21.011z"/>
	</g>
</g>
<g>
	<line fill="#FFFFFF" stroke="#000000" stroke-width="2" x1="8.145" y1="16.555" x2="54.78" y2="16.555"/>
</g>
<path fill="none" stroke="#000000" d="M22.543,15.791c0,0,7.135-12.232,17.074,0"/>
<polygon fill="none" stroke="#000000" points="42.612,34.776 42.612,56.756 20.568,56.756 20.568,29.488 36.941,29.488 "/>
<polyline fill="none" stroke="#000000" points="36.75,29.552 36.75,34.648 42.612,34.648 "/>
<line fill="none" stroke="#000000" x1="23.053" y1="38.407" x2="39.108" y2="38.407"/>
<line fill="none" stroke="#000000" x1="23.053" y1="41.466" x2="39.108" y2="41.466"/>
<line fill="none" stroke="#000000" x1="23.053" y1="44.523" x2="39.108" y2="44.523"/>
<line fill="none" stroke="#000000" x1="23.053" y1="47.582" x2="39.108" y2="47.582"/>
<line fill="none" stroke="#000000" x1="23.053" y1="50.64" x2="39.108" y2="50.64"/>
</svg>
