<?xml version="1.0" encoding="utf-8"?>
<!-- Generator: Adobe Illustrator 23.0.3, SVG Export Plug-In . SVG Version: 6.00 Build 0)  -->
<svg version="1.1" xmlns="http://www.w3.org/2000/svg" xmlns:xlink="http://www.w3.org/1999/xlink" x="0px" y="0px"
	 viewBox="0 0 1000 640" style="enable-background:new 0 0 1000 640;" xml:space="preserve">
<style type="text/css">
	.st0{fill:#363636;}
	.st1{fill:#365880;}
	.st2{fill:#FFFFFF;}
	.st3{fill-opacity:0;stroke:#000000;stroke-opacity:0;}
	.st4{fill-opacity:0;}
	.st5{fill-opacity:0;stroke:#FFFFFF;stroke-width:3;}
	.st6{enable-background:new    ;}
	.st7{font-family:'Roboto-Regular';}
	.st8{font-size:22px;}
	.st9{font-family:'OCRAStd';}
	.st10{font-size:45.4484px;}
</style>
<g id="Background">
	<g>
		<path id="cEnICsQZe_7_" class="st0" d="M-1,0H999v640H-1V0z"/>
	</g>
	<g>
		<path id="cEnICsQZe_6_" class="st1" d="M-1,0H999v640H-1V0z"/>
	</g>
</g>
<g id="Ebene_1">
	<g>
		<g>
			<path id="bdPMWdCOZ" class="st2" d="M401.1,387.3c0,0-0.1-2-0.2-5.1c-0.1-3.3-0.2-7.9-0.3-13.6c0-5.6-0.2-12.2-0.1-19.2
				c0-7,0.2-14.5,0.3-22c0.1-3.7,0.2-7.5,0.3-11.1c0.1-3.7,0.1-7.4,0.2-10.9c0-3.5,0-7,0.1-10.1c0-3.2,0-6.2-0.1-9
				c0-2.8-0.1-5.3-0.2-7.7c-0.1-2.2-0.2-4.3-0.4-5.9c-0.1-1.6-0.2-2.9-0.3-3.7c0-0.9-0.2-1.3-0.2-1.3c-0.1-0.8-0.6-1.3-1.1-1.2
				c-0.4,0-0.8,0.6-0.9,1.2c0,0,0,0.5-0.2,1.3c-0.1,0.9-0.2,2.2-0.4,3.8c-0.2,1.7-0.3,3.7-0.5,5.9c-0.1,2.3-0.3,4.9-0.4,7.7
				c-0.1,2.8-0.2,5.9-0.2,9.1c0,3.3,0,6.6,0,10.1c0.1,3.5,0.1,7.1,0.2,10.9c0,3.7,0.2,7.4,0.4,11.1c0.3,7.5,0.6,15,0.8,21.9
				c0.2,7.1,0.4,13.5,0.6,19.2c0.1,5.6,0.3,10.3,0.3,13.6c0,3.3,0.1,5.1,0.1,5.1c0,0.8,0.4,1.4,1,1.4
				C400.6,388.9,401,388.2,401.1,387.3C401,387.3,401,387.3,401.1,387.3"/>
		</g>
		<g>
			<g>
				<path class="st3" d="M401.1,387.3c0,0-0.1-2-0.2-5.1c-0.1-3.3-0.2-7.9-0.3-13.6c0-5.6-0.2-12.2-0.1-19.2c0-7,0.2-14.5,0.3-22
					c0.1-3.7,0.2-7.5,0.3-11.1c0.1-3.7,0.1-7.4,0.2-10.9c0-3.5,0-7,0.1-10.1c0-3.2,0-6.2-0.1-9c0-2.8-0.1-5.3-0.2-7.7
					c-0.1-2.2-0.2-4.3-0.4-5.9c-0.1-1.6-0.2-2.9-0.3-3.7c0-0.9-0.2-1.3-0.2-1.3c-0.1-0.8-0.6-1.3-1.1-1.2c-0.4,0-0.8,0.6-0.9,1.2
					c0,0,0,0.5-0.2,1.3c-0.1,0.9-0.2,2.2-0.4,3.8c-0.2,1.7-0.3,3.7-0.5,5.9c-0.1,2.3-0.3,4.9-0.4,7.7c-0.1,2.8-0.2,5.9-0.2,9.1
					c0,3.3,0,6.6,0,10.1c0.1,3.5,0.1,7.1,0.2,10.9c0,3.7,0.2,7.4,0.4,11.1c0.3,7.5,0.6,15,0.8,21.9c0.2,7.1,0.4,13.5,0.6,19.2
					c0.1,5.6,0.3,10.3,0.3,13.6c0,3.3,0.1,5.1,0.1,5.1c0,0.8,0.4,1.4,1,1.4C400.6,388.9,401,388.2,401.1,387.3
					C401,387.3,401,387.3,401.1,387.3"/>
			</g>
		</g>
	</g>
	<g>
		<g>
			<g>
				<path id="a2touFR09e" class="st2" d="M899.8,205.4c0,0,0.1,1.2,0.1,3.3c0.1,2.1,0.1,5,0.2,8.6c-0.1,3.6-0.2,7.7-0.4,12.2
					c-0.1,4.4-0.3,9.2-0.5,13.9c-0.1,2.3-0.3,4.7-0.4,7c-0.1,2.3-0.2,4.7-0.3,6.9c-0.1,2.2-0.1,4.4-0.2,6.4c-0.1,2,0,4,0,5.7
					c0,1.8,0.1,3.4,0.2,4.9c0.1,1.4,0.2,2.7,0.3,3.7s0.2,1.9,0.4,2.4c0,0.6,0.2,0.9,0.2,0.9c0.1,0.5,0.7,0.9,1.2,0.8
					c0.5,0,0.9-0.3,1-0.7c0,0,0.1-0.3,0.2-0.8c0.1-0.6-0.3,1.1-0.1,0.1s-0.2,1.2,0-0.2c0.1-1.4,0,0.1,0.1-1.7c0.1-1.8,0.2-5.8,0.1-8
					c0-2.2,0.1-8.7,0-11.1c0-2.4,0.2-6.7,0.1-9.1c-0.2-4.8,0-16.6-0.1-21c-0.2-4.5,0.4-8.6,0.2-12.2c-0.1-3.6-0.2-6.6-0.2-8.6
					c0-2.1,0-3.2,0-3.2c0-0.5-0.4-0.9-1-0.9C900.3,204.4,899.9,204.8,899.8,205.4C899.9,205.4,899.9,205.4,899.8,205.4"/>
			</g>
			<g>
				<g>
					<path class="st3" d="M899.8,205.4c0,0,0.1,1.2,0.1,3.3c0.1,2.1,0.1,5,0.2,8.6c-0.1,3.6-0.2,7.7-0.4,12.2
						c-0.1,4.4-0.3,9.2-0.5,13.9c-0.1,2.3-0.3,4.7-0.4,7c-0.1,2.3-0.2,4.7-0.3,6.9c-0.1,2.2-0.1,4.4-0.2,6.4c-0.1,2,0,4,0,5.7
						c0,1.8,0.1,3.4,0.2,4.9c0.1,1.4,0.2,2.7,0.3,3.7s0.2,1.9,0.4,2.4c0,0.6,0.2,0.9,0.2,0.9c0.1,0.5,0.7,0.9,1.2,0.8
						c0.5,0,0.9-0.3,1-0.7c0,0,0.1-0.3,0.2-0.8c0.1-0.6-0.3,1.1-0.1,0.1s-0.2,1.2,0-0.2c0.1-1.4,0,0.1,0.1-1.7
						c0.1-1.8,0.2-5.8,0.1-8c0-2.2,0.1-8.7,0-11.1c0-2.4,0.2-6.7,0.1-9.1c-0.2-4.8,0-16.6-0.1-21c-0.2-4.5,0.4-8.6,0.2-12.2
						c-0.1-3.6-0.2-6.6-0.2-8.6c0-2.1,0-3.2,0-3.2c0-0.5-0.4-0.9-1-0.9C900.3,204.4,899.9,204.8,899.8,205.4
						C899.9,205.4,899.9,205.4,899.8,205.4"/>
				</g>
			</g>
		</g>
		<g>
			<g>
				<path id="c2SNay46tn" class="st2" d="M900.3,206.6c0,0-2-0.1-5.1-0.2c-3.3-0.1-7.9-0.2-13.6-0.3c-5.6,0-12.2-0.2-19.2-0.1
					c-7,0-14.5,0.2-22,0.4c-3.7,0.1-7.4,0.2-11.1,0.3c-3.7,0.1-7.4,0.1-10.9,0.2c-3.5,0.1-6.9,0.1-10.1,0.1c-3.2,0-6.2,0-9-0.1
					c-2.8,0-5.3-0.2-7.7-0.2c-2.2-0.1-4.3-0.2-5.9-0.3c-1.6-0.1-2.9-0.2-3.7-0.3c-0.9,0-1.4-0.2-1.4-0.2c-0.8-0.1-1.3-0.6-1.2-1.1
					c0-0.4,0.6-0.8,1.2-0.9c0,0,0.5-0.1,1.3-0.2c0.9-0.1,2.2-0.2,3.8-0.4s3.7-0.3,5.9-0.5c2.3-0.1,4.9-0.3,7.7-0.4
					c2.8-0.1,5.9-0.2,9.1-0.2s6.6,0,10.1,0.1s7.1,0.1,10.9,0.2c3.7,0,7.4,0.2,11.1,0.4c7.5,0.3,15,0.6,21.9,0.8
					c7.1,0.2,13.5,0.4,19.2,0.6c5.7,0.1,10.3,0.3,13.6,0.3s5.1,0,5.1,0c0.8,0,1.4,0.4,1.4,1C901.9,206.2,901.3,206.6,900.3,206.6
					C900.4,206.5,900.4,206.5,900.3,206.6"/>
			</g>
			<g>
				<g>
					<path class="st3" d="M900.3,206.6c0,0-2-0.1-5.1-0.2c-3.3-0.1-7.9-0.2-13.6-0.3c-5.6,0-12.2-0.2-19.2-0.1c-7,0-14.5,0.2-22,0.4
						c-3.7,0.1-7.4,0.2-11.1,0.3c-3.7,0.1-7.4,0.1-10.9,0.2c-3.5,0.1-6.9,0.1-10.1,0.1c-3.2,0-6.2,0-9-0.1c-2.8,0-5.3-0.2-7.7-0.2
						c-2.2-0.1-4.3-0.2-5.9-0.3c-1.6-0.1-2.9-0.2-3.7-0.3c-0.9,0-1.4-0.2-1.4-0.2c-0.8-0.1-1.3-0.6-1.2-1.1c0-0.4,0.6-0.8,1.2-0.9
						c0,0,0.5-0.1,1.3-0.2c0.9-0.1,2.2-0.2,3.8-0.4s3.7-0.3,5.9-0.5c2.3-0.1,4.9-0.3,7.7-0.4c2.8-0.1,5.9-0.2,9.1-0.2
						s6.6,0,10.1,0.1s7.1,0.1,10.9,0.2c3.7,0,7.4,0.2,11.1,0.4c7.5,0.3,15,0.6,21.9,0.8c7.1,0.2,13.5,0.4,19.2,0.6
						c5.7,0.1,10.3,0.3,13.6,0.3s5.1,0,5.1,0c0.8,0,1.4,0.4,1.4,1C901.9,206.2,901.3,206.6,900.3,206.6
						C900.4,206.5,900.4,206.5,900.3,206.6"/>
				</g>
			</g>
		</g>
		<g>
			<g>
				<path id="b153i1RfJs" class="st4" d="M900,280.4c-63.5,0-103.2,0-119,0c-0.3,0-0.5-0.2-0.5-0.5c0-1.8,0-6.2,0-13.2v0.1v-0.1
					l11.8-16.1v-12.2l-11.8-16v-0.1v0.1c0-8.8,0-14.4,0-16.6c0-0.2,0.1-0.3,0.3-0.3c7.1-0.1,24.8-0.2,53.1-0.4"/>
			</g>
			<g>
				<g>
					<path class="st5" d="M900,280.4c-63.5,0-103.2,0-119,0c-0.3,0-0.5-0.2-0.5-0.5c0-1.8,0-6.2,0-13.2v0.1v-0.1l11.8-16.1v-12.2
						l-11.8-16v-0.1v0.1c0-8.8,0-14.4,0-16.6c0-0.2,0.1-0.3,0.3-0.3c7.1-0.1,24.8-0.2,53.1-0.4"/>
				</g>
			</g>
		</g>
		<g>
			<g>
				<path id="atG5s4808" class="st2" d="M782.3,281.5c0,0,1.6-0.1,4.2-0.1c2.7-0.1,6.6-0.1,11.2-0.2c4.7,0,10.1-0.1,15.9,0
					c5.8,0,12,0.2,18.2,0.3c3,0.1,6.2,0.2,9.2,0.2c3,0.1,6.1,0.1,9,0.2c2.9,0.1,5.8,0,8.4,0.1c2.6,0,5.2,0,7.4-0.1
					c2.3,0,4.4-0.1,6.4-0.2c1.8-0.1,3.5-0.2,4.8-0.3s2.4-0.1,3.1-0.2c0.7,0,1.1-0.1,1.1-0.1c0.7-0.1,1.1-0.5,1-0.9
					c0-0.3-0.5-0.6-1-0.7c0,0-0.4,0-1.1-0.1c-0.7-0.1-1.8-0.2-3.2-0.4c-1.4-0.2-3-0.2-4.9-0.4c-1.9-0.1-4-0.2-6.4-0.4
					c-2.3-0.1-4.9-0.2-7.6-0.1c-2.7,0-5.5,0-8.4,0c-2.9,0.1-5.9,0.1-9,0.2c-3.1,0-6.1,0.2-9.2,0.3c-6.2,0.2-12.4,0.5-18.2,0.6
					c-5.8,0.2-11.2,0.3-15.9,0.5c-4.7,0.1-8.5,0.2-11.2,0.2s-4.2,0-4.2,0c-0.7,0-1.1,0.3-1.1,0.8C781,281.1,781.5,281.5,782.3,281.5
					C782.2,281.4,782.2,281.4,782.3,281.5"/>
			</g>
			<g>
				<g>
					<path class="st3" d="M782.3,281.5c0,0,1.6-0.1,4.2-0.1c2.7-0.1,6.6-0.1,11.2-0.2c4.7,0,10.1-0.1,15.9,0c5.8,0,12,0.2,18.2,0.3
						c3,0.1,6.2,0.2,9.2,0.2c3,0.1,6.1,0.1,9,0.2c2.9,0.1,5.8,0,8.4,0.1c2.6,0,5.2,0,7.4-0.1c2.3,0,4.4-0.1,6.4-0.2
						c1.8-0.1,3.5-0.2,4.8-0.3s2.4-0.1,3.1-0.2c0.7,0,1.1-0.1,1.1-0.1c0.7-0.1,1.1-0.5,1-0.9c0-0.3-0.5-0.6-1-0.7c0,0-0.4,0-1.1-0.1
						c-0.7-0.1-1.8-0.2-3.2-0.4c-1.4-0.2-3-0.2-4.9-0.4c-1.9-0.1-4-0.2-6.4-0.4c-2.3-0.1-4.9-0.2-7.6-0.1c-2.7,0-5.5,0-8.4,0
						c-2.9,0.1-5.9,0.1-9,0.2c-3.1,0-6.1,0.2-9.2,0.3c-6.2,0.2-12.4,0.5-18.2,0.6c-5.8,0.2-11.2,0.3-15.9,0.5
						c-4.7,0.1-8.5,0.2-11.2,0.2s-4.2,0-4.2,0c-0.7,0-1.1,0.3-1.1,0.8C781,281.1,781.5,281.5,782.3,281.5
						C782.2,281.4,782.2,281.4,782.3,281.5"/>
				</g>
			</g>
		</g>
	</g>
	<g>
		<g>
			<g>
				<path id="aBneBxlkA" class="st2" d="M228.6,206.6c0,0-1.9-0.1-5.1-0.2c-3.3-0.1-7.9-0.2-13.6-0.3c-5.6,0-12.2-0.2-19.2-0.1
					c-7,0-14.5,0.2-22,0.4c-3.7,0.1-7.4,0.2-11.1,0.3s-7.4,0.1-10.9,0.2c-3.5,0.1-6.9,0-10.1,0.1c-3.2,0-6.2,0-9-0.1
					c-2.8,0-5.3-0.1-7.7-0.2c-2.2-0.1-4.3-0.2-5.9-0.3s-2.9-0.2-3.7-0.3c-0.9-0.1-1.3-0.2-1.3-0.2c-0.8-0.1-1.3-0.6-1.2-1.1
					c0-0.4,0.6-0.8,1.2-0.9c0,0,0.5-0.1,1.3-0.2c0.9-0.1,2.2-0.2,3.8-0.4c1.6-0.2,3.7-0.3,5.9-0.5c2.3-0.1,4.9-0.3,7.7-0.4
					c2.8-0.1,5.9-0.2,9.1-0.2c3.2,0,6.6,0,10.1,0.1s7.1,0.1,10.8,0.2c3.7,0.1,7.4,0.2,11.1,0.4c7.5,0.3,14.9,0.6,21.9,0.8
					c7.1,0.2,13.5,0.4,19.2,0.6c5.7,0.1,10.3,0.3,13.6,0.3c3.2,0,5.1,0,5.1,0c0.8,0,1.4,0.4,1.4,1
					C230.2,206.1,229.6,206.6,228.6,206.6C228.7,206.5,228.7,206.5,228.6,206.6"/>
			</g>
			<g>
				<g>
					<path class="st3" d="M228.6,206.6c0,0-1.9-0.1-5.1-0.2c-3.3-0.1-7.9-0.2-13.6-0.3c-5.6,0-12.2-0.2-19.2-0.1
						c-7,0-14.5,0.2-22,0.4c-3.7,0.1-7.4,0.2-11.1,0.3s-7.4,0.1-10.9,0.2c-3.5,0.1-6.9,0-10.1,0.1c-3.2,0-6.2,0-9-0.1
						c-2.8,0-5.3-0.1-7.7-0.2c-2.2-0.1-4.3-0.2-5.9-0.3s-2.9-0.2-3.7-0.3c-0.9-0.1-1.3-0.2-1.3-0.2c-0.8-0.1-1.3-0.6-1.2-1.1
						c0-0.4,0.6-0.8,1.2-0.9c0,0,0.5-0.1,1.3-0.2c0.9-0.1,2.2-0.2,3.8-0.4c1.6-0.2,3.7-0.3,5.9-0.5c2.3-0.1,4.9-0.3,7.7-0.4
						c2.8-0.1,5.9-0.2,9.1-0.2c3.2,0,6.6,0,10.1,0.1s7.1,0.1,10.8,0.2c3.7,0.1,7.4,0.2,11.1,0.4c7.5,0.3,14.9,0.6,21.9,0.8
						c7.1,0.2,13.5,0.4,19.2,0.6c5.7,0.1,10.3,0.3,13.6,0.3c3.2,0,5.1,0,5.1,0c0.8,0,1.4,0.4,1.4,1
						C230.2,206.1,229.6,206.6,228.6,206.6C228.7,206.5,228.7,206.5,228.6,206.6"/>
				</g>
			</g>
		</g>
		<g>
			<g>
				<path id="azoGjS76H" class="st4" d="M228.6,204.9v4.7v12v0.1l12,16v12.2l-12,16.1v0.4c0,7,0,11.4,0,13.1c0,0.2-0.2,0.4-0.4,0.4
					c-3.5,0-12.1,0-26,0"/>
			</g>
			<g>
				<g>
					<path class="st5" d="M228.6,204.9v4.7v12v0.1l12,16v12.2l-12,16.1v0.4c0,7,0,11.4,0,13.1c0,0.2-0.2,0.4-0.4,0.4
						c-3.5,0-12.1,0-26,0"/>
				</g>
			</g>
		</g>
		<g>
			<g>
				<path id="c23IR9U0xA" class="st2" d="M109.1,281.2c0,0,1.9-0.1,5.1-0.2c3.3-0.1,8-0.2,13.6-0.3c5.6,0,12.2-0.2,19.2-0.1
					c7,0,14.5,0.2,22,0.3c3.7,0.1,7.4,0.2,11.1,0.3s7.4,0.1,10.9,0.2s6.9,0,10.1,0.1c3.2,0,6.2,0,9-0.1c2.8,0,5.3-0.2,7.7-0.2
					c2.2-0.1,4.3-0.2,5.9-0.4c1.6-0.1,2.9-0.2,3.7-0.3c0.9-0.1,1.3-0.2,1.3-0.2c0.8-0.1,1.3-0.6,1.2-1.1c0-0.4-0.6-0.8-1.2-0.9
					c0,0-0.5,0-1.3-0.2c-0.9-0.1-2.2-0.2-3.8-0.4c-1.6-0.2-3.7-0.3-5.9-0.5c-2.3-0.1-4.9-0.3-7.7-0.4c-2.8-0.1-5.9-0.2-9.1-0.2
					c-3.3,0-6.6,0-10.1,0.1s-7.1,0.1-10.9,0.2c-3.7,0-7.4,0.2-11.1,0.4c-7.5,0.3-14.9,0.6-21.9,0.8c-7.1,0.2-13.5,0.4-19.2,0.6
					c-5.6,0.1-10.3,0.3-13.6,0.3c-3.3,0-5.1,0.1-5.1,0.1c-0.8,0-1.4,0.4-1.4,1C107.4,280.8,108.1,281.2,109.1,281.2
					C109,281.1,109,281.1,109.1,281.2"/>
			</g>
			<g>
				<g>
					<path class="st3" d="M109.1,281.2c0,0,1.9-0.1,5.1-0.2c3.3-0.1,8-0.2,13.6-0.3c5.6,0,12.2-0.2,19.2-0.1c7,0,14.5,0.2,22,0.3
						c3.7,0.1,7.4,0.2,11.1,0.3s7.4,0.1,10.9,0.2s6.9,0,10.1,0.1c3.2,0,6.2,0,9-0.1c2.8,0,5.3-0.2,7.7-0.2c2.2-0.1,4.3-0.2,5.9-0.4
						c1.6-0.1,2.9-0.2,3.7-0.3c0.9-0.1,1.3-0.2,1.3-0.2c0.8-0.1,1.3-0.6,1.2-1.1c0-0.4-0.6-0.8-1.2-0.9c0,0-0.5,0-1.3-0.2
						c-0.9-0.1-2.2-0.2-3.8-0.4c-1.6-0.2-3.7-0.3-5.9-0.5c-2.3-0.1-4.9-0.3-7.7-0.4c-2.8-0.1-5.9-0.2-9.1-0.2c-3.3,0-6.6,0-10.1,0.1
						s-7.1,0.1-10.9,0.2c-3.7,0-7.4,0.2-11.1,0.4c-7.5,0.3-14.9,0.6-21.9,0.8c-7.1,0.2-13.5,0.4-19.2,0.6
						c-5.6,0.1-10.3,0.3-13.6,0.3c-3.3,0-5.1,0.1-5.1,0.1c-0.8,0-1.4,0.4-1.4,1C107.4,280.8,108.1,281.2,109.1,281.2
						C109,281.1,109,281.1,109.1,281.2"/>
				</g>
			</g>
		</g>
		<g>
			<g>
				<path id="beiRmwJdx" class="st2" d="M107.3,205.2c0,0,0.1,1.2,0.2,3.2c0.1,2.1,0.2,5,0.3,8.6c0,3.5-0.1,7.7-0.2,12.1
					c0,4.4-0.2,9.1-0.4,13.8c-0.1,2.3-0.2,4.7-0.3,7c-0.1,2.3-0.2,4.6-0.2,6.8c-0.1,2.2-0.1,4.4-0.1,6.3c0,2,0,3.9,0,5.7
					c0,1.8,0.1,3.3,0.2,4.8c0.1,1.4,0.2,2.7,0.3,3.7c0.1,1,0.2,1.8,0.4,2.4c0,0.6,0.2,0.9,0.2,0.9c0.1,0.5,0.6,0.9,1.2,0.8
					c0.5,0,0.8-0.3,1-0.7c0,0,0-0.3,0.2-0.8c0.1-0.5-0.2,1.1-0.1,0.1c0.2-1-0.1,1.2,0-0.2s0,0.1,0.1-1.7c0.1-1.8,0.1-5.7,0.1-7.9
					c0-2.2,0-8.7-0.1-11c0-2.3,0.2-6.7,0-9c-0.2-4.7-0.1-16.5-0.3-20.9c-0.2-4.5,0.3-8.5,0-12.1c-0.1-3.6-0.2-6.5-0.3-8.6
					c0-2.1,0-3.2,0-3.2c0-0.5-0.4-0.9-1-0.9C107.8,204.2,107.3,204.6,107.3,205.2C107.4,205.2,107.4,205.2,107.3,205.2"/>
			</g>
			<g>
				<g>
					<path class="st3" d="M107.3,205.2c0,0,0.1,1.2,0.2,3.2c0.1,2.1,0.2,5,0.3,8.6c0,3.5-0.1,7.7-0.2,12.1c0,4.4-0.2,9.1-0.4,13.8
						c-0.1,2.3-0.2,4.7-0.3,7c-0.1,2.3-0.2,4.6-0.2,6.8c-0.1,2.2-0.1,4.4-0.1,6.3c0,2,0,3.9,0,5.7c0,1.8,0.1,3.3,0.2,4.8
						c0.1,1.4,0.2,2.7,0.3,3.7c0.1,1,0.2,1.8,0.4,2.4c0,0.6,0.2,0.9,0.2,0.9c0.1,0.5,0.6,0.9,1.2,0.8c0.5,0,0.8-0.3,1-0.7
						c0,0,0-0.3,0.2-0.8c0.1-0.5-0.2,1.1-0.1,0.1c0.2-1-0.1,1.2,0-0.2s0,0.1,0.1-1.7c0.1-1.8,0.1-5.7,0.1-7.9c0-2.2,0-8.7-0.1-11
						c0-2.3,0.2-6.7,0-9c-0.2-4.7-0.1-16.5-0.3-20.9c-0.2-4.5,0.3-8.5,0-12.1c-0.1-3.6-0.2-6.5-0.3-8.6c0-2.1,0-3.2,0-3.2
						c0-0.5-0.4-0.9-1-0.9C107.8,204.2,107.3,204.6,107.3,205.2C107.4,205.2,107.4,205.2,107.3,205.2"/>
				</g>
			</g>
		</g>
	</g>
	<g>
		<g>
			<g>
				<path id="k3ma7QXlrL" class="st2" d="M569.1,206.7c0,0-1.9-0.1-5.1-0.2c-3.3-0.1-8-0.2-13.6-0.3c-5.6,0-12.2-0.2-19.2-0.1
					c-7,0-14.5,0.2-22,0.3c-3.7,0.1-7.5,0.2-11.1,0.3c-3.7,0.1-7.4,0.1-10.9,0.2c-3.5,0.1-7,0-10.1,0.1c-3.2,0-6.2,0-9-0.1
					c-2.8,0-5.3-0.1-7.7-0.2c-2.2-0.1-4.3-0.2-5.9-0.3s-2.9-0.2-3.7-0.3c-0.9,0-1.3-0.2-1.3-0.2c-0.8-0.1-1.3-0.6-1.2-1.1
					c0-0.4,0.6-0.8,1.2-0.9c0,0,0.5,0,1.3-0.2c0.9-0.1,2.2-0.2,3.8-0.4c1.6-0.2,3.7-0.3,5.9-0.5c2.3-0.1,4.9-0.3,7.7-0.4
					s5.9-0.2,9.1-0.2c3.3,0,6.6,0,10.1,0.1s7.1,0.1,10.9,0.2c3.7,0.1,7.4,0.2,11.1,0.4c7.5,0.3,14.9,0.6,21.9,0.8
					c7.1,0.2,13.5,0.4,19.2,0.6c5.6,0.1,10.3,0.3,13.6,0.3s5.1,0.1,5.1,0.1c0.8,0,1.4,0.4,1.4,1
					C570.7,206.3,570.1,206.7,569.1,206.7C569.2,206.7,569.2,206.7,569.1,206.7"/>
			</g>
			<g>
				<g>
					<path class="st3" d="M569.1,206.7c0,0-1.9-0.1-5.1-0.2c-3.3-0.1-8-0.2-13.6-0.3c-5.6,0-12.2-0.2-19.2-0.1c-7,0-14.5,0.2-22,0.3
						c-3.7,0.1-7.5,0.2-11.1,0.3c-3.7,0.1-7.4,0.1-10.9,0.2c-3.5,0.1-7,0-10.1,0.1c-3.2,0-6.2,0-9-0.1c-2.8,0-5.3-0.1-7.7-0.2
						c-2.2-0.1-4.3-0.2-5.9-0.3s-2.9-0.2-3.7-0.3c-0.9,0-1.3-0.2-1.3-0.2c-0.8-0.1-1.3-0.6-1.2-1.1c0-0.4,0.6-0.8,1.2-0.9
						c0,0,0.5,0,1.3-0.2c0.9-0.1,2.2-0.2,3.8-0.4c1.6-0.2,3.7-0.3,5.9-0.5c2.3-0.1,4.9-0.3,7.7-0.4s5.9-0.2,9.1-0.2
						c3.3,0,6.6,0,10.1,0.1s7.1,0.1,10.9,0.2c3.7,0.1,7.4,0.2,11.1,0.4c7.5,0.3,14.9,0.6,21.9,0.8c7.1,0.2,13.5,0.4,19.2,0.6
						c5.6,0.1,10.3,0.3,13.6,0.3s5.1,0.1,5.1,0.1c0.8,0,1.4,0.4,1.4,1C570.7,206.3,570.1,206.7,569.1,206.7
						C569.2,206.7,569.2,206.7,569.1,206.7"/>
				</g>
			</g>
		</g>
		<g>
			<g>
				<path id="esYJth4hr" class="st4" d="M559.2,280.6c-58.3,0-94.8,0-109.4,0c-0.3,0-0.5-0.2-0.5-0.5c0-1.8,0-6.2,0-13.2v0.1v-0.1
					l11.9-16.1v-12.2l-12-16v-0.1v0.1c0-8.8,0-14.4,0-16.6c0-0.2,0.1-0.3,0.3-0.3c2.1,0,7.4,0,15.8,0"/>
			</g>
			<g>
				<g>
					<path class="st5" d="M559.2,280.6c-58.3,0-94.8,0-109.4,0c-0.3,0-0.5-0.2-0.5-0.5c0-1.8,0-6.2,0-13.2v0.1v-0.1l11.9-16.1v-12.2
						l-12-16v-0.1v0.1c0-8.8,0-14.4,0-16.6c0-0.2,0.1-0.3,0.3-0.3c2.1,0,7.4,0,15.8,0"/>
				</g>
			</g>
		</g>
		<g>
			<g>
				<path id="a9nymXTve" class="st4" d="M569,205.5v4.7v12v0.1l12,16v12.2l-12,16.1v0.3c0,7,0,11.4,0,13.1c0,0.2-0.2,0.4-0.4,0.4
					c-3.5,0-12.2,0-26,0"/>
			</g>
			<g>
				<g>
					<path class="st5" d="M569,205.5v4.7v12v0.1l12,16v12.2l-12,16.1v0.3c0,7,0,11.4,0,13.1c0,0.2-0.2,0.4-0.4,0.4
						c-3.5,0-12.2,0-26,0"/>
				</g>
			</g>
		</g>
		<g>
			<g>
				<path id="btVugNuzm" class="st2" d="M449.5,281.8c0,0,1.9-0.1,5.1-0.2c3.3-0.2,7.9-0.2,13.6-0.3c5.6,0,12.2-0.2,19.2-0.1
					c7,0,14.5,0.2,22,0.3c3.7,0.1,7.5,0.2,11.1,0.3c3.7,0.1,7.4,0.1,10.9,0.2s6.9,0,10.1,0.1c3.2,0,6.2,0,9-0.1
					c2.8,0,5.3-0.1,7.7-0.2c2.2-0.1,4.2-0.2,5.8-0.3s2.9-0.2,3.7-0.3c0.9-0.1,1.4-0.2,1.4-0.2c0.8-0.1,1.3-0.6,1.2-1.1
					c0-0.4-0.6-0.8-1.2-0.9c0,0-0.5,0-1.3-0.2c-0.9-0.1-2.2-0.2-3.8-0.4c-1.6-0.2-3.6-0.3-5.9-0.5c-2.3-0.1-4.9-0.3-7.7-0.4
					s-5.9-0.2-9.1-0.2c-3.3,0-6.6,0-10.1,0.1s-7.1,0.1-10.8,0.2c-3.7,0.1-7.4,0.2-11.1,0.4c-7.5,0.3-15,0.6-21.9,0.8
					c-7.1,0.2-13.5,0.4-19.2,0.6c-5.7,0.1-10.3,0.3-13.6,0.3c-3.3,0-5.1,0.1-5.1,0.1c-0.8,0-1.4,0.4-1.4,1
					C447.9,281.4,448.5,281.8,449.5,281.8C449.4,281.7,449.4,281.7,449.5,281.8"/>
			</g>
			<g>
				<g>
					<path class="st3" d="M449.5,281.8c0,0,1.9-0.1,5.1-0.2c3.3-0.2,7.9-0.2,13.6-0.3c5.6,0,12.2-0.2,19.2-0.1c7,0,14.5,0.2,22,0.3
						c3.7,0.1,7.5,0.2,11.1,0.3c3.7,0.1,7.4,0.1,10.9,0.2s6.9,0,10.1,0.1c3.2,0,6.2,0,9-0.1c2.8,0,5.3-0.1,7.7-0.2
						c2.2-0.1,4.2-0.2,5.8-0.3s2.9-0.2,3.7-0.3c0.9-0.1,1.4-0.2,1.4-0.2c0.8-0.1,1.3-0.6,1.2-1.1c0-0.4-0.6-0.8-1.2-0.9
						c0,0-0.5,0-1.3-0.2c-0.9-0.1-2.2-0.2-3.8-0.4c-1.6-0.2-3.6-0.3-5.9-0.5c-2.3-0.1-4.9-0.3-7.7-0.4s-5.9-0.2-9.1-0.2
						c-3.3,0-6.6,0-10.1,0.1s-7.1,0.1-10.8,0.2c-3.7,0.1-7.4,0.2-11.1,0.4c-7.5,0.3-15,0.6-21.9,0.8c-7.1,0.2-13.5,0.4-19.2,0.6
						c-5.7,0.1-10.3,0.3-13.6,0.3c-3.3,0-5.1,0.1-5.1,0.1c-0.8,0-1.4,0.4-1.4,1C447.9,281.4,448.5,281.8,449.5,281.8
						C449.4,281.7,449.4,281.7,449.5,281.8"/>
				</g>
			</g>
		</g>
	</g>
	<g>
		<g>
			<g>
				<path id="a2dszpGteL" class="st2" d="M400,206.7c0,0-2-0.1-5.1-0.2c-3.3-0.1-7.9-0.2-13.6-0.3c-5.6,0-12.2-0.2-19.2-0.1
					c-7,0-14.5,0.2-22,0.3c-3.7,0.1-7.5,0.2-11.1,0.3c-3.7,0.1-7.4,0.1-10.9,0.2c-3.5,0.1-6.9,0-10.1,0.1c-3.2,0-6.2,0-9-0.1
					c-2.8,0-5.3-0.2-7.7-0.2c-2.2-0.1-4.2-0.2-5.8-0.3c-1.6-0.1-2.9-0.2-3.7-0.3c-0.9,0-1.4-0.2-1.4-0.2c-0.8-0.1-1.3-0.6-1.2-1.1
					c0-0.4,0.6-0.8,1.2-0.9c0,0,0.5,0,1.3-0.2c0.9-0.1,2.2-0.2,3.8-0.4c1.6-0.2,3.6-0.3,5.9-0.5c2.3-0.1,4.9-0.3,7.7-0.4
					c2.8-0.1,5.9-0.2,9.1-0.2c3.3,0,6.6,0,10.1,0c3.5,0.1,7.1,0.1,10.9,0.2c3.7,0,7.4,0.2,11.1,0.4c7.5,0.3,15,0.6,21.9,0.8
					c7.1,0.2,13.5,0.4,19.2,0.6c5.6,0.1,10.3,0.3,13.6,0.3c3.3,0,5.1,0,5.1,0c0.8,0,1.4,0.4,1.4,1C401.6,206.3,401,206.7,400,206.7
					C400.1,206.7,400.1,206.7,400,206.7"/>
			</g>
			<g>
				<g>
					<path class="st3" d="M400,206.7c0,0-2-0.1-5.1-0.2c-3.3-0.1-7.9-0.2-13.6-0.3c-5.6,0-12.2-0.2-19.2-0.1c-7,0-14.5,0.2-22,0.3
						c-3.7,0.1-7.5,0.2-11.1,0.3c-3.7,0.1-7.4,0.1-10.9,0.2c-3.5,0.1-6.9,0-10.1,0.1c-3.2,0-6.2,0-9-0.1c-2.8,0-5.3-0.2-7.7-0.2
						c-2.2-0.1-4.2-0.2-5.8-0.3c-1.6-0.1-2.9-0.2-3.7-0.3c-0.9,0-1.4-0.2-1.4-0.2c-0.8-0.1-1.3-0.6-1.2-1.1c0-0.4,0.6-0.8,1.2-0.9
						c0,0,0.5,0,1.3-0.2c0.9-0.1,2.2-0.2,3.8-0.4c1.6-0.2,3.6-0.3,5.9-0.5c2.3-0.1,4.9-0.3,7.7-0.4c2.8-0.1,5.9-0.2,9.1-0.2
						c3.3,0,6.6,0,10.1,0c3.5,0.1,7.1,0.1,10.9,0.2c3.7,0,7.4,0.2,11.1,0.4c7.5,0.3,15,0.6,21.9,0.8c7.1,0.2,13.5,0.4,19.2,0.6
						c5.6,0.1,10.3,0.3,13.6,0.3c3.3,0,5.1,0,5.1,0c0.8,0,1.4,0.4,1.4,1C401.6,206.3,401,206.7,400,206.7
						C400.1,206.7,400.1,206.7,400,206.7"/>
				</g>
			</g>
		</g>
		<g>
			<g>
				<path id="b5vykpMVO0" class="st4" d="M400.5,514.2c-64.3,0.2-104.5,0.3-120.5,0.3c-0.9,0-1.7-0.8-1.7-1.7
					c0-46.4,0.1-185,0.1-231.7v-1c0-1.8,0-6.2,0-13.2v0.1v-0.1l11.9-16.1v-12.2l-12-16v-0.1v0.1c0-8.8,0-14.4,0-16.6
					c0-0.2,0.1-0.3,0.3-0.3c2.1,0,7.4,0,15.8,0"/>
			</g>
			<g>
				<g>
					<path class="st5" d="M400.5,514.2c-64.3,0.2-104.5,0.3-120.5,0.3c-0.9,0-1.7-0.8-1.7-1.7c0-46.4,0.1-185,0.1-231.7v-1
						c0-1.8,0-6.2,0-13.2v0.1v-0.1l11.9-16.1v-12.2l-12-16v-0.1v0.1c0-8.8,0-14.4,0-16.6c0-0.2,0.1-0.3,0.3-0.3c2.1,0,7.4,0,15.8,0"
						/>
				</g>
			</g>
		</g>
		<g>
			<g>
				<path id="bMSE1o96C" class="st4" d="M399.9,205.5v4.7v12v0.1l12,16v12.2l-12,16.1v0.3c0,7,0,11.4,0,13.1v0.8
					c0-0.3,0.2,58.1,0.5,175.1"/>
			</g>
			<g>
				<g>
					<path class="st5" d="M399.9,205.5v4.7v12v0.1l12,16v12.2l-12,16.1v0.3c0,7,0,11.4,0,13.1v0.8c0-0.3,0.2,58.1,0.5,175.1"/>
				</g>
			</g>
		</g>
		<g>
			<g>
				<path id="d1fOF2nbt0" class="st4" d="M400.4,443.9l0.5,12v0.1l12,16v12.2l-12,16.1v0.4c0,7,0,11.4,0,13.1c0,0.2-0.2,0.4-0.4,0.4
					c-3.5,0-12.2,0-26,0"/>
			</g>
			<g>
				<g>
					<path class="st5" d="M400.4,443.9l0.5,12v0.1l12,16v12.2l-12,16.1v0.4c0,7,0,11.4,0,13.1c0,0.2-0.2,0.4-0.4,0.4
						c-3.5,0-12.2,0-26,0"/>
				</g>
			</g>
		</g>
	</g>
	<g>
		<g>
			<path id="b30wBGOABB" class="st2" d="M278.9,515.7c0,0,1.9-0.1,5.1-0.1c3.3-0.1,7.9-0.1,13.6-0.2c5.6,0,12.2-0.1,19.2,0
				c7,0,14.5,0.2,22,0.4c3.7,0.1,7.5,0.2,11.1,0.3c3.7,0.1,7.4,0.2,10.9,0.2c3.5,0.1,6.9,0.1,10.1,0.1s6.2,0,9,0s5.3-0.1,7.7-0.2
				c2.2-0.1,4.2-0.2,5.9-0.3c1.6-0.1,2.9-0.2,3.7-0.3c0.9,0,1.3-0.2,1.3-0.2c0.8-0.1,1.3-0.6,1.2-1.1c0-0.4-0.6-0.8-1.2-0.9
				c0,0-0.5,0-1.3-0.2c-0.9-0.1-2.2-0.2-3.8-0.4c-1.6-0.2-3.6-0.3-5.9-0.5c-2.3-0.1-4.9-0.3-7.7-0.4c-2.8-0.1-5.9-0.2-9.1-0.2
				c-3.3,0-6.6,0-10.1,0s-7.1,0-10.9,0.2c-3.7,0-7.4,0.2-11.1,0.3c-7.5,0.2-15,0.6-21.9,0.7c-7.1,0.2-13.5,0.3-19.2,0.5
				c-5.7,0.1-10.3,0.2-13.6,0.2c-3.3,0-5.1,0-5.1,0c-0.8,0-1.4,0.4-1.4,1C277.3,515.3,277.9,515.7,278.9,515.7
				C278.8,515.6,278.8,515.6,278.9,515.7"/>
		</g>
		<g>
			<g>
				<path class="st3" d="M278.9,515.7c0,0,1.9-0.1,5.1-0.1c3.3-0.1,7.9-0.1,13.6-0.2c5.6,0,12.2-0.1,19.2,0c7,0,14.5,0.2,22,0.4
					c3.7,0.1,7.5,0.2,11.1,0.3c3.7,0.1,7.4,0.2,10.9,0.2c3.5,0.1,6.9,0.1,10.1,0.1s6.2,0,9,0s5.3-0.1,7.7-0.2
					c2.2-0.1,4.2-0.2,5.9-0.3c1.6-0.1,2.9-0.2,3.7-0.3c0.9,0,1.3-0.2,1.3-0.2c0.8-0.1,1.3-0.6,1.2-1.1c0-0.4-0.6-0.8-1.2-0.9
					c0,0-0.5,0-1.3-0.2c-0.9-0.1-2.2-0.2-3.8-0.4c-1.6-0.2-3.6-0.3-5.9-0.5c-2.3-0.1-4.9-0.3-7.7-0.4c-2.8-0.1-5.9-0.2-9.1-0.2
					c-3.3,0-6.6,0-10.1,0s-7.1,0-10.9,0.2c-3.7,0-7.4,0.2-11.1,0.3c-7.5,0.2-15,0.6-21.9,0.7c-7.1,0.2-13.5,0.3-19.2,0.5
					c-5.7,0.1-10.3,0.2-13.6,0.2c-3.3,0-5.1,0-5.1,0c-0.8,0-1.4,0.4-1.4,1C277.3,515.3,277.9,515.7,278.9,515.7
					C278.8,515.6,278.8,515.6,278.9,515.7"/>
			</g>
		</g>
	</g>
	<g>
		<g>
			<path id="jkgwnp4GS" class="st2" d="M276.7,333.3c0,0,0,1.8,0.1,4.8c0.1,3.1,0.1,7.4,0.2,12.8c0,5.3,0,11.4-0.1,18
				s-0.3,13.6-0.5,20.7c-0.1,3.5-0.3,7-0.4,10.4c-0.1,3.5-0.2,6.9-0.3,10.2c-0.1,3.3-0.1,6.5-0.1,9.5c-0.1,3-0.1,5.9,0,8.4
				c0,2.6,0.1,5,0.2,7.2c0.1,2.1,0.2,4,0.3,5.5c0.1,1.5,0.1,2.8,0.2,3.5c0,0.8,0.2,1.3,0.2,1.3c0.1,0.8,0.6,1.2,1,1.1
				c0.4,0,0.7-0.6,0.8-1.1c0,0,0-0.5,0.2-1.2c0.1-0.8,0.2-2,0.4-3.6c0.2-1.6,0.3-3.4,0.5-5.6c0.1-2.1,0.3-4.6,0.4-7.2
				s0.2-5.5,0.2-8.6s0.1-6.2,0-9.5c0-3.3,0-6.7-0.1-10.2c0-3.5-0.1-7-0.3-10.5c-0.2-7-0.4-14-0.5-20.5c-0.2-6.6-0.2-12.7-0.4-18
				c-0.1-5.3-0.2-9.7-0.2-12.8c0-3,0-4.8,0-4.8c0-0.7-0.4-1.3-0.9-1.3C277.1,331.8,276.7,332.4,276.7,333.3L276.7,333.3"/>
		</g>
		<g>
			<g>
				<path class="st3" d="M276.7,333.3c0,0,0,1.8,0.1,4.8c0.1,3.1,0.1,7.4,0.2,12.8c0,5.3,0,11.4-0.1,18s-0.3,13.6-0.5,20.7
					c-0.1,3.5-0.3,7-0.4,10.4c-0.1,3.5-0.2,6.9-0.3,10.2c-0.1,3.3-0.1,6.5-0.1,9.5c-0.1,3-0.1,5.9,0,8.4c0,2.6,0.1,5,0.2,7.2
					c0.1,2.1,0.2,4,0.3,5.5c0.1,1.5,0.1,2.8,0.2,3.5c0,0.8,0.2,1.3,0.2,1.3c0.1,0.8,0.6,1.2,1,1.1c0.4,0,0.7-0.6,0.8-1.1
					c0,0,0-0.5,0.2-1.2c0.1-0.8,0.2-2,0.4-3.6c0.2-1.6,0.3-3.4,0.5-5.6c0.1-2.1,0.3-4.6,0.4-7.2s0.2-5.5,0.2-8.6s0.1-6.2,0-9.5
					c0-3.3,0-6.7-0.1-10.2c0-3.5-0.1-7-0.3-10.5c-0.2-7-0.4-14-0.5-20.5c-0.2-6.6-0.2-12.7-0.4-18c-0.1-5.3-0.2-9.7-0.2-12.8
					c0-3,0-4.8,0-4.8c0-0.7-0.4-1.3-0.9-1.3C277.1,331.8,276.7,332.4,276.7,333.3L276.7,333.3"/>
			</g>
		</g>
	</g>
	<g>
		<g>
			<path id="a5a15UKRZl" class="st2" d="M740.7,398.5c0,0,0.1-1.9,0.1-5.1c0.1-3.3,0.1-7.9,0.2-13.6c0-5.6,0.1-12.2-0.1-19.2
				c-0.1-7-0.3-14.5-0.6-22c-0.1-3.7-0.3-7.5-0.4-11.1c-0.1-3.7-0.2-7.4-0.3-10.9s-0.1-7-0.2-10.1c-0.1-3.2,0-6.2,0-9
				s0.1-5.3,0.2-7.7c0.1-2.2,0.2-4.3,0.3-5.9c0.1-1.6,0.2-2.9,0.2-3.7c0-0.9,0.2-1.3,0.2-1.3c0.1-0.8,0.6-1.3,1.1-1.2
				c0.4,0,0.8,0.6,0.9,1.2c0,0,0,0.5,0.2,1.3c0.1,0.9,0.3,2.2,0.5,3.8s0.3,3.6,0.6,5.9c0.1,2.3,0.3,4.9,0.5,7.7
				c0.1,2.8,0.2,5.9,0.3,9.1c0,3.3,0.1,6.6,0,10.1c0,3.5,0,7.1-0.1,10.8c0,3.7-0.1,7.4-0.3,11.2c-0.2,7.5-0.5,14.9-0.6,21.9
				c-0.2,7.1-0.2,13.5-0.4,19.2c-0.1,5.6-0.2,10.3-0.2,13.6c0,3.3,0,5.1,0,5.1c0,0.8-0.4,1.4-0.9,1.4
				C741.2,400.1,740.7,399.4,740.7,398.5C740.8,398.5,740.8,398.5,740.7,398.5"/>
		</g>
		<g>
			<g>
				<path class="st3" d="M740.7,398.5c0,0,0.1-1.9,0.1-5.1c0.1-3.3,0.1-7.9,0.2-13.6c0-5.6,0.1-12.2-0.1-19.2
					c-0.1-7-0.3-14.5-0.6-22c-0.1-3.7-0.3-7.5-0.4-11.1c-0.1-3.7-0.2-7.4-0.3-10.9s-0.1-7-0.2-10.1c-0.1-3.2,0-6.2,0-9
					s0.1-5.3,0.2-7.7c0.1-2.2,0.2-4.3,0.3-5.9c0.1-1.6,0.2-2.9,0.2-3.7c0-0.9,0.2-1.3,0.2-1.3c0.1-0.8,0.6-1.3,1.1-1.2
					c0.4,0,0.8,0.6,0.9,1.2c0,0,0,0.5,0.2,1.3c0.1,0.9,0.3,2.2,0.5,3.8s0.3,3.6,0.6,5.9c0.1,2.3,0.3,4.9,0.5,7.7
					c0.1,2.8,0.2,5.9,0.3,9.1c0,3.3,0.1,6.6,0,10.1c0,3.5,0,7.1-0.1,10.8c0,3.7-0.1,7.4-0.3,11.2c-0.2,7.5-0.5,14.9-0.6,21.9
					c-0.2,7.1-0.2,13.5-0.4,19.2c-0.1,5.6-0.2,10.3-0.2,13.6c0,3.3,0,5.1,0,5.1c0,0.8-0.4,1.4-0.9,1.4
					C741.2,400.1,740.7,399.4,740.7,398.5C740.8,398.5,740.8,398.5,740.7,398.5"/>
			</g>
		</g>
	</g>
	<g>
		<g>
			<path id="h3zcjZZZos" class="st2" d="M621.7,517c0,0,2-0.1,5.1-0.2c3.3-0.1,7.9-0.2,13.6-0.3c5.6,0,12.2-0.2,19.2-0.1
				c7,0,14.5,0.2,22,0.4c3.7,0.1,7.4,0.2,11.1,0.3c3.7,0.1,7.4,0.1,10.9,0.2c3.5,0.1,7,0,10.1,0.1c3.2,0,6.2,0,9-0.1
				c2.8,0,5.3-0.1,7.7-0.2c2.2-0.1,4.3-0.2,5.9-0.4c1.6-0.1,2.9-0.2,3.7-0.3c0.9,0,1.3-0.2,1.3-0.2c0.8-0.1,1.3-0.6,1.2-1.1
				c0-0.4-0.6-0.8-1.2-0.9c0,0-0.5-0.1-1.3-0.2c-0.9-0.1-2.2-0.2-3.8-0.4s-3.7-0.3-5.9-0.5c-2.3-0.1-4.9-0.3-7.7-0.4
				c-2.8-0.1-5.9-0.2-9.1-0.2s-6.6,0-10.1,0.1c-3.5,0.1-7.1,0.1-10.8,0.2c-3.7,0-7.4,0.2-11.1,0.4c-7.5,0.3-15,0.6-21.9,0.8
				c-7.1,0.2-13.5,0.4-19.2,0.6c-5.6,0.1-10.3,0.3-13.6,0.3s-5.1,0-5.1,0c-0.8,0-1.4,0.4-1.4,1C620.1,516.6,620.7,517,621.7,517
				C621.6,517,621.6,517,621.7,517"/>
		</g>
		<g>
			<g>
				<path class="st3" d="M621.7,517c0,0,2-0.1,5.1-0.2c3.3-0.1,7.9-0.2,13.6-0.3c5.6,0,12.2-0.2,19.2-0.1c7,0,14.5,0.2,22,0.4
					c3.7,0.1,7.4,0.2,11.1,0.3c3.7,0.1,7.4,0.1,10.9,0.2c3.5,0.1,7,0,10.1,0.1c3.2,0,6.2,0,9-0.1c2.8,0,5.3-0.1,7.7-0.2
					c2.2-0.1,4.3-0.2,5.9-0.4c1.6-0.1,2.9-0.2,3.7-0.3c0.9,0,1.3-0.2,1.3-0.2c0.8-0.1,1.3-0.6,1.2-1.1c0-0.4-0.6-0.8-1.2-0.9
					c0,0-0.5-0.1-1.3-0.2c-0.9-0.1-2.2-0.2-3.8-0.4s-3.7-0.3-5.9-0.5c-2.3-0.1-4.9-0.3-7.7-0.4c-2.8-0.1-5.9-0.2-9.1-0.2
					s-6.6,0-10.1,0.1c-3.5,0.1-7.1,0.1-10.8,0.2c-3.7,0-7.4,0.2-11.1,0.4c-7.5,0.3-15,0.6-21.9,0.8c-7.1,0.2-13.5,0.4-19.2,0.6
					c-5.6,0.1-10.3,0.3-13.6,0.3s-5.1,0-5.1,0c-0.8,0-1.4,0.4-1.4,1C620.1,516.6,620.7,517,621.7,517C621.6,517,621.6,517,621.7,517
					"/>
			</g>
		</g>
	</g>
	<g>
		<g>
			<g>
				<path id="b1jblVSySa" class="st4" d="M620,447.6l1-180.8v0.1v-0.1l11.9-16.1v-12.2l-12-16v-0.1v0.1c0-8.8,0-14.4,0-16.6
					c0-0.2,0.1-0.3,0.3-0.3c2.1,0,7.4,0,15.8,0"/>
			</g>
			<g>
				<g>
					<path class="st5" d="M620,447.6l1-180.8v0.1v-0.1l11.9-16.1v-12.2l-12-16v-0.1v0.1c0-8.8,0-14.4,0-16.6c0-0.2,0.1-0.3,0.3-0.3
						c2.1,0,7.4,0,15.8,0"/>
				</g>
			</g>
		</g>
		<g>
			<g>
				<g>
					<path id="abYVObej8" class="st2" d="M740.8,206.8c0,0-1.9-0.1-5.1-0.2c-3.3-0.1-7.9-0.2-13.6-0.3c-5.6,0-12.2-0.2-19.2-0.1
						c-7,0-14.5,0.2-22,0.3c-3.7,0.1-7.5,0.2-11.1,0.3c-3.7,0.1-7.4,0.1-10.9,0.2c-3.5,0.1-7,0.1-10.1,0.1c-3.2,0-6.2,0-9-0.1
						c-2.8,0-5.3-0.2-7.7-0.3c-2.2-0.1-4.3-0.2-5.9-0.3c-1.6-0.1-2.9-0.2-3.7-0.3c-0.9,0-1.3-0.2-1.3-0.2c-0.8-0.1-1.3-0.6-1.2-1.1
						c0-0.4,0.6-0.8,1.2-0.9c0,0,0.5,0,1.3-0.2c0.9-0.1,2.2-0.2,3.8-0.4s3.7-0.3,5.9-0.5c2.3-0.1,4.9-0.3,7.7-0.4
						c2.8-0.1,5.9-0.2,9.1-0.2c3.3,0,6.6,0,10.1,0.1s7.1,0.1,10.8,0.2c3.7,0.1,7.4,0.2,11.1,0.4c7.5,0.3,15,0.6,21.9,0.8
						c7.1,0.2,13.5,0.4,19.2,0.6c5.6,0.1,10.3,0.3,13.6,0.3s5.1,0.1,5.1,0.1c0.8,0,1.4,0.4,1.4,1
						C742.5,206.3,741.8,206.7,740.8,206.8C740.9,206.7,740.9,206.7,740.8,206.8"/>
				</g>
				<g>
					<g>
						<path class="st3" d="M740.8,206.8c0,0-1.9-0.1-5.1-0.2c-3.3-0.1-7.9-0.2-13.6-0.3c-5.6,0-12.2-0.2-19.2-0.1
							c-7,0-14.5,0.2-22,0.3c-3.7,0.1-7.5,0.2-11.1,0.3c-3.7,0.1-7.4,0.1-10.9,0.2c-3.5,0.1-7,0.1-10.1,0.1c-3.2,0-6.2,0-9-0.1
							c-2.8,0-5.3-0.2-7.7-0.3c-2.2-0.1-4.3-0.2-5.9-0.3c-1.6-0.1-2.9-0.2-3.7-0.3c-0.9,0-1.3-0.2-1.3-0.2c-0.8-0.1-1.3-0.6-1.2-1.1
							c0-0.4,0.6-0.8,1.2-0.9c0,0,0.5,0,1.3-0.2c0.9-0.1,2.2-0.2,3.8-0.4s3.7-0.3,5.9-0.5c2.3-0.1,4.9-0.3,7.7-0.4
							c2.8-0.1,5.9-0.2,9.1-0.2c3.3,0,6.6,0,10.1,0.1s7.1,0.1,10.8,0.2c3.7,0.1,7.4,0.2,11.1,0.4c7.5,0.3,15,0.6,21.9,0.8
							c7.1,0.2,13.5,0.4,19.2,0.6c5.6,0.1,10.3,0.3,13.6,0.3s5.1,0.1,5.1,0.1c0.8,0,1.4,0.4,1.4,1
							C742.5,206.3,741.8,206.7,740.8,206.8C740.9,206.7,740.9,206.7,740.8,206.8"/>
					</g>
				</g>
			</g>
			<g>
				<g>
					<path id="a1sJM65BV" class="st4" d="M729.7,513.3c-58.3,0-94.8,0-109.4,0c-0.3,0-0.5-0.2-0.5-0.5c0-1.8,0-6.2,0-13.2v0.1v-0.1
						l12-16.1v-12.2l-12-16v-0.1v0.1v-16.9"/>
				</g>
				<g>
					<g>
						<path class="st5" d="M729.7,513.3c-58.3,0-94.8,0-109.4,0c-0.3,0-0.5-0.2-0.5-0.5c0-1.8,0-6.2,0-13.2v0.1v-0.1l12-16.1v-12.2
							l-12-16v-0.1v0.1v-16.9"/>
					</g>
				</g>
			</g>
			<g>
				<g>
					<g>
						<path id="dDzIdb4p4" class="st4" d="M740.4,205.4v4.7v12v0.1l12,16v12.2l-12,16.1v0.3c0,7,0,11.4,0,13.1v0.8
							c0-0.3,0.2,58.1,0.5,175.1"/>
					</g>
					<g>
						<g>
							<path class="st5" d="M740.4,205.4v4.7v12v0.1l12,16v12.2l-12,16.1v0.3c0,7,0,11.4,0,13.1v0.8c0-0.3,0.2,58.1,0.5,175.1"/>
						</g>
					</g>
				</g>
				<g>
					<g>
						<path id="e5VXLWtN2w" class="st4" d="M740.8,443.9l0.5,12v0.1l12,16v12.2l-12,16.1v0.4c0,7,0,11.4,0,13.1
							c0,0.2-0.2,0.4-0.4,0.4c-3.5,0-12.2,0-26,0"/>
					</g>
					<g>
						<g>
							<path class="st5" d="M740.8,443.9l0.5,12v0.1l12,16v12.2l-12,16.1v0.4c0,7,0,11.4,0,13.1c0,0.2-0.2,0.4-0.4,0.4
								c-3.5,0-12.2,0-26,0"/>
						</g>
					</g>
				</g>
			</g>
		</g>
	</g>
	<g>
		<g>
			<g>
				<path id="g1Okgpaxn" class="st2" d="M621.3,335.2c0,0,0,1.8,0.1,4.8c0.1,3.1,0,7.4,0.1,12.8c-0.1,5.3,0,11.4-0.2,18
					c-0.1,6.6-0.4,13.6-0.7,20.7c-0.1,3.4-0.3,7-0.4,10.4c-0.1,3.5-0.2,6.9-0.3,10.2c-0.1,3.3-0.2,6.5-0.2,9.5s-0.1,5.9,0,8.4
					c0,2.6,0.1,5,0.1,7.2c0.1,2.1,0.2,4,0.2,5.5c0.1,1.5,0.1,2.8,0.2,3.5c0,0.8,0.1,1.3,0.1,1.3c0.1,0.8,0.6,1.2,1,1.1
					c0.4,0,0.7-0.6,0.8-1.1c0,0,0-0.5,0.2-1.2c0.1-0.8,0.3-2,0.5-3.6c0.2-1.5,0.3-3.4,0.6-5.5c0.1-2.1,0.3-4.6,0.5-7.2
					c0.1-2.6,0.3-5.5,0.3-8.6s0.1-6.2,0.1-9.5s0.1-6.7,0-10.2c0-3.5-0.1-7-0.2-10.5c-0.1-7-0.3-14-0.4-20.6
					c-0.1-6.6-0.1-12.7-0.3-18c0-5.3-0.1-9.7-0.1-12.7c0-3.1,0-4.8,0-4.8c0-0.7-0.4-1.3-0.9-1.3
					C621.7,333.7,621.3,334.3,621.3,335.2C621.4,335.1,621.4,335.1,621.3,335.2"/>
			</g>
			<g>
				<g>
					<path class="st3" d="M621.3,335.2c0,0,0,1.8,0.1,4.8c0.1,3.1,0,7.4,0.1,12.8c-0.1,5.3,0,11.4-0.2,18
						c-0.1,6.6-0.4,13.6-0.7,20.7c-0.1,3.4-0.3,7-0.4,10.4c-0.1,3.5-0.2,6.9-0.3,10.2c-0.1,3.3-0.2,6.5-0.2,9.5s-0.1,5.9,0,8.4
						c0,2.6,0.1,5,0.1,7.2c0.1,2.1,0.2,4,0.2,5.5c0.1,1.5,0.1,2.8,0.2,3.5c0,0.8,0.1,1.3,0.1,1.3c0.1,0.8,0.6,1.2,1,1.1
						c0.4,0,0.7-0.6,0.8-1.1c0,0,0-0.5,0.2-1.2c0.1-0.8,0.3-2,0.5-3.6c0.2-1.5,0.3-3.4,0.6-5.5c0.1-2.1,0.3-4.6,0.5-7.2
						c0.1-2.6,0.3-5.5,0.3-8.6s0.1-6.2,0.1-9.5s0.1-6.7,0-10.2c0-3.5-0.1-7-0.2-10.5c-0.1-7-0.3-14-0.4-20.6
						c-0.1-6.6-0.1-12.7-0.3-18c0-5.3-0.1-9.7-0.1-12.7c0-3.1,0-4.8,0-4.8c0-0.7-0.4-1.3-0.9-1.3
						C621.7,333.7,621.3,334.3,621.3,335.2C621.4,335.1,621.4,335.1,621.3,335.2"/>
				</g>
			</g>
		</g>
	</g>
	<g id="filter2Block">
		<g class="st6">
			<g>
				<path id="h1sKFpgqF" class="st2" d="M568.4,442.1c0,0-1.9-0.1-5.1-0.2c-3.3-0.1-8-0.2-13.6-0.3c-5.6,0-12.2-0.2-19.2-0.1
					c-7,0-14.5,0.2-22,0.4c-3.7,0.1-7.5,0.2-11.1,0.3c-3.7,0.1-7.4,0.1-10.9,0.2s-7,0-10.1,0.1c-3.2,0-6.2,0-9-0.1
					c-2.8,0-5.3-0.2-7.7-0.3c-2.2-0.1-4.3-0.2-5.9-0.3c-1.6-0.1-2.9-0.2-3.7-0.3c-0.9,0-1.3-0.2-1.3-0.2c-0.8-0.1-1.3-0.6-1.2-1.1
					c0-0.4,0.6-0.8,1.2-0.9c0,0,0.5,0,1.3-0.2c0.9-0.1,2.2-0.2,3.8-0.4c1.6-0.2,3.7-0.3,5.9-0.5c2.3-0.1,4.9-0.3,7.7-0.4
					c2.8-0.1,5.9-0.2,9.1-0.2c3.3,0,6.6,0,10.1,0c3.5,0.1,7.1,0.1,10.9,0.2c3.7,0,7.4,0.2,11.1,0.4c7.5,0.3,14.9,0.6,21.9,0.8
					c7.1,0.2,13.5,0.4,19.2,0.6c5.6,0.1,10.3,0.3,13.6,0.3s5.1,0.1,5.1,0.1c0.8,0,1.4,0.4,1.4,1C570,441.7,569.4,442.1,568.4,442.1
					C568.5,442,568.5,442,568.4,442.1"/>
			</g>
			<g>
				<g>
					<path class="st3" d="M568.4,442.1c0,0-1.9-0.1-5.1-0.2c-3.3-0.1-8-0.2-13.6-0.3c-5.6,0-12.2-0.2-19.2-0.1c-7,0-14.5,0.2-22,0.4
						c-3.7,0.1-7.5,0.2-11.1,0.3c-3.7,0.1-7.4,0.1-10.9,0.2s-7,0-10.1,0.1c-3.2,0-6.2,0-9-0.1c-2.8,0-5.3-0.2-7.7-0.3
						c-2.2-0.1-4.3-0.2-5.9-0.3c-1.6-0.1-2.9-0.2-3.7-0.3c-0.9,0-1.3-0.2-1.3-0.2c-0.8-0.1-1.3-0.6-1.2-1.1c0-0.4,0.6-0.8,1.2-0.9
						c0,0,0.5,0,1.3-0.2c0.9-0.1,2.2-0.2,3.8-0.4c1.6-0.2,3.7-0.3,5.9-0.5c2.3-0.1,4.9-0.3,7.7-0.4c2.8-0.1,5.9-0.2,9.1-0.2
						c3.3,0,6.6,0,10.1,0c3.5,0.1,7.1,0.1,10.9,0.2c3.7,0,7.4,0.2,11.1,0.4c7.5,0.3,14.9,0.6,21.9,0.8c7.1,0.2,13.5,0.4,19.2,0.6
						c5.6,0.1,10.3,0.3,13.6,0.3s5.1,0.1,5.1,0.1c0.8,0,1.4,0.4,1.4,1C570,441.7,569.4,442.1,568.4,442.1
						C568.5,442,568.5,442,568.4,442.1"/>
				</g>
			</g>
		</g>
		<g>
			<g>
				<path id="ervZ8UT1k" class="st4" d="M558.5,515.9c-58.3,0-94.8,0-109.4,0c-0.3,0-0.5-0.2-0.5-0.5c0-1.8,0-6.2,0-13.2v0.1v-0.1
					l11.9-16.1v-12.2l-12-16v-0.1v0.1c0-8.8,0-14.4,0-16.6c0-0.2,0.1-0.3,0.3-0.3c2.1,0,7.4,0,15.8,0"/>
			</g>
			<g>
				<g>
					<path class="st5" d="M558.5,515.9c-58.3,0-94.8,0-109.4,0c-0.3,0-0.5-0.2-0.5-0.5c0-1.8,0-6.2,0-13.2v0.1v-0.1l11.9-16.1v-12.2
						l-12-16v-0.1v0.1c0-8.8,0-14.4,0-16.6c0-0.2,0.1-0.3,0.3-0.3c2.1,0,7.4,0,15.8,0"/>
				</g>
			</g>
		</g>
		<g>
			<g>
				<path id="c9NWnWH0V" class="st4" d="M568.3,440.9v4.7v12v0.1l12,16v12.2l-12,16.1v0.4c0,7,0,11.4,0,13.1c0,0.2-0.2,0.4-0.4,0.4
					c-3.5,0-12.2,0-26,0"/>
			</g>
			<g>
				<g>
					<path class="st5" d="M568.3,440.9v4.7v12v0.1l12,16v12.2l-12,16.1v0.4c0,7,0,11.4,0,13.1c0,0.2-0.2,0.4-0.4,0.4
						c-3.5,0-12.2,0-26,0"/>
				</g>
			</g>
		</g>
		<g>
			<g>
				<path id="gO3i91A6" class="st2" d="M448.8,517.2c0,0,1.9-0.1,5.1-0.2c3.3-0.1,7.9-0.2,13.6-0.3c5.6,0,12.2-0.2,19.2-0.1
					c7,0,14.5,0.2,22,0.3c3.7,0.1,7.5,0.2,11.1,0.3c3.7,0.1,7.4,0.1,10.9,0.2c3.5,0.1,6.9,0,10.1,0.1c3.2,0,6.2,0,9-0.1
					c2.8,0,5.3-0.2,7.7-0.3c2.2-0.1,4.2-0.2,5.8-0.3c1.6-0.1,2.9-0.2,3.7-0.3c0.9,0,1.4-0.2,1.4-0.2c0.8-0.1,1.3-0.6,1.2-1.1
					c0-0.4-0.6-0.8-1.2-0.9c0,0-0.5,0-1.3-0.2c-0.9-0.1-2.2-0.2-3.8-0.4s-3.6-0.3-5.9-0.5c-2.3-0.1-4.9-0.3-7.7-0.4
					c-2.8-0.1-5.9-0.2-9.1-0.2c-3.3,0-6.6,0-10.1,0c-3.5,0.1-7.1,0.1-10.8,0.2c-3.7,0.1-7.4,0.2-11.1,0.4c-7.5,0.3-15,0.6-21.9,0.8
					c-7.1,0.2-13.5,0.4-19.2,0.6c-5.7,0.1-10.3,0.3-13.6,0.3c-3.3,0-5.1,0-5.1,0c-0.8,0-1.4,0.4-1.4,1
					C447.2,516.7,447.8,517.2,448.8,517.2C448.7,517.1,448.7,517.1,448.8,517.2"/>
			</g>
			<g>
				<g>
					<path class="st3" d="M448.8,517.2c0,0,1.9-0.1,5.1-0.2c3.3-0.1,7.9-0.2,13.6-0.3c5.6,0,12.2-0.2,19.2-0.1c7,0,14.5,0.2,22,0.3
						c3.7,0.1,7.5,0.2,11.1,0.3c3.7,0.1,7.4,0.1,10.9,0.2c3.5,0.1,6.9,0,10.1,0.1c3.2,0,6.2,0,9-0.1c2.8,0,5.3-0.2,7.7-0.3
						c2.2-0.1,4.2-0.2,5.8-0.3c1.6-0.1,2.9-0.2,3.7-0.3c0.9,0,1.4-0.2,1.4-0.2c0.8-0.1,1.3-0.6,1.2-1.1c0-0.4-0.6-0.8-1.2-0.9
						c0,0-0.5,0-1.3-0.2c-0.9-0.1-2.2-0.2-3.8-0.4s-3.6-0.3-5.9-0.5c-2.3-0.1-4.9-0.3-7.7-0.4c-2.8-0.1-5.9-0.2-9.1-0.2
						c-3.3,0-6.6,0-10.1,0c-3.5,0.1-7.1,0.1-10.8,0.2c-3.7,0.1-7.4,0.2-11.1,0.4c-7.5,0.3-15,0.6-21.9,0.8
						c-7.1,0.2-13.5,0.4-19.2,0.6c-5.7,0.1-10.3,0.3-13.6,0.3c-3.3,0-5.1,0-5.1,0c-0.8,0-1.4,0.4-1.4,1
						C447.2,516.7,447.8,517.2,448.8,517.2C448.7,517.1,448.7,517.1,448.8,517.2"/>
				</g>
			</g>
		</g>
	</g>
	<text transform="matrix(1 0 0 1 655.4622 248.9195)" class="st2 st7 st8">merge</text>
	<text transform="matrix(1 0 0 1 140.3855 248.9198)" class="st2 st7 st8">source</text>
	<text transform="matrix(1 0 0 1 492.2141 248.9195)" class="st2 st7 st8">filter</text>
	<text transform="matrix(1 0 0 1 820.7638 248.9196)" class="st2 st7 st8">sink</text>
	<text transform="matrix(1 0 0 1 312.0322 248.9193)" class="st2 st7 st8">branch</text>
	<text transform="matrix(1 0 0 1 43.1523 78.8038)" class="st2 st9 st10">Types of blocks</text>
</g>
</svg>
