<?xml version="1.0" encoding="utf-8"?>
<!-- Generator: Adobe Illustrator 23.0.3, SVG Export Plug-In . SVG Version: 6.00 Build 0)  -->
<svg version="1.1" xmlns="http://www.w3.org/2000/svg" xmlns:xlink="http://www.w3.org/1999/xlink" x="0px" y="0px"
	 viewBox="0 0 1000 640" style="enable-background:new 0 0 1000 640;" xml:space="preserve">
<style type="text/css">
	.st0{fill:#365880;}
	.st1{fill:#FFFFFF;}
	.st2{fill-opacity:0;stroke:#000000;stroke-opacity:0;}
	.st3{font-family:'Roboto-Regular';}
	.st4{font-size:16.9781px;}
	.st5{font-size:13px;}
	.st6{font-family:'CorporateS-Regular';}
	.st7{font-family:'OCRAStd';}
	.st8{font-size:45.4484px;}
	.st9{fill:none;}
</style>
<g id="Ebene_2">
	<g>
		<g id="Background">
			<g>
				<path id="cEnICsQZe" class="st0" d="M0,0.2h1000v640H0V0.2z"/>
			</g>
		</g>
	</g>
</g>
<g id="Ebene_1">
	<g>
		<g>
			<g>
				<path id="b6Ie3REtmk_1_" class="st1" d="M462.5,489.2c0.2-0.2,0.4-0.4,0.6-0.6c0.2-0.2,0.4-0.5,0.5-0.7c0.2-0.3,0.3-0.5,0.4-0.8
					s0.1-0.3,0.2-0.6c0-0.1,0.3-0.6,0.3-0.7c0.1-0.1,0.2-0.1,0.4-0.1c0.1,0,0.2,0.2,0.5,0.7c0.3,0.5,0.6,1,1,1.5
					c0.2,0.3,0.9,1.3,0.9,1.4c0,0.2-0.2,0.3-0.4,0.3h-0.1c-0.3-0.1-1.9-2.2-2.1-2.3c-0.2-0.2,0.2,0,0.1-0.3
					c-0.4-0.5,0.4,0.4,0.1-0.1c0.1,0,0,0,0.1,0c-0.2,0.3,0.3,0.1,0.1,0.3c-0.1,0.1-1,1-1,1.1c-0.2,0.3-0.4,0.5-0.6,0.7l-0.3,0.3
					c-0.1,0.1-0.2,0.2-0.3,0.3l0,0c-0.1,0.1-0.3,0.2-0.4,0.1C462.3,489.6,462.3,489.4,462.5,489.2
					C462.5,489.2,462.5,489.3,462.5,489.2"/>
			</g>
			<g>
				<g>
					<path class="st2" d="M462.5,489.2c0.2-0.2,0.4-0.4,0.6-0.6c0.2-0.2,0.4-0.5,0.5-0.7c0.2-0.3,0.3-0.5,0.4-0.8s0.1-0.3,0.2-0.6
						c0-0.1,0.3-0.6,0.3-0.7c0.1-0.1,0.2-0.1,0.4-0.1c0.1,0,0.2,0.2,0.5,0.7c0.3,0.5,0.6,1,1,1.5c0.2,0.3,0.9,1.3,0.9,1.4
						c0,0.2-0.2,0.3-0.4,0.3h-0.1c-0.3-0.1-1.9-2.2-2.1-2.3c-0.2-0.2,0.2,0,0.1-0.3c-0.4-0.5,0.4,0.4,0.1-0.1c0.1,0,0,0,0.1,0
						c-0.2,0.3,0.3,0.1,0.1,0.3c-0.1,0.1-1,1-1,1.1c-0.2,0.3-0.4,0.5-0.6,0.7l-0.3,0.3c-0.1,0.1-0.2,0.2-0.3,0.3l0,0
						c-0.1,0.1-0.3,0.2-0.4,0.1C462.3,489.6,462.3,489.4,462.5,489.2C462.5,489.2,462.5,489.3,462.5,489.2"/>
				</g>
			</g>
		</g>
	</g>
	<g>
		<g>
			<path id="c88lYKx8ln_2_" class="st1" d="M465.3,488.9c0,0,0,0.4-0.1,1.2c-0.1,0.7-0.1,1.8-0.1,3c0,0-0.1,12.2-0.1,13.3
				c0.1,1.1,0.1,3,0,4c0.1,1.1,0.1,1.7,0.1,2.6c0,1,0,1.9,0,2.8c0,0.9,0.1,2.7,0.1,3.2s0,0.9-0.1,1.2c0,0.3-0.1,0.4-0.1,0.4
				c0,0.3-0.2,0.4-0.3,0.4c-0.2,0-0.3-0.2-0.3-0.4c0,0,0-0.2-0.1-0.4c0-0.3-0.1-0.7-0.2-1.2c-0.1-0.5-0.2-1.1-0.2-1.8
				s-0.2-1.5-0.1-2.4c-0.1-0.9-0.1-1.8-0.1-2.8c0-1-0.1-2-0.1-3.1c0-1.1,0-2.2,0-3.4c0-1.2,0-2.3,0-3.4c0-2.3,0.1-3.3,0.1-4.8
				c0.1-1.5,0.2-3,0.3-4.2c0-1.3,0.1-2.3,0.1-3s0-1.2,0-1.2c0-0.2,0.2-0.3,0.5-0.3C465.1,488.6,465.3,488.7,465.3,488.9L465.3,488.9
				"/>
		</g>
		<g>
			<g>
				<path class="st2" d="M465.3,488.9c0,0,0,0.4-0.1,1.2c-0.1,0.7-0.1,1.8-0.1,3c0,0-0.1,12.2-0.1,13.3c0.1,1.1,0.1,3,0,4
					c0.1,1.1,0.1,1.7,0.1,2.6c0,1,0,1.9,0,2.8c0,0.9,0.1,2.7,0.1,3.2s0,0.9-0.1,1.2c0,0.3-0.1,0.4-0.1,0.4c0,0.3-0.2,0.4-0.3,0.4
					c-0.2,0-0.3-0.2-0.3-0.4c0,0,0-0.2-0.1-0.4c0-0.3-0.1-0.7-0.2-1.2c-0.1-0.5-0.2-1.1-0.2-1.8s-0.2-1.5-0.1-2.4
					c-0.1-0.9-0.1-1.8-0.1-2.8c0-1-0.1-2-0.1-3.1c0-1.1,0-2.2,0-3.4c0-1.2,0-2.3,0-3.4c0-2.3,0.1-3.3,0.1-4.8c0.1-1.5,0.2-3,0.3-4.2
					c0-1.3,0.1-2.3,0.1-3s0-1.2,0-1.2c0-0.2,0.2-0.3,0.5-0.3C465.1,488.6,465.3,488.7,465.3,488.9L465.3,488.9"/>
			</g>
		</g>
	</g>
	<g>
		<g>
			<path id="c88lYKx8ln" class="st1" d="M521.8,486.1c0,0,0.6,0.5,1.6,1.3c1,0.9,2.5,2,4.3,3.4c0,0,17.7,13.2,19.5,14.4
				c1.7,1.1,4.4,3.2,5.9,4.3c1.7,1.1,2.5,1.7,3.8,2.7c1.4,1.1,2.8,2.1,4,3c1.3,1,4,2.9,4.7,3.4s1.3,1,1.6,1.3
				c0.4,0.3,0.6,0.6,0.6,0.6c0.4,0.3,0.5,0.6,0.3,0.7c-0.1,0.2-0.4,0.1-0.8-0.1c0,0-0.2-0.2-0.6-0.3c-0.4-0.3-1-0.6-1.8-1.1
				s-1.7-1-2.8-1.7c-1-0.8-2.3-1.5-3.6-2.4s-2.7-1.9-4.2-2.9c-1.4-1.1-3-2.1-4.5-3.3c-1.6-1.2-3.2-2.4-4.9-3.6
				c-1.7-1.3-3.3-2.5-5-3.7c-3.4-2.5-4.7-3.7-7-5.3c-2.2-1.8-4.2-3.4-6-4.8s-3.3-2.6-4.3-3.4s-1.7-1.3-1.7-1.3
				c-0.2-0.2-0.4-0.5-0.1-0.8C521.2,486,521.5,485.8,521.8,486.1L521.8,486.1"/>
		</g>
		<g>
			<g>
				<path class="st2" d="M521.8,486.1c0,0,0.6,0.5,1.6,1.3c1,0.9,2.5,2,4.3,3.4c0,0,17.7,13.2,19.5,14.4c1.7,1.1,4.4,3.2,5.9,4.3
					c1.7,1.1,2.5,1.7,3.8,2.7c1.4,1.1,2.8,2.1,4,3c1.3,1,4,2.9,4.7,3.4s1.3,1,1.6,1.3c0.4,0.3,0.6,0.6,0.6,0.6
					c0.4,0.3,0.5,0.6,0.3,0.7c-0.1,0.2-0.4,0.1-0.8-0.1c0,0-0.2-0.2-0.6-0.3c-0.4-0.3-1-0.6-1.8-1.1s-1.7-1-2.8-1.7
					c-1-0.8-2.3-1.5-3.6-2.4s-2.7-1.9-4.2-2.9c-1.4-1.1-3-2.1-4.5-3.3c-1.6-1.2-3.2-2.4-4.9-3.6c-1.7-1.3-3.3-2.5-5-3.7
					c-3.4-2.5-4.7-3.7-7-5.3c-2.2-1.8-4.2-3.4-6-4.8s-3.3-2.6-4.3-3.4s-1.7-1.3-1.7-1.3c-0.2-0.2-0.4-0.5-0.1-0.8
					C521.2,486,521.5,485.8,521.8,486.1L521.8,486.1"/>
			</g>
		</g>
	</g>
	<g>
		<g>
			<path id="c2ecfwtn6M" class="st1" d="M519.7,488.2c0-0.3-0.1-0.6-0.1-0.8s-0.2-0.6-0.3-0.8c-0.1-0.3-0.2-0.5-0.4-0.8
				c-0.2-0.3-0.2-0.3-0.4-0.5c-0.1-0.1-0.3-0.6-0.4-0.7c0-0.1,0-0.2,0.2-0.4c0.1-0.1,0.3,0,0.9,0c0.6,0.1,1.2,0.1,1.8,0.1
				c0.4,0,1.5,0.1,1.6,0.2c0.2,0.1,0.1,0.3,0,0.5l-0.1,0.1c-0.3,0.2-2.8,0.1-3.1,0.2c-0.3,0,0.1-0.2-0.2-0.2c-0.6-0.1,0.6-0.1,0-0.1
				c0.1-0.1,0.1-0.1,0.1-0.2c0.1,0.3,0.3-0.2,0.3,0.1c0,0.1,0.2,1.4,0.3,1.5c0.1,0.3,0.2,0.6,0.2,0.9l0.1,0.4c0,0.1,0,0.3,0.1,0.4
				l0,0c0,0.1,0,0.4-0.2,0.4C519.9,488.6,519.8,488.5,519.7,488.2C519.7,488.3,519.7,488.3,519.7,488.2"/>
		</g>
		<g>
			<g>
				<path class="st2" d="M519.7,488.2c0-0.3-0.1-0.6-0.1-0.8s-0.2-0.6-0.3-0.8c-0.1-0.3-0.2-0.5-0.4-0.8c-0.2-0.3-0.2-0.3-0.4-0.5
					c-0.1-0.1-0.3-0.6-0.4-0.7c0-0.1,0-0.2,0.2-0.4c0.1-0.1,0.3,0,0.9,0c0.6,0.1,1.2,0.1,1.8,0.1c0.4,0,1.5,0.1,1.6,0.2
					c0.2,0.1,0.1,0.3,0,0.5l-0.1,0.1c-0.3,0.2-2.8,0.1-3.1,0.2c-0.3,0,0.1-0.2-0.2-0.2c-0.6-0.1,0.6-0.1,0-0.1
					c0.1-0.1,0.1-0.1,0.1-0.2c0.1,0.3,0.3-0.2,0.3,0.1c0,0.1,0.2,1.4,0.3,1.5c0.1,0.3,0.2,0.6,0.2,0.9l0.1,0.4c0,0.1,0,0.3,0.1,0.4
					l0,0c0,0.1,0,0.4-0.2,0.4C519.9,488.6,519.8,488.5,519.7,488.2C519.7,488.3,519.7,488.3,519.7,488.2"/>
			</g>
		</g>
	</g>
	<g>
		<g>
			<path id="c88lYKx8ln_1_" class="st1" d="M410.8,485.2L410.8,485.2c0.3-0.2,0.7-0.1,1,0.3c0.2,0.3,0.1,0.7-0.1,0.8
				c0,0-0.6,0.5-1.7,1.3c-1.1,0.8-2.5,2-4.3,3.4c-1.8,1.5-3.8,3.1-6,4.8c-2.2,1.7-3.6,2.8-7,5.3c-1.7,1.3-3.3,2.5-5,3.7
				c-1.7,1.3-3.3,2.5-4.9,3.6c-1.5,1.1-3.1,2.2-4.5,3.3c-1.5,1-2.9,2-4.2,2.9c-1.3,1-2.5,1.6-3.6,2.4c-1.1,0.7-2,1.3-2.8,1.7
				c-0.8,0.5-1.4,0.8-1.8,1.1c-0.4,0.2-0.6,0.3-0.6,0.3c-0.4,0.2-0.7,0.3-0.8,0.1c-0.2-0.1-0.1-0.4,0.3-0.7c0,0,0.2-0.3,0.6-0.6
				c0.3-0.4,0.9-0.8,1.6-1.3c0.7-0.5,3.4-2.4,4.7-3.4c1.2-0.9,2.6-1.9,4-3c1.4-1,2.2-1.6,3.8-2.7c1.5-1.1,4.2-3.2,5.9-4.3
				c1.7-1.2,19.5-14.4,19.5-14.4c1.8-1.4,3.4-2.5,4.3-3.4C410.1,485.7,410.8,485.2,410.8,485.2"/>
		</g>
		<g>
			<g>
				<path class="st2" d="M410.8,485.2L410.8,485.2c0.3-0.2,0.7-0.1,1,0.3c0.2,0.3,0.1,0.7-0.1,0.8c0,0-0.6,0.5-1.7,1.3
					c-1.1,0.8-2.5,2-4.3,3.4c-1.8,1.5-3.8,3.1-6,4.8c-2.2,1.7-3.6,2.8-7,5.3c-1.7,1.3-3.3,2.5-5,3.7c-1.7,1.3-3.3,2.5-4.9,3.6
					c-1.5,1.1-3.1,2.2-4.5,3.3c-1.5,1-2.9,2-4.2,2.9c-1.3,1-2.5,1.6-3.6,2.4c-1.1,0.7-2,1.3-2.8,1.7c-0.8,0.5-1.4,0.8-1.8,1.1
					c-0.4,0.2-0.6,0.3-0.6,0.3c-0.4,0.2-0.7,0.3-0.8,0.1c-0.2-0.1-0.1-0.4,0.3-0.7c0,0,0.2-0.3,0.6-0.6c0.3-0.4,0.9-0.8,1.6-1.3
					c0.7-0.5,3.4-2.4,4.7-3.4c1.2-0.9,2.6-1.9,4-3c1.4-1,2.2-1.6,3.8-2.7c1.5-1.1,4.2-3.2,5.9-4.3c1.7-1.2,19.5-14.4,19.5-14.4
					c1.8-1.4,3.4-2.5,4.3-3.4C410.1,485.7,410.8,485.2,410.8,485.2"/>
			</g>
		</g>
	</g>
	<g>
		<g>
			<path id="c2ecfwtn6M_1_" class="st1" d="M412.9,487.4L412.9,487.4c0,0.3-0.2,0.4-0.3,0.2c-0.1,0-0.2-0.2-0.2-0.4l0,0
				c0-0.1,0-0.3,0.1-0.4l0.1-0.4c0-0.3,0.1-0.6,0.2-0.9c0.1-0.1,0.3-1.3,0.3-1.5c0-0.3,0.2,0.2,0.3-0.1c0.1,0.1,0.1,0.1,0.1,0.2
				c-0.6,0.1,0.6,0.1,0,0.1c-0.4,0,0,0.2-0.2,0.2c-0.3,0-2.9,0-3.1-0.2l-0.1-0.1c-0.1-0.2-0.2-0.4,0-0.5c0.1-0.1,1.2-0.2,1.6-0.2
				c0.6,0,1.2,0,1.8-0.1s0.8-0.1,0.9,0c0.1,0.2,0.2,0.2,0.2,0.4c-0.1,0.1-0.3,0.6-0.4,0.7c-0.2,0.3-0.2,0.3-0.4,0.5
				c-0.2,0.3-0.3,0.5-0.4,0.8c-0.1,0.2-0.2,0.5-0.3,0.8C413,486.8,412.9,487.1,412.9,487.4"/>
		</g>
		<g>
			<g>
				<path class="st2" d="M412.9,487.4L412.9,487.4c0,0.3-0.2,0.4-0.3,0.2c-0.1,0-0.2-0.2-0.2-0.4l0,0c0-0.1,0-0.3,0.1-0.4l0.1-0.4
					c0-0.3,0.1-0.6,0.2-0.9c0.1-0.1,0.3-1.3,0.3-1.5c0-0.3,0.2,0.2,0.3-0.1c0.1,0.1,0.1,0.1,0.1,0.2c-0.6,0.1,0.6,0.1,0,0.1
					c-0.4,0,0,0.2-0.2,0.2c-0.3,0-2.9,0-3.1-0.2l-0.1-0.1c-0.1-0.2-0.2-0.4,0-0.5c0.1-0.1,1.2-0.2,1.6-0.2c0.6,0,1.2,0,1.8-0.1
					s0.8-0.1,0.9,0c0.1,0.2,0.2,0.2,0.2,0.4c-0.1,0.1-0.3,0.6-0.4,0.7c-0.2,0.3-0.2,0.3-0.4,0.5c-0.2,0.3-0.3,0.5-0.4,0.8
					c-0.1,0.2-0.2,0.5-0.3,0.8C413,486.8,412.9,487.1,412.9,487.4"/>
			</g>
		</g>
	</g>
	<g>
		<path id="bKr4rEUKz" class="st1" d="M463.2,236.3c0,0,0-0.5,0.1-1.4c0.1-0.8,0.1-2.1,0.1-3.6c0,0-0.1-14.4-0.1-15.8
			c-0.1-1.3-0.1-3.5-0.1-4.8c-0.1-1.3-0.1-2-0.1-3.1c0-1.2,0-2.3,0-3.3s-0.1-3.2,0-3.8c0-0.6,0-1,0.1-1.4c0-0.3,0.1-0.5,0.1-0.5
			c0-0.3,0.1-0.5,0.3-0.5c0.1,0,0.2,0.2,0.3,0.4c0,0,0,0.2,0.1,0.5c0,0.3,0.1,0.8,0.1,1.4c0.1,0.6,0.1,1.3,0.2,2.1
			c0,0.8,0.1,1.8,0.1,2.8c0.1,1,0.1,2.2,0.1,3.3c0,1.2,0.1,2.4,0.1,3.6c0,1.3,0,2.6,0,4c0,1.3,0,2.7-0.1,4c0,2.7-0.1,3.9,0,5.8
			c-0.1,1.8-0.1,3.5-0.2,5c0,1.5-0.1,2.7-0.1,3.6c0,0.8,0,1.4,0,1.4c0,0.2-0.1,0.4-0.4,0.4C463.4,236.7,463.2,236.5,463.2,236.3
			L463.2,236.3"/>
	</g>
	<g>
		<g>
			<path class="st2" d="M463.2,236.3c0,0,0-0.5,0.1-1.4c0.1-0.8,0.1-2.1,0.1-3.6c0,0-0.1-14.4-0.1-15.8c-0.1-1.3-0.1-3.5-0.1-4.8
				c-0.1-1.3-0.1-2-0.1-3.1c0-1.2,0-2.3,0-3.3s-0.1-3.2,0-3.8c0-0.6,0-1,0.1-1.4c0-0.3,0.1-0.5,0.1-0.5c0-0.3,0.1-0.5,0.3-0.5
				c0.1,0,0.2,0.2,0.3,0.4c0,0,0,0.2,0.1,0.5c0,0.3,0.1,0.8,0.1,1.4c0.1,0.6,0.1,1.3,0.2,2.1c0,0.8,0.1,1.8,0.1,2.8
				c0.1,1,0.1,2.2,0.1,3.3c0,1.2,0.1,2.4,0.1,3.6c0,1.3,0,2.6,0,4c0,1.3,0,2.7-0.1,4c0,2.7-0.1,3.9,0,5.8c-0.1,1.8-0.1,3.5-0.2,5
				c0,1.5-0.1,2.7-0.1,3.6c0,0.8,0,1.4,0,1.4c0,0.2-0.1,0.4-0.4,0.4C463.4,236.7,463.2,236.5,463.2,236.3L463.2,236.3"/>
		</g>
	</g>
	<g>
		<path id="bKr4rEUKz_4_" class="st1" d="M512.5,178.2c0,0,0.9,0,2.4,0.1s3.7,0.1,6.4,0.1c0,0,25.7-0.1,28.1-0.2
			c2.3-0.1,6.3-0.1,8.5-0.2c2.3-0.1,3.5-0.1,5.5-0.1c2.1,0,4.1,0,5.8,0c1.9,0,5.7-0.1,6.7,0c1,0,1.9,0,2.4,0.1
			c0.6,0,0.9,0.1,0.9,0.1c0.5,0,0.8,0.2,0.8,0.5c0,0.2-0.3,0.4-0.7,0.5c0,0-0.3,0-0.8,0.1c-0.6,0-1.4,0.1-2.4,0.2
			c-1,0.1-2.3,0.2-3.8,0.4c-1.5,0-3.1,0.2-5,0.3c-1.9,0.1-3.8,0.1-5.9,0.3c-2.1,0-4.3,0.1-6.5,0.1c-2.3,0-4.6,0-7.1,0
			c-2.3,0-4.8,0-7.2-0.1c-4.9,0-7-0.1-10.3-0.1c-3.3-0.1-6.3-0.2-9-0.3c-2.7,0-4.9-0.1-6.4-0.1s-2.4,0-2.4,0c-0.3,0-0.7-0.2-0.7-0.7
			C511.8,178.4,512.1,178.2,512.5,178.2L512.5,178.2"/>
	</g>
	<g>
		<g>
			<path class="st2" d="M512.5,178.2c0,0,0.9,0,2.4,0.1s3.7,0.1,6.4,0.1c0,0,25.7-0.1,28.1-0.2c2.3-0.1,6.3-0.1,8.5-0.2
				c2.3-0.1,3.5-0.1,5.5-0.1c2.1,0,4.1,0,5.8,0c1.9,0,5.7-0.1,6.7,0c1,0,1.9,0,2.4,0.1c0.6,0,0.9,0.1,0.9,0.1c0.5,0,0.8,0.2,0.8,0.5
				c0,0.2-0.3,0.4-0.7,0.5c0,0-0.3,0-0.8,0.1c-0.6,0-1.4,0.1-2.4,0.2c-1,0.1-2.3,0.2-3.8,0.4c-1.5,0-3.1,0.2-5,0.3
				c-1.9,0.1-3.8,0.1-5.9,0.3c-2.1,0-4.3,0.1-6.5,0.1c-2.3,0-4.6,0-7.1,0c-2.3,0-4.8,0-7.2-0.1c-4.9,0-7-0.1-10.3-0.1
				c-3.3-0.1-6.3-0.2-9-0.3c-2.7,0-4.9-0.1-6.4-0.1s-2.4,0-2.4,0c-0.3,0-0.7-0.2-0.7-0.7C511.8,178.4,512.1,178.2,512.5,178.2
				L512.5,178.2"/>
		</g>
	</g>
	<g>
		<path id="bKr4rEUKz_1_" class="st1" d="M627.5,235.4c0,0,0-0.5,0.1-1.4c0.1-0.8,0.1-2.1,0.1-3.6c0,0-0.1-14.4-0.1-15.8
			c-0.1-1.3-0.1-3.5-0.1-4.8c-0.1-1.3-0.1-2-0.1-3.1c0-1.2,0-2.3,0-3.3s-0.1-3.2,0-3.8c0-0.6,0-1,0.1-1.4c0-0.3,0.1-0.5,0.1-0.5
			c0-0.3,0.1-0.5,0.3-0.5c0.1,0,0.2,0.2,0.3,0.4c0,0,0,0.2,0.1,0.5c0,0.3,0.1,0.8,0.1,1.4c0.1,0.6,0.1,1.3,0.2,2.1
			c0,0.8,0.1,1.8,0.1,2.8c0.1,1,0.1,2.2,0.1,3.3c0,1.2,0.1,2.4,0.1,3.6c0,1.3,0,2.6,0,4c0,1.3,0,2.7-0.1,4c0,2.7-0.1,3.9,0,5.8
			c-0.1,1.8-0.1,3.5-0.2,5c0,1.5-0.1,2.7-0.1,3.6s0,1.4,0,1.4c0,0.2-0.1,0.4-0.4,0.4C627.6,235.7,627.5,235.5,627.5,235.4
			L627.5,235.4"/>
	</g>
	<g>
		<g>
			<path class="st2" d="M627.5,235.4c0,0,0-0.5,0.1-1.4c0.1-0.8,0.1-2.1,0.1-3.6c0,0-0.1-14.4-0.1-15.8c-0.1-1.3-0.1-3.5-0.1-4.8
				c-0.1-1.3-0.1-2-0.1-3.1c0-1.2,0-2.3,0-3.3s-0.1-3.2,0-3.8c0-0.6,0-1,0.1-1.4c0-0.3,0.1-0.5,0.1-0.5c0-0.3,0.1-0.5,0.3-0.5
				c0.1,0,0.2,0.2,0.3,0.4c0,0,0,0.2,0.1,0.5c0,0.3,0.1,0.8,0.1,1.4c0.1,0.6,0.1,1.3,0.2,2.1c0,0.8,0.1,1.8,0.1,2.8
				c0.1,1,0.1,2.2,0.1,3.3c0,1.2,0.1,2.4,0.1,3.6c0,1.3,0,2.6,0,4c0,1.3,0,2.7-0.1,4c0,2.7-0.1,3.9,0,5.8c-0.1,1.8-0.1,3.5-0.2,5
				c0,1.5-0.1,2.7-0.1,3.6s0,1.4,0,1.4c0,0.2-0.1,0.4-0.4,0.4C627.6,235.7,627.5,235.5,627.5,235.4L627.5,235.4"/>
		</g>
	</g>
	<g>
		<g>
			<g>
				<g>
					<path id="a1Y7jzatDS" class="st1" d="M511.7,157.7c0,0-1.6,0-4.1-0.1c-2.6-0.1-6.4,0-10.9-0.1c-4.5,0.1-9.8,0-15.4,0.1
						s-11.6,0.2-17.6,0.3c-3,0.1-6,0.1-8.9,0.2c-2.9,0.1-5.9,0.1-8.7,0.2c-2.8,0.1-5.6,0.1-8.1,0.1c-2.5,0.1-5,0.1-7.2,0
						c-2.3,0-4.3-0.1-6.2-0.1c-1.8-0.1-3.4-0.1-4.7-0.1c-1.3,0-2.4-0.1-3-0.1c-0.7,0-1.1-0.1-1.1-0.1c-0.7-0.1-1.1-0.3-1-0.6
						c0-0.2,0.4-0.4,0.9-0.4c0,0,0.4,0,1-0.1c0.7-0.1,1.7-0.1,3-0.3c1.3-0.1,2.9-0.2,4.7-0.3c1.8-0.1,3.9-0.2,6.1-0.3
						c2.2-0.1,4.7-0.1,7.3-0.1s5.3-0.1,8.1-0.1c2.8,0,5.7,0,8.7,0.1c3,0,6,0.1,8.9,0.1c6,0.1,12,0.2,17.6,0.3
						c5.7,0.1,10.8,0.1,15.4,0.2c4.5,0,8.3,0.1,10.9,0.1c2.6,0,4.1,0,4.1,0c0.6,0,1.1,0.2,1.1,0.4
						C513,157.4,512.5,157.6,511.7,157.7C511.8,157.6,511.8,157.6,511.7,157.7"/>
				</g>
				<g>
					<g>
						<path class="st2" d="M511.7,157.7c0,0-1.6,0-4.1-0.1c-2.6-0.1-6.4,0-10.9-0.1c-4.5,0.1-9.8,0-15.4,0.1s-11.6,0.2-17.6,0.3
							c-3,0.1-6,0.1-8.9,0.2c-2.9,0.1-5.9,0.1-8.7,0.2c-2.8,0.1-5.6,0.1-8.1,0.1c-2.5,0.1-5,0.1-7.2,0c-2.3,0-4.3-0.1-6.2-0.1
							c-1.8-0.1-3.4-0.1-4.7-0.1c-1.3,0-2.4-0.1-3-0.1c-0.7,0-1.1-0.1-1.1-0.1c-0.7-0.1-1.1-0.3-1-0.6c0-0.2,0.4-0.4,0.9-0.4
							c0,0,0.4,0,1-0.1c0.7-0.1,1.7-0.1,3-0.3c1.3-0.1,2.9-0.2,4.7-0.3c1.8-0.1,3.9-0.2,6.1-0.3c2.2-0.1,4.7-0.1,7.3-0.1
							s5.3-0.1,8.1-0.1c2.8,0,5.7,0,8.7,0.1c3,0,6,0.1,8.9,0.1c6,0.1,12,0.2,17.6,0.3c5.7,0.1,10.8,0.1,15.4,0.2
							c4.5,0,8.3,0.1,10.9,0.1c2.6,0,4.1,0,4.1,0c0.6,0,1.1,0.2,1.1,0.4C513,157.4,512.5,157.6,511.7,157.7
							C511.8,157.6,511.8,157.6,511.7,157.7"/>
					</g>
				</g>
			</g>
			<g>
				<g>
					<path id="a8OtUzgEu8" class="st1" d="M416.1,199.4c0,0,1.6-0.1,4.1-0.1c2.6-0.1,6.4-0.1,10.9-0.2c4.5,0,9.8-0.1,15.4-0.1
						s11.6,0.1,17.6,0.1c3,0,6,0.1,8.9,0.1s5.9,0.1,8.7,0.1c2.8,0,5.6,0,8.1,0s5,0,7.2-0.1c2.3,0,4.2-0.1,6.2-0.1
						c1.8-0.1,3.4-0.1,4.7-0.2c1.3-0.1,2.4-0.1,3-0.1c0.7,0,1.1-0.1,1.1-0.1c0.6-0.1,1.1-0.3,1-0.6c0-0.2-0.5-0.4-0.9-0.4
						c0,0-0.4,0-1-0.1c-0.7-0.1-1.7-0.1-3-0.2c-1.3-0.1-2.9-0.1-4.7-0.3c-1.8-0.1-3.9-0.1-6.1-0.2c-2.2-0.1-4.7-0.1-7.3-0.1
						s-5.3,0-8.1,0.1c-2.8,0.1-5.7,0.1-8.7,0.1s-6,0.1-8.9,0.2c-6,0.1-12,0.3-17.6,0.4c-5.7,0.1-10.8,0.2-15.4,0.3
						c-4.5,0.1-8.3,0.1-10.9,0.2c-2.6,0-4.1,0-4.1,0c-0.6,0-1.1,0.2-1.1,0.5C414.8,199.2,415.3,199.4,416.1,199.4
						C416,199.3,416,199.3,416.1,199.4"/>
				</g>
				<g>
					<g>
						<path class="st2" d="M416.1,199.4c0,0,1.6-0.1,4.1-0.1c2.6-0.1,6.4-0.1,10.9-0.2c4.5,0,9.8-0.1,15.4-0.1s11.6,0.1,17.6,0.1
							c3,0,6,0.1,8.9,0.1s5.9,0.1,8.7,0.1c2.8,0,5.6,0,8.1,0s5,0,7.2-0.1c2.3,0,4.2-0.1,6.2-0.1c1.8-0.1,3.4-0.1,4.7-0.2
							c1.3-0.1,2.4-0.1,3-0.1c0.7,0,1.1-0.1,1.1-0.1c0.6-0.1,1.1-0.3,1-0.6c0-0.2-0.5-0.4-0.9-0.4c0,0-0.4,0-1-0.1
							c-0.7-0.1-1.7-0.1-3-0.2c-1.3-0.1-2.9-0.1-4.7-0.3c-1.8-0.1-3.9-0.1-6.1-0.2c-2.2-0.1-4.7-0.1-7.3-0.1s-5.3,0-8.1,0.1
							c-2.8,0.1-5.7,0.1-8.7,0.1s-6,0.1-8.9,0.2c-6,0.1-12,0.3-17.6,0.4c-5.7,0.1-10.8,0.2-15.4,0.3c-4.5,0.1-8.3,0.1-10.9,0.2
							c-2.6,0-4.1,0-4.1,0c-0.6,0-1.1,0.2-1.1,0.5C414.8,199.2,415.3,199.4,416.1,199.4C416,199.3,416,199.3,416.1,199.4"/>
					</g>
				</g>
			</g>
			<g>
				<g>
					<path id="bHPvHQc13" class="st1" d="M511.3,198.2c0,0,0.1-0.7,0.1-1.8c0.1-1.1,0.1-2.7,0.2-4.6c0-1.9-0.2-4.1-0.3-6.5
						c0-2.4-0.2-5-0.4-7.5c-0.1-1.3-0.2-2.5-0.3-3.8s-0.2-2.5-0.2-3.8c-0.1-1.2-0.1-2.4-0.1-3.4c0-1.1,0-2.2,0-3.1
						c0-1,0.1-1.8,0.1-2.6c0.1-0.8,0.2-1.5,0.2-2c0.1-0.6,0.2-1,0.3-1.3c0-0.3,0.2-0.4,0.2-0.4c0.1-0.3,0.6-0.4,1-0.4
						c0.4,0,0.7,0.2,0.8,0.4c0,0,0,0.2,0.2,0.4c0.1,0.3-0.2-0.6-0.1-0.1c0.2,0.6-0.1-0.6,0,0.1c0.1,0.7,0-0.1,0.1,0.9
						c0.1,1,0.1,3.1,0.1,4.3s0.1,4.7,0,6c0,1.3,0.2,3.6,0.1,4.9c-0.2,2.6,0,9-0.1,11.4c-0.1,2.4,0.3,4.6,0.1,6.5
						c-0.1,1.9-0.2,3.6-0.2,4.6c0,1.1,0,1.7,0,1.7c0,0.3-0.4,0.5-0.9,0.5C511.7,198.7,511.4,198.5,511.3,198.2
						C511.4,198.2,511.4,198.2,511.3,198.2"/>
				</g>
				<g>
					<g>
						<path class="st2" d="M511.3,198.2c0,0,0.1-0.7,0.1-1.8c0.1-1.1,0.1-2.7,0.2-4.6c0-1.9-0.2-4.1-0.3-6.5c0-2.4-0.2-5-0.4-7.5
							c-0.1-1.3-0.2-2.5-0.3-3.8s-0.2-2.5-0.2-3.8c-0.1-1.2-0.1-2.4-0.1-3.4c0-1.1,0-2.2,0-3.1c0-1,0.1-1.8,0.1-2.6
							c0.1-0.8,0.2-1.5,0.2-2c0.1-0.6,0.2-1,0.3-1.3c0-0.3,0.2-0.4,0.2-0.4c0.1-0.3,0.6-0.4,1-0.4c0.4,0,0.7,0.2,0.8,0.4
							c0,0,0,0.2,0.2,0.4c0.1,0.3-0.2-0.6-0.1-0.1c0.2,0.6-0.1-0.6,0,0.1c0.1,0.7,0-0.1,0.1,0.9c0.1,1,0.1,3.1,0.1,4.3s0.1,4.7,0,6
							c0,1.3,0.2,3.6,0.1,4.9c-0.2,2.6,0,9-0.1,11.4c-0.1,2.4,0.3,4.6,0.1,6.5c-0.1,1.9-0.2,3.6-0.2,4.6c0,1.1,0,1.7,0,1.7
							c0,0.3-0.4,0.5-0.9,0.5C511.7,198.7,511.4,198.5,511.3,198.2C511.4,198.2,511.4,198.2,511.3,198.2"/>
					</g>
				</g>
			</g>
		</g>
		<g>
			<g>
				<path id="c7z7e1BDi2" class="st1" d="M414.9,198.8c0,0,0-0.7,0.1-1.8s0.1-2.7,0.2-4.7c0-1.9-0.1-4.2-0.3-6.6
					c0-2.4-0.3-5-0.4-7.6c-0.1-1.3-0.2-2.5-0.3-3.8s-0.2-2.5-0.2-3.8c-0.1-1.2-0.1-2.4-0.1-3.5s0-2.2,0-3.1c0-1,0.1-1.8,0.1-2.7
					c0.1-0.8,0.2-1.5,0.2-2c0.1-0.6,0.2-1,0.3-1.3c0-0.3,0.2-0.4,0.2-0.4c0.1-0.3,0.6-0.4,1-0.4s0.7,0.2,0.8,0.4c0,0,0,0.2,0.2,0.4
					c0.1,0.3-0.2-0.6-0.1-0.1c0.2,0.6-0.1-0.6,0,0.1c0.1,0.8,0-0.1,0.1,0.9s0.1,3.1,0.1,4.4c0,1.2,0.1,4.8,0,6c0,1.3,0.2,3.6,0.1,5
					c-0.2,2.6,0,9-0.1,11.4s0.3,4.6,0.1,6.6c-0.1,2-0.2,3.6-0.2,4.7s0,1.8,0,1.8c0,0.3-0.4,0.5-0.9,0.5
					C415.4,199.3,415,199.1,414.9,198.8C415,198.8,415,198.8,414.9,198.8"/>
			</g>
			<g>
				<g>
					<path class="st2" d="M414.9,198.8c0,0,0-0.7,0.1-1.8s0.1-2.7,0.2-4.7c0-1.9-0.1-4.2-0.3-6.6c0-2.4-0.3-5-0.4-7.6
						c-0.1-1.3-0.2-2.5-0.3-3.8s-0.2-2.5-0.2-3.8c-0.1-1.2-0.1-2.4-0.1-3.5s0-2.2,0-3.1c0-1,0.1-1.8,0.1-2.7c0.1-0.8,0.2-1.5,0.2-2
						c0.1-0.6,0.2-1,0.3-1.3c0-0.3,0.2-0.4,0.2-0.4c0.1-0.3,0.6-0.4,1-0.4s0.7,0.2,0.8,0.4c0,0,0,0.2,0.2,0.4
						c0.1,0.3-0.2-0.6-0.1-0.1c0.2,0.6-0.1-0.6,0,0.1c0.1,0.8,0-0.1,0.1,0.9s0.1,3.1,0.1,4.4c0,1.2,0.1,4.8,0,6c0,1.3,0.2,3.6,0.1,5
						c-0.2,2.6,0,9-0.1,11.4s0.3,4.6,0.1,6.6c-0.1,2-0.2,3.6-0.2,4.7s0,1.8,0,1.8c0,0.3-0.4,0.5-0.9,0.5
						C415.4,199.3,415,199.1,414.9,198.8C415,198.8,415,198.8,414.9,198.8"/>
				</g>
			</g>
		</g>
	</g>
	<g id="b3tveFeZ5t">
		<g>
			<text transform="matrix(1 0 0 1 435.4665 184.7454)" class="st1 st3 st4">dataset</text>
		</g>
	</g>
	<g>
		<g>
			<g>
				<g>
					<path id="a1Y7jzatDS_1_" class="st1" d="M512,237.6c0,0-1.6,0-4.1-0.1c-2.6-0.1-6.4,0-10.9-0.1c-4.5,0.1-9.8,0-15.4,0.1
						c-5.6,0.1-11.6,0.2-17.6,0.3c-3,0.1-6,0.1-8.9,0.2c-2.9,0.1-5.9,0.1-8.7,0.2c-2.8,0.1-5.6,0.1-8.1,0.1s-5,0.1-7.2,0
						c-2.3,0-4.3-0.1-6.2-0.1c-1.8-0.1-3.4-0.1-4.7-0.1c-1.3,0-2.4-0.1-3-0.1c-0.7,0-1.1-0.1-1.1-0.1c-0.7-0.1-1.1-0.3-1-0.6
						c0-0.2,0.4-0.4,0.9-0.4c0,0,0.4,0,1-0.1c0.7-0.1,1.7-0.1,3-0.3c1.3-0.1,2.9-0.2,4.7-0.3c1.8-0.1,3.9-0.2,6.1-0.3
						s4.7-0.1,7.3-0.1s5.3-0.1,8.1-0.1c2.8,0,5.7,0,8.7,0.1c3,0,6,0.1,8.9,0.1c6,0.1,12,0.2,17.6,0.3c5.7,0.1,10.8,0.1,15.4,0.2
						c4.5,0,8.3,0.1,10.9,0.1c2.6,0,4.1,0,4.1,0c0.6,0,1.1,0.2,1.1,0.4C513.3,237.4,512.8,237.6,512,237.6
						C512.1,237.6,512.1,237.6,512,237.6"/>
				</g>
				<g>
					<g>
						<path class="st2" d="M512,237.6c0,0-1.6,0-4.1-0.1c-2.6-0.1-6.4,0-10.9-0.1c-4.5,0.1-9.8,0-15.4,0.1
							c-5.6,0.1-11.6,0.2-17.6,0.3c-3,0.1-6,0.1-8.9,0.2c-2.9,0.1-5.9,0.1-8.7,0.2c-2.8,0.1-5.6,0.1-8.1,0.1s-5,0.1-7.2,0
							c-2.3,0-4.3-0.1-6.2-0.1c-1.8-0.1-3.4-0.1-4.7-0.1c-1.3,0-2.4-0.1-3-0.1c-0.7,0-1.1-0.1-1.1-0.1c-0.7-0.1-1.1-0.3-1-0.6
							c0-0.2,0.4-0.4,0.9-0.4c0,0,0.4,0,1-0.1c0.7-0.1,1.7-0.1,3-0.3c1.3-0.1,2.9-0.2,4.7-0.3c1.8-0.1,3.9-0.2,6.1-0.3
							s4.7-0.1,7.3-0.1s5.3-0.1,8.1-0.1c2.8,0,5.7,0,8.7,0.1c3,0,6,0.1,8.9,0.1c6,0.1,12,0.2,17.6,0.3c5.7,0.1,10.8,0.1,15.4,0.2
							c4.5,0,8.3,0.1,10.9,0.1c2.6,0,4.1,0,4.1,0c0.6,0,1.1,0.2,1.1,0.4C513.3,237.4,512.8,237.6,512,237.6
							C512.1,237.6,512.1,237.6,512,237.6"/>
					</g>
				</g>
			</g>
			<g>
				<g>
					<path id="a8OtUzgEu8_1_" class="st1" d="M416.4,279.3c0,0,1.6-0.1,4.1-0.1c2.6-0.1,6.4-0.1,10.9-0.2c4.5,0,9.8-0.1,15.4-0.1
						c5.6,0,11.6,0.1,17.6,0.1c3,0,6,0.1,8.9,0.1s5.9,0.1,8.7,0.1c2.8,0,5.6,0,8.1,0s5,0,7.2-0.1c2.3,0,4.2-0.1,6.2-0.1
						c1.8-0.1,3.4-0.1,4.7-0.2c1.3-0.1,2.4-0.1,3-0.1c0.7,0,1.1-0.1,1.1-0.1c0.6-0.1,1.1-0.3,1-0.6c0-0.2-0.5-0.4-0.9-0.4
						c0,0-0.4,0-1-0.1c-0.7-0.1-1.7-0.1-3-0.2c-1.3-0.1-2.9-0.1-4.7-0.3c-1.8-0.1-3.9-0.1-6.1-0.2s-4.7-0.1-7.3-0.1s-5.3,0-8.1,0.1
						c-2.8,0.1-5.7,0.1-8.7,0.1s-6,0.1-8.9,0.2c-6,0.1-12,0.3-17.6,0.4c-5.7,0.1-10.8,0.2-15.4,0.3c-4.5,0.1-8.3,0.1-10.9,0.2
						c-2.6,0-4.1,0-4.1,0c-0.6,0-1.1,0.2-1.1,0.5C415.1,279.1,415.6,279.3,416.4,279.3C416.3,279.3,416.3,279.3,416.4,279.3"/>
				</g>
				<g>
					<g>
						<path class="st2" d="M416.4,279.3c0,0,1.6-0.1,4.1-0.1c2.6-0.1,6.4-0.1,10.9-0.2c4.5,0,9.8-0.1,15.4-0.1
							c5.6,0,11.6,0.1,17.6,0.1c3,0,6,0.1,8.9,0.1s5.9,0.1,8.7,0.1c2.8,0,5.6,0,8.1,0s5,0,7.2-0.1c2.3,0,4.2-0.1,6.2-0.1
							c1.8-0.1,3.4-0.1,4.7-0.2c1.3-0.1,2.4-0.1,3-0.1c0.7,0,1.1-0.1,1.1-0.1c0.6-0.1,1.1-0.3,1-0.6c0-0.2-0.5-0.4-0.9-0.4
							c0,0-0.4,0-1-0.1c-0.7-0.1-1.7-0.1-3-0.2c-1.3-0.1-2.9-0.1-4.7-0.3c-1.8-0.1-3.9-0.1-6.1-0.2s-4.7-0.1-7.3-0.1s-5.3,0-8.1,0.1
							c-2.8,0.1-5.7,0.1-8.7,0.1s-6,0.1-8.9,0.2c-6,0.1-12,0.3-17.6,0.4c-5.7,0.1-10.8,0.2-15.4,0.3c-4.5,0.1-8.3,0.1-10.9,0.2
							c-2.6,0-4.1,0-4.1,0c-0.6,0-1.1,0.2-1.1,0.5C415.1,279.1,415.6,279.3,416.4,279.3C416.3,279.3,416.3,279.3,416.4,279.3"/>
					</g>
				</g>
			</g>
			<g>
				<g>
					<path id="bHPvHQc13_1_" class="st1" d="M511.6,278.1c0,0,0.1-0.7,0.1-1.8c0.1-1.1,0.1-2.7,0.2-4.6c0-1.9-0.2-4.1-0.3-6.5
						c0-2.4-0.2-5-0.4-7.5c-0.1-1.3-0.2-2.5-0.3-3.8s-0.2-2.5-0.2-3.8c-0.1-1.2-0.1-2.4-0.1-3.4c0-1.1,0-2.2,0-3.1
						c0-1,0.1-1.8,0.1-2.6c0.1-0.8,0.2-1.5,0.2-2c0.1-0.6,0.2-1,0.3-1.3c0-0.3,0.2-0.4,0.2-0.4c0.1-0.3,0.6-0.4,1-0.4
						c0.4,0,0.7,0.2,0.8,0.4c0,0,0,0.2,0.2,0.4c0.1,0.3-0.2-0.6-0.1-0.1c0.2,0.6-0.1-0.6,0,0.1c0.1,0.7,0-0.1,0.1,0.9
						c0.1,1,0.1,3.1,0.1,4.3s0.1,4.7,0,6c0,1.3,0.2,3.6,0.1,4.9c-0.2,2.6,0,9-0.1,11.4c-0.1,2.4,0.3,4.6,0.1,6.5
						c-0.1,1.9-0.2,3.6-0.2,4.6c0,1.1,0,1.7,0,1.7c0,0.3-0.4,0.5-0.9,0.5C512,278.6,511.7,278.4,511.6,278.1
						C511.7,278.1,511.7,278.1,511.6,278.1"/>
				</g>
				<g>
					<g>
						<path class="st2" d="M511.6,278.1c0,0,0.1-0.7,0.1-1.8c0.1-1.1,0.1-2.7,0.2-4.6c0-1.9-0.2-4.1-0.3-6.5c0-2.4-0.2-5-0.4-7.5
							c-0.1-1.3-0.2-2.5-0.3-3.8s-0.2-2.5-0.2-3.8c-0.1-1.2-0.1-2.4-0.1-3.4c0-1.1,0-2.2,0-3.1c0-1,0.1-1.8,0.1-2.6
							c0.1-0.8,0.2-1.5,0.2-2c0.1-0.6,0.2-1,0.3-1.3c0-0.3,0.2-0.4,0.2-0.4c0.1-0.3,0.6-0.4,1-0.4c0.4,0,0.7,0.2,0.8,0.4
							c0,0,0,0.2,0.2,0.4c0.1,0.3-0.2-0.6-0.1-0.1c0.2,0.6-0.1-0.6,0,0.1c0.1,0.7,0-0.1,0.1,0.9c0.1,1,0.1,3.1,0.1,4.3s0.1,4.7,0,6
							c0,1.3,0.2,3.6,0.1,4.9c-0.2,2.6,0,9-0.1,11.4c-0.1,2.4,0.3,4.6,0.1,6.5c-0.1,1.9-0.2,3.6-0.2,4.6c0,1.1,0,1.7,0,1.7
							c0,0.3-0.4,0.5-0.9,0.5C512,278.6,511.7,278.4,511.6,278.1C511.7,278.1,511.7,278.1,511.6,278.1"/>
					</g>
				</g>
			</g>
		</g>
		<g>
			<g>
				<path id="c7z7e1BDi2_1_" class="st1" d="M415.2,278.7c0,0,0-0.7,0.1-1.8c0.1-1.1,0.1-2.7,0.2-4.7c0-1.9-0.1-4.2-0.3-6.6
					c0-2.4-0.3-5-0.4-7.6c-0.1-1.3-0.2-2.5-0.3-3.8s-0.2-2.5-0.2-3.8c-0.1-1.2-0.1-2.4-0.1-3.5s0-2.2,0-3.1s0.1-1.8,0.1-2.7
					c0.1-0.8,0.2-1.5,0.2-2c0.1-0.6,0.2-1,0.3-1.3c0-0.3,0.2-0.4,0.2-0.4c0.1-0.3,0.6-0.4,1-0.4s0.7,0.2,0.8,0.4c0,0,0,0.2,0.2,0.4
					c0.1,0.3-0.2-0.6-0.1-0.1c0.2,0.6-0.1-0.6,0,0.1c0.1,0.8,0-0.1,0.1,0.9s0.1,3.1,0.1,4.4c0,1.2,0.1,4.8,0,6c0,1.3,0.2,3.6,0.1,5
					c-0.2,2.6,0,9-0.1,11.4s0.3,4.6,0.1,6.6c-0.1,2-0.2,3.6-0.2,4.7s0,1.8,0,1.8c0,0.3-0.4,0.5-0.9,0.5
					C415.7,279.3,415.3,279.1,415.2,278.7C415.3,278.8,415.3,278.8,415.2,278.7"/>
			</g>
			<g>
				<g>
					<path class="st2" d="M415.2,278.7c0,0,0-0.7,0.1-1.8c0.1-1.1,0.1-2.7,0.2-4.7c0-1.9-0.1-4.2-0.3-6.6c0-2.4-0.3-5-0.4-7.6
						c-0.1-1.3-0.2-2.5-0.3-3.8s-0.2-2.5-0.2-3.8c-0.1-1.2-0.1-2.4-0.1-3.5s0-2.2,0-3.1s0.1-1.8,0.1-2.7c0.1-0.8,0.2-1.5,0.2-2
						c0.1-0.6,0.2-1,0.3-1.3c0-0.3,0.2-0.4,0.2-0.4c0.1-0.3,0.6-0.4,1-0.4s0.7,0.2,0.8,0.4c0,0,0,0.2,0.2,0.4
						c0.1,0.3-0.2-0.6-0.1-0.1c0.2,0.6-0.1-0.6,0,0.1c0.1,0.8,0-0.1,0.1,0.9s0.1,3.1,0.1,4.4c0,1.2,0.1,4.8,0,6c0,1.3,0.2,3.6,0.1,5
						c-0.2,2.6,0,9-0.1,11.4s0.3,4.6,0.1,6.6c-0.1,2-0.2,3.6-0.2,4.7s0,1.8,0,1.8c0,0.3-0.4,0.5-0.9,0.5
						C415.7,279.3,415.3,279.1,415.2,278.7C415.3,278.8,415.3,278.8,415.2,278.7"/>
				</g>
			</g>
		</g>
	</g>
	<g id="b3tveFeZ5t_1_">
		<g>
			<text transform="matrix(1 0 0 1 438.478 262.6748)" class="st1 st3 st4">record</text>
		</g>
	</g>
	<g>
		<path id="bKr4rEUKz_3_" class="st1" d="M463.2,316c0,0,0-0.5,0.1-1.4c0.1-0.8,0.1-2.1,0.1-3.6c0,0-0.1-14.4-0.1-15.8
			c-0.1-1.3-0.1-3.5-0.1-4.8c-0.1-1.3-0.1-2-0.1-3.1c0-1.2,0-2.3,0-3.3s-0.1-3.2,0-3.8c0-0.6,0-1,0.1-1.4c0-0.3,0.1-0.5,0.1-0.5
			c0-0.3,0.1-0.5,0.3-0.5c0.1,0,0.2,0.2,0.3,0.4c0,0,0,0.2,0.1,0.5c0,0.3,0.1,0.8,0.1,1.4c0.1,0.6,0.1,1.3,0.2,2.1
			c0,0.8,0.1,1.8,0.1,2.8c0.1,1,0.1,2.2,0.1,3.3c0,1.2,0.1,2.4,0.1,3.6c0,1.3,0,2.6,0,4c0,1.3,0,2.7-0.1,4c0,2.7-0.1,3.9,0,5.8
			c-0.1,1.8-0.1,3.5-0.2,5c0,1.5-0.1,2.7-0.1,3.6c0,0.8,0,1.4,0,1.4c0,0.2-0.1,0.4-0.4,0.4C463.4,316.4,463.2,316.2,463.2,316
			L463.2,316"/>
	</g>
	<g>
		<g>
			<path class="st2" d="M463.2,316c0,0,0-0.5,0.1-1.4c0.1-0.8,0.1-2.1,0.1-3.6c0,0-0.1-14.4-0.1-15.8c-0.1-1.3-0.1-3.5-0.1-4.8
				c-0.1-1.3-0.1-2-0.1-3.1c0-1.2,0-2.3,0-3.3s-0.1-3.2,0-3.8c0-0.6,0-1,0.1-1.4c0-0.3,0.1-0.5,0.1-0.5c0-0.3,0.1-0.5,0.3-0.5
				c0.1,0,0.2,0.2,0.3,0.4c0,0,0,0.2,0.1,0.5c0,0.3,0.1,0.8,0.1,1.4c0.1,0.6,0.1,1.3,0.2,2.1c0,0.8,0.1,1.8,0.1,2.8
				c0.1,1,0.1,2.2,0.1,3.3c0,1.2,0.1,2.4,0.1,3.6c0,1.3,0,2.6,0,4c0,1.3,0,2.7-0.1,4c0,2.7-0.1,3.9,0,5.8c-0.1,1.8-0.1,3.5-0.2,5
				c0,1.5-0.1,2.7-0.1,3.6c0,0.8,0,1.4,0,1.4c0,0.2-0.1,0.4-0.4,0.4C463.4,316.4,463.2,316.2,463.2,316L463.2,316"/>
		</g>
	</g>
	<g>
		<path id="bKr4rEUKz_2_" class="st1" d="M463.2,437.7c0,0,0-0.5,0.1-1.4c0.1-0.8,0.1-2.1,0.1-3.6c0,0-0.1-14.4-0.1-15.8
			c-0.1-1.3-0.1-3.5-0.1-4.8c-0.1-1.3-0.1-2-0.1-3.1c0-1.2,0-2.3,0-3.3s-0.1-3.2,0-3.8c0-0.6,0-1,0.1-1.4c0-0.3,0.1-0.5,0.1-0.5
			c0-0.3,0.1-0.5,0.3-0.5c0.1,0,0.2,0.2,0.3,0.4c0,0,0,0.2,0.1,0.5c0,0.3,0.1,0.8,0.1,1.4c0.1,0.6,0.1,1.3,0.2,2.1
			c0,0.8,0.1,1.8,0.1,2.8c0.1,1,0.1,2.2,0.1,3.3c0,1.2,0.1,2.4,0.1,3.6c0,1.3,0,2.6,0,4c0,1.3,0,2.7-0.1,4c0,2.7-0.1,3.9,0,5.8
			c-0.1,1.8-0.1,3.5-0.2,5c0,1.5-0.1,2.7-0.1,3.6c0,0.8,0,1.4,0,1.4c0,0.2-0.1,0.4-0.4,0.4C463.4,438.1,463.2,437.9,463.2,437.7
			L463.2,437.7"/>
	</g>
	<g>
		<g>
			<path class="st2" d="M463.2,437.7c0,0,0-0.5,0.1-1.4c0.1-0.8,0.1-2.1,0.1-3.6c0,0-0.1-14.4-0.1-15.8c-0.1-1.3-0.1-3.5-0.1-4.8
				c-0.1-1.3-0.1-2-0.1-3.1c0-1.2,0-2.3,0-3.3s-0.1-3.2,0-3.8c0-0.6,0-1,0.1-1.4c0-0.3,0.1-0.5,0.1-0.5c0-0.3,0.1-0.5,0.3-0.5
				c0.1,0,0.2,0.2,0.3,0.4c0,0,0,0.2,0.1,0.5c0,0.3,0.1,0.8,0.1,1.4c0.1,0.6,0.1,1.3,0.2,2.1c0,0.8,0.1,1.8,0.1,2.8
				c0.1,1,0.1,2.2,0.1,3.3c0,1.2,0.1,2.4,0.1,3.6c0,1.3,0,2.6,0,4c0,1.3,0,2.7-0.1,4c0,2.7-0.1,3.9,0,5.8c-0.1,1.8-0.1,3.5-0.2,5
				c0,1.5-0.1,2.7-0.1,3.6c0,0.8,0,1.4,0,1.4c0,0.2-0.1,0.4-0.4,0.4C463.4,438.1,463.2,437.9,463.2,437.7L463.2,437.7"/>
		</g>
	</g>
	<g>
		<g>
			<g>
				<g>
					<path id="a1Y7jzatDS_6_" class="st1" d="M513.7,439.1c0,0-1.6,0-4.1-0.1c-2.6-0.1-6.4,0-10.9-0.1c-4.5,0.1-9.8,0-15.4,0.1
						s-11.6,0.2-17.6,0.3c-3,0.1-6,0.1-8.9,0.2s-5.9,0.1-8.7,0.2c-2.8,0.1-5.6,0.1-8.1,0.1s-5,0.1-7.2,0c-2.3,0-4.3-0.1-6.2-0.1
						c-1.8-0.1-3.4-0.1-4.7-0.1c-1.3-0.1-2.4-0.1-3-0.1c-0.7,0-1.1-0.1-1.1-0.1c-0.7-0.1-1.1-0.3-1-0.6c0-0.2,0.4-0.4,0.9-0.4
						c0,0,0.4,0,1-0.1c0.7-0.1,1.7-0.1,3-0.3c1.3-0.2,2.9-0.2,4.7-0.3c1.8-0.1,3.9-0.2,6.1-0.3c2.2-0.1,4.7-0.1,7.3-0.1
						s5.3-0.1,8.1-0.1c2.8,0,5.7,0,8.7,0.1c3,0,6,0.1,8.9,0.1c6,0.1,12,0.2,17.6,0.3c5.7,0.1,10.8,0.1,15.4,0.2
						c4.5,0,8.3,0.1,10.9,0.1c2.6,0,4.1,0,4.1,0c0.6,0,1.1,0.2,1.1,0.4C515,438.9,514.5,439,513.7,439.1
						C513.8,439,513.8,439,513.7,439.1"/>
				</g>
				<g>
					<g>
						<path class="st2" d="M513.7,439.1c0,0-1.6,0-4.1-0.1c-2.6-0.1-6.4,0-10.9-0.1c-4.5,0.1-9.8,0-15.4,0.1s-11.6,0.2-17.6,0.3
							c-3,0.1-6,0.1-8.9,0.2s-5.9,0.1-8.7,0.2c-2.8,0.1-5.6,0.1-8.1,0.1s-5,0.1-7.2,0c-2.3,0-4.3-0.1-6.2-0.1
							c-1.8-0.1-3.4-0.1-4.7-0.1c-1.3-0.1-2.4-0.1-3-0.1c-0.7,0-1.1-0.1-1.1-0.1c-0.7-0.1-1.1-0.3-1-0.6c0-0.2,0.4-0.4,0.9-0.4
							c0,0,0.4,0,1-0.1c0.7-0.1,1.7-0.1,3-0.3c1.3-0.2,2.9-0.2,4.7-0.3c1.8-0.1,3.9-0.2,6.1-0.3c2.2-0.1,4.7-0.1,7.3-0.1
							s5.3-0.1,8.1-0.1c2.8,0,5.7,0,8.7,0.1c3,0,6,0.1,8.9,0.1c6,0.1,12,0.2,17.6,0.3c5.7,0.1,10.8,0.1,15.4,0.2
							c4.5,0,8.3,0.1,10.9,0.1c2.6,0,4.1,0,4.1,0c0.6,0,1.1,0.2,1.1,0.4C515,438.9,514.5,439,513.7,439.1
							C513.8,439,513.8,439,513.7,439.1"/>
					</g>
				</g>
			</g>
			<g>
				<g>
					<path id="a8OtUzgEu8_6_" class="st1" d="M418.1,480.8c0,0,1.6-0.1,4.1-0.1c2.6-0.1,6.4-0.1,10.9-0.2c4.5,0,9.8-0.1,15.4-0.1
						s11.6,0.1,17.6,0.1c3,0,6,0.1,8.9,0.1s5.9,0.1,8.7,0.1c2.8,0,5.6,0,8.1,0s5,0,7.2-0.1c2.3,0,4.2-0.1,6.2-0.1
						c1.8-0.1,3.4-0.1,4.7-0.2c1.3-0.1,2.4-0.1,3-0.1c0.7,0,1.1-0.1,1.1-0.1c0.6-0.1,1.1-0.3,1-0.6c0-0.2-0.5-0.4-0.9-0.4
						c0,0-0.4,0-1-0.1c-0.7-0.1-1.7-0.1-3-0.2c-1.3-0.1-2.9-0.1-4.7-0.3c-1.8-0.1-3.9-0.1-6.1-0.2c-2.2-0.1-4.7-0.1-7.3-0.1
						s-5.3,0-8.1,0.1c-2.8,0.1-5.7,0.1-8.7,0.1s-6,0.1-8.9,0.2c-6,0.1-12,0.3-17.6,0.4c-5.7,0.1-10.8,0.2-15.4,0.3
						c-4.5,0.1-8.3,0.1-10.9,0.2c-2.6,0-4.1,0-4.1,0c-0.6,0-1.1,0.2-1.1,0.5C416.8,480.6,417.3,480.8,418.1,480.8
						C418,480.8,418,480.8,418.1,480.8"/>
				</g>
				<g>
					<g>
						<path class="st2" d="M418.1,480.8c0,0,1.6-0.1,4.1-0.1c2.6-0.1,6.4-0.1,10.9-0.2c4.5,0,9.8-0.1,15.4-0.1s11.6,0.1,17.6,0.1
							c3,0,6,0.1,8.9,0.1s5.9,0.1,8.7,0.1c2.8,0,5.6,0,8.1,0s5,0,7.2-0.1c2.3,0,4.2-0.1,6.2-0.1c1.8-0.1,3.4-0.1,4.7-0.2
							c1.3-0.1,2.4-0.1,3-0.1c0.7,0,1.1-0.1,1.1-0.1c0.6-0.1,1.1-0.3,1-0.6c0-0.2-0.5-0.4-0.9-0.4c0,0-0.4,0-1-0.1
							c-0.7-0.1-1.7-0.1-3-0.2c-1.3-0.1-2.9-0.1-4.7-0.3c-1.8-0.1-3.9-0.1-6.1-0.2c-2.2-0.1-4.7-0.1-7.3-0.1s-5.3,0-8.1,0.1
							c-2.8,0.1-5.7,0.1-8.7,0.1s-6,0.1-8.9,0.2c-6,0.1-12,0.3-17.6,0.4c-5.7,0.1-10.8,0.2-15.4,0.3c-4.5,0.1-8.3,0.1-10.9,0.2
							c-2.6,0-4.1,0-4.1,0c-0.6,0-1.1,0.2-1.1,0.5C416.8,480.6,417.3,480.8,418.1,480.8C418,480.8,418,480.8,418.1,480.8"/>
					</g>
				</g>
			</g>
			<g>
				<g>
					<path id="bHPvHQc13_6_" class="st1" d="M513.3,479.6c0,0,0.1-0.7,0.1-1.8c0.1-1.1,0.1-2.7,0.2-4.6c0-1.9-0.2-4.1-0.3-6.5
						c0-2.4-0.2-5-0.4-7.5c-0.1-1.3-0.2-2.5-0.3-3.8c-0.1-1.3-0.2-2.5-0.2-3.8c-0.1-1.2-0.1-2.4-0.1-3.4c0-1.1,0-2.2,0-3.1
						c0-1,0.1-1.8,0.1-2.6c0.1-0.8,0.2-1.5,0.2-2c0.1-0.6,0.2-1,0.3-1.3c0-0.3,0.2-0.4,0.2-0.4c0.1-0.3,0.6-0.4,1-0.4
						c0.4,0,0.7,0.2,0.8,0.4c0,0,0,0.2,0.2,0.4c0.1,0.3-0.2-0.6-0.1-0.1c0.2,0.6-0.1-0.6,0,0.1c0.1,0.7,0-0.1,0.1,0.9
						c0.1,1,0.1,3.1,0.1,4.3s0.1,4.7,0,6c0,1.3,0.2,3.6,0.1,4.9c-0.2,2.6,0,9-0.1,11.4c-0.1,2.4,0.3,4.6,0.1,6.5
						c-0.1,1.9-0.2,3.6-0.2,4.6s0,1.7,0,1.7c0,0.3-0.4,0.5-0.9,0.5C513.7,480.1,513.4,479.9,513.3,479.6
						C513.4,479.6,513.4,479.6,513.3,479.6"/>
				</g>
				<g>
					<g>
						<path class="st2" d="M513.3,479.6c0,0,0.1-0.7,0.1-1.8c0.1-1.1,0.1-2.7,0.2-4.6c0-1.9-0.2-4.1-0.3-6.5c0-2.4-0.2-5-0.4-7.5
							c-0.1-1.3-0.2-2.5-0.3-3.8c-0.1-1.3-0.2-2.5-0.2-3.8c-0.1-1.2-0.1-2.4-0.1-3.4c0-1.1,0-2.2,0-3.1c0-1,0.1-1.8,0.1-2.6
							c0.1-0.8,0.2-1.5,0.2-2c0.1-0.6,0.2-1,0.3-1.3c0-0.3,0.2-0.4,0.2-0.4c0.1-0.3,0.6-0.4,1-0.4c0.4,0,0.7,0.2,0.8,0.4
							c0,0,0,0.2,0.2,0.4c0.1,0.3-0.2-0.6-0.1-0.1c0.2,0.6-0.1-0.6,0,0.1c0.1,0.7,0-0.1,0.1,0.9c0.1,1,0.1,3.1,0.1,4.3s0.1,4.7,0,6
							c0,1.3,0.2,3.6,0.1,4.9c-0.2,2.6,0,9-0.1,11.4c-0.1,2.4,0.3,4.6,0.1,6.5c-0.1,1.9-0.2,3.6-0.2,4.6s0,1.7,0,1.7
							c0,0.3-0.4,0.5-0.9,0.5C513.7,480.1,513.4,479.9,513.3,479.6C513.4,479.6,513.4,479.6,513.3,479.6"/>
					</g>
				</g>
			</g>
		</g>
		<g>
			<g>
				<path id="c7z7e1BDi2_6_" class="st1" d="M416.9,480.2c0,0,0-0.7,0.1-1.8c0.1-1.1,0.1-2.7,0.2-4.7c0-1.9-0.1-4.2-0.3-6.6
					c0-2.4-0.3-5-0.4-7.6c-0.1-1.3-0.2-2.5-0.3-3.8s-0.2-2.5-0.2-3.8c-0.1-1.2-0.1-2.4-0.1-3.5s0-2.2,0-3.1c0-1,0.1-1.8,0.1-2.7
					c0.1-0.8,0.2-1.5,0.2-2c0.1-0.6,0.2-1,0.3-1.3c0-0.3,0.2-0.4,0.2-0.4c0.1-0.3,0.6-0.4,1-0.4s0.7,0.2,0.8,0.4c0,0,0,0.2,0.2,0.4
					c0.1,0.3-0.2-0.6-0.1-0.1c0.2,0.6-0.1-0.6,0,0.1c0.1,0.8,0-0.1,0.1,0.9s0.1,3.1,0.1,4.4c0,1.2,0.1,4.8,0,6c0,1.3,0.2,3.6,0.1,5
					c-0.2,2.6,0,9-0.1,11.4s0.3,4.6,0.1,6.6c-0.1,2-0.2,3.6-0.2,4.7s0,1.8,0,1.8c0,0.3-0.4,0.5-0.9,0.5
					C417.4,480.8,417,480.6,416.9,480.2C417,480.2,417,480.2,416.9,480.2"/>
			</g>
			<g>
				<g>
					<path class="st2" d="M416.9,480.2c0,0,0-0.7,0.1-1.8c0.1-1.1,0.1-2.7,0.2-4.7c0-1.9-0.1-4.2-0.3-6.6c0-2.4-0.3-5-0.4-7.6
						c-0.1-1.3-0.2-2.5-0.3-3.8s-0.2-2.5-0.2-3.8c-0.1-1.2-0.1-2.4-0.1-3.5s0-2.2,0-3.1c0-1,0.1-1.8,0.1-2.7c0.1-0.8,0.2-1.5,0.2-2
						c0.1-0.6,0.2-1,0.3-1.3c0-0.3,0.2-0.4,0.2-0.4c0.1-0.3,0.6-0.4,1-0.4s0.7,0.2,0.8,0.4c0,0,0,0.2,0.2,0.4
						c0.1,0.3-0.2-0.6-0.1-0.1c0.2,0.6-0.1-0.6,0,0.1c0.1,0.8,0-0.1,0.1,0.9s0.1,3.1,0.1,4.4c0,1.2,0.1,4.8,0,6c0,1.3,0.2,3.6,0.1,5
						c-0.2,2.6,0,9-0.1,11.4s0.3,4.6,0.1,6.6c-0.1,2-0.2,3.6-0.2,4.7s0,1.8,0,1.8c0,0.3-0.4,0.5-0.9,0.5
						C417.4,480.8,417,480.6,416.9,480.2C417,480.2,417,480.2,416.9,480.2"/>
				</g>
			</g>
		</g>
	</g>
	<g id="b3tveFeZ5t_6_">
		<g>
			<text transform="matrix(1 0 0 1 443.4779 465.1616)" class="st1 st3 st4">value</text>
		</g>
	</g>
	<g>
		<g>
			<g>
				<g>
					<path id="a1Y7jzatDS_7_" class="st1" d="M633.3,522.1c0,0-1.6,0-4.1-0.1c-2.6-0.1-6.4,0-10.9-0.1c-4.5,0.1-9.8,0-15.4,0.1
						c-5.6,0.1-11.6,0.2-17.6,0.3c-3,0.1-6,0.1-8.9,0.2c-2.9,0.1-5.9,0.1-8.7,0.2c-2.8,0.1-5.6,0.1-8.1,0.1s-5,0.1-7.2,0
						c-2.3,0-4.3-0.1-6.2-0.1c-1.8-0.1-3.4-0.1-4.7-0.1c-1.3-0.1-2.4-0.1-3-0.1c-0.7,0-1.1-0.1-1.1-0.1c-0.7-0.1-1.1-0.3-1-0.6
						c0-0.2,0.4-0.4,0.9-0.4c0,0,0.4,0,1-0.1c0.7-0.1,1.7-0.1,3-0.3c1.3-0.1,2.9-0.2,4.7-0.3s3.9-0.2,6.1-0.3s4.7-0.1,7.3-0.1
						s5.3-0.1,8.1-0.1s5.7,0,8.7,0.1c3,0,6,0.1,8.9,0.1c6,0.1,12,0.2,17.6,0.3c5.7,0.1,10.8,0.1,15.4,0.2c4.5,0,8.3,0.1,10.9,0.1
						c2.6,0,4.1,0,4.1,0c0.6,0,1.1,0.2,1.1,0.4C634.6,521.9,634.1,522.1,633.3,522.1C633.4,522.1,633.4,522.1,633.3,522.1"/>
				</g>
				<g>
					<g>
						<path class="st2" d="M633.3,522.1c0,0-1.6,0-4.1-0.1c-2.6-0.1-6.4,0-10.9-0.1c-4.5,0.1-9.8,0-15.4,0.1
							c-5.6,0.1-11.6,0.2-17.6,0.3c-3,0.1-6,0.1-8.9,0.2c-2.9,0.1-5.9,0.1-8.7,0.2c-2.8,0.1-5.6,0.1-8.1,0.1s-5,0.1-7.2,0
							c-2.3,0-4.3-0.1-6.2-0.1c-1.8-0.1-3.4-0.1-4.7-0.1c-1.3-0.1-2.4-0.1-3-0.1c-0.7,0-1.1-0.1-1.1-0.1c-0.7-0.1-1.1-0.3-1-0.6
							c0-0.2,0.4-0.4,0.9-0.4c0,0,0.4,0,1-0.1c0.7-0.1,1.7-0.1,3-0.3c1.3-0.1,2.9-0.2,4.7-0.3s3.9-0.2,6.1-0.3s4.7-0.1,7.3-0.1
							s5.3-0.1,8.1-0.1s5.7,0,8.7,0.1c3,0,6,0.1,8.9,0.1c6,0.1,12,0.2,17.6,0.3c5.7,0.1,10.8,0.1,15.4,0.2c4.5,0,8.3,0.1,10.9,0.1
							c2.6,0,4.1,0,4.1,0c0.6,0,1.1,0.2,1.1,0.4C634.6,521.9,634.1,522.1,633.3,522.1C633.4,522.1,633.4,522.1,633.3,522.1"/>
					</g>
				</g>
			</g>
			<g>
				<g>
					<path id="a8OtUzgEu8_7_" class="st1" d="M537.7,563.8c0,0,1.6-0.1,4.1-0.1c2.6-0.1,6.4-0.1,10.9-0.2c4.5,0,9.8-0.1,15.4-0.1
						c5.6,0,11.6,0.1,17.6,0.1c3,0,6,0.1,8.9,0.1c2.9,0,5.9,0.1,8.7,0.1s5.6,0,8.1,0s5,0,7.2-0.1c2.3,0,4.2-0.1,6.2-0.1
						c1.8-0.1,3.4-0.1,4.7-0.2c1.3-0.1,2.4-0.1,3-0.1c0.7,0,1.1-0.1,1.1-0.1c0.6-0.1,1.1-0.3,1-0.6c0-0.2-0.5-0.4-0.9-0.4
						c0,0-0.4,0-1-0.1c-0.7-0.1-1.7-0.1-3-0.2c-1.3-0.1-2.9-0.1-4.7-0.3c-1.8-0.1-3.9-0.1-6.1-0.2c-2.2-0.1-4.7-0.1-7.3-0.1
						s-5.3,0-8.1,0.1s-5.7,0.1-8.7,0.1s-6,0.1-8.9,0.2c-6,0.1-12,0.3-17.6,0.4c-5.7,0.1-10.8,0.2-15.4,0.3
						c-4.5,0.1-8.3,0.1-10.9,0.2c-2.6,0-4.1,0-4.1,0c-0.6,0-1.1,0.2-1.1,0.5C536.4,563.6,536.9,563.8,537.7,563.8
						C537.6,563.8,537.6,563.8,537.7,563.8"/>
				</g>
				<g>
					<g>
						<path class="st2" d="M537.7,563.8c0,0,1.6-0.1,4.1-0.1c2.6-0.1,6.4-0.1,10.9-0.2c4.5,0,9.8-0.1,15.4-0.1
							c5.6,0,11.6,0.1,17.6,0.1c3,0,6,0.1,8.9,0.1c2.9,0,5.9,0.1,8.7,0.1s5.6,0,8.1,0s5,0,7.2-0.1c2.3,0,4.2-0.1,6.2-0.1
							c1.8-0.1,3.4-0.1,4.7-0.2c1.3-0.1,2.4-0.1,3-0.1c0.7,0,1.1-0.1,1.1-0.1c0.6-0.1,1.1-0.3,1-0.6c0-0.2-0.5-0.4-0.9-0.4
							c0,0-0.4,0-1-0.1c-0.7-0.1-1.7-0.1-3-0.2c-1.3-0.1-2.9-0.1-4.7-0.3c-1.8-0.1-3.9-0.1-6.1-0.2c-2.2-0.1-4.7-0.1-7.3-0.1
							s-5.3,0-8.1,0.1s-5.7,0.1-8.7,0.1s-6,0.1-8.9,0.2c-6,0.1-12,0.3-17.6,0.4c-5.7,0.1-10.8,0.2-15.4,0.3
							c-4.5,0.1-8.3,0.1-10.9,0.2c-2.6,0-4.1,0-4.1,0c-0.6,0-1.1,0.2-1.1,0.5C536.4,563.6,536.9,563.8,537.7,563.8
							C537.6,563.8,537.6,563.8,537.7,563.8"/>
					</g>
				</g>
			</g>
			<g>
				<g>
					<path id="bHPvHQc13_7_" class="st1" d="M632.9,562.6c0,0,0.1-0.7,0.1-1.8c0.1-1.1,0.1-2.7,0.2-4.6c0-1.9-0.2-4.1-0.3-6.5
						c0-2.4-0.2-5-0.4-7.5c-0.1-1.3-0.2-2.5-0.3-3.8c-0.1-1.3-0.2-2.5-0.2-3.8c-0.1-1.2-0.1-2.4-0.1-3.4c0-1.1,0-2.2,0-3.1
						c0-1,0.1-1.8,0.1-2.6c0.1-0.8,0.2-1.5,0.2-2c0.1-0.6,0.2-1,0.3-1.3c0-0.3,0.2-0.4,0.2-0.4c0.1-0.3,0.6-0.4,1-0.4
						c0.4,0,0.7,0.2,0.8,0.4c0,0,0,0.2,0.2,0.4c0.1,0.3-0.2-0.6-0.1-0.1c0.2,0.6-0.1-0.6,0,0.1c0.1,0.7,0-0.1,0.1,0.9
						c0.1,1,0.1,3.1,0.1,4.3s0.1,4.7,0,6c0,1.3,0.2,3.6,0.1,4.9c-0.2,2.6,0,9-0.1,11.4c-0.1,2.4,0.3,4.6,0.1,6.5
						c-0.1,1.9-0.2,3.6-0.2,4.6c0,1.1,0,1.7,0,1.7c0,0.3-0.4,0.5-0.9,0.5C633.3,563.1,633,562.9,632.9,562.6
						C633,562.6,633,562.6,632.9,562.6"/>
				</g>
				<g>
					<g>
						<path class="st2" d="M632.9,562.6c0,0,0.1-0.7,0.1-1.8c0.1-1.1,0.1-2.7,0.2-4.6c0-1.9-0.2-4.1-0.3-6.5c0-2.4-0.2-5-0.4-7.5
							c-0.1-1.3-0.2-2.5-0.3-3.8c-0.1-1.3-0.2-2.5-0.2-3.8c-0.1-1.2-0.1-2.4-0.1-3.4c0-1.1,0-2.2,0-3.1c0-1,0.1-1.8,0.1-2.6
							c0.1-0.8,0.2-1.5,0.2-2c0.1-0.6,0.2-1,0.3-1.3c0-0.3,0.2-0.4,0.2-0.4c0.1-0.3,0.6-0.4,1-0.4c0.4,0,0.7,0.2,0.8,0.4
							c0,0,0,0.2,0.2,0.4c0.1,0.3-0.2-0.6-0.1-0.1c0.2,0.6-0.1-0.6,0,0.1c0.1,0.7,0-0.1,0.1,0.9c0.1,1,0.1,3.1,0.1,4.3s0.1,4.7,0,6
							c0,1.3,0.2,3.6,0.1,4.9c-0.2,2.6,0,9-0.1,11.4c-0.1,2.4,0.3,4.6,0.1,6.5c-0.1,1.9-0.2,3.6-0.2,4.6c0,1.1,0,1.7,0,1.7
							c0,0.3-0.4,0.5-0.9,0.5C633.3,563.1,633,562.9,632.9,562.6C633,562.6,633,562.6,632.9,562.6"/>
					</g>
				</g>
			</g>
		</g>
		<g>
			<g>
				<path id="c7z7e1BDi2_7_" class="st1" d="M536.5,563.2c0,0,0-0.7,0.1-1.8c0.1-1.1,0.1-2.7,0.2-4.7c0-1.9-0.1-4.2-0.3-6.6
					c0-2.4-0.3-5-0.4-7.6c-0.1-1.3-0.2-2.5-0.3-3.8s-0.2-2.5-0.2-3.8c-0.1-1.2-0.1-2.4-0.1-3.5s0-2.2,0-3.1s0.1-1.8,0.1-2.7
					c0.1-0.8,0.2-1.5,0.2-2c0.1-0.6,0.2-1,0.3-1.3c0-0.3,0.2-0.4,0.2-0.4c0.1-0.3,0.6-0.4,1-0.4c0.4,0,0.7,0.2,0.8,0.4
					c0,0,0,0.2,0.2,0.4c0.1,0.3-0.2-0.6-0.1-0.1c0.2,0.6-0.1-0.6,0,0.1c0.1,0.7,0-0.1,0.1,0.9c0.1,1,0.1,3.1,0.1,4.4
					c0,1.2,0.1,4.8,0,6c0,1.3,0.2,3.6,0.1,5c-0.2,2.6,0,9-0.1,11.4c-0.1,2.4,0.3,4.6,0.1,6.6c-0.1,2-0.2,3.6-0.2,4.7s0,1.8,0,1.8
					c0,0.3-0.4,0.5-0.9,0.5C537,563.8,536.6,563.6,536.5,563.2C536.6,563.3,536.6,563.3,536.5,563.2"/>
			</g>
			<g>
				<g>
					<path class="st2" d="M536.5,563.2c0,0,0-0.7,0.1-1.8c0.1-1.1,0.1-2.7,0.2-4.7c0-1.9-0.1-4.2-0.3-6.6c0-2.4-0.3-5-0.4-7.6
						c-0.1-1.3-0.2-2.5-0.3-3.8s-0.2-2.5-0.2-3.8c-0.1-1.2-0.1-2.4-0.1-3.5s0-2.2,0-3.1s0.1-1.8,0.1-2.7c0.1-0.8,0.2-1.5,0.2-2
						c0.1-0.6,0.2-1,0.3-1.3c0-0.3,0.2-0.4,0.2-0.4c0.1-0.3,0.6-0.4,1-0.4c0.4,0,0.7,0.2,0.8,0.4c0,0,0,0.2,0.2,0.4
						c0.1,0.3-0.2-0.6-0.1-0.1c0.2,0.6-0.1-0.6,0,0.1c0.1,0.7,0-0.1,0.1,0.9c0.1,1,0.1,3.1,0.1,4.4c0,1.2,0.1,4.8,0,6
						c0,1.3,0.2,3.6,0.1,5c-0.2,2.6,0,9-0.1,11.4c-0.1,2.4,0.3,4.6,0.1,6.6c-0.1,2-0.2,3.6-0.2,4.7s0,1.8,0,1.8
						c0,0.3-0.4,0.5-0.9,0.5C537,563.8,536.6,563.6,536.5,563.2C536.6,563.3,536.6,563.3,536.5,563.2"/>
				</g>
			</g>
		</g>
	</g>
	<g id="b3tveFeZ5t_7_">
		<g>
			<text transform="matrix(1 0 0 1 570.1637 548.1807)" class="st1 st3 st4">text</text>
		</g>
	</g>
	<g>
		<g>
			<g>
				<g>
					<path id="a1Y7jzatDS_8_" class="st1" d="M512.9,522.1c0,0-1.6,0-4.1-0.1c-2.6-0.1-6.4,0-10.9-0.1c-4.5,0.1-9.8,0-15.4,0.1
						s-11.6,0.2-17.6,0.3c-3,0.1-6,0.1-8.9,0.2c-2.9,0.1-5.9,0.1-8.7,0.2c-2.8,0.1-5.6,0.1-8.1,0.1s-5,0.1-7.2,0
						c-2.3,0-4.3-0.1-6.2-0.1c-1.8-0.1-3.4-0.1-4.7-0.1c-1.3,0-2.4-0.1-3-0.1c-0.7,0-1.1-0.1-1.1-0.1c-0.7-0.1-1.1-0.3-1-0.6
						c0-0.2,0.4-0.4,0.9-0.4c0,0,0.4,0,1-0.1c0.7-0.1,1.7-0.1,3-0.3c1.3-0.1,2.9-0.2,4.7-0.3c1.8-0.1,3.9-0.2,6.1-0.3
						c2.2-0.1,4.7-0.1,7.3-0.1s5.3-0.1,8.1-0.1c2.8,0,5.7,0,8.7,0.1c3,0,6,0.1,8.9,0.1c6,0.1,12,0.2,17.6,0.3
						c5.7,0.1,10.8,0.1,15.4,0.2c4.5,0,8.3,0.1,10.9,0.1c2.6,0,4.1,0,4.1,0c0.6,0,1.1,0.2,1.1,0.4
						C514.2,521.9,513.7,522.1,512.9,522.1C513,522.1,513,522.1,512.9,522.1"/>
				</g>
				<g>
					<g>
						<path class="st2" d="M512.9,522.1c0,0-1.6,0-4.1-0.1c-2.6-0.1-6.4,0-10.9-0.1c-4.5,0.1-9.8,0-15.4,0.1s-11.6,0.2-17.6,0.3
							c-3,0.1-6,0.1-8.9,0.2c-2.9,0.1-5.9,0.1-8.7,0.2c-2.8,0.1-5.6,0.1-8.1,0.1s-5,0.1-7.2,0c-2.3,0-4.3-0.1-6.2-0.1
							c-1.8-0.1-3.4-0.1-4.7-0.1c-1.3,0-2.4-0.1-3-0.1c-0.7,0-1.1-0.1-1.1-0.1c-0.7-0.1-1.1-0.3-1-0.6c0-0.2,0.4-0.4,0.9-0.4
							c0,0,0.4,0,1-0.1c0.7-0.1,1.7-0.1,3-0.3c1.3-0.1,2.9-0.2,4.7-0.3c1.8-0.1,3.9-0.2,6.1-0.3c2.2-0.1,4.7-0.1,7.3-0.1
							s5.3-0.1,8.1-0.1c2.8,0,5.7,0,8.7,0.1c3,0,6,0.1,8.9,0.1c6,0.1,12,0.2,17.6,0.3c5.7,0.1,10.8,0.1,15.4,0.2
							c4.5,0,8.3,0.1,10.9,0.1c2.6,0,4.1,0,4.1,0c0.6,0,1.1,0.2,1.1,0.4C514.2,521.9,513.7,522.1,512.9,522.1
							C513,522.1,513,522.1,512.9,522.1"/>
					</g>
				</g>
			</g>
			<g>
				<g>
					<path id="a8OtUzgEu8_8_" class="st1" d="M417.3,563.8c0,0,1.6-0.1,4.1-0.1c2.6-0.1,6.4-0.1,10.9-0.2c4.5,0,9.8-0.1,15.4-0.1
						c5.6,0,11.6,0.1,17.6,0.1c3,0,6,0.1,8.9,0.1s5.9,0.1,8.7,0.1c2.8,0,5.6,0,8.1,0s5,0,7.2-0.1c2.3,0,4.2-0.1,6.2-0.1
						c1.8-0.1,3.4-0.1,4.7-0.2c1.3-0.1,2.4-0.1,3-0.1c0.7,0,1.1-0.1,1.1-0.1c0.6-0.1,1.1-0.3,1-0.6c0-0.2-0.5-0.4-0.9-0.4
						c0,0-0.4,0-1-0.1c-0.7-0.1-1.7-0.1-3-0.2c-1.3-0.1-2.9-0.1-4.7-0.3c-1.8-0.1-3.9-0.1-6.1-0.2c-2.2-0.1-4.7-0.1-7.3-0.1
						s-5.3,0-8.1,0.1c-2.8,0.1-5.7,0.1-8.7,0.1s-6,0.1-8.9,0.2c-6,0.1-12,0.3-17.6,0.4c-5.7,0.1-10.8,0.2-15.4,0.3
						c-4.5,0.1-8.3,0.1-10.9,0.2c-2.6,0-4.1,0-4.1,0c-0.6,0-1.1,0.2-1.1,0.5C416,563.6,416.5,563.8,417.3,563.8
						C417.2,563.8,417.2,563.8,417.3,563.8"/>
				</g>
				<g>
					<g>
						<path class="st2" d="M417.3,563.8c0,0,1.6-0.1,4.1-0.1c2.6-0.1,6.4-0.1,10.9-0.2c4.5,0,9.8-0.1,15.4-0.1
							c5.6,0,11.6,0.1,17.6,0.1c3,0,6,0.1,8.9,0.1s5.9,0.1,8.7,0.1c2.8,0,5.6,0,8.1,0s5,0,7.2-0.1c2.3,0,4.2-0.1,6.2-0.1
							c1.8-0.1,3.4-0.1,4.7-0.2c1.3-0.1,2.4-0.1,3-0.1c0.7,0,1.1-0.1,1.1-0.1c0.6-0.1,1.1-0.3,1-0.6c0-0.2-0.5-0.4-0.9-0.4
							c0,0-0.4,0-1-0.1c-0.7-0.1-1.7-0.1-3-0.2c-1.3-0.1-2.9-0.1-4.7-0.3c-1.8-0.1-3.9-0.1-6.1-0.2c-2.2-0.1-4.7-0.1-7.3-0.1
							s-5.3,0-8.1,0.1c-2.8,0.1-5.7,0.1-8.7,0.1s-6,0.1-8.9,0.2c-6,0.1-12,0.3-17.6,0.4c-5.7,0.1-10.8,0.2-15.4,0.3
							c-4.5,0.1-8.3,0.1-10.9,0.2c-2.6,0-4.1,0-4.1,0c-0.6,0-1.1,0.2-1.1,0.5C416,563.6,416.5,563.8,417.3,563.8
							C417.2,563.8,417.2,563.8,417.3,563.8"/>
					</g>
				</g>
			</g>
			<g>
				<g>
					<path id="bHPvHQc13_8_" class="st1" d="M512.5,562.6c0,0,0.1-0.7,0.1-1.8c0.1-1.1,0.1-2.7,0.2-4.6c0-1.9-0.2-4.1-0.3-6.5
						c0-2.4-0.2-5-0.4-7.5c-0.1-1.3-0.2-2.5-0.3-3.8s-0.2-2.5-0.2-3.8c-0.1-1.2-0.1-2.4-0.1-3.4c0-1.1,0-2.2,0-3.1
						c0-1,0.1-1.8,0.1-2.6c0.1-0.8,0.2-1.5,0.2-2c0.1-0.6,0.2-1,0.3-1.3c0-0.3,0.2-0.4,0.2-0.4c0.1-0.3,0.6-0.4,1-0.4
						c0.4,0,0.7,0.2,0.8,0.4c0,0,0,0.2,0.2,0.4c0.1,0.3-0.2-0.6-0.1-0.1c0.2,0.6-0.1-0.6,0,0.1c0.1,0.7,0-0.1,0.1,0.9
						c0.1,1,0.1,3.1,0.1,4.3s0.1,4.7,0,6c0,1.3,0.2,3.6,0.1,4.9c-0.2,2.6,0,9-0.1,11.4c-0.1,2.4,0.3,4.6,0.1,6.5
						c-0.1,1.9-0.2,3.6-0.2,4.6c0,1.1,0,1.7,0,1.7c0,0.3-0.4,0.5-0.9,0.5C512.9,563.1,512.6,562.9,512.5,562.6
						C512.6,562.6,512.6,562.6,512.5,562.6"/>
				</g>
				<g>
					<g>
						<path class="st2" d="M512.5,562.6c0,0,0.1-0.7,0.1-1.8c0.1-1.1,0.1-2.7,0.2-4.6c0-1.9-0.2-4.1-0.3-6.5c0-2.4-0.2-5-0.4-7.5
							c-0.1-1.3-0.2-2.5-0.3-3.8s-0.2-2.5-0.2-3.8c-0.1-1.2-0.1-2.4-0.1-3.4c0-1.1,0-2.2,0-3.1c0-1,0.1-1.8,0.1-2.6
							c0.1-0.8,0.2-1.5,0.2-2c0.1-0.6,0.2-1,0.3-1.3c0-0.3,0.2-0.4,0.2-0.4c0.1-0.3,0.6-0.4,1-0.4c0.4,0,0.7,0.2,0.8,0.4
							c0,0,0,0.2,0.2,0.4c0.1,0.3-0.2-0.6-0.1-0.1c0.2,0.6-0.1-0.6,0,0.1c0.1,0.7,0-0.1,0.1,0.9c0.1,1,0.1,3.1,0.1,4.3s0.1,4.7,0,6
							c0,1.3,0.2,3.6,0.1,4.9c-0.2,2.6,0,9-0.1,11.4c-0.1,2.4,0.3,4.6,0.1,6.5c-0.1,1.9-0.2,3.6-0.2,4.6c0,1.1,0,1.7,0,1.7
							c0,0.3-0.4,0.5-0.9,0.5C512.9,563.1,512.6,562.9,512.5,562.6C512.6,562.6,512.6,562.6,512.5,562.6"/>
					</g>
				</g>
			</g>
		</g>
		<g>
			<g>
				<path id="c7z7e1BDi2_8_" class="st1" d="M416.1,563.2c0,0,0-0.7,0.1-1.8s0.1-2.7,0.2-4.7c0-1.9-0.1-4.2-0.3-6.6
					c0-2.4-0.3-5-0.4-7.6c-0.1-1.3-0.2-2.5-0.3-3.8s-0.2-2.5-0.2-3.8c-0.1-1.2-0.1-2.4-0.1-3.5s0-2.2,0-3.1s0.1-1.8,0.1-2.7
					c0.1-0.8,0.2-1.5,0.2-2c0.1-0.6,0.2-1,0.3-1.3c0-0.3,0.2-0.4,0.2-0.4c0.1-0.3,0.6-0.4,1-0.4s0.7,0.2,0.8,0.4c0,0,0,0.2,0.2,0.4
					c0.1,0.3-0.2-0.6-0.1-0.1c0.2,0.6-0.1-0.6,0,0.1s0-0.1,0.1,0.9s0.1,3.1,0.1,4.4c0,1.2,0.1,4.8,0,6c0,1.3,0.2,3.6,0.1,5
					c-0.2,2.6,0,9-0.1,11.4s0.3,4.6,0.1,6.6c-0.1,2-0.2,3.6-0.2,4.7c0,1.1,0,1.8,0,1.8c0,0.3-0.4,0.5-0.9,0.5
					C416.6,563.8,416.2,563.6,416.1,563.2C416.2,563.3,416.2,563.3,416.1,563.2"/>
			</g>
			<g>
				<g>
					<path class="st2" d="M416.1,563.2c0,0,0-0.7,0.1-1.8s0.1-2.7,0.2-4.7c0-1.9-0.1-4.2-0.3-6.6c0-2.4-0.3-5-0.4-7.6
						c-0.1-1.3-0.2-2.5-0.3-3.8s-0.2-2.5-0.2-3.8c-0.1-1.2-0.1-2.4-0.1-3.5s0-2.2,0-3.1s0.1-1.8,0.1-2.7c0.1-0.8,0.2-1.5,0.2-2
						c0.1-0.6,0.2-1,0.3-1.3c0-0.3,0.2-0.4,0.2-0.4c0.1-0.3,0.6-0.4,1-0.4s0.7,0.2,0.8,0.4c0,0,0,0.2,0.2,0.4
						c0.1,0.3-0.2-0.6-0.1-0.1c0.2,0.6-0.1-0.6,0,0.1s0-0.1,0.1,0.9s0.1,3.1,0.1,4.4c0,1.2,0.1,4.8,0,6c0,1.3,0.2,3.6,0.1,5
						c-0.2,2.6,0,9-0.1,11.4s0.3,4.6,0.1,6.6c-0.1,2-0.2,3.6-0.2,4.7c0,1.1,0,1.8,0,1.8c0,0.3-0.4,0.5-0.9,0.5
						C416.6,563.8,416.2,563.6,416.1,563.2C416.2,563.3,416.2,563.3,416.1,563.2"/>
				</g>
			</g>
		</g>
	</g>
	<g id="b3tveFeZ5t_8_">
		<g>
			<text transform="matrix(1 0 0 1 436.6766 548.1812)" class="st1 st3 st4">number</text>
		</g>
	</g>
	<g>
		<g>
			<g>
				<g>
					<path id="a1Y7jzatDS_9_" class="st1" d="M390.8,522.1c0,0-1.6,0-4.1-0.1c-2.6-0.1-6.4,0-10.9-0.1c-4.5,0.1-9.8,0-15.4,0.1
						s-11.6,0.2-17.6,0.3c-3,0.1-6,0.1-8.9,0.2c-2.9,0.1-5.9,0.1-8.7,0.2c-2.8,0.1-5.6,0.1-8.1,0.1s-5,0.1-7.2,0
						c-2.3,0-4.3-0.1-6.2-0.1c-1.8-0.1-3.4-0.1-4.7-0.1c-1.3,0-2.4-0.1-3-0.1c-0.7,0-1.1-0.1-1.1-0.1c-0.7-0.1-1.1-0.3-1-0.6
						c0-0.2,0.4-0.4,0.9-0.4c0,0,0.4,0,1-0.1c0.7-0.1,1.7-0.1,3-0.3c1.3-0.1,2.9-0.2,4.7-0.3c1.8-0.1,3.9-0.2,6.1-0.3
						c2.2-0.1,4.7-0.1,7.3-0.1s5.3-0.1,8.1-0.1c2.8,0,5.7,0,8.7,0.1c3,0,6,0.1,8.9,0.1c6,0.1,12,0.2,17.6,0.3
						c5.7,0.1,10.8,0.1,15.4,0.2c4.5,0,8.3,0.1,10.9,0.1c2.6,0,4.1,0,4.1,0c0.6,0,1.1,0.2,1.1,0.4
						C392.1,521.9,391.6,522.1,390.8,522.1C390.9,522.1,390.9,522.1,390.8,522.1"/>
				</g>
				<g>
					<g>
						<path class="st2" d="M390.8,522.1c0,0-1.6,0-4.1-0.1c-2.6-0.1-6.4,0-10.9-0.1c-4.5,0.1-9.8,0-15.4,0.1s-11.6,0.2-17.6,0.3
							c-3,0.1-6,0.1-8.9,0.2c-2.9,0.1-5.9,0.1-8.7,0.2c-2.8,0.1-5.6,0.1-8.1,0.1s-5,0.1-7.2,0c-2.3,0-4.3-0.1-6.2-0.1
							c-1.8-0.1-3.4-0.1-4.7-0.1c-1.3,0-2.4-0.1-3-0.1c-0.7,0-1.1-0.1-1.1-0.1c-0.7-0.1-1.1-0.3-1-0.6c0-0.2,0.4-0.4,0.9-0.4
							c0,0,0.4,0,1-0.1c0.7-0.1,1.7-0.1,3-0.3c1.3-0.1,2.9-0.2,4.7-0.3c1.8-0.1,3.9-0.2,6.1-0.3c2.2-0.1,4.7-0.1,7.3-0.1
							s5.3-0.1,8.1-0.1c2.8,0,5.7,0,8.7,0.1c3,0,6,0.1,8.9,0.1c6,0.1,12,0.2,17.6,0.3c5.7,0.1,10.8,0.1,15.4,0.2
							c4.5,0,8.3,0.1,10.9,0.1c2.6,0,4.1,0,4.1,0c0.6,0,1.1,0.2,1.1,0.4C392.1,521.9,391.6,522.1,390.8,522.1
							C390.9,522.1,390.9,522.1,390.8,522.1"/>
					</g>
				</g>
			</g>
			<g>
				<g>
					<path id="a8OtUzgEu8_9_" class="st1" d="M295.2,563.8c0,0,1.6-0.1,4.1-0.1c2.6-0.1,6.4-0.1,10.9-0.2c4.5,0,9.8-0.1,15.4-0.1
						s11.6,0.1,17.6,0.1c3,0,6,0.1,8.9,0.1s5.9,0.1,8.7,0.1c2.8,0,5.6,0,8.1,0s5,0,7.2-0.1c2.3,0,4.2-0.1,6.2-0.1
						c1.8-0.1,3.4-0.1,4.7-0.2c1.3-0.1,2.4-0.1,3-0.1c0.7,0,1.1-0.1,1.1-0.1c0.6-0.1,1.1-0.3,1-0.6c0-0.2-0.5-0.4-0.9-0.4
						c0,0-0.4,0-1-0.1c-0.7-0.1-1.7-0.1-3-0.2c-1.3-0.1-2.9-0.1-4.7-0.3c-1.8-0.1-3.9-0.1-6.1-0.2c-2.2-0.1-4.7-0.1-7.3-0.1
						c-2.6,0-5.3,0-8.1,0.1c-2.8,0.1-5.7,0.1-8.7,0.1s-6,0.1-8.9,0.2c-6,0.1-12,0.3-17.6,0.4c-5.7,0.1-10.8,0.2-15.4,0.3
						c-4.5,0.1-8.3,0.1-10.9,0.2c-2.6,0-4.1,0-4.1,0c-0.6,0-1.1,0.2-1.1,0.5C293.9,563.6,294.4,563.8,295.2,563.8
						C295.1,563.8,295.1,563.8,295.2,563.8"/>
				</g>
				<g>
					<g>
						<path class="st2" d="M295.2,563.8c0,0,1.6-0.1,4.1-0.1c2.6-0.1,6.4-0.1,10.9-0.2c4.5,0,9.8-0.1,15.4-0.1s11.6,0.1,17.6,0.1
							c3,0,6,0.1,8.9,0.1s5.9,0.1,8.7,0.1c2.8,0,5.6,0,8.1,0s5,0,7.2-0.1c2.3,0,4.2-0.1,6.2-0.1c1.8-0.1,3.4-0.1,4.7-0.2
							c1.3-0.1,2.4-0.1,3-0.1c0.7,0,1.1-0.1,1.1-0.1c0.6-0.1,1.1-0.3,1-0.6c0-0.2-0.5-0.4-0.9-0.4c0,0-0.4,0-1-0.1
							c-0.7-0.1-1.7-0.1-3-0.2c-1.3-0.1-2.9-0.1-4.7-0.3c-1.8-0.1-3.9-0.1-6.1-0.2c-2.2-0.1-4.7-0.1-7.3-0.1c-2.6,0-5.3,0-8.1,0.1
							c-2.8,0.1-5.7,0.1-8.7,0.1s-6,0.1-8.9,0.2c-6,0.1-12,0.3-17.6,0.4c-5.7,0.1-10.8,0.2-15.4,0.3c-4.5,0.1-8.3,0.1-10.9,0.2
							c-2.6,0-4.1,0-4.1,0c-0.6,0-1.1,0.2-1.1,0.5C293.9,563.6,294.4,563.8,295.2,563.8C295.1,563.8,295.1,563.8,295.2,563.8"/>
					</g>
				</g>
			</g>
			<g>
				<g>
					<path id="bHPvHQc13_9_" class="st1" d="M390.4,562.6c0,0,0.1-0.7,0.1-1.8c0.1-1.1,0.1-2.7,0.2-4.6c0-1.9-0.2-4.1-0.3-6.5
						c0-2.4-0.2-5-0.4-7.5c-0.1-1.3-0.2-2.5-0.3-3.8s-0.2-2.5-0.2-3.8c-0.1-1.2-0.1-2.4-0.1-3.4c0-1.1,0-2.2,0-3.1
						c0-1,0.1-1.8,0.1-2.6c0.1-0.8,0.2-1.5,0.2-2c0.1-0.6,0.2-1,0.3-1.3c0-0.3,0.2-0.4,0.2-0.4c0.1-0.3,0.6-0.4,1-0.4
						s0.7,0.2,0.8,0.4c0,0,0,0.2,0.2,0.4c0.1,0.3-0.2-0.6-0.1-0.1c0.2,0.6-0.1-0.6,0,0.1c0.1,0.7,0-0.1,0.1,0.9s0.1,3.1,0.1,4.3
						s0.1,4.7,0,6c0,1.3,0.2,3.6,0.1,4.9c-0.2,2.6,0,9-0.1,11.4s0.3,4.6,0.1,6.5c-0.1,1.9-0.2,3.6-0.2,4.6c0,1.1,0,1.7,0,1.7
						c0,0.3-0.4,0.5-0.9,0.5C390.8,563.1,390.5,562.9,390.4,562.6C390.5,562.6,390.5,562.6,390.4,562.6"/>
				</g>
				<g>
					<g>
						<path class="st2" d="M390.4,562.6c0,0,0.1-0.7,0.1-1.8c0.1-1.1,0.1-2.7,0.2-4.6c0-1.9-0.2-4.1-0.3-6.5c0-2.4-0.2-5-0.4-7.5
							c-0.1-1.3-0.2-2.5-0.3-3.8s-0.2-2.5-0.2-3.8c-0.1-1.2-0.1-2.4-0.1-3.4c0-1.1,0-2.2,0-3.1c0-1,0.1-1.8,0.1-2.6
							c0.1-0.8,0.2-1.5,0.2-2c0.1-0.6,0.2-1,0.3-1.3c0-0.3,0.2-0.4,0.2-0.4c0.1-0.3,0.6-0.4,1-0.4s0.7,0.2,0.8,0.4
							c0,0,0,0.2,0.2,0.4c0.1,0.3-0.2-0.6-0.1-0.1c0.2,0.6-0.1-0.6,0,0.1c0.1,0.7,0-0.1,0.1,0.9s0.1,3.1,0.1,4.3s0.1,4.7,0,6
							c0,1.3,0.2,3.6,0.1,4.9c-0.2,2.6,0,9-0.1,11.4s0.3,4.6,0.1,6.5c-0.1,1.9-0.2,3.6-0.2,4.6c0,1.1,0,1.7,0,1.7
							c0,0.3-0.4,0.5-0.9,0.5C390.8,563.1,390.5,562.9,390.4,562.6C390.5,562.6,390.5,562.6,390.4,562.6"/>
					</g>
				</g>
			</g>
		</g>
		<g>
			<g>
				<path id="c7z7e1BDi2_9_" class="st1" d="M294,563.2c0,0,0-0.7,0.1-1.8s0.1-2.7,0.2-4.7c0-1.9-0.1-4.2-0.3-6.6
					c0-2.4-0.3-5-0.4-7.6c-0.1-1.3-0.2-2.5-0.3-3.8c-0.1-1.3-0.2-2.5-0.2-3.8c-0.1-1.2-0.1-2.4-0.1-3.5s0-2.2,0-3.1s0.1-1.8,0.1-2.7
					c0.1-0.8,0.2-1.5,0.2-2c0.1-0.6,0.2-1,0.3-1.3c0-0.3,0.2-0.4,0.2-0.4c0.1-0.3,0.6-0.4,1-0.4c0.4,0,0.7,0.2,0.8,0.4
					c0,0,0,0.2,0.2,0.4c0.1,0.3-0.2-0.6-0.1-0.1c0.2,0.6-0.1-0.6,0,0.1s0-0.1,0.1,0.9c0.1,1,0.1,3.1,0.1,4.4c0,1.2,0.1,4.8,0,6
					c0,1.3,0.2,3.6,0.1,5c-0.2,2.6,0,9-0.1,11.4c-0.1,2.4,0.3,4.6,0.1,6.6c-0.1,2-0.2,3.6-0.2,4.7c0,1.1,0,1.8,0,1.8
					c0,0.3-0.4,0.5-0.9,0.5C294.5,563.8,294.1,563.6,294,563.2C294.1,563.3,294.1,563.3,294,563.2"/>
			</g>
			<g>
				<g>
					<path class="st2" d="M294,563.2c0,0,0-0.7,0.1-1.8s0.1-2.7,0.2-4.7c0-1.9-0.1-4.2-0.3-6.6c0-2.4-0.3-5-0.4-7.6
						c-0.1-1.3-0.2-2.5-0.3-3.8c-0.1-1.3-0.2-2.5-0.2-3.8c-0.1-1.2-0.1-2.4-0.1-3.5s0-2.2,0-3.1s0.1-1.8,0.1-2.7
						c0.1-0.8,0.2-1.5,0.2-2c0.1-0.6,0.2-1,0.3-1.3c0-0.3,0.2-0.4,0.2-0.4c0.1-0.3,0.6-0.4,1-0.4c0.4,0,0.7,0.2,0.8,0.4
						c0,0,0,0.2,0.2,0.4c0.1,0.3-0.2-0.6-0.1-0.1c0.2,0.6-0.1-0.6,0,0.1s0-0.1,0.1,0.9c0.1,1,0.1,3.1,0.1,4.4c0,1.2,0.1,4.8,0,6
						c0,1.3,0.2,3.6,0.1,5c-0.2,2.6,0,9-0.1,11.4c-0.1,2.4,0.3,4.6,0.1,6.6c-0.1,2-0.2,3.6-0.2,4.7c0,1.1,0,1.8,0,1.8
						c0,0.3-0.4,0.5-0.9,0.5C294.5,563.8,294.1,563.6,294,563.2C294.1,563.3,294.1,563.3,294,563.2"/>
				</g>
			</g>
		</g>
	</g>
	<g id="b3tveFeZ5t_9_">
		<g>
			<text transform="matrix(1 0 0 1 302.4804 548.1807)" class="st1 st3 st4">timestamp</text>
		</g>
	</g>
	<g>
		<g>
			<g>
				<g>
					<path id="a8OtUzgEu8_4_" class="st1" d="M418.1,400c0,0,1.6-0.1,4.1-0.1c2.6-0.1,6.4-0.1,10.9-0.2c4.5,0,9.8-0.1,15.4-0.1
						s11.6,0.1,17.6,0.1c3,0,6,0.1,8.9,0.1s5.9,0.1,8.7,0.1c2.8,0,5.6,0,8.1,0s5,0,7.2-0.1c2.3,0,4.2-0.1,6.2-0.1
						c1.8-0.1,3.4-0.1,4.7-0.2c1.3-0.1,2.4-0.1,3-0.1c0.7,0,1.1-0.1,1.1-0.1c0.6-0.1,0.9-0.2,1-0.5c0-0.3-0.5-0.4-0.9-0.5
						c0,0-0.4,0-1-0.1c-0.7-0.1-1.7-0.1-3-0.2c-1.3-0.1-2.9-0.1-4.7-0.3c-1.8-0.1-3.9-0.1-6.1-0.2s-4.7-0.1-7.3-0.1s-5.3,0-8.1,0.1
						c-2.8,0.1-5.7,0.1-8.7,0.1s-6,0.1-8.9,0.2c-6,0.1-12,0.3-17.6,0.4c-5.7,0.1-10.8,0.2-15.4,0.3c-4.5,0.1-8.3,0.1-10.9,0.2
						c-2.6,0-4.1,0-4.1,0c-0.6,0-1.1,0.2-1.1,0.5C416.8,399.8,417.3,400,418.1,400C418,399.9,418,399.9,418.1,400"/>
				</g>
				<g>
					<g>
						<path class="st2" d="M514.1,398.4c0,0-0.4,0-1-0.1c-0.7-0.1-1.7-0.1-3-0.2c-1.3-0.1-2.9-0.1-4.7-0.3c-1.8-0.1-3.9-0.1-6.1-0.2
							s-4.7-0.1-7.3-0.1s-5.3,0-8.1,0.1c-2.8,0.1-5.7,0.1-8.7,0.1s-6,0.1-8.9,0.2c-6,0.1-12,0.3-17.6,0.4
							c-5.7,0.1-10.8,0.2-15.4,0.3c-4.5,0.1-8.3,0.1-10.9,0.2c-2.6,0-4.1,0-4.1,0c-0.6,0-1.1,0.2-1.1,0.5c-0.4,0.3,0.1,0.5,0.9,0.5
							c-0.1-0.1-0.1-0.1,0,0"/>
						<path class="st2" d="M418.1,400c0,0,1.6-0.1,4.1-0.1c2.6-0.1,6.4-0.1,10.9-0.2c4.5,0,9.8-0.1,15.4-0.1s11.6,0.1,17.6,0.1
							c3,0,6,0.1,8.9,0.1s5.9,0.1,8.7,0.1c2.8,0,5.6,0,8.1,0s5,0,7.2-0.1c2.3,0,4.2-0.1,6.2-0.1c1.8-0.1,3.4-0.1,4.7-0.2
							c1.3-0.1,2.4-0.1,3-0.1c0.7,0,1.1-0.1,1.1-0.1"/>
					</g>
				</g>
			</g>
		</g>
	</g>
	<g>
		<g>
			<g>
				<g>
					<g>
						<g>
							<path id="a1Y7jzatDS_5_" class="st1" d="M514,317.4c0,0-1.6,0-4.1-0.1c-2.6-0.1-6.5,0-11-0.1c-4.5,0.1-9.9,0-15.5,0.1
								c-5.7,0.1-11.7,0.2-17.8,0.3c-3,0.1-6.1,0.1-9,0.2s-6,0.1-8.8,0.2c-2.8,0.1-5.7,0.1-8.2,0.1c-2.5,0.1-5,0.1-7.3,0
								c-2.3,0-4.3-0.1-6.3-0.1c-1.8-0.1-3.4-0.1-4.7-0.1c-1.3-0.1-2.4-0.1-3-0.1c-0.7,0-1.1-0.1-1.1-0.1c-0.7-0.1-0.7-0.1-0.6-0.5
								c0-0.5,0.5-0.5,0.5-0.5s0.4,0,1-0.1c0.7-0.1,1.7-0.1,3-0.3c1.3-0.1,2.9-0.2,4.7-0.3c1.8-0.1,3.9-0.2,6.2-0.3
								c2.2-0.1,4.7-0.1,7.4-0.1c2.6,0,5.3-0.1,8.2-0.1c2.8,0,5.8,0,8.8,0.1c3,0,6.1,0.1,9,0.1c6.1,0.1,12.1,0.2,17.8,0.3
								c5.8,0.1,10.9,0.1,15.5,0.2c4.5,0,8.4,0.1,11,0.1c2.6,0,4.1,0,4.1,0c0.6,0,1.1,0.2,1.1,0.4
								C515.3,317.1,514.8,317.3,514,317.4C514.1,317.3,514.1,317.3,514,317.4"/>
						</g>
						<g>
							<g>
								<path class="st2" d="M418.1,316.7c0.7-0.1,1.7-0.1,3-0.3c1.3-0.1,2.9-0.2,4.7-0.3c1.8-0.1,3.9-0.2,6.2-0.3
									c2.2-0.1,4.7-0.1,7.4-0.1c2.6,0,5.3-0.1,8.2-0.1c2.8,0,5.8,0,8.8,0.1c3,0,6.1,0.1,9,0.1c6.1,0.1,12.1,0.2,17.8,0.3
									c5.8,0.1,10.9,0.1,15.5,0.2c4.5,0,8.4,0.1,11,0.1s4.1,0,4.1,0c0.6,0,1.1,0.2,1.1,0.4c0.4,0.2-0.1,0.4-0.9,0.4
									c0.1-0.1,0.1-0.1,0,0"/>
								<path class="st2" d="M514,317.4c0,0-1.6,0-4.1-0.1c-2.6-0.1-6.5,0-11-0.1c-4.5,0.1-9.9,0-15.5,0.1
									c-5.7,0.1-11.7,0.2-17.8,0.3c-3,0.1-6.1,0.1-9,0.2s-6,0.1-8.8,0.2c-2.8,0.1-5.7,0.1-8.2,0.1c-2.5,0.1-5,0.1-7.3,0
									c-2.3,0-4.3-0.1-6.3-0.1c-1.8-0.1-3.4-0.1-4.7-0.1c-1.3-0.1-2.4-0.1-3-0.1c-0.7,0-1.1-0.1-1.1-0.1c-0.7-0.1-0.7-0.3-0.6-0.5
									"/>
							</g>
						</g>
					</g>
					<g>
						<g>
							<path id="a8OtUzgEu8_5_" class="st1" d="M418.1,348.6c0,0,1.6-0.1,4.1-0.1c2.6-0.1,6.4-0.1,10.9-0.2c4.5,0,9.8-0.1,15.4-0.1
								s11.6,0.1,17.6,0.1c3,0,6,0.1,8.9,0.1s5.9,0.1,8.7,0.1c2.8,0,5.6,0,8.1,0s5,0,7.2-0.1c2.3,0,4.2-0.1,6.2-0.1
								c1.8-0.1,3.4-0.1,4.7-0.2c1.3-0.1,2.4-0.1,3-0.1c0.7,0,1.1-0.1,1.1-0.1c0.6-0.1,1.1-0.3,1-0.6c0-0.2-0.5-0.4-0.9-0.4
								c0,0-0.4,0-1-0.1c-0.7-0.1-1.7-0.1-3-0.2c-1.3-0.1-2.9-0.1-4.7-0.3c-1.8-0.1-3.9-0.1-6.1-0.2c-2.2-0.1-4.7-0.1-7.3-0.1
								s-5.3,0-8.1,0.1c-2.8,0.1-5.7,0.1-8.7,0.1s-6,0.1-8.9,0.2c-6,0.1-12,0.3-17.6,0.4c-5.7,0.1-10.8,0.2-15.4,0.3
								c-4.5,0.1-8.3,0.1-10.9,0.2c-2.6,0-4.1,0-4.1,0c-0.6,0-1.1,0.2-1.1,0.5C417.2,348.1,417.3,348.6,418.1,348.6
								C418,348.5,418,348.5,418.1,348.6"/>
						</g>
						<g>
							<g>
								<path class="st2" d="M499,348.5c2.3,0,4.2-0.1,6.2-0.1c1.8-0.1,3.4-0.1,4.7-0.2c1.3-0.1,2.4-0.1,3-0.1
									c0.7,0,1.1-0.1,1.1-0.1c0.6-0.1,1.1-0.3,1-0.6c0-0.2-0.5-0.4-0.9-0.4c0,0-0.4,0-1-0.1c-0.7-0.1-1.7-0.1-3-0.2
									c-1.3-0.1-2.9-0.1-4.7-0.3c-1.8-0.1-3.9-0.1-6.1-0.2c-2.2-0.1-4.7-0.1-7.3-0.1s-5.3,0-8.1,0.1c-2.8,0.1-5.7,0.1-8.7,0.1
									s-6,0.1-8.9,0.2c-6,0.1-12,0.3-17.6,0.4c-5.7,0.1-10.8,0.2-15.4,0.3c-4.5,0.1-8.3,0.1-10.9,0.2c-2.6,0-4.1,0-4.1,0
									c-0.6,0-1.1,0.2-1.1,0.5c0,0.7,0.1,0.5,0.9,0.5c-0.1-0.1-0.1-0.1,0,0"/>
								<path class="st2" d="M418.1,348.6c0,0,1.6-0.1,4.1-0.1c2.6-0.1,6.4-0.1,10.9-0.2c4.5,0,9.8-0.1,15.4-0.1s11.6,0.1,17.6,0.1
									c3,0,6,0.1,8.9,0.1s5.9,0.1,8.7,0.1"/>
							</g>
						</g>
					</g>
				</g>
				<g>
					<g>
						<path id="c7z7e1BDi2_5_" class="st1" d="M416.6,397.8c0,0,0-1.4,0.1-3.5c0.1-2.2,0.1-5.3,0.2-9.1c0-3.7-0.1-8.2-0.2-12.9
							c0-4.7-0.2-9.6-0.3-14.7c-0.1-2.5-0.2-4.9-0.2-7.4c-0.1-2.5-0.2-4.9-0.2-7.3c-0.1-2.3-0.1-4.7-0.1-6.8c0-2.1,0-4.2,0-6.1
							s0.1-3.6,0.1-5.2c0.1-1.5,0.2-2.8,0.2-4c0.1-1.1,0.2-2,0.2-2.5c0-0.2,0.2-0.9,0.2-0.9c0.2-0.8,0.9-0.8,0.6-0.8
							c-0.3,0,0.7,0.3,0.8,0.6v0.4c0,0,0,0.3,0,0.4v0.2c0.1,1.5,0-0.1,0.1,1.7c0.1,1.9,0.1,6.1,0.1,8.5c0,2.3,0.1,9.3,0,11.7
							c0,2.5,0.2,7,0.1,9.6c-0.2,5.1,0,17.6-0.1,22.3c-0.1,4.7,0.2,9,0.1,12.9c-0.1,3.8-0.2,6.9-0.2,9.1s0,3.5,0,3.5
							c0,0.5-0.2,1-0.6,1C417.1,399,416.7,398.5,416.6,397.8C416.7,397.9,416.7,397.9,416.6,397.8"/>
					</g>
				</g>
				<g>
					<g>
						<path id="c7z7e1BDi2_4_" class="st1" d="M513.7,317.6C513.8,317.5,513.8,317.5,513.7,317.6c0.1-0.7,0.5-1.2,0.8-1
							c0.4,0,0.6,0.5,0.6,1c0,0,0,1.2,0,3.5c0,2.2,0.1,5.3,0.2,9.1c0.2,3.8-0.2,8.1-0.1,12.8c0.1,4.7-0.1,17.1,0.1,22.2
							c0.1,2.6-0.1,7.1-0.1,9.6c0.1,2.5,0,9.4,0,11.7c0,2.5,0,6.7-0.1,8.5c-0.1,1.8,0,0.3-0.1,1.7v0.2c0,0.1,0,0.4,0,0.4l-0.1,0.5
							l-0.7,0.1c0,0-1.1,0.1-0.7-0.3c0,0-0.1-0.7-0.2-0.9c-0.1-0.5-0.2-1.4-0.2-2.5s-0.1-2.5-0.2-3.9c0-1.6-0.1-3.3-0.1-5.2
							s0-3.9,0-6s0-4.4,0.1-6.8c0-2.3,0.1-4.8,0.2-7.3c0.1-2.5,0.2-4.9,0.2-7.4c0.1-5.1,0.3-10,0.3-14.7c0.2-4.7,0.2-9.1,0.2-12.8
							c-0.1-3.8-0.1-6.9-0.2-9.1C513.7,318.9,513.7,317.6,513.7,317.6"/>
					</g>
				</g>
			</g>
			<g id="b3tveFeZ5t_5_">
				<g>
					<text transform="matrix(1 0 0 1 446.2687 339.0046)" class="st1 st3 st4">field</text>
				</g>
			</g>
		</g>
		<g id="b3tveFeZ5t_4_">
			<g>
				<text transform="matrix(1 0 0 1 426.4667 379.1335)" class="st1 st3 st5">name:</text>
			</g>
		</g>
	</g>
	<g id="b3tveFeZ5t_27_">
		<g>
			<text transform="matrix(1 0 0 1 466.9515 210.2186)" class="st1 st6 st5">1</text>
		</g>
	</g>
	<g id="b3tveFeZ5t_28_">
		<g>
			<text transform="matrix(1 0 0 1 466.9518 233.1038)" class="st1 st6 st5">n</text>
		</g>
	</g>
	<g id="b3tveFeZ5t_34_">
		<g>
			<text transform="matrix(1 0 0 1 631.9384 209.1611)" class="st1 st6 st5">1</text>
		</g>
	</g>
	<g id="b3tveFeZ5t_33_">
		<g>
			<text transform="matrix(1 0 0 1 631.9387 232.0464)" class="st1 st6 st5">n</text>
		</g>
	</g>
	<g id="b3tveFeZ5t_30_">
		<g>
			<text transform="matrix(1 0 0 1 466.9515 289.8044)" class="st1 st6 st5">1</text>
		</g>
	</g>
	<g id="b3tveFeZ5t_29_">
		<g>
			<text transform="matrix(1 0 0 1 467.9514 312.6895)" class="st1 st6 st5">n</text>
		</g>
	</g>
	<g id="b3tveFeZ5t_32_">
		<g>
			<text transform="matrix(1 0 0 1 466.9518 411.7267)" class="st1 st6 st5">1</text>
		</g>
	</g>
	<g id="b3tveFeZ5t_31_">
		<g>
			<text transform="matrix(1 0 0 1 466.9517 434.6119)" class="st1 st6 st5">1</text>
		</g>
	</g>
	<g>
		<g>
			<g>
				<g>
					<path id="a1Y7jzatDS_2_" class="st1" d="M676.7,155.3c0,0-1.6,0-4.1-0.1c-2.6-0.1-6.4,0-10.9-0.1c-4.5,0.1-9.8,0-15.4,0.1
						c-5.6,0.1-11.6,0.2-17.6,0.3c-3,0.1-6,0.1-8.9,0.2c-2.9,0.1-5.9,0.1-8.7,0.2c-2.8,0.1-5.6,0.1-8.1,0.1s-5,0.1-7.2,0
						c-2.3,0-4.3-0.1-6.2-0.1c-1.8-0.1-3.4-0.1-4.7-0.1c-1.3-0.1-2.4-0.1-3-0.1c-0.7,0-1.1-0.1-1.1-0.1c-0.7-0.1-1.1-0.3-1-0.6
						c0-0.2,0.4-0.4,0.9-0.4c0,0,0.4,0,1-0.1c0.7-0.1,1.7-0.1,3-0.3c1.3-0.1,2.9-0.2,4.7-0.3c1.8-0.1,3.9-0.2,6.1-0.3
						s4.7-0.1,7.3-0.1c2.6,0,5.3-0.1,8.1-0.1c2.8,0,5.7,0,8.7,0.1c3,0,6,0.1,8.9,0.1c6,0.1,12,0.2,17.6,0.3
						c5.7,0.1,10.8,0.1,15.4,0.2c4.5,0,8.3,0.1,10.9,0.1c2.6,0,4.1,0,4.1,0c0.6,0,1.1,0.2,1.1,0.4
						C678,155.1,677.5,155.3,676.7,155.3C676.8,155.3,676.8,155.3,676.7,155.3"/>
				</g>
				<g>
					<g>
						<path class="st2" d="M676.7,155.3c0,0-1.6,0-4.1-0.1c-2.6-0.1-6.4,0-10.9-0.1c-4.5,0.1-9.8,0-15.4,0.1
							c-5.6,0.1-11.6,0.2-17.6,0.3c-3,0.1-6,0.1-8.9,0.2c-2.9,0.1-5.9,0.1-8.7,0.2c-2.8,0.1-5.6,0.1-8.1,0.1s-5,0.1-7.2,0
							c-2.3,0-4.3-0.1-6.2-0.1c-1.8-0.1-3.4-0.1-4.7-0.1c-1.3-0.1-2.4-0.1-3-0.1c-0.7,0-1.1-0.1-1.1-0.1c-0.7-0.1-1.1-0.3-1-0.6
							c0-0.2,0.4-0.4,0.9-0.4c0,0,0.4,0,1-0.1c0.7-0.1,1.7-0.1,3-0.3c1.3-0.1,2.9-0.2,4.7-0.3c1.8-0.1,3.9-0.2,6.1-0.3
							s4.7-0.1,7.3-0.1c2.6,0,5.3-0.1,8.1-0.1c2.8,0,5.7,0,8.7,0.1c3,0,6,0.1,8.9,0.1c6,0.1,12,0.2,17.6,0.3
							c5.7,0.1,10.8,0.1,15.4,0.2c4.5,0,8.3,0.1,10.9,0.1c2.6,0,4.1,0,4.1,0c0.6,0,1.1,0.2,1.1,0.4
							C678,155.1,677.5,155.3,676.7,155.3C676.8,155.3,676.8,155.3,676.7,155.3"/>
					</g>
				</g>
			</g>
			<g>
				<g>
					<path id="a8OtUzgEu8_2_" class="st1" d="M581.1,197c0,0,1.6-0.1,4.1-0.1c2.6-0.1,6.4-0.1,10.9-0.2c4.5,0,9.8-0.1,15.4-0.1
						c5.6,0,11.6,0.1,17.6,0.1c3,0,6,0.1,8.9,0.1c2.9,0,5.9,0.1,8.7,0.1c2.8,0,5.6,0,8.1,0s5,0,7.2-0.1c2.3,0,4.2-0.1,6.2-0.1
						c1.8-0.1,3.4-0.1,4.7-0.2c1.3-0.1,2.4-0.1,3-0.1c0.7,0,1.1-0.1,1.1-0.1c0.6-0.1,1.1-0.3,1-0.6c0-0.2-0.5-0.4-0.9-0.4
						c0,0-0.4,0-1-0.1c-0.7-0.1-1.7-0.1-3-0.2c-1.3-0.1-2.9-0.1-4.7-0.3c-1.8-0.1-3.9-0.1-6.1-0.2c-2.2-0.1-4.7-0.1-7.3-0.1
						c-2.6,0-5.3,0-8.1,0.1c-2.8,0.1-5.7,0.1-8.7,0.1s-6,0.1-8.9,0.2c-6,0.1-12,0.3-17.6,0.4c-5.7,0.1-10.8,0.2-15.4,0.3
						c-4.5,0.1-8.3,0.1-10.9,0.2c-2.6,0-4.1,0-4.1,0c-0.6,0-1.1,0.2-1.1,0.5C579.8,196.9,580.3,197,581.1,197
						C581,197,581,197,581.1,197"/>
				</g>
				<g>
					<g>
						<path class="st2" d="M581.1,197c0,0,1.6-0.1,4.1-0.1c2.6-0.1,6.4-0.1,10.9-0.2c4.5,0,9.8-0.1,15.4-0.1
							c5.6,0,11.6,0.1,17.6,0.1c3,0,6,0.1,8.9,0.1c2.9,0,5.9,0.1,8.7,0.1c2.8,0,5.6,0,8.1,0s5,0,7.2-0.1c2.3,0,4.2-0.1,6.2-0.1
							c1.8-0.1,3.4-0.1,4.7-0.2c1.3-0.1,2.4-0.1,3-0.1c0.7,0,1.1-0.1,1.1-0.1c0.6-0.1,1.1-0.3,1-0.6c0-0.2-0.5-0.4-0.9-0.4
							c0,0-0.4,0-1-0.1c-0.7-0.1-1.7-0.1-3-0.2c-1.3-0.1-2.9-0.1-4.7-0.3c-1.8-0.1-3.9-0.1-6.1-0.2c-2.2-0.1-4.7-0.1-7.3-0.1
							c-2.6,0-5.3,0-8.1,0.1c-2.8,0.1-5.7,0.1-8.7,0.1s-6,0.1-8.9,0.2c-6,0.1-12,0.3-17.6,0.4c-5.7,0.1-10.8,0.2-15.4,0.3
							c-4.5,0.1-8.3,0.1-10.9,0.2c-2.6,0-4.1,0-4.1,0c-0.6,0-1.1,0.2-1.1,0.5C579.8,196.9,580.3,197,581.1,197
							C581,197,581,197,581.1,197"/>
					</g>
				</g>
			</g>
			<g>
				<g>
					<path id="bHPvHQc13_2_" class="st1" d="M676.3,195.8c0,0,0.1-0.7,0.1-1.8c0.1-1.1,0.1-2.7,0.2-4.6c0-1.9-0.2-4.1-0.3-6.5
						c0-2.4-0.2-5-0.4-7.5c-0.1-1.3-0.2-2.5-0.3-3.8s-0.2-2.5-0.2-3.8c-0.1-1.2-0.1-2.4-0.1-3.4c0-1.1,0-2.2,0-3.1
						c0-1,0.1-1.8,0.1-2.6c0.1-0.8,0.2-1.5,0.2-2c0.1-0.6,0.2-1,0.3-1.3c0-0.3,0.2-0.4,0.2-0.4c0.1-0.3,0.6-0.4,1-0.4
						c0.4,0,0.7,0.2,0.8,0.4c0,0,0,0.2,0.2,0.4c0.1,0.3-0.2-0.6-0.1-0.1c0.2,0.6-0.1-0.6,0,0.1c0.1,0.8,0-0.1,0.1,0.9
						c0.1,1,0.1,3.1,0.1,4.3s0.1,4.7,0,6c0,1.3,0.2,3.6,0.1,4.9c-0.2,2.6,0,9-0.1,11.4c-0.1,2.4,0.3,4.6,0.1,6.5
						c-0.1,1.9-0.2,3.6-0.2,4.6c0,1.1,0,1.7,0,1.7c0,0.3-0.4,0.5-0.9,0.5C676.7,196.3,676.4,196.2,676.3,195.8
						C676.4,195.8,676.4,195.8,676.3,195.8"/>
				</g>
				<g>
					<g>
						<path class="st2" d="M676.3,195.8c0,0,0.1-0.7,0.1-1.8c0.1-1.1,0.1-2.7,0.2-4.6c0-1.9-0.2-4.1-0.3-6.5c0-2.4-0.2-5-0.4-7.5
							c-0.1-1.3-0.2-2.5-0.3-3.8s-0.2-2.5-0.2-3.8c-0.1-1.2-0.1-2.4-0.1-3.4c0-1.1,0-2.2,0-3.1c0-1,0.1-1.8,0.1-2.6
							c0.1-0.8,0.2-1.5,0.2-2c0.1-0.6,0.2-1,0.3-1.3c0-0.3,0.2-0.4,0.2-0.4c0.1-0.3,0.6-0.4,1-0.4c0.4,0,0.7,0.2,0.8,0.4
							c0,0,0,0.2,0.2,0.4c0.1,0.3-0.2-0.6-0.1-0.1c0.2,0.6-0.1-0.6,0,0.1c0.1,0.8,0-0.1,0.1,0.9c0.1,1,0.1,3.1,0.1,4.3s0.1,4.7,0,6
							c0,1.3,0.2,3.6,0.1,4.9c-0.2,2.6,0,9-0.1,11.4c-0.1,2.4,0.3,4.6,0.1,6.5c-0.1,1.9-0.2,3.6-0.2,4.6c0,1.1,0,1.7,0,1.7
							c0,0.3-0.4,0.5-0.9,0.5C676.7,196.3,676.4,196.2,676.3,195.8C676.4,195.8,676.4,195.8,676.3,195.8"/>
					</g>
				</g>
			</g>
		</g>
		<g>
			<g>
				<path id="c7z7e1BDi2_2_" class="st1" d="M579.9,196.4c0,0,0-0.7,0.1-1.8c0.1-1.1,0.1-2.7,0.2-4.7c0-1.9-0.1-4.2-0.3-6.6
					c0-2.4-0.3-5-0.4-7.6c-0.1-1.3-0.2-2.5-0.3-3.8c-0.1-1.3-0.2-2.5-0.2-3.8c-0.1-1.2-0.1-2.4-0.1-3.5s0-2.2,0-3.1
					c0-1,0.1-1.8,0.1-2.7c0.1-0.8,0.2-1.5,0.2-2c0.1-0.6,0.2-1,0.3-1.3c0-0.3,0.2-0.4,0.2-0.4c0.1-0.3,0.6-0.4,1-0.4
					c0.4,0,0.7,0.2,0.8,0.4c0,0,0,0.2,0.2,0.4c0.1,0.3-0.2-0.6-0.1-0.1c0.2,0.6-0.1-0.6,0,0.1c0.1,0.7,0-0.1,0.1,0.9
					c0.1,1,0.1,3.1,0.1,4.4c0,1.2,0.1,4.8,0,6c0,1.3,0.2,3.6,0.1,5c-0.2,2.6,0,9-0.1,11.4c-0.1,2.4,0.3,4.6,0.1,6.6
					c-0.1,2-0.2,3.6-0.2,4.7s0,1.8,0,1.8c0,0.3-0.4,0.5-0.9,0.5C580.4,197,580,196.8,579.9,196.4C580,196.5,580,196.5,579.9,196.4"
					/>
			</g>
			<g>
				<g>
					<path class="st2" d="M579.9,196.4c0,0,0-0.7,0.1-1.8c0.1-1.1,0.1-2.7,0.2-4.7c0-1.9-0.1-4.2-0.3-6.6c0-2.4-0.3-5-0.4-7.6
						c-0.1-1.3-0.2-2.5-0.3-3.8c-0.1-1.3-0.2-2.5-0.2-3.8c-0.1-1.2-0.1-2.4-0.1-3.5s0-2.2,0-3.1c0-1,0.1-1.8,0.1-2.7
						c0.1-0.8,0.2-1.5,0.2-2c0.1-0.6,0.2-1,0.3-1.3c0-0.3,0.2-0.4,0.2-0.4c0.1-0.3,0.6-0.4,1-0.4c0.4,0,0.7,0.2,0.8,0.4
						c0,0,0,0.2,0.2,0.4c0.1,0.3-0.2-0.6-0.1-0.1c0.2,0.6-0.1-0.6,0,0.1c0.1,0.7,0-0.1,0.1,0.9c0.1,1,0.1,3.1,0.1,4.4
						c0,1.2,0.1,4.8,0,6c0,1.3,0.2,3.6,0.1,5c-0.2,2.6,0,9-0.1,11.4c-0.1,2.4,0.3,4.6,0.1,6.6c-0.1,2-0.2,3.6-0.2,4.7s0,1.8,0,1.8
						c0,0.3-0.4,0.5-0.9,0.5C580.4,197,580,196.8,579.9,196.4C580,196.5,580,196.5,579.9,196.4"/>
				</g>
			</g>
		</g>
	</g>
	<g id="b3tveFeZ5t_2_">
		<g>
			<text transform="matrix(1 0 0 1 591.3994 181.3927)" class="st1 st3 st4">metadata</text>
		</g>
	</g>
	<g>
		<g>
			<g>
				<g>
					<path id="a1Y7jzatDS_3_" class="st1" d="M677.1,237.2c0,0-1.6,0-4.1-0.1c-2.6-0.1-6.4,0-10.9-0.1c-4.5,0.1-9.8,0-15.4,0.1
						c-5.6,0.1-11.6,0.2-17.6,0.3c-3,0.1-6,0.1-8.9,0.2c-2.9,0.1-5.9,0.1-8.7,0.2c-2.8,0.1-5.6,0.1-8.1,0.1c-2.5,0.1-5,0.1-7.2,0
						c-2.3,0-4.3-0.1-6.2-0.1c-1.8-0.1-3.4-0.1-4.7-0.1c-1.3-0.1-2.4-0.1-3-0.1c-0.7,0-1.1-0.1-1.1-0.1c-0.7-0.1-1.1-0.3-1-0.6
						c0-0.2,0.4-0.4,0.9-0.4c0,0,0.4,0,1-0.1c0.7-0.1,1.7-0.1,3-0.3c1.3-0.1,2.9-0.2,4.7-0.3s3.9-0.2,6.1-0.3s4.7-0.1,7.3-0.1
						s5.3-0.1,8.1-0.1s5.7,0,8.7,0.1c3,0,6,0.1,8.9,0.1c6,0.1,12,0.2,17.6,0.3c5.7,0.1,10.8,0.1,15.4,0.2c4.5,0,8.3,0.1,10.9,0.1
						c2.6,0,4.1,0,4.1,0c0.6,0,1.1,0.2,1.1,0.4C678.4,236.9,677.9,237.1,677.1,237.2C677.2,237.1,677.2,237.1,677.1,237.2"/>
				</g>
				<g>
					<g>
						<path class="st2" d="M677.1,237.2c0,0-1.6,0-4.1-0.1c-2.6-0.1-6.4,0-10.9-0.1c-4.5,0.1-9.8,0-15.4,0.1
							c-5.6,0.1-11.6,0.2-17.6,0.3c-3,0.1-6,0.1-8.9,0.2c-2.9,0.1-5.9,0.1-8.7,0.2c-2.8,0.1-5.6,0.1-8.1,0.1c-2.5,0.1-5,0.1-7.2,0
							c-2.3,0-4.3-0.1-6.2-0.1c-1.8-0.1-3.4-0.1-4.7-0.1c-1.3-0.1-2.4-0.1-3-0.1c-0.7,0-1.1-0.1-1.1-0.1c-0.7-0.1-1.1-0.3-1-0.6
							c0-0.2,0.4-0.4,0.9-0.4c0,0,0.4,0,1-0.1c0.7-0.1,1.7-0.1,3-0.3c1.3-0.1,2.9-0.2,4.7-0.3s3.9-0.2,6.1-0.3s4.7-0.1,7.3-0.1
							s5.3-0.1,8.1-0.1s5.7,0,8.7,0.1c3,0,6,0.1,8.9,0.1c6,0.1,12,0.2,17.6,0.3c5.7,0.1,10.8,0.1,15.4,0.2c4.5,0,8.3,0.1,10.9,0.1
							c2.6,0,4.1,0,4.1,0c0.6,0,1.1,0.2,1.1,0.4C678.4,236.9,677.9,237.1,677.1,237.2C677.2,237.1,677.2,237.1,677.1,237.2"/>
					</g>
				</g>
			</g>
			<g>
				<g>
					<path id="a8OtUzgEu8_3_" class="st1" d="M581.5,278.9c0,0,1.6-0.1,4.1-0.1c2.6-0.1,6.4-0.1,10.9-0.2c4.5,0,9.8-0.1,15.4-0.1
						c5.6,0,11.6,0.1,17.6,0.1c3,0,6,0.1,8.9,0.1c2.9,0,5.9,0.1,8.7,0.1c2.8,0,5.6,0,8.1,0s5,0,7.2-0.1c2.3,0,4.2-0.1,6.2-0.1
						c1.8-0.1,3.4-0.1,4.7-0.2s2.4-0.1,3-0.1c0.7,0,1.1-0.1,1.1-0.1c0.6-0.1,1.1-0.3,1-0.6c0-0.2-0.5-0.4-0.9-0.4c0,0-0.4,0-1-0.1
						c-0.7-0.1-1.7-0.1-3-0.2s-2.9-0.1-4.7-0.3c-1.8-0.1-3.9-0.1-6.1-0.2s-4.7-0.1-7.3-0.1c-2.6,0-5.3,0-8.1,0.1
						c-2.8,0.1-5.7,0.1-8.7,0.1s-6,0.1-8.9,0.2c-6,0.1-12,0.3-17.6,0.4c-5.7,0.1-10.8,0.2-15.4,0.3c-4.5,0.1-8.3,0.1-10.9,0.2
						c-2.6,0-4.1,0-4.1,0c-0.6,0-1.1,0.2-1.1,0.5C580.2,278.7,580.7,278.9,581.5,278.9C581.4,278.8,581.4,278.8,581.5,278.9"/>
				</g>
				<g>
					<g>
						<path class="st2" d="M581.5,278.9c0,0,1.6-0.1,4.1-0.1c2.6-0.1,6.4-0.1,10.9-0.2c4.5,0,9.8-0.1,15.4-0.1
							c5.6,0,11.6,0.1,17.6,0.1c3,0,6,0.1,8.9,0.1c2.9,0,5.9,0.1,8.7,0.1c2.8,0,5.6,0,8.1,0s5,0,7.2-0.1c2.3,0,4.2-0.1,6.2-0.1
							c1.8-0.1,3.4-0.1,4.7-0.2s2.4-0.1,3-0.1c0.7,0,1.1-0.1,1.1-0.1c0.6-0.1,1.1-0.3,1-0.6c0-0.2-0.5-0.4-0.9-0.4c0,0-0.4,0-1-0.1
							c-0.7-0.1-1.7-0.1-3-0.2s-2.9-0.1-4.7-0.3c-1.8-0.1-3.9-0.1-6.1-0.2s-4.7-0.1-7.3-0.1c-2.6,0-5.3,0-8.1,0.1
							c-2.8,0.1-5.7,0.1-8.7,0.1s-6,0.1-8.9,0.2c-6,0.1-12,0.3-17.6,0.4c-5.7,0.1-10.8,0.2-15.4,0.3c-4.5,0.1-8.3,0.1-10.9,0.2
							c-2.6,0-4.1,0-4.1,0c-0.6,0-1.1,0.2-1.1,0.5C580.2,278.7,580.7,278.9,581.5,278.9C581.4,278.8,581.4,278.8,581.5,278.9"/>
					</g>
				</g>
			</g>
			<g>
				<g>
					<path id="bHPvHQc13_3_" class="st1" d="M676.7,277.7c0,0,0.1-0.7,0.1-1.8c0.1-1.1,0.1-2.7,0.2-4.6c0-1.9-0.2-4.1-0.3-6.5
						c0-2.4-0.2-5-0.4-7.5c-0.1-1.3-0.2-2.5-0.3-3.8c-0.1-1.3-0.2-2.5-0.2-3.8c-0.1-1.2-0.1-2.4-0.1-3.4c0-1.1,0-2.2,0-3.1
						c0-1,0.1-1.8,0.1-2.6c0.1-0.8,0.2-1.5,0.2-2c0.1-0.6,0.2-1,0.3-1.3c0-0.3,0.2-0.4,0.2-0.4c0.1-0.3,0.6-0.4,1-0.4
						c0.4,0,0.7,0.2,0.8,0.4c0,0,0,0.2,0.2,0.4c0.1,0.3-0.2-0.6-0.1-0.1c0.2,0.6-0.1-0.6,0,0.1c0.1,0.7,0-0.1,0.1,0.9
						c0.1,1,0.1,3.1,0.1,4.3s0.1,4.7,0,6c0,1.3,0.2,3.6,0.1,4.9c-0.2,2.6,0,9-0.1,11.4c-0.1,2.4,0.3,4.6,0.1,6.5
						c-0.1,1.9-0.2,3.6-0.2,4.6c0,1.1,0,1.7,0,1.7c0,0.3-0.4,0.5-0.9,0.5C677.1,278.2,676.8,278,676.7,277.7
						C676.8,277.7,676.8,277.7,676.7,277.7"/>
				</g>
				<g>
					<g>
						<path class="st2" d="M676.7,277.7c0,0,0.1-0.7,0.1-1.8c0.1-1.1,0.1-2.7,0.2-4.6c0-1.9-0.2-4.1-0.3-6.5c0-2.4-0.2-5-0.4-7.5
							c-0.1-1.3-0.2-2.5-0.3-3.8c-0.1-1.3-0.2-2.5-0.2-3.8c-0.1-1.2-0.1-2.4-0.1-3.4c0-1.1,0-2.2,0-3.1c0-1,0.1-1.8,0.1-2.6
							c0.1-0.8,0.2-1.5,0.2-2c0.1-0.6,0.2-1,0.3-1.3c0-0.3,0.2-0.4,0.2-0.4c0.1-0.3,0.6-0.4,1-0.4c0.4,0,0.7,0.2,0.8,0.4
							c0,0,0,0.2,0.2,0.4c0.1,0.3-0.2-0.6-0.1-0.1c0.2,0.6-0.1-0.6,0,0.1c0.1,0.7,0-0.1,0.1,0.9c0.1,1,0.1,3.1,0.1,4.3s0.1,4.7,0,6
							c0,1.3,0.2,3.6,0.1,4.9c-0.2,2.6,0,9-0.1,11.4c-0.1,2.4,0.3,4.6,0.1,6.5c-0.1,1.9-0.2,3.6-0.2,4.6c0,1.1,0,1.7,0,1.7
							c0,0.3-0.4,0.5-0.9,0.5C677.1,278.2,676.8,278,676.7,277.7C676.8,277.7,676.8,277.7,676.7,277.7"/>
					</g>
				</g>
			</g>
		</g>
		<g>
			<g>
				<path id="c7z7e1BDi2_3_" class="st1" d="M580.3,278.3c0,0,0-0.7,0.1-1.8c0.1-1.1,0.1-2.7,0.2-4.7c0-1.9-0.1-4.2-0.3-6.6
					c0-2.4-0.3-5-0.4-7.6c-0.1-1.3-0.2-2.5-0.3-3.8s-0.2-2.5-0.2-3.8c-0.1-1.2-0.1-2.4-0.1-3.5s0-2.2,0-3.1c0-1,0.1-1.8,0.1-2.7
					c0.1-0.8,0.2-1.5,0.2-2c0.1-0.6,0.2-1,0.3-1.3c0-0.3,0.2-0.4,0.2-0.4c0.1-0.3,0.6-0.4,1-0.4c0.4,0,0.7,0.2,0.8,0.4
					c0,0,0,0.2,0.2,0.4c0.1,0.3-0.2-0.6-0.1-0.1c0.2,0.6-0.1-0.6,0,0.1c0.1,0.8,0-0.1,0.1,0.9c0.1,1,0.1,3.1,0.1,4.4
					c0,1.2,0.1,4.8,0,6c0,1.3,0.2,3.6,0.1,5c-0.2,2.6,0,9-0.1,11.4c-0.1,2.4,0.3,4.6,0.1,6.6c-0.1,2-0.2,3.6-0.2,4.7s0,1.8,0,1.8
					c0,0.3-0.4,0.5-0.9,0.5C580.8,278.8,580.4,278.7,580.3,278.3C580.4,278.3,580.4,278.3,580.3,278.3"/>
			</g>
			<g>
				<g>
					<path class="st2" d="M580.3,278.3c0,0,0-0.7,0.1-1.8c0.1-1.1,0.1-2.7,0.2-4.7c0-1.9-0.1-4.2-0.3-6.6c0-2.4-0.3-5-0.4-7.6
						c-0.1-1.3-0.2-2.5-0.3-3.8s-0.2-2.5-0.2-3.8c-0.1-1.2-0.1-2.4-0.1-3.5s0-2.2,0-3.1c0-1,0.1-1.8,0.1-2.7c0.1-0.8,0.2-1.5,0.2-2
						c0.1-0.6,0.2-1,0.3-1.3c0-0.3,0.2-0.4,0.2-0.4c0.1-0.3,0.6-0.4,1-0.4c0.4,0,0.7,0.2,0.8,0.4c0,0,0,0.2,0.2,0.4
						c0.1,0.3-0.2-0.6-0.1-0.1c0.2,0.6-0.1-0.6,0,0.1c0.1,0.8,0-0.1,0.1,0.9c0.1,1,0.1,3.1,0.1,4.4c0,1.2,0.1,4.8,0,6
						c0,1.3,0.2,3.6,0.1,5c-0.2,2.6,0,9-0.1,11.4c-0.1,2.4,0.3,4.6,0.1,6.6c-0.1,2-0.2,3.6-0.2,4.7s0,1.8,0,1.8
						c0,0.3-0.4,0.5-0.9,0.5C580.8,278.8,580.4,278.7,580.3,278.3C580.4,278.3,580.4,278.3,580.3,278.3"/>
				</g>
			</g>
		</g>
	</g>
	<g id="b3tveFeZ5t_3_">
		<g>
			<text transform="matrix(1 0 0 1 608.8071 262.2555)" class="st1 st3 st4">label</text>
		</g>
	</g>
	<g id="berschrift">
		<g id="bbpHAiVHB">
			<g>
				<text transform="matrix(1 0 0 1 43.1523 78.8038)" class="st1 st7 st8">Data model</text>
				<polygon class="st9" points="256.6,70.5 284.8,70.5 284.8,70.5 				"/>
			</g>
		</g>
	</g>
</g>
</svg>
