<?xml version="1.0" encoding="utf-8"?>
<!-- Generator: Adobe Illustrator 23.0.3, SVG Export Plug-In . SVG Version: 6.00 Build 0)  -->
<svg version="1.1" xmlns="http://www.w3.org/2000/svg" xmlns:xlink="http://www.w3.org/1999/xlink" x="0px" y="0px"
	 viewBox="0 0 1000 640" style="enable-background:new 0 0 1000 640;" xml:space="preserve">
<style type="text/css">
	.st0{fill:#365880;}
	.st1{fill:#FFFFFF;}
	.st2{font-family:'OCRAStd';}
	.st3{font-size:45.4484px;}
	.st4{fill:none;}
	.st5{fill-opacity:0;stroke:#000000;stroke-opacity:0;}
	.st6{font-family:'Roboto-Regular';}
	.st7{font-size:16.9781px;}
	.st8{font-size:13px;}
</style>
<g id="Ebene_2">
	<path id="cEnICsQZe" class="st0" d="M0,0.2h1000v640H0V0.2z"/>
</g>
<g id="Ebene_1">
	<g id="Überschrift">
		<g id="bbpHAiVHB">
			<g>
				<text transform="matrix(1 0 0 1 43.1523 78.8038)" class="st1 st2 st3">Data model</text>
				<polygon class="st4" points="256.6,70.5 284.8,70.5 284.8,70.5 				"/>
			</g>
		</g>
	</g>
	<g>
		<g>
			<path id="bKr4rEUKz_8_" class="st1" d="M687.3,298.1c0,0,0-0.5,0.1-1.4c0.1-0.8,0.1-2.1,0.1-3.6c0,0-0.1-14.4-0.1-15.8
				c-0.1-1.3-0.1-3.5-0.1-4.8c-0.1-1.3-0.1-2-0.1-3.1c0-1.2,0-2.3,0-3.3s-0.1-3.2,0-3.8c0-0.6,0-1,0.1-1.4c0-0.3,0.1-0.5,0.1-0.5
				c0-0.3,0.1-0.5,0.3-0.5s0.2,0.2,0.3,0.4c0,0,0,0.2,0.1,0.5c0,0.3,0.1,0.8,0.1,1.4c0.1,0.6,0.1,1.3,0.2,2.1c0,0.8,0.1,1.8,0.1,2.8
				c0.1,1,0.1,2.2,0.1,3.3c0,1.2,0.1,2.4,0.1,3.6c0,1.3,0,2.6,0,4c0,1.3,0,2.7,0,4c0,2.7-0.1,3.9,0,5.8c-0.1,1.8-0.1,3.5-0.2,5
				c0,1.5-0.1,2.7-0.1,3.6c0,0.8,0,1.4,0,1.4c0,0.2-0.1,0.4-0.4,0.4C687.5,298.5,687.3,298.3,687.3,298.1L687.3,298.1"/>
		</g>
		<g>
			<g>
				<path class="st5" d="M687.3,298.1c0,0,0-0.5,0.1-1.4c0.1-0.8,0.1-2.1,0.1-3.6c0,0-0.1-14.4-0.1-15.8c-0.1-1.3-0.1-3.5-0.1-4.8
					c-0.1-1.3-0.1-2-0.1-3.1c0-1.2,0-2.3,0-3.3s-0.1-3.2,0-3.8c0-0.6,0-1,0.1-1.4c0-0.3,0.1-0.5,0.1-0.5c0-0.3,0.1-0.5,0.3-0.5
					s0.2,0.2,0.3,0.4c0,0,0,0.2,0.1,0.5c0,0.3,0.1,0.8,0.1,1.4c0.1,0.6,0.1,1.3,0.2,2.1c0,0.8,0.1,1.8,0.1,2.8
					c0.1,1,0.1,2.2,0.1,3.3c0,1.2,0.1,2.4,0.1,3.6c0,1.3,0,2.6,0,4c0,1.3,0,2.7,0,4c0,2.7-0.1,3.9,0,5.8c-0.1,1.8-0.1,3.5-0.2,5
					c0,1.5-0.1,2.7-0.1,3.6c0,0.8,0,1.4,0,1.4c0,0.2-0.1,0.4-0.4,0.4C687.5,298.5,687.3,298.3,687.3,298.1L687.3,298.1"/>
			</g>
		</g>
	</g>
	<g>
		<g>
			<path id="bKr4rEUKz_2_" class="st1" d="M201.9,298.9c0,0,0-0.5,0.1-1.4c0.1-0.8,0.1-2.1,0.1-3.6c0,0-0.1-14.4-0.1-15.8
				c-0.1-1.3-0.1-3.5-0.1-4.8c-0.1-1.3-0.1-2-0.1-3.1c0-1.2,0-2.3,0-3.3s-0.1-3.2,0-3.8c0-0.6,0-1,0.1-1.4c0-0.3,0.1-0.5,0.1-0.5
				c0-0.3,0.1-0.5,0.3-0.5s0.2,0.2,0.3,0.4c0,0,0,0.2,0.1,0.5c0,0.3,0.1,0.8,0.1,1.4c0.1,0.6,0.1,1.3,0.2,2.1c0,0.8,0.1,1.8,0.1,2.8
				c0.1,1,0.1,2.2,0.1,3.3c0,1.2,0.1,2.4,0.1,3.6c0,1.3,0,2.6,0,4c0,1.3,0,2.7,0,4c0,2.7-0.1,3.9,0,5.8c-0.1,1.8-0.1,3.5-0.2,5
				c0,1.5-0.1,2.7-0.1,3.6c0,0.8,0,1.4,0,1.4c0,0.2-0.1,0.4-0.4,0.4C202.1,299.3,201.9,299.1,201.9,298.9L201.9,298.9"/>
		</g>
		<g>
			<g>
				<path class="st5" d="M201.9,298.9c0,0,0-0.5,0.1-1.4c0.1-0.8,0.1-2.1,0.1-3.6c0,0-0.1-14.4-0.1-15.8c-0.1-1.3-0.1-3.5-0.1-4.8
					c-0.1-1.3-0.1-2-0.1-3.1c0-1.2,0-2.3,0-3.3s-0.1-3.2,0-3.8c0-0.6,0-1,0.1-1.4c0-0.3,0.1-0.5,0.1-0.5c0-0.3,0.1-0.5,0.3-0.5
					s0.2,0.2,0.3,0.4c0,0,0,0.2,0.1,0.5c0,0.3,0.1,0.8,0.1,1.4c0.1,0.6,0.1,1.3,0.2,2.1c0,0.8,0.1,1.8,0.1,2.8
					c0.1,1,0.1,2.2,0.1,3.3c0,1.2,0.1,2.4,0.1,3.6c0,1.3,0,2.6,0,4c0,1.3,0,2.7,0,4c0,2.7-0.1,3.9,0,5.8c-0.1,1.8-0.1,3.5-0.2,5
					c0,1.5-0.1,2.7-0.1,3.6c0,0.8,0,1.4,0,1.4c0,0.2-0.1,0.4-0.4,0.4C202.1,299.3,201.9,299.1,201.9,298.9L201.9,298.9"/>
			</g>
		</g>
	</g>
	<g>
		<g>
			<g>
				<g>
					<path id="a1Y7jzatDS_3_" class="st1" d="M262.7,221.1c0,0-2,0-5.1-0.1c-3.2-0.1-7.9,0-13.5-0.1c-5.6,0.1-12.1,0-19.1,0.1
						c-6.9,0.1-14.4,0.2-21.8,0.3c-3.7,0.1-7.4,0.1-11,0.2c-3.6,0.1-7.3,0.1-10.8,0.2c-3.5,0.1-6.9,0.1-10,0.1
						c-3.1,0.1-6.2,0.1-8.9,0c-2.8,0-5.3-0.1-7.7-0.1c-2.2-0.1-4.2-0.1-5.8-0.1s-3-0.1-3.7-0.1c-0.9,0-1.4-0.1-1.4-0.1
						c-0.9-0.1-1.4-0.3-1.2-0.6c0-0.2,0.5-0.4,1.1-0.4c0,0,0.5,0,1.2-0.1c0.9-0.1,2.1-0.1,3.7-0.3s3.6-0.2,5.8-0.3s4.8-0.2,7.6-0.3
						s5.8-0.1,9-0.1s6.6-0.1,10-0.1c3.5,0,7.1,0,10.8,0.1c3.7,0,7.4,0.1,11,0.1c7.4,0.1,14.9,0.2,21.8,0.3
						c7.1,0.1,13.4,0.1,19.1,0.2c5.6,0,10.3,0.1,13.5,0.1c3.2,0,5.1,0,5.1,0c0.7,0,1.4,0.2,1.4,0.4
						C264.3,220.8,263.7,221,262.7,221.1C262.8,221,262.8,221,262.7,221.1"/>
				</g>
				<g>
					<g>
						<path class="st5" d="M262.7,221.1c0,0-2,0-5.1-0.1c-3.2-0.1-7.9,0-13.5-0.1c-5.6,0.1-12.1,0-19.1,0.1
							c-6.9,0.1-14.4,0.2-21.8,0.3c-3.7,0.1-7.4,0.1-11,0.2c-3.6,0.1-7.3,0.1-10.8,0.2c-3.5,0.1-6.9,0.1-10,0.1
							c-3.1,0.1-6.2,0.1-8.9,0c-2.8,0-5.3-0.1-7.7-0.1c-2.2-0.1-4.2-0.1-5.8-0.1s-3-0.1-3.7-0.1c-0.9,0-1.4-0.1-1.4-0.1
							c-0.9-0.1-1.4-0.3-1.2-0.6c0-0.2,0.5-0.4,1.1-0.4c0,0,0.5,0,1.2-0.1c0.9-0.1,2.1-0.1,3.7-0.3s3.6-0.2,5.8-0.3s4.8-0.2,7.6-0.3
							s5.8-0.1,9-0.1s6.6-0.1,10-0.1c3.5,0,7.1,0,10.8,0.1c3.7,0,7.4,0.1,11,0.1c7.4,0.1,14.9,0.2,21.8,0.3
							c7.1,0.1,13.4,0.1,19.1,0.2c5.6,0,10.3,0.1,13.5,0.1c3.2,0,5.1,0,5.1,0c0.7,0,1.4,0.2,1.4,0.4
							C264.3,220.8,263.7,221,262.7,221.1C262.8,221,262.8,221,262.7,221.1"/>
					</g>
				</g>
			</g>
			<g>
				<g>
					<path id="a8OtUzgEu8_4_" class="st1" d="M144.3,262.8c0,0,2-0.1,5.1-0.1c3.2-0.1,7.9-0.1,13.5-0.2c5.6,0,12.1-0.1,19.1-0.1
						c6.9,0,14.4,0.1,21.8,0.1c3.7,0,7.4,0.1,11,0.1s7.3,0.1,10.8,0.1c3.5,0,6.9,0,10,0s6.2,0,8.9-0.1c2.8,0,5.2-0.1,7.7-0.1
						c2.2-0.1,4.2-0.1,5.8-0.2c1.6-0.1,3-0.1,3.7-0.1c0.9,0,1.4-0.1,1.4-0.1c0.7-0.1,1.4-0.3,1.2-0.6c0-0.2-0.6-0.4-1.1-0.4
						c0,0-0.5,0-1.2-0.1c-0.9-0.1-2.1-0.1-3.7-0.2c-1.6-0.1-3.6-0.1-5.8-0.3c-2.2-0.1-4.8-0.1-7.6-0.2c-2.7-0.1-5.8-0.1-9-0.1
						s-6.6,0-10,0.1c-3.5,0.1-7.1,0.1-10.8,0.1c-3.7,0-7.4,0.1-11,0.2c-7.4,0.1-14.9,0.3-21.8,0.4c-7.1,0.1-13.4,0.2-19.1,0.3
						c-5.6,0.1-10.3,0.1-13.5,0.2c-3.2,0-5.1,0-5.1,0c-0.7,0-1.4,0.2-1.4,0.5C142.7,262.6,143.4,262.8,144.3,262.8
						C144.2,262.7,144.2,262.7,144.3,262.8"/>
				</g>
				<g>
					<g>
						<path class="st5" d="M144.3,262.8c0,0,2-0.1,5.1-0.1c3.2-0.1,7.9-0.1,13.5-0.2c5.6,0,12.1-0.1,19.1-0.1
							c6.9,0,14.4,0.1,21.8,0.1c3.7,0,7.4,0.1,11,0.1s7.3,0.1,10.8,0.1c3.5,0,6.9,0,10,0s6.2,0,8.9-0.1c2.8,0,5.2-0.1,7.7-0.1
							c2.2-0.1,4.2-0.1,5.8-0.2c1.6-0.1,3-0.1,3.7-0.1c0.9,0,1.4-0.1,1.4-0.1c0.7-0.1,1.4-0.3,1.2-0.6c0-0.2-0.6-0.4-1.1-0.4
							c0,0-0.5,0-1.2-0.1c-0.9-0.1-2.1-0.1-3.7-0.2c-1.6-0.1-3.6-0.1-5.8-0.3c-2.2-0.1-4.8-0.1-7.6-0.2c-2.7-0.1-5.8-0.1-9-0.1
							s-6.6,0-10,0.1c-3.5,0.1-7.1,0.1-10.8,0.1c-3.7,0-7.4,0.1-11,0.2c-7.4,0.1-14.9,0.3-21.8,0.4c-7.1,0.1-13.4,0.2-19.1,0.3
							c-5.6,0.1-10.3,0.1-13.5,0.2c-3.2,0-5.1,0-5.1,0c-0.7,0-1.4,0.2-1.4,0.5C142.7,262.6,143.4,262.8,144.3,262.8
							C144.2,262.7,144.2,262.7,144.3,262.8"/>
					</g>
				</g>
			</g>
			<g>
				<g>
					<path id="bHPvHQc13_2_" class="st1" d="M262.2,261.6c0,0,0.1-0.7,0.1-1.8c0.1-1.1,0.1-2.7,0.2-4.6c0-1.9-0.2-4.1-0.4-6.5
						c0-2.4-0.2-5-0.5-7.5c-0.1-1.3-0.2-2.5-0.4-3.8s-0.2-2.5-0.2-3.8c-0.1-1.2-0.1-2.4-0.1-3.4c0-1.1,0-2.2,0-3.1
						c0-1,0.1-1.8,0.1-2.6c0.1-0.8,0.2-1.5,0.2-2c0.1-0.6,0.2-1,0.4-1.3c0-0.3,0.2-0.4,0.2-0.4c0.1-0.3,0.7-0.4,1.2-0.4
						c0.5,0,0.9,0.2,1,0.4c0,0,0,0.2,0.2,0.4c0.1,0.3-0.2-0.6-0.1-0.1c0.2,0.6-0.1-0.6,0,0.1c0.1,0.8,0-0.1,0.1,0.9s0.1,3.1,0.1,4.3
						s0.1,4.7,0,6c0,1.3,0.2,3.6,0.1,4.9c-0.2,2.6,0,9-0.1,11.4s0.4,4.6,0.1,6.5c-0.1,1.9-0.2,3.6-0.2,4.6c0,1.1,0,1.7,0,1.7
						c0,0.3-0.5,0.5-1.1,0.5C262.7,262.1,262.3,261.9,262.2,261.6C262.3,261.6,262.3,261.6,262.2,261.6"/>
				</g>
				<g>
					<g>
						<path class="st5" d="M262.2,261.6c0,0,0.1-0.7,0.1-1.8c0.1-1.1,0.1-2.7,0.2-4.6c0-1.9-0.2-4.1-0.4-6.5c0-2.4-0.2-5-0.5-7.5
							c-0.1-1.3-0.2-2.5-0.4-3.8s-0.2-2.5-0.2-3.8c-0.1-1.2-0.1-2.4-0.1-3.4c0-1.1,0-2.2,0-3.1c0-1,0.1-1.8,0.1-2.6
							c0.1-0.8,0.2-1.5,0.2-2c0.1-0.6,0.2-1,0.4-1.3c0-0.3,0.2-0.4,0.2-0.4c0.1-0.3,0.7-0.4,1.2-0.4c0.5,0,0.9,0.2,1,0.4
							c0,0,0,0.2,0.2,0.4c0.1,0.3-0.2-0.6-0.1-0.1c0.2,0.6-0.1-0.6,0,0.1c0.1,0.8,0-0.1,0.1,0.9s0.1,3.1,0.1,4.3s0.1,4.7,0,6
							c0,1.3,0.2,3.6,0.1,4.9c-0.2,2.6,0,9-0.1,11.4s0.4,4.6,0.1,6.5c-0.1,1.9-0.2,3.6-0.2,4.6c0,1.1,0,1.7,0,1.7
							c0,0.3-0.5,0.5-1.1,0.5C262.7,262.1,262.3,261.9,262.2,261.6C262.3,261.6,262.3,261.6,262.2,261.6"/>
					</g>
				</g>
			</g>
		</g>
		<g>
			<g>
				<path id="c7z7e1BDi2_4_" class="st1" d="M142.9,262.2c0,0,0-0.7,0.1-1.8c0.1-1.1,0.1-2.7,0.2-4.7c0-1.9-0.1-4.2-0.4-6.6
					c0-2.4-0.4-5-0.5-7.6c-0.1-1.3-0.2-2.5-0.4-3.8c-0.1-1.3-0.2-2.5-0.2-3.8c-0.1-1.2-0.1-2.4-0.1-3.5s0-2.2,0-3.1
					c0-1,0.1-1.8,0.1-2.7c0.1-0.8,0.2-1.5,0.2-2c0.1-0.6,0.2-1,0.4-1.3c0-0.3,0.2-0.4,0.2-0.4c0.1-0.3,0.7-0.4,1.2-0.4
					s0.9,0.2,1,0.4c0,0,0,0.2,0.2,0.4c0.1,0.3-0.2-0.6-0.1-0.1c0.2,0.6-0.1-0.6,0,0.1c0.1,0.8,0-0.1,0.1,0.9c0.1,1,0.1,3.1,0.1,4.4
					c0,1.2,0.1,4.8,0,6c0,1.3,0.2,3.6,0.1,5c-0.2,2.6,0,9-0.1,11.4c-0.1,2.4,0.4,4.6,0.1,6.6c-0.1,2-0.2,3.6-0.2,4.7
					c0,1.1,0,1.8,0,1.8c0,0.3-0.5,0.5-1.1,0.5C143.5,262.7,143,262.6,142.9,262.2C143,262.2,143,262.2,142.9,262.2"/>
			</g>
			<g>
				<g>
					<path class="st5" d="M142.9,262.2c0,0,0-0.7,0.1-1.8c0.1-1.1,0.1-2.7,0.2-4.7c0-1.9-0.1-4.2-0.4-6.6c0-2.4-0.4-5-0.5-7.6
						c-0.1-1.3-0.2-2.5-0.4-3.8c-0.1-1.3-0.2-2.5-0.2-3.8c-0.1-1.2-0.1-2.4-0.1-3.5s0-2.2,0-3.1c0-1,0.1-1.8,0.1-2.7
						c0.1-0.8,0.2-1.5,0.2-2c0.1-0.6,0.2-1,0.4-1.3c0-0.3,0.2-0.4,0.2-0.4c0.1-0.3,0.7-0.4,1.2-0.4s0.9,0.2,1,0.4c0,0,0,0.2,0.2,0.4
						c0.1,0.3-0.2-0.6-0.1-0.1c0.2,0.6-0.1-0.6,0,0.1c0.1,0.8,0-0.1,0.1,0.9c0.1,1,0.1,3.1,0.1,4.4c0,1.2,0.1,4.8,0,6
						c0,1.3,0.2,3.6,0.1,5c-0.2,2.6,0,9-0.1,11.4c-0.1,2.4,0.4,4.6,0.1,6.6c-0.1,2-0.2,3.6-0.2,4.7c0,1.1,0,1.8,0,1.8
						c0,0.3-0.5,0.5-1.1,0.5C143.5,262.7,143,262.6,142.9,262.2C143,262.2,143,262.2,142.9,262.2"/>
				</g>
			</g>
		</g>
	</g>
	<g id="b3tveFeZ5t_5_">
		<g>
			<text transform="matrix(1 0 0 1 173.9776 246.1919)" class="st1 st6 st7">dataset</text>
		</g>
	</g>
	<g>
		<g>
			<g>
				<g>
					<path id="a1Y7jzatDS_10_" class="st1" d="M747.4,219.9c0,0-2,0-5.1-0.1c-3.2-0.1-7.9,0-13.5-0.1c-5.6,0.1-12.1,0-19.1,0.1
						c-6.9,0.1-14.4,0.2-21.8,0.3c-3.7,0.1-7.4,0.1-11,0.2c-3.6,0.1-7.3,0.1-10.8,0.2c-3.5,0.1-6.9,0.1-10,0.1
						c-3.1,0.1-6.2,0.1-8.9,0c-2.8,0-5.3-0.1-7.7-0.1c-2.2-0.1-4.2-0.1-5.8-0.1s-3-0.1-3.7-0.1c-0.9,0-1.4-0.1-1.4-0.1
						c-0.9-0.1-1.4-0.3-1.2-0.6c0-0.2,0.5-0.4,1.1-0.4c0,0,0.5,0,1.2-0.1c0.9-0.1,2.1-0.1,3.7-0.3c1.6-0.2,3.6-0.2,5.8-0.3
						c2.2-0.1,4.8-0.2,7.6-0.3c2.7-0.1,5.8-0.1,9-0.1c3.2,0,6.6-0.1,10-0.1s7.1,0,10.8,0.1c3.7,0,7.4,0.1,11,0.1
						c7.4,0.1,14.9,0.2,21.8,0.3c7.1,0.1,13.4,0.1,19.1,0.2c5.6,0,10.3,0.1,13.5,0.1c3.2,0,5.1,0,5.1,0c0.7,0,1.4,0.2,1.4,0.4
						C749,219.6,748.4,219.8,747.4,219.9C747.5,219.8,747.5,219.8,747.4,219.9"/>
				</g>
				<g>
					<g>
						<path class="st5" d="M747.4,219.9c0,0-2,0-5.1-0.1c-3.2-0.1-7.9,0-13.5-0.1c-5.6,0.1-12.1,0-19.1,0.1
							c-6.9,0.1-14.4,0.2-21.8,0.3c-3.7,0.1-7.4,0.1-11,0.2c-3.6,0.1-7.3,0.1-10.8,0.2c-3.5,0.1-6.9,0.1-10,0.1
							c-3.1,0.1-6.2,0.1-8.9,0c-2.8,0-5.3-0.1-7.7-0.1c-2.2-0.1-4.2-0.1-5.8-0.1s-3-0.1-3.7-0.1c-0.9,0-1.4-0.1-1.4-0.1
							c-0.9-0.1-1.4-0.3-1.2-0.6c0-0.2,0.5-0.4,1.1-0.4c0,0,0.5,0,1.2-0.1c0.9-0.1,2.1-0.1,3.7-0.3c1.6-0.2,3.6-0.2,5.8-0.3
							c2.2-0.1,4.8-0.2,7.6-0.3c2.7-0.1,5.8-0.1,9-0.1c3.2,0,6.6-0.1,10-0.1s7.1,0,10.8,0.1c3.7,0,7.4,0.1,11,0.1
							c7.4,0.1,14.9,0.2,21.8,0.3c7.1,0.1,13.4,0.1,19.1,0.2c5.6,0,10.3,0.1,13.5,0.1c3.2,0,5.1,0,5.1,0c0.7,0,1.4,0.2,1.4,0.4
							C749,219.6,748.4,219.8,747.4,219.9C747.5,219.8,747.5,219.8,747.4,219.9"/>
					</g>
				</g>
			</g>
			<g>
				<g>
					<path id="a8OtUzgEu8_14_" class="st1" d="M629.1,261.6c0,0,2-0.1,5.1-0.1c3.2-0.1,7.9-0.1,13.5-0.2c5.6,0,12.1-0.1,19.1-0.1
						c6.9,0,14.4,0.1,21.8,0.1c3.7,0,7.4,0.1,11,0.1c3.6,0,7.3,0.1,10.8,0.1c3.5,0,6.9,0,10,0s6.2,0,8.9-0.1c2.8,0,5.2-0.1,7.7-0.1
						c2.2-0.1,4.2-0.1,5.8-0.2c1.6-0.1,3-0.1,3.7-0.1c0.9,0,1.4-0.1,1.4-0.1c0.7-0.1,1.4-0.3,1.2-0.6c0-0.2-0.6-0.4-1.1-0.4
						c0,0-0.5,0-1.2-0.1c-0.9-0.1-2.1-0.1-3.7-0.2c-1.6-0.1-3.6-0.1-5.8-0.3c-2.2-0.1-4.8-0.1-7.6-0.2c-2.7-0.1-5.8-0.1-9-0.1
						c-3.2,0-6.6,0-10,0.1c-3.5,0.1-7.1,0.1-10.8,0.1c-3.7,0-7.4,0.1-11,0.2c-7.4,0.1-14.9,0.3-21.8,0.4c-7.1,0.1-13.4,0.2-19.1,0.3
						c-5.6,0.1-10.3,0.1-13.5,0.2c-3.2,0-5.1,0-5.1,0c-0.7,0-1.4,0.2-1.4,0.5C627.5,261.4,628.1,261.6,629.1,261.6
						C629,261.5,629,261.5,629.1,261.6"/>
				</g>
				<g>
					<g>
						<path class="st5" d="M629.1,261.6c0,0,2-0.1,5.1-0.1c3.2-0.1,7.9-0.1,13.5-0.2c5.6,0,12.1-0.1,19.1-0.1
							c6.9,0,14.4,0.1,21.8,0.1c3.7,0,7.4,0.1,11,0.1c3.6,0,7.3,0.1,10.8,0.1c3.5,0,6.9,0,10,0s6.2,0,8.9-0.1c2.8,0,5.2-0.1,7.7-0.1
							c2.2-0.1,4.2-0.1,5.8-0.2c1.6-0.1,3-0.1,3.7-0.1c0.9,0,1.4-0.1,1.4-0.1c0.7-0.1,1.4-0.3,1.2-0.6c0-0.2-0.6-0.4-1.1-0.4
							c0,0-0.5,0-1.2-0.1c-0.9-0.1-2.1-0.1-3.7-0.2c-1.6-0.1-3.6-0.1-5.8-0.3c-2.2-0.1-4.8-0.1-7.6-0.2c-2.7-0.1-5.8-0.1-9-0.1
							c-3.2,0-6.6,0-10,0.1c-3.5,0.1-7.1,0.1-10.8,0.1c-3.7,0-7.4,0.1-11,0.2c-7.4,0.1-14.9,0.3-21.8,0.4
							c-7.1,0.1-13.4,0.2-19.1,0.3c-5.6,0.1-10.3,0.1-13.5,0.2c-3.2,0-5.1,0-5.1,0c-0.7,0-1.4,0.2-1.4,0.5
							C627.5,261.4,628.1,261.6,629.1,261.6C629,261.5,629,261.5,629.1,261.6"/>
					</g>
				</g>
			</g>
			<g>
				<g>
					<path id="bHPvHQc13_6_" class="st1" d="M746.9,260.4c0,0,0.1-0.7,0.1-1.8c0.1-1.1,0.1-2.7,0.2-4.6c0-1.9-0.2-4.1-0.4-6.5
						c0-2.4-0.2-5-0.5-7.5c-0.1-1.3-0.2-2.5-0.4-3.8c-0.1-1.3-0.2-2.5-0.2-3.8c-0.1-1.2-0.1-2.4-0.1-3.4c0-1.1,0-2.2,0-3.1
						c0-1,0.1-1.8,0.1-2.6c0.1-0.8,0.2-1.5,0.2-2c0.1-0.6,0.2-1,0.4-1.3c0-0.3,0.2-0.4,0.2-0.4c0.1-0.3,0.7-0.4,1.2-0.4
						s0.9,0.2,1,0.4c0,0,0,0.2,0.2,0.4c0.1,0.3-0.2-0.6-0.1-0.1c0.2,0.6-0.1-0.6,0,0.1c0.1,0.8,0-0.1,0.1,0.9c0.1,1,0.1,3.1,0.1,4.3
						s0.1,4.7,0,6c0,1.3,0.2,3.6,0.1,4.9c-0.2,2.6,0,9-0.1,11.4c-0.1,2.4,0.4,4.6,0.1,6.5c-0.1,1.9-0.2,3.6-0.2,4.6
						c0,1.1,0,1.7,0,1.7c0,0.3-0.5,0.5-1.1,0.5C747.4,260.9,747,260.7,746.9,260.4C747,260.4,747,260.4,746.9,260.4"/>
				</g>
				<g>
					<g>
						<path class="st5" d="M746.9,260.4c0,0,0.1-0.7,0.1-1.8c0.1-1.1,0.1-2.7,0.2-4.6c0-1.9-0.2-4.1-0.4-6.5c0-2.4-0.2-5-0.5-7.5
							c-0.1-1.3-0.2-2.5-0.4-3.8c-0.1-1.3-0.2-2.5-0.2-3.8c-0.1-1.2-0.1-2.4-0.1-3.4c0-1.1,0-2.2,0-3.1c0-1,0.1-1.8,0.1-2.6
							c0.1-0.8,0.2-1.5,0.2-2c0.1-0.6,0.2-1,0.4-1.3c0-0.3,0.2-0.4,0.2-0.4c0.1-0.3,0.7-0.4,1.2-0.4s0.9,0.2,1,0.4
							c0,0,0,0.2,0.2,0.4c0.1,0.3-0.2-0.6-0.1-0.1c0.2,0.6-0.1-0.6,0,0.1c0.1,0.8,0-0.1,0.1,0.9c0.1,1,0.1,3.1,0.1,4.3s0.1,4.7,0,6
							c0,1.3,0.2,3.6,0.1,4.9c-0.2,2.6,0,9-0.1,11.4c-0.1,2.4,0.4,4.6,0.1,6.5c-0.1,1.9-0.2,3.6-0.2,4.6c0,1.1,0,1.7,0,1.7
							c0,0.3-0.5,0.5-1.1,0.5C747.4,260.9,747,260.7,746.9,260.4C747,260.4,747,260.4,746.9,260.4"/>
					</g>
				</g>
			</g>
		</g>
		<g>
			<g>
				<path id="c7z7e1BDi2_14_" class="st1" d="M627.6,261c0,0,0-0.7,0.1-1.8c0.1-1.1,0.1-2.7,0.2-4.7c0-1.9-0.1-4.2-0.4-6.6
					c0-2.4-0.4-5-0.5-7.6c-0.1-1.3-0.2-2.5-0.4-3.8c-0.1-1.3-0.2-2.5-0.2-3.8c-0.1-1.2-0.1-2.4-0.1-3.5s0-2.2,0-3.1
					c0-1,0.1-1.8,0.1-2.7c0.1-0.8,0.2-1.5,0.2-2c0.1-0.6,0.2-1,0.4-1.3c0-0.3,0.2-0.4,0.2-0.4c0.1-0.3,0.7-0.4,1.2-0.4
					s0.9,0.2,1,0.4c0,0,0,0.2,0.2,0.4c0.1,0.3-0.2-0.6-0.1-0.1c0.2,0.6-0.1-0.6,0,0.1c0.1,0.8,0-0.1,0.1,0.9c0.1,1,0.1,3.1,0.1,4.4
					c0,1.2,0.1,4.8,0,6c0,1.3,0.2,3.6,0.1,5c-0.2,2.6,0,9-0.1,11.4s0.4,4.6,0.1,6.6c-0.1,2-0.2,3.6-0.2,4.7c0,1.1,0,1.8,0,1.8
					c0,0.3-0.5,0.5-1.1,0.5C628.2,261.5,627.7,261.4,627.6,261C627.7,261,627.7,261,627.6,261"/>
			</g>
			<g>
				<g>
					<path class="st5" d="M627.6,261c0,0,0-0.7,0.1-1.8c0.1-1.1,0.1-2.7,0.2-4.7c0-1.9-0.1-4.2-0.4-6.6c0-2.4-0.4-5-0.5-7.6
						c-0.1-1.3-0.2-2.5-0.4-3.8c-0.1-1.3-0.2-2.5-0.2-3.8c-0.1-1.2-0.1-2.4-0.1-3.5s0-2.2,0-3.1c0-1,0.1-1.8,0.1-2.7
						c0.1-0.8,0.2-1.5,0.2-2c0.1-0.6,0.2-1,0.4-1.3c0-0.3,0.2-0.4,0.2-0.4c0.1-0.3,0.7-0.4,1.2-0.4s0.9,0.2,1,0.4c0,0,0,0.2,0.2,0.4
						c0.1,0.3-0.2-0.6-0.1-0.1c0.2,0.6-0.1-0.6,0,0.1c0.1,0.8,0-0.1,0.1,0.9c0.1,1,0.1,3.1,0.1,4.4c0,1.2,0.1,4.8,0,6
						c0,1.3,0.2,3.6,0.1,5c-0.2,2.6,0,9-0.1,11.4s0.4,4.6,0.1,6.6c-0.1,2-0.2,3.6-0.2,4.7c0,1.1,0,1.8,0,1.8c0,0.3-0.5,0.5-1.1,0.5
						C628.2,261.5,627.7,261.4,627.6,261C627.7,261,627.7,261,627.6,261"/>
				</g>
			</g>
		</g>
	</g>
	<g id="b3tveFeZ5t_18_">
		<g>
			<text transform="matrix(1 0 0 1 660.8179 244.9366)" class="st1 st6 st7">dataset</text>
		</g>
	</g>
	<g>
		<g>
			<g>
				<path id="a1Y7jzatDS_2_" class="st1" d="M263.6,299.5c0,0-2,0-5.1-0.1c-3.3-0.1-8,0-13.6-0.1c-5.6,0.1-12.3,0-19.3,0.1
					c-7,0.1-14.5,0.2-22,0.3c-3.8,0.1-7.5,0.1-11.1,0.2c-3.6,0.1-7.4,0.1-10.9,0.2c-3.5,0.1-7,0.1-10.1,0.1s-6.3,0.1-9,0
					c-2.9,0-5.4-0.1-7.8-0.1c-2.3-0.1-4.3-0.1-5.9-0.1c-1.6-0.1-3-0.1-3.8-0.1c-0.9,0-1.4-0.1-1.4-0.1c-0.9-0.1-1.4-0.3-1.3-0.6
					c0-0.2,0.5-0.4,1.1-0.4c0,0,0.5,0,1.3-0.1c0.9-0.1,2.1-0.1,3.8-0.3c1.6-0.1,3.6-0.2,5.9-0.3s4.9-0.2,7.6-0.3s5.9-0.1,9.1-0.1
					s6.6-0.1,10.1-0.1c3.5,0,7.1,0,10.9,0.1c3.8,0,7.5,0.1,11.1,0.1c7.5,0.1,15,0.2,22,0.3c7.1,0.1,13.5,0.1,19.3,0.2
					c5.6,0,10.4,0.1,13.6,0.1c3.3,0,5.1,0,5.1,0c0.8,0,1.4,0.2,1.4,0.4C265.2,299.3,264.6,299.5,263.6,299.5
					C263.7,299.5,263.7,299.5,263.6,299.5"/>
			</g>
			<g>
				<g>
					<path class="st5" d="M263.6,299.5c0,0-2,0-5.1-0.1c-3.3-0.1-8,0-13.6-0.1c-5.6,0.1-12.3,0-19.3,0.1c-7,0.1-14.5,0.2-22,0.3
						c-3.8,0.1-7.5,0.1-11.1,0.2c-3.6,0.1-7.4,0.1-10.9,0.2c-3.5,0.1-7,0.1-10.1,0.1s-6.3,0.1-9,0c-2.9,0-5.4-0.1-7.8-0.1
						c-2.3-0.1-4.3-0.1-5.9-0.1c-1.6-0.1-3-0.1-3.8-0.1c-0.9,0-1.4-0.1-1.4-0.1c-0.9-0.1-1.4-0.3-1.3-0.6c0-0.2,0.5-0.4,1.1-0.4
						c0,0,0.5,0,1.3-0.1c0.9-0.1,2.1-0.1,3.8-0.3c1.6-0.1,3.6-0.2,5.9-0.3s4.9-0.2,7.6-0.3s5.9-0.1,9.1-0.1s6.6-0.1,10.1-0.1
						c3.5,0,7.1,0,10.9,0.1c3.8,0,7.5,0.1,11.1,0.1c7.5,0.1,15,0.2,22,0.3c7.1,0.1,13.5,0.1,19.3,0.2c5.6,0,10.4,0.1,13.6,0.1
						c3.3,0,5.1,0,5.1,0c0.8,0,1.4,0.2,1.4,0.4C265.2,299.3,264.6,299.5,263.6,299.5C263.7,299.5,263.7,299.5,263.6,299.5"/>
				</g>
			</g>
		</g>
		<g>
			<g>
				<path id="a8OtUzgEu8_3_" class="st1" d="M143.9,341.2c0,0,2-0.1,5.1-0.1c3.3-0.1,8-0.1,13.6-0.2c5.6,0,12.3-0.1,19.3-0.1
					c7,0,14.5,0.1,22,0.1c3.8,0,7.5,0.1,11.1,0.1c3.6,0,7.4,0.1,10.9,0.1c3.5,0,7,0,10.1,0s6.3,0,9-0.1c2.9,0,5.3-0.1,7.8-0.1
					c2.3-0.1,4.3-0.1,5.9-0.2c1.6-0.1,3-0.1,3.8-0.1c0.9,0,1.4-0.1,1.4-0.1c0.8-0.1,1.4-0.3,1.3-0.6c0-0.2-0.6-0.4-1.1-0.4
					c0,0-0.5,0-1.3-0.1c-0.9-0.1-2.1-0.1-3.8-0.2s-3.6-0.1-5.9-0.3c-2.3-0.1-4.9-0.1-7.6-0.2c-2.8-0.1-5.9-0.1-9.1-0.1
					s-6.6,0-10.1,0.1c-3.5,0.1-7.1,0.1-10.9,0.1c-3.8,0-7.5,0.1-11.1,0.2c-7.5,0.1-15,0.3-22,0.4c-7.1,0.1-13.5,0.2-19.3,0.3
					c-5.6,0.1-10.4,0.1-13.6,0.2c-3.3,0-5.1,0-5.1,0c-0.8,0-1.4,0.2-1.4,0.5C142.2,341.1,142.9,341.2,143.9,341.2
					C143.8,341.2,143.8,341.2,143.9,341.2"/>
			</g>
			<g>
				<g>
					<path class="st5" d="M143.9,341.2c0,0,2-0.1,5.1-0.1c3.3-0.1,8-0.1,13.6-0.2c5.6,0,12.3-0.1,19.3-0.1c7,0,14.5,0.1,22,0.1
						c3.8,0,7.5,0.1,11.1,0.1c3.6,0,7.4,0.1,10.9,0.1c3.5,0,7,0,10.1,0s6.3,0,9-0.1c2.9,0,5.3-0.1,7.8-0.1c2.3-0.1,4.3-0.1,5.9-0.2
						c1.6-0.1,3-0.1,3.8-0.1c0.9,0,1.4-0.1,1.4-0.1c0.8-0.1,1.4-0.3,1.3-0.6c0-0.2-0.6-0.4-1.1-0.4c0,0-0.5,0-1.3-0.1
						c-0.9-0.1-2.1-0.1-3.8-0.2s-3.6-0.1-5.9-0.3c-2.3-0.1-4.9-0.1-7.6-0.2c-2.8-0.1-5.9-0.1-9.1-0.1s-6.6,0-10.1,0.1
						c-3.5,0.1-7.1,0.1-10.9,0.1c-3.8,0-7.5,0.1-11.1,0.2c-7.5,0.1-15,0.3-22,0.4c-7.1,0.1-13.5,0.2-19.3,0.3
						c-5.6,0.1-10.4,0.1-13.6,0.2c-3.3,0-5.1,0-5.1,0c-0.8,0-1.4,0.2-1.4,0.5C142.2,341.1,142.9,341.2,143.9,341.2
						C143.8,341.2,143.8,341.2,143.9,341.2"/>
				</g>
			</g>
		</g>
		<g>
			<g>
				<path id="a8OtUzgEu8_1_" class="st1" d="M148.1,463.2c0,0,1.9-0.1,5-0.1c3.2-0.1,7.8-0.1,13.3-0.2c5.5,0,11.9-0.1,18.7-0.1
					c6.8,0,14.1,0.1,21.4,0.1c3.6,0,7.3,0.1,10.8,0.1c3.5,0,7.2,0.1,10.6,0.1c3.4,0,6.8,0,9.8,0s6.1,0,8.8-0.1
					c2.8,0,5.1-0.1,7.5-0.1c2.2-0.1,4.1-0.1,5.7-0.2c1.6-0.1,2.9-0.1,3.6-0.1c0.9,0,1.3-0.1,1.3-0.1c0.7-0.1,1.3-0.4,1.2-0.7
					c0-0.2-0.6-0.5-1.1-0.5c0,0-0.5,0-1.2-0.1c-0.9-0.1-2.1-0.1-3.6-0.2c-1.6-0.1-3.5-0.1-5.7-0.4c-2.2-0.1-4.7-0.1-7.4-0.2
					c-2.7-0.1-5.7-0.1-8.9-0.1c-3.2,0-6.4,0-9.8,0.1c-3.4,0.1-6.9,0.1-10.6,0.1s-7.3,0.1-10.8,0.2c-7.3,0.1-14.6,0.4-21.4,0.5
					c-6.9,0.1-13.1,0.2-18.7,0.4c-5.5,0.1-10.1,0.1-13.3,0.2c-3.2,0-5,0-5,0c-0.7,0-1.3,0.2-1.3,0.6
					C146.5,463,147.1,463.2,148.1,463.2C147.9,463.2,147.9,463.2,148.1,463.2"/>
			</g>
			<g>
				<g>
					<path class="st5" d="M148.1,463.2c0,0,1.9-0.1,5-0.1c3.2-0.1,7.8-0.1,13.3-0.2c5.5,0,11.9-0.1,18.7-0.1
						c6.8,0,14.1,0.1,21.4,0.1c3.6,0,7.3,0.1,10.8,0.1c3.5,0,7.2,0.1,10.6,0.1c3.4,0,6.8,0,9.8,0s6.1,0,8.8-0.1
						c2.8,0,5.1-0.1,7.5-0.1c2.2-0.1,4.1-0.1,5.7-0.2c1.6-0.1,2.9-0.1,3.6-0.1c0.9,0,1.3-0.1,1.3-0.1c0.7-0.1,1.3-0.4,1.2-0.7
						c0-0.2-0.6-0.5-1.1-0.5c0,0-0.5,0-1.2-0.1c-0.9-0.1-2.1-0.1-3.6-0.2c-1.6-0.1-3.5-0.1-5.7-0.4c-2.2-0.1-4.7-0.1-7.4-0.2
						c-2.7-0.1-5.7-0.1-8.9-0.1c-3.2,0-6.4,0-9.8,0.1c-3.4,0.1-6.9,0.1-10.6,0.1s-7.3,0.1-10.8,0.2c-7.3,0.1-14.6,0.4-21.4,0.5
						c-6.9,0.1-13.1,0.2-18.7,0.4c-5.5,0.1-10.1,0.1-13.3,0.2c-3.2,0-5,0-5,0c-0.7,0-1.3,0.2-1.3,0.6
						C146.5,463,147.1,463.2,148.1,463.2C147.9,463.2,147.9,463.2,148.1,463.2"/>
				</g>
			</g>
		</g>
		<g>
			<g>
				<path id="bHPvHQc13_1_" class="st1" d="M263.1,340c0,0,0.1-0.7,0.1-1.8c0.1-1.1,0.1-2.7,0.3-4.6c0-1.9-0.3-4.1-0.4-6.5
					c0-2.4-0.3-5-0.5-7.5c-0.1-1.3-0.3-2.5-0.4-3.8c-0.1-1.3-0.3-2.5-0.3-3.8c-0.1-1.2-0.1-2.4-0.1-3.4c0-1.1,0-2.2,0-3.1
					c0-1,0.1-1.8,0.1-2.6c0.1-0.8,0.3-1.5,0.3-2c0.1-0.6,0.3-1,0.4-1.3c0-0.3,0.3-0.4,0.3-0.4c0.1-0.3,0.8-0.4,1.3-0.4
					s0.9,0.2,1,0.4c0,0,0,0.2,0.3,0.4c0.1,0.3-0.3-0.6-0.1-0.1c0.3,0.6-0.1-0.6,0,0.1c0.1,0.8,0-0.1,0.1,0.9c0.1,1,0.1,3.1,0.1,4.3
					c0,1.2,0.1,4.7,0,6c0,1.3,0.3,3.6,0.1,4.9c-0.3,2.6,0,9-0.1,11.4s0.4,4.6,0.1,6.5c-0.1,1.9-0.3,3.6-0.3,4.6s0,1.7,0,1.7
					c0,0.3-0.5,0.5-1.1,0.5C263.6,340.5,263.2,340.4,263.1,340C263.2,340,263.2,340,263.1,340"/>
			</g>
			<g>
				<g>
					<path class="st5" d="M263.1,340c0,0,0.1-0.7,0.1-1.8c0.1-1.1,0.1-2.7,0.3-4.6c0-1.9-0.3-4.1-0.4-6.5c0-2.4-0.3-5-0.5-7.5
						c-0.1-1.3-0.3-2.5-0.4-3.8c-0.1-1.3-0.3-2.5-0.3-3.8c-0.1-1.2-0.1-2.4-0.1-3.4c0-1.1,0-2.2,0-3.1c0-1,0.1-1.8,0.1-2.6
						c0.1-0.8,0.3-1.5,0.3-2c0.1-0.6,0.3-1,0.4-1.3c0-0.3,0.3-0.4,0.3-0.4c0.1-0.3,0.8-0.4,1.3-0.4s0.9,0.2,1,0.4c0,0,0,0.2,0.3,0.4
						c0.1,0.3-0.3-0.6-0.1-0.1c0.3,0.6-0.1-0.6,0,0.1c0.1,0.8,0-0.1,0.1,0.9c0.1,1,0.1,3.1,0.1,4.3c0,1.2,0.1,4.7,0,6
						c0,1.3,0.3,3.6,0.1,4.9c-0.3,2.6,0,9-0.1,11.4s0.4,4.6,0.1,6.5c-0.1,1.9-0.3,3.6-0.3,4.6s0,1.7,0,1.7c0,0.3-0.5,0.5-1.1,0.5
						C263.6,340.5,263.2,340.4,263.1,340C263.2,340,263.2,340,263.1,340"/>
				</g>
			</g>
		</g>
		<g>
			<g>
				<path id="c7z7e1BDi2_3_" class="st1" d="M142.4,340.6c0,0,0-0.7,0.1-1.8c0.1-1.1,0.1-2.7,0.3-4.7c0-1.9-0.1-4.2-0.4-6.6
					c0-2.4-0.4-5-0.5-7.6c-0.1-1.3-0.3-2.5-0.4-3.8c-0.1-1.3-0.3-2.5-0.3-3.8c-0.1-1.2-0.1-2.4-0.1-3.5s0-2.2,0-3.1
					c0-1,0.1-1.8,0.1-2.7c0.1-0.8,0.3-1.5,0.3-2c0.1-0.6,0.3-1,0.4-1.3c0-0.3,0.3-0.4,0.3-0.4c0.1-0.3,0.8-0.4,1.3-0.4
					s0.9,0.2,1,0.4c0,0,0,0.2,0.3,0.4c0.1,0.3-0.3-0.6-0.1-0.1c0.3,0.6-0.1-0.6,0,0.1c0.1,0.8,0-0.1,0.1,0.9c0.1,1,0.1,3.1,0.1,4.4
					c0,1.2,0.1,4.8,0,6c0,1.3,0.3,3.6,0.1,5c-0.3,2.6,0,9-0.1,11.4c-0.1,2.4,0.4,4.6,0.1,6.6c-0.1,2-0.3,3.6-0.3,4.7s0,1.8,0,1.8
					c0,0.3-0.5,0.5-1.1,0.5C143,341.2,142.5,341,142.4,340.6C142.5,340.7,142.5,340.7,142.4,340.6"/>
			</g>
			<g>
				<g>
					<path class="st5" d="M142.4,340.6c0,0,0-0.7,0.1-1.8c0.1-1.1,0.1-2.7,0.3-4.7c0-1.9-0.1-4.2-0.4-6.6c0-2.4-0.4-5-0.5-7.6
						c-0.1-1.3-0.3-2.5-0.4-3.8c-0.1-1.3-0.3-2.5-0.3-3.8c-0.1-1.2-0.1-2.4-0.1-3.5s0-2.2,0-3.1c0-1,0.1-1.8,0.1-2.7
						c0.1-0.8,0.3-1.5,0.3-2c0.1-0.6,0.3-1,0.4-1.3c0-0.3,0.3-0.4,0.3-0.4c0.1-0.3,0.8-0.4,1.3-0.4s0.9,0.2,1,0.4c0,0,0,0.2,0.3,0.4
						c0.1,0.3-0.3-0.6-0.1-0.1c0.3,0.6-0.1-0.6,0,0.1c0.1,0.8,0-0.1,0.1,0.9c0.1,1,0.1,3.1,0.1,4.4c0,1.2,0.1,4.8,0,6
						c0,1.3,0.3,3.6,0.1,5c-0.3,2.6,0,9-0.1,11.4c-0.1,2.4,0.4,4.6,0.1,6.6c-0.1,2-0.3,3.6-0.3,4.7s0,1.8,0,1.8
						c0,0.3-0.5,0.5-1.1,0.5C143,341.2,142.5,341,142.4,340.6C142.5,340.7,142.5,340.7,142.4,340.6"/>
				</g>
			</g>
		</g>
	</g>
	<g id="b3tveFeZ5t_4_">
		<g>
			<text transform="matrix(1 0 0 1 177.2043 325.6489)" class="st1 st6 st7">record</text>
		</g>
	</g>
	<g>
		<g>
			<path id="bKr4rEUKz_1_" class="st1" d="M201.9,379.1c0,0,0-0.5,0.1-1.4c0.1-0.8,0.1-2.1,0.1-3.6c0,0-0.1-14.4-0.1-15.8
				c-0.1-1.3-0.1-3.5-0.1-4.8c-0.1-1.3-0.1-2-0.1-3.1c0-1.2,0-2.3,0-3.3s-0.1-3.2,0-3.8c0-0.6,0-1,0.1-1.4c0-0.3,0.1-0.5,0.1-0.5
				c0-0.3,0.1-0.5,0.3-0.5s0.2,0.2,0.3,0.4c0,0,0,0.2,0.1,0.5c0,0.3,0.1,0.8,0.1,1.4c0.1,0.6,0.1,1.3,0.2,2.1c0,0.8,0.1,1.8,0.1,2.8
				c0.1,1,0.1,2.2,0.1,3.3c0,1.2,0.1,2.4,0.1,3.6c0,1.3,0,2.6,0,4c0,1.3,0,2.7,0,4c0,2.7-0.1,3.9,0,5.8c-0.1,1.8-0.1,3.5-0.2,5
				c0,1.5-0.1,2.7-0.1,3.6s0,1.4,0,1.4c0,0.2-0.1,0.4-0.4,0.4C202,379.5,201.9,379.3,201.9,379.1L201.9,379.1"/>
		</g>
		<g>
			<g>
				<path class="st5" d="M201.9,379.1c0,0,0-0.5,0.1-1.4c0.1-0.8,0.1-2.1,0.1-3.6c0,0-0.1-14.4-0.1-15.8c-0.1-1.3-0.1-3.5-0.1-4.8
					c-0.1-1.3-0.1-2-0.1-3.1c0-1.2,0-2.3,0-3.3s-0.1-3.2,0-3.8c0-0.6,0-1,0.1-1.4c0-0.3,0.1-0.5,0.1-0.5c0-0.3,0.1-0.5,0.3-0.5
					s0.2,0.2,0.3,0.4c0,0,0,0.2,0.1,0.5c0,0.3,0.1,0.8,0.1,1.4c0.1,0.6,0.1,1.3,0.2,2.1c0,0.8,0.1,1.8,0.1,2.8
					c0.1,1,0.1,2.2,0.1,3.3c0,1.2,0.1,2.4,0.1,3.6c0,1.3,0,2.6,0,4c0,1.3,0,2.7,0,4c0,2.7-0.1,3.9,0,5.8c-0.1,1.8-0.1,3.5-0.2,5
					c0,1.5-0.1,2.7-0.1,3.6s0,1.4,0,1.4c0,0.2-0.1,0.4-0.4,0.4C202,379.5,201.9,379.3,201.9,379.1L201.9,379.1"/>
			</g>
		</g>
	</g>
	<g>
		<g>
			<g>
				<g>
					<path id="a1Y7jzatDS_1_" class="st1" d="M264.5,381.3c0,0-1.9,0-5-0.1c-3.2-0.1-7.9,0-13.3-0.1c-5.5,0.1-12,0-18.8,0.1
						c-6.9,0.1-14.2,0.2-21.6,0.3c-3.6,0.1-7.4,0.1-10.9,0.2c-3.5,0.1-7.3,0.1-10.7,0.2c-3.4,0.1-6.9,0.1-9.9,0.1
						c-3,0.1-6.1,0.1-8.8,0c-2.8,0-5.2-0.1-7.6-0.1c-2.2-0.1-4.1-0.1-5.7-0.1c-1.6-0.1-2.9-0.1-3.6-0.1c-0.8,0-1.3-0.1-1.3-0.1
						c-0.8-0.1-0.8-0.1-0.7-0.5c0-0.5,0.6-0.5,0.6-0.5s0.5,0,1.2-0.1c0.8-0.1,2.1-0.1,3.6-0.3c1.6-0.1,3.5-0.2,5.7-0.3
						c2.2-0.1,4.7-0.2,7.5-0.3c2.8-0.1,5.7-0.1,9-0.1c3.2,0,6.4-0.1,9.9-0.1c3.4,0,7,0,10.7,0.1c3.6,0,7.4,0.1,10.9,0.1
						c7.4,0.1,14.7,0.2,21.6,0.3c7,0.1,13.2,0.1,18.8,0.2c5.5,0,10.2,0.1,13.3,0.1c3.2,0,5,0,5,0c0.7,0,1.3,0.2,1.3,0.4
						C266.2,381,265.6,381.2,264.5,381.3C264.7,381.2,264.7,381.2,264.5,381.3"/>
				</g>
				<g>
					<g>
						<path class="st5" d="M148.4,380.7c0.8-0.1,2.1-0.1,3.6-0.3c1.6-0.1,3.5-0.2,5.7-0.3c2.2-0.1,4.7-0.2,7.5-0.3
							c2.8-0.1,5.7-0.1,9-0.1c3.2,0,6.4-0.1,9.9-0.1c3.4,0,7,0,10.7,0.1c3.6,0,7.4,0.1,10.9,0.1c7.4,0.1,14.7,0.2,21.6,0.3
							c7,0.1,13.2,0.1,18.8,0.2c5.5,0,10.2,0.1,13.3,0.1c3.2,0,5,0,5,0c0.7,0,1.3,0.2,1.3,0.4c0.5,0.2-0.1,0.4-1.1,0.4
							c0.1-0.1,0.1-0.1,0,0"/>
						<path class="st5" d="M264.5,381.3c0,0-1.9,0-5-0.1c-3.2-0.1-7.9,0-13.3-0.1c-5.5,0.1-12,0-18.8,0.1
							c-6.9,0.1-14.2,0.2-21.6,0.3c-3.6,0.1-7.4,0.1-10.9,0.2c-3.5,0.1-7.3,0.1-10.7,0.2c-3.4,0.1-6.9,0.1-9.9,0.1
							c-3,0.1-6.1,0.1-8.8,0c-2.8,0-5.2-0.1-7.6-0.1c-2.2-0.1-4.1-0.1-5.7-0.1c-1.6-0.1-2.9-0.1-3.6-0.1c-0.8,0-1.3-0.1-1.3-0.1
							c-0.8-0.1-0.8-0.3-0.7-0.5"/>
					</g>
				</g>
			</g>
			<g>
				<g>
					<path id="a8OtUzgEu8_2_" class="st1" d="M148.2,412.5c0,0,1.9-0.1,5-0.1c3.2-0.1,7.8-0.1,13.2-0.2c5.5,0,11.9-0.1,18.7-0.1
						c6.8,0,14.1,0.1,21.3,0.1c3.6,0,7.3,0.1,10.8,0.1s7.2,0.1,10.5,0.1c3.4,0,6.8,0,9.8,0s6.1,0,8.7-0.1c2.8,0,5.1-0.1,7.5-0.1
						c2.2-0.1,4.1-0.1,5.7-0.2s2.9-0.1,3.6-0.1c0.8,0,1.3-0.1,1.3-0.1c0.7-0.1,1.3-0.3,1.2-0.6c0-0.2-0.6-0.4-1.1-0.4
						c0,0-0.5,0-1.2-0.1c-0.8-0.1-2.1-0.1-3.6-0.2s-3.5-0.1-5.7-0.3c-2.2-0.1-4.7-0.1-7.4-0.2c-2.7-0.1-5.7-0.1-8.8-0.1
						s-6.4,0-9.8,0.1c-3.4,0.1-6.9,0.1-10.5,0.1s-7.3,0.1-10.8,0.2c-7.3,0.1-14.5,0.3-21.3,0.4c-6.9,0.1-13.1,0.2-18.7,0.3
						c-5.5,0.1-10.1,0.1-13.2,0.2c-3.2,0-5,0-5,0c-0.7,0-1.3,0.2-1.3,0.5C147.2,412,147.3,412.5,148.2,412.5
						C148.1,412.4,148.1,412.4,148.2,412.5"/>
				</g>
				<g>
					<g>
						<path class="st5" d="M246.3,412.4c2.8,0,5.1-0.1,7.5-0.1c2.2-0.1,4.1-0.1,5.7-0.2c1.6-0.1,2.9-0.1,3.6-0.1
							c0.8,0,1.3-0.1,1.3-0.1c0.7-0.1,1.3-0.3,1.2-0.6c0-0.2-0.6-0.4-1.1-0.4c0,0-0.5,0-1.2-0.1c-0.8-0.1-2.1-0.1-3.6-0.2
							c-1.6-0.1-3.5-0.1-5.7-0.3c-2.2-0.1-4.7-0.1-7.4-0.2c-2.7-0.1-5.7-0.1-8.8-0.1s-6.4,0-9.8,0.1c-3.4,0.1-6.9,0.1-10.5,0.1
							s-7.3,0.1-10.8,0.2c-7.3,0.1-14.5,0.3-21.3,0.4c-6.9,0.1-13.1,0.2-18.7,0.3c-5.5,0.1-10.1,0.1-13.2,0.2c-3.2,0-5,0-5,0
							c-0.7,0-1.3,0.2-1.3,0.5c0,0.7,0.1,0.5,1.1,0.5c-0.1-0.1-0.1-0.1,0,0"/>
						<path class="st5" d="M148.2,412.5c0,0,1.9-0.1,5-0.1c3.2-0.1,7.8-0.1,13.2-0.2c5.5,0,11.9-0.1,18.7-0.1
							c6.8,0,14.1,0.1,21.3,0.1c3.6,0,7.3,0.1,10.8,0.1s7.2,0.1,10.5,0.1"/>
					</g>
				</g>
			</g>
		</g>
		<g>
			<g>
				<path id="c7z7e1BDi2_2_" class="st1" d="M146.6,461.7c0,0,0-1.4,0.1-3.5c0.1-2.2,0.1-5.3,0.2-9.1c0-3.7-0.1-8.2-0.2-12.9
					c0-4.7-0.2-9.6-0.4-14.7c-0.1-2.5-0.2-4.9-0.2-7.4c-0.1-2.5-0.2-4.9-0.2-7.3c-0.1-2.3-0.1-4.7-0.1-6.8c0-2.1,0-4.2,0-6.1
					s0.1-3.6,0.1-5.2c0.1-1.5,0.2-2.8,0.2-4c0.1-1.1,0.2-2,0.2-2.5c0-0.2,0.2-0.9,0.2-0.9c0.2-0.8,1.1-0.8,0.7-0.8
					c-0.4,0,0.8,0.3,1,0.6v0.4c0,0,0,0.3,0,0.4v0.2c0.1,1.5,0-0.1,0.1,1.7c0.1,1.9,0.1,6.1,0.1,8.5c0,2.3,0.1,9.3,0,11.7
					c0,2.5,0.2,7,0.1,9.6c-0.2,5.1,0,17.6-0.1,22.3c-0.1,4.7,0.2,9,0.1,12.9c-0.1,3.8-0.2,6.9-0.2,9.1s0,3.5,0,3.5
					c0,0.5-0.2,1-0.7,1C147.2,462.9,146.7,462.5,146.6,461.7C146.7,461.8,146.7,461.8,146.6,461.7"/>
			</g>
		</g>
		<g>
			<g>
				<path id="c7z7e1BDi2_1_" class="st1" d="M264.2,381.5C264.4,381.4,264.4,381.4,264.2,381.5c0.1-0.7,0.6-1.2,1-1
					c0.5,0,0.7,0.5,0.7,1c0,0,0,1.2,0,3.5s0.1,5.3,0.2,9.1c0.2,3.8-0.2,8.1-0.1,12.8c0.1,4.7-0.1,17.1,0.1,22.2
					c0.1,2.6-0.1,7.1-0.1,9.6c0.1,2.5,0,9.4,0,11.7c0,2.5,0,6.7-0.1,8.5s0,0.3-0.1,1.7v0.2c0,0.1,0,0.4,0,0.4l-0.1,0.5l-0.8,0.1
					c0,0-1.3,0.1-0.8-0.3c0,0-0.1-0.7-0.2-0.9c-0.1-0.5-0.2-1.4-0.2-2.5s-0.1-2.5-0.2-3.9c0-1.6-0.1-3.3-0.1-5.2s0-3.9,0-6
					s0-4.4,0.1-6.8c0-2.3,0.1-4.8,0.2-7.3c0.1-2.5,0.2-4.9,0.2-7.4c0.1-5.1,0.4-10,0.4-14.7c0.2-4.7,0.2-9.1,0.2-12.8
					c-0.1-3.8-0.1-6.9-0.2-9.1C264.2,382.9,264.2,381.5,264.2,381.5"/>
			</g>
		</g>
	</g>
	<g id="b3tveFeZ5t_3_">
		<g>
			<text transform="matrix(1 0 0 1 186.1095 402.2991)" class="st1 st6 st7">field</text>
		</g>
	</g>
	<g id="b3tveFeZ5t_2_">
		<g>
			<text transform="matrix(1 0 0 1 155.768 430.2369)" class="st1 st6 st8">name: „Messung“</text>
		</g>
	</g>
	<g id="b3tveFeZ5t_1_">
		<g>
			<text transform="matrix(1 0 0 1 155.7682 449.8991)" class="st1 st6 st8">value: „1,2,3“</text>
		</g>
	</g>
	<g>
		<g>
			<path id="bKr4rEUKz_12_" class="st1" d="M772.5,300.4c0,0-0.3-0.6-0.8-1.5c-0.5-1-1.3-2.3-2.3-3.9c0,0-9.5-15.6-10.5-17
				c-0.9-1.4-2.4-3.8-3.2-5.1c-0.9-1.4-1.4-2.1-2.1-3.3c-0.8-1.3-1.5-2.5-2.2-3.5c-0.7-1.1-2.2-3.4-2.5-4.1
				c-0.4-0.6-0.7-1.1-0.8-1.5c-0.2-0.4-0.3-0.6-0.3-0.6c-0.2-0.3-0.2-0.6,0-0.7c0.1-0.1,0.3,0.1,0.5,0.3c0,0,0.1,0.2,0.4,0.5
				c0.2,0.4,0.6,0.8,1,1.4c0.5,0.6,1,1.3,1.6,2.2s1.3,1.8,2,2.9c0.8,1.1,1.5,2.3,2.3,3.5c0.8,1.3,1.7,2.6,2.5,3.9
				c0.9,1.4,1.7,2.8,2.6,4.3c0.9,1.4,1.8,2.9,2.6,4.4c1.8,3,2.5,4.3,3.8,6.3c1.1,2,2.2,3.9,3.1,5.6c1,1.6,1.7,3,2.3,3.9
				s0.9,1.5,0.9,1.5c0.1,0.2,0.1,0.5-0.2,0.7C772.9,300.7,772.6,300.6,772.5,300.4L772.5,300.4"/>
		</g>
		<g>
			<g>
				<path class="st5" d="M772.5,300.4c0,0-0.3-0.6-0.8-1.5c-0.5-1-1.3-2.3-2.3-3.9c0,0-9.5-15.6-10.5-17c-0.9-1.4-2.4-3.8-3.2-5.1
					c-0.9-1.4-1.4-2.1-2.1-3.3c-0.8-1.3-1.5-2.5-2.2-3.5c-0.7-1.1-2.2-3.4-2.5-4.1c-0.4-0.6-0.7-1.1-0.8-1.5
					c-0.2-0.4-0.3-0.6-0.3-0.6c-0.2-0.3-0.2-0.6,0-0.7c0.1-0.1,0.3,0.1,0.5,0.3c0,0,0.1,0.2,0.4,0.5c0.2,0.4,0.6,0.8,1,1.4
					c0.5,0.6,1,1.3,1.6,2.2s1.3,1.8,2,2.9c0.8,1.1,1.5,2.3,2.3,3.5c0.8,1.3,1.7,2.6,2.5,3.9c0.9,1.4,1.7,2.8,2.6,4.3
					c0.9,1.4,1.8,2.9,2.6,4.4c1.8,3,2.5,4.3,3.8,6.3c1.1,2,2.2,3.9,3.1,5.6c1,1.6,1.7,3,2.3,3.9s0.9,1.5,0.9,1.5
					c0.1,0.2,0.1,0.5-0.2,0.7C772.9,300.7,772.6,300.6,772.5,300.4L772.5,300.4"/>
			</g>
		</g>
	</g>
	<g>
		<g>
			<path id="bKr4rEUKz_10_" class="st1" d="M605.1,300.9L605.1,300.9c-0.1,0.2-0.4,0.3-0.8,0.1c-0.3-0.2-0.3-0.5-0.2-0.7
				c0,0,0.3-0.6,0.9-1.5c0.6-0.9,1.3-2.3,2.3-3.9c0.9-1.7,2-3.5,3.1-5.6c1.3-2,2-3.4,3.8-6.3c0.8-1.5,1.7-3,2.6-4.4
				c0.9-1.5,1.8-2.9,2.6-4.3c0.8-1.3,1.7-2.6,2.5-3.9c0.8-1.2,1.6-2.4,2.3-3.5s1.4-2,2-2.9s1.2-1.6,1.6-2.2c0.5-0.6,0.8-1,1-1.4
				c0.2-0.2,0.4-0.5,0.4-0.5c0.2-0.2,0.4-0.3,0.5-0.3c0.1,0.1,0.2,0.4,0,0.7c0,0-0.1,0.3-0.3,0.6c-0.1,0.4-0.4,0.9-0.8,1.5
				c-0.3,0.7-1.8,3-2.5,4.1c-0.6,1.1-1.4,2.3-2.2,3.5c-0.7,1.2-1.2,1.9-2.1,3.3c-0.8,1.3-2.3,3.7-3.2,5.1c-1,1.4-10.5,17-10.5,17
				c-1,1.6-1.8,3-2.3,3.9S605.1,300.9,605.1,300.9"/>
		</g>
		<g>
			<g>
				<path class="st5" d="M605.1,300.9L605.1,300.9c-0.1,0.2-0.4,0.3-0.8,0.1c-0.3-0.2-0.3-0.5-0.2-0.7c0,0,0.3-0.6,0.9-1.5
					c0.6-0.9,1.3-2.3,2.3-3.9c0.9-1.7,2-3.5,3.1-5.6c1.3-2,2-3.4,3.8-6.3c0.8-1.5,1.7-3,2.6-4.4c0.9-1.5,1.8-2.9,2.6-4.3
					c0.8-1.3,1.7-2.6,2.5-3.9c0.8-1.2,1.6-2.4,2.3-3.5s1.4-2,2-2.9s1.2-1.6,1.6-2.2c0.5-0.6,0.8-1,1-1.4c0.2-0.2,0.4-0.5,0.4-0.5
					c0.2-0.2,0.4-0.3,0.5-0.3c0.1,0.1,0.2,0.4,0,0.7c0,0-0.1,0.3-0.3,0.6c-0.1,0.4-0.4,0.9-0.8,1.5c-0.3,0.7-1.8,3-2.5,4.1
					c-0.6,1.1-1.4,2.3-2.2,3.5c-0.7,1.2-1.2,1.9-2.1,3.3c-0.8,1.3-2.3,3.7-3.2,5.1c-1,1.4-10.5,17-10.5,17c-1,1.6-1.8,3-2.3,3.9
					S605.1,300.9,605.1,300.9"/>
			</g>
		</g>
	</g>
	<g>
		<g>
			<g>
				<g>
					<path id="a1Y7jzatDS_5_" class="st1" d="M605.2,299.5c0,0-2,0-5.1-0.1c-3.3-0.1-8,0-13.6-0.1c-5.6,0.1-12.3,0-19.3,0.1
						c-7,0.1-14.5,0.2-22,0.3c-3.8,0.1-7.5,0.1-11.1,0.2c-3.6,0.1-7.4,0.1-10.9,0.2s-7,0.1-10.1,0.1c-3.1,0-6.3,0.1-9,0
						c-2.9,0-5.4-0.1-7.8-0.1c-2.3-0.1-4.3-0.1-5.9-0.1c-1.6-0.1-3-0.1-3.8-0.1c-0.9,0-1.4-0.1-1.4-0.1c-0.9-0.1-1.4-0.3-1.3-0.6
						c0-0.2,0.5-0.4,1.1-0.4c0,0,0.5,0,1.3-0.1c0.9-0.1,2.1-0.1,3.8-0.3c1.6-0.1,3.6-0.2,5.9-0.3s4.9-0.2,7.6-0.3
						c2.8-0.1,5.9-0.1,9.1-0.1s6.6-0.1,10.1-0.1s7.1,0,10.9,0.1c3.8,0,7.5,0.1,11.1,0.1c7.5,0.1,15,0.2,22,0.3
						c7.1,0.1,13.5,0.1,19.3,0.2c5.6,0,10.4,0.1,13.6,0.1s5.1,0,5.1,0c0.8,0,1.4,0.2,1.4,0.4C606.8,299.3,606.2,299.5,605.2,299.5
						C605.3,299.5,605.3,299.5,605.2,299.5"/>
				</g>
				<g>
					<g>
						<path class="st5" d="M605.2,299.5c0,0-2,0-5.1-0.1c-3.3-0.1-8,0-13.6-0.1c-5.6,0.1-12.3,0-19.3,0.1c-7,0.1-14.5,0.2-22,0.3
							c-3.8,0.1-7.5,0.1-11.1,0.2c-3.6,0.1-7.4,0.1-10.9,0.2s-7,0.1-10.1,0.1c-3.1,0-6.3,0.1-9,0c-2.9,0-5.4-0.1-7.8-0.1
							c-2.3-0.1-4.3-0.1-5.9-0.1c-1.6-0.1-3-0.1-3.8-0.1c-0.9,0-1.4-0.1-1.4-0.1c-0.9-0.1-1.4-0.3-1.3-0.6c0-0.2,0.5-0.4,1.1-0.4
							c0,0,0.5,0,1.3-0.1c0.9-0.1,2.1-0.1,3.8-0.3c1.6-0.1,3.6-0.2,5.9-0.3s4.9-0.2,7.6-0.3c2.8-0.1,5.9-0.1,9.1-0.1
							s6.6-0.1,10.1-0.1s7.1,0,10.9,0.1c3.8,0,7.5,0.1,11.1,0.1c7.5,0.1,15,0.2,22,0.3c7.1,0.1,13.5,0.1,19.3,0.2
							c5.6,0,10.4,0.1,13.6,0.1s5.1,0,5.1,0c0.8,0,1.4,0.2,1.4,0.4C606.8,299.3,606.2,299.5,605.2,299.5
							C605.3,299.5,605.3,299.5,605.2,299.5"/>
					</g>
				</g>
			</g>
			<g>
				<g>
					<path id="a8OtUzgEu8_7_" class="st1" d="M485.5,341.2c0,0,2-0.1,5.1-0.1c3.3-0.1,8-0.1,13.6-0.2c5.6,0,12.3-0.1,19.3-0.1
						c7,0,14.5,0.1,22,0.1c3.8,0,7.5,0.1,11.1,0.1c3.6,0,7.4,0.1,10.9,0.1c3.5,0,7,0,10.1,0s6.3,0,9-0.1c2.9,0,5.3-0.1,7.8-0.1
						c2.3-0.1,4.3-0.1,5.9-0.2c1.6-0.1,3-0.1,3.8-0.1c0.9,0,1.4-0.1,1.4-0.1c0.8-0.1,1.4-0.3,1.3-0.6c0-0.2-0.6-0.4-1.1-0.4
						c0,0-0.5,0-1.3-0.1c-0.9-0.1-2.1-0.1-3.8-0.2s-3.6-0.1-5.9-0.3c-2.3-0.1-4.9-0.1-7.6-0.2c-2.8-0.1-5.9-0.1-9.1-0.1
						s-6.6,0-10.1,0.1c-3.5,0.1-7.1,0.1-10.9,0.1s-7.5,0.1-11.1,0.2c-7.5,0.1-15,0.3-22,0.4c-7.1,0.1-13.5,0.2-19.3,0.3
						c-5.6,0.1-10.4,0.1-13.6,0.2c-3.3,0-5.1,0-5.1,0c-0.8,0-1.4,0.2-1.4,0.5C483.9,341.1,484.5,341.2,485.5,341.2
						C485.4,341.2,485.4,341.2,485.5,341.2"/>
				</g>
				<g>
					<g>
						<path class="st5" d="M485.5,341.2c0,0,2-0.1,5.1-0.1c3.3-0.1,8-0.1,13.6-0.2c5.6,0,12.3-0.1,19.3-0.1c7,0,14.5,0.1,22,0.1
							c3.8,0,7.5,0.1,11.1,0.1c3.6,0,7.4,0.1,10.9,0.1c3.5,0,7,0,10.1,0s6.3,0,9-0.1c2.9,0,5.3-0.1,7.8-0.1c2.3-0.1,4.3-0.1,5.9-0.2
							c1.6-0.1,3-0.1,3.8-0.1c0.9,0,1.4-0.1,1.4-0.1c0.8-0.1,1.4-0.3,1.3-0.6c0-0.2-0.6-0.4-1.1-0.4c0,0-0.5,0-1.3-0.1
							c-0.9-0.1-2.1-0.1-3.8-0.2s-3.6-0.1-5.9-0.3c-2.3-0.1-4.9-0.1-7.6-0.2c-2.8-0.1-5.9-0.1-9.1-0.1s-6.6,0-10.1,0.1
							c-3.5,0.1-7.1,0.1-10.9,0.1s-7.5,0.1-11.1,0.2c-7.5,0.1-15,0.3-22,0.4c-7.1,0.1-13.5,0.2-19.3,0.3c-5.6,0.1-10.4,0.1-13.6,0.2
							c-3.3,0-5.1,0-5.1,0c-0.8,0-1.4,0.2-1.4,0.5C483.9,341.1,484.5,341.2,485.5,341.2C485.4,341.2,485.4,341.2,485.5,341.2"/>
					</g>
				</g>
			</g>
			<g>
				<g>
					<path id="a8OtUzgEu8_6_" class="st1" d="M487.7,462.1c0,0,1.9-0.1,5-0.1c3.2-0.1,7.8-0.1,13.3-0.2c5.5,0,11.9-0.1,18.7-0.1
						c6.8,0,14.1,0.1,21.4,0.1c3.6,0,7.3,0.1,10.8,0.1s7.2,0.1,10.6,0.1c3.4,0,6.8,0,9.8,0s6.1,0,8.8-0.1c2.8,0,5.1-0.1,7.5-0.1
						c2.2-0.1,4.1-0.1,5.7-0.2c1.6-0.1,2.9-0.1,3.6-0.1c0.9,0,1.3-0.1,1.3-0.1c0.7-0.1,1.3-0.4,1.2-0.7c0-0.2-0.6-0.5-1.1-0.5
						c0,0-0.5,0-1.2-0.1c-0.9-0.1-2.1-0.1-3.6-0.2c-1.6-0.1-3.5-0.1-5.7-0.4c-2.2-0.1-4.7-0.1-7.4-0.2c-2.7-0.1-5.7-0.1-8.9-0.1
						s-6.4,0-9.8,0.1s-6.9,0.1-10.6,0.1s-7.3,0.1-10.8,0.2c-7.3,0.1-14.6,0.4-21.4,0.5c-6.9,0.1-13.1,0.2-18.7,0.4
						c-5.5,0.1-10.1,0.1-13.3,0.2c-3.2,0-5,0-5,0c-0.7,0-1.3,0.2-1.3,0.6C486.1,462,486.7,462.1,487.7,462.1
						C487.5,462.1,487.5,462.1,487.7,462.1"/>
				</g>
				<g>
					<g>
						<path class="st5" d="M487.7,462.1c0,0,1.9-0.1,5-0.1c3.2-0.1,7.8-0.1,13.3-0.2c5.5,0,11.9-0.1,18.7-0.1
							c6.8,0,14.1,0.1,21.4,0.1c3.6,0,7.3,0.1,10.8,0.1s7.2,0.1,10.6,0.1c3.4,0,6.8,0,9.8,0s6.1,0,8.8-0.1c2.8,0,5.1-0.1,7.5-0.1
							c2.2-0.1,4.1-0.1,5.7-0.2c1.6-0.1,2.9-0.1,3.6-0.1c0.9,0,1.3-0.1,1.3-0.1c0.7-0.1,1.3-0.4,1.2-0.7c0-0.2-0.6-0.5-1.1-0.5
							c0,0-0.5,0-1.2-0.1c-0.9-0.1-2.1-0.1-3.6-0.2c-1.6-0.1-3.5-0.1-5.7-0.4c-2.2-0.1-4.7-0.1-7.4-0.2c-2.7-0.1-5.7-0.1-8.9-0.1
							s-6.4,0-9.8,0.1s-6.9,0.1-10.6,0.1s-7.3,0.1-10.8,0.2c-7.3,0.1-14.6,0.4-21.4,0.5c-6.9,0.1-13.1,0.2-18.7,0.4
							c-5.5,0.1-10.1,0.1-13.3,0.2c-3.2,0-5,0-5,0c-0.7,0-1.3,0.2-1.3,0.6C486.1,462,486.7,462.1,487.7,462.1
							C487.5,462.1,487.5,462.1,487.7,462.1"/>
					</g>
				</g>
			</g>
			<g>
				<g>
					<path id="bHPvHQc13_3_" class="st1" d="M604.7,340c0,0,0.1-0.7,0.1-1.8c0.1-1.1,0.1-2.7,0.3-4.6c0-1.9-0.3-4.1-0.4-6.5
						c0-2.4-0.3-5-0.5-7.5c-0.1-1.3-0.3-2.5-0.4-3.8c-0.1-1.3-0.3-2.5-0.3-3.8c-0.1-1.2-0.1-2.4-0.1-3.4c0-1.1,0-2.2,0-3.1
						c0-1,0.1-1.8,0.1-2.6c0.1-0.8,0.3-1.5,0.3-2c0.1-0.6,0.3-1,0.4-1.3c0-0.3,0.3-0.4,0.3-0.4c0.1-0.3,0.8-0.4,1.3-0.4
						s0.9,0.2,1,0.4c0,0,0,0.2,0.3,0.4c0.1,0.3-0.3-0.6-0.1-0.1c0.3,0.6-0.1-0.6,0,0.1c0.1,0.8,0-0.1,0.1,0.9s0.1,3.1,0.1,4.3
						c0,1.2,0.1,4.7,0,6c0,1.3,0.3,3.6,0.1,4.9c-0.3,2.6,0,9-0.1,11.4c-0.1,2.4,0.4,4.6,0.1,6.5c-0.1,1.9-0.3,3.6-0.3,4.6
						s0,1.7,0,1.7c0,0.3-0.5,0.5-1.1,0.5C605.2,340.5,604.8,340.4,604.7,340C604.8,340,604.8,340,604.7,340"/>
				</g>
				<g>
					<g>
						<path class="st5" d="M604.7,340c0,0,0.1-0.7,0.1-1.8c0.1-1.1,0.1-2.7,0.3-4.6c0-1.9-0.3-4.1-0.4-6.5c0-2.4-0.3-5-0.5-7.5
							c-0.1-1.3-0.3-2.5-0.4-3.8c-0.1-1.3-0.3-2.5-0.3-3.8c-0.1-1.2-0.1-2.4-0.1-3.4c0-1.1,0-2.2,0-3.1c0-1,0.1-1.8,0.1-2.6
							c0.1-0.8,0.3-1.5,0.3-2c0.1-0.6,0.3-1,0.4-1.3c0-0.3,0.3-0.4,0.3-0.4c0.1-0.3,0.8-0.4,1.3-0.4s0.9,0.2,1,0.4
							c0,0,0,0.2,0.3,0.4c0.1,0.3-0.3-0.6-0.1-0.1c0.3,0.6-0.1-0.6,0,0.1c0.1,0.8,0-0.1,0.1,0.9s0.1,3.1,0.1,4.3c0,1.2,0.1,4.7,0,6
							c0,1.3,0.3,3.6,0.1,4.9c-0.3,2.6,0,9-0.1,11.4c-0.1,2.4,0.4,4.6,0.1,6.5c-0.1,1.9-0.3,3.6-0.3,4.6s0,1.7,0,1.7
							c0,0.3-0.5,0.5-1.1,0.5C605.2,340.5,604.8,340.4,604.7,340C604.8,340,604.8,340,604.7,340"/>
					</g>
				</g>
			</g>
			<g>
				<g>
					<path id="c7z7e1BDi2_7_" class="st1" d="M484,340.6c0,0,0-0.7,0.1-1.8c0.1-1.1,0.1-2.7,0.3-4.7c0-1.9-0.1-4.2-0.4-6.6
						c0-2.4-0.4-5-0.5-7.6c-0.1-1.3-0.3-2.5-0.4-3.8c-0.1-1.3-0.3-2.5-0.3-3.8c-0.1-1.2-0.1-2.4-0.1-3.5s0-2.2,0-3.1
						c0-1,0.1-1.8,0.1-2.7c0.1-0.8,0.3-1.5,0.3-2c0.1-0.6,0.3-1,0.4-1.3c0-0.3,0.3-0.4,0.3-0.4c0.1-0.3,0.8-0.4,1.3-0.4
						s0.9,0.2,1,0.4c0,0,0,0.2,0.3,0.4c0.1,0.3-0.3-0.6-0.1-0.1c0.3,0.6-0.1-0.6,0,0.1c0.1,0.8,0-0.1,0.1,0.9c0.1,1,0.1,3.1,0.1,4.4
						c0,1.2,0.1,4.8,0,6c0,1.3,0.3,3.6,0.1,5c-0.3,2.6,0,9-0.1,11.4c-0.1,2.4,0.4,4.6,0.1,6.6c-0.1,2-0.3,3.6-0.3,4.7s0,1.8,0,1.8
						c0,0.3-0.5,0.5-1.1,0.5C484.6,341.2,484.1,341,484,340.6C484.1,340.7,484.1,340.7,484,340.6"/>
				</g>
				<g>
					<g>
						<path class="st5" d="M484,340.6c0,0,0-0.7,0.1-1.8c0.1-1.1,0.1-2.7,0.3-4.7c0-1.9-0.1-4.2-0.4-6.6c0-2.4-0.4-5-0.5-7.6
							c-0.1-1.3-0.3-2.5-0.4-3.8c-0.1-1.3-0.3-2.5-0.3-3.8c-0.1-1.2-0.1-2.4-0.1-3.5s0-2.2,0-3.1c0-1,0.1-1.8,0.1-2.7
							c0.1-0.8,0.3-1.5,0.3-2c0.1-0.6,0.3-1,0.4-1.3c0-0.3,0.3-0.4,0.3-0.4c0.1-0.3,0.8-0.4,1.3-0.4s0.9,0.2,1,0.4
							c0,0,0,0.2,0.3,0.4c0.1,0.3-0.3-0.6-0.1-0.1c0.3,0.6-0.1-0.6,0,0.1c0.1,0.8,0-0.1,0.1,0.9c0.1,1,0.1,3.1,0.1,4.4
							c0,1.2,0.1,4.8,0,6c0,1.3,0.3,3.6,0.1,5c-0.3,2.6,0,9-0.1,11.4c-0.1,2.4,0.4,4.6,0.1,6.6c-0.1,2-0.3,3.6-0.3,4.7s0,1.8,0,1.8
							c0,0.3-0.5,0.5-1.1,0.5C484.6,341.2,484.1,341,484,340.6C484.1,340.7,484.1,340.7,484,340.6"/>
					</g>
				</g>
			</g>
		</g>
		<g id="b3tveFeZ5t_9_">
			<g>
				<text transform="matrix(1 0 0 1 518.808 325.5912)" class="st1 st6 st7">record</text>
			</g>
		</g>
		<g>
			<g>
				<path id="bKr4rEUKz_3_" class="st1" d="M544.5,379.4c0,0,0-0.5,0.1-1.4c0.1-0.8,0.1-2.1,0.1-3.6c0,0-0.1-14.4-0.1-15.8
					c-0.1-1.3-0.1-3.5-0.1-4.8c-0.1-1.3-0.1-2-0.1-3.1c0-1.2,0-2.3,0-3.3s-0.1-3.2,0-3.8c0-0.6,0-1,0.1-1.4c0-0.3,0.1-0.5,0.1-0.5
					c0-0.3,0.1-0.5,0.3-0.5s0.2,0.2,0.3,0.4c0,0,0,0.2,0.1,0.5c0,0.3,0.1,0.8,0.1,1.4c0.1,0.6,0.1,1.3,0.2,2.1
					c0,0.8,0.1,1.8,0.1,2.8c0.1,1,0.1,2.2,0.1,3.3c0,1.2,0.1,2.4,0.1,3.6c0,1.3,0,2.6,0,4c0,1.3,0,2.7,0,4c0,2.7-0.1,3.9,0,5.8
					c-0.1,1.8-0.1,3.5-0.2,5c0,1.5-0.1,2.7-0.1,3.6s0,1.4,0,1.4c0,0.2-0.1,0.4-0.4,0.4C544.6,379.8,544.5,379.6,544.5,379.4
					L544.5,379.4"/>
			</g>
			<g>
				<g>
					<path class="st5" d="M544.5,379.4c0,0,0-0.5,0.1-1.4c0.1-0.8,0.1-2.1,0.1-3.6c0,0-0.1-14.4-0.1-15.8c-0.1-1.3-0.1-3.5-0.1-4.8
						c-0.1-1.3-0.1-2-0.1-3.1c0-1.2,0-2.3,0-3.3s-0.1-3.2,0-3.8c0-0.6,0-1,0.1-1.4c0-0.3,0.1-0.5,0.1-0.5c0-0.3,0.1-0.5,0.3-0.5
						s0.2,0.2,0.3,0.4c0,0,0,0.2,0.1,0.5c0,0.3,0.1,0.8,0.1,1.4c0.1,0.6,0.1,1.3,0.2,2.1c0,0.8,0.1,1.8,0.1,2.8
						c0.1,1,0.1,2.2,0.1,3.3c0,1.2,0.1,2.4,0.1,3.6c0,1.3,0,2.6,0,4c0,1.3,0,2.7,0,4c0,2.7-0.1,3.9,0,5.8c-0.1,1.8-0.1,3.5-0.2,5
						c0,1.5-0.1,2.7-0.1,3.6s0,1.4,0,1.4c0,0.2-0.1,0.4-0.4,0.4C544.6,379.8,544.5,379.6,544.5,379.4L544.5,379.4"/>
				</g>
			</g>
		</g>
		<g>
			<g>
				<g>
					<g>
						<path id="a1Y7jzatDS_4_" class="st1" d="M604.1,380.3c0,0-1.9,0-5-0.1c-3.2-0.1-7.9,0-13.3-0.1c-5.5,0.1-12,0-18.8,0.1
							c-6.9,0.1-14.2,0.2-21.6,0.3c-3.6,0.1-7.4,0.1-10.9,0.2s-7.3,0.1-10.7,0.2c-3.4,0.1-6.9,0.1-9.9,0.1c-3,0.1-6.1,0.1-8.8,0
							c-2.8,0-5.2-0.1-7.6-0.1c-2.2-0.1-4.1-0.1-5.7-0.1c-1.6-0.1-2.9-0.1-3.6-0.1c-0.8,0-1.3-0.1-1.3-0.1c-0.8-0.1-0.8-0.1-0.7-0.5
							c0-0.5,0.6-0.5,0.6-0.5s0.5,0,1.2-0.1c0.8-0.1,2.1-0.1,3.6-0.3c1.6-0.1,3.5-0.2,5.7-0.3c2.2-0.1,4.7-0.2,7.5-0.3
							c2.8-0.1,5.7-0.1,9-0.1c3.2,0,6.4-0.1,9.9-0.1c3.4,0,7,0,10.7,0.1c3.6,0,7.4,0.1,10.9,0.1c7.4,0.1,14.7,0.2,21.6,0.3
							c7,0.1,13.2,0.1,18.8,0.2c5.5,0,10.2,0.1,13.3,0.1c3.2,0,5,0,5,0c0.7,0,1.3,0.2,1.3,0.4C605.8,380,605.2,380.2,604.1,380.3
							C604.3,380.2,604.3,380.2,604.1,380.3"/>
					</g>
					<g>
						<g>
							<path class="st5" d="M488,379.7c0.8-0.1,2.1-0.1,3.6-0.3c1.6-0.1,3.5-0.2,5.7-0.3c2.2-0.1,4.7-0.2,7.5-0.3s5.7-0.1,9-0.1
								c3.2,0,6.4-0.1,9.9-0.1c3.4,0,7,0,10.7,0.1c3.6,0,7.4,0.1,10.9,0.1c7.4,0.1,14.7,0.2,21.6,0.3c7,0.1,13.2,0.1,18.8,0.2
								c5.5,0,10.2,0.1,13.3,0.1s5,0,5,0c0.7,0,1.3,0.2,1.3,0.4c0.5,0.2-0.1,0.4-1.1,0.4c0.1-0.1,0.1-0.1,0,0"/>
							<path class="st5" d="M604.1,380.3c0,0-1.9,0-5-0.1c-3.2-0.1-7.9,0-13.3-0.1c-5.5,0.1-12,0-18.8,0.1
								c-6.9,0.1-14.2,0.2-21.6,0.3c-3.6,0.1-7.4,0.1-10.9,0.2s-7.3,0.1-10.7,0.2c-3.4,0.1-6.9,0.1-9.9,0.1c-3,0.1-6.1,0.1-8.8,0
								c-2.8,0-5.2-0.1-7.6-0.1c-2.2-0.1-4.1-0.1-5.7-0.1c-1.6-0.1-2.9-0.1-3.6-0.1c-0.8,0-1.3-0.1-1.3-0.1
								c-0.8-0.1-0.8-0.3-0.7-0.5"/>
						</g>
					</g>
				</g>
				<g>
					<g>
						<path id="a8OtUzgEu8_5_" class="st1" d="M487.9,411.5c0,0,1.9-0.1,5-0.1c3.2-0.1,7.8-0.1,13.2-0.2c5.5,0,11.9-0.1,18.7-0.1
							c6.8,0,14.1,0.1,21.3,0.1c3.6,0,7.3,0.1,10.8,0.1s7.2,0.1,10.5,0.1s6.8,0,9.8,0c3,0,6.1,0,8.7-0.1c2.8,0,5.1-0.1,7.5-0.1
							c2.2-0.1,4.1-0.1,5.7-0.2c1.6-0.1,2.9-0.1,3.6-0.1c0.8,0,1.3-0.1,1.3-0.1c0.7-0.1,1.3-0.3,1.2-0.6c0-0.2-0.6-0.4-1.1-0.4
							c0,0-0.5,0-1.2-0.1c-0.8-0.1-2.1-0.1-3.6-0.2c-1.6-0.1-3.5-0.1-5.7-0.3c-2.2-0.1-4.7-0.1-7.4-0.2c-2.7-0.1-5.7-0.1-8.8-0.1
							s-6.4,0-9.8,0.1c-3.4,0.1-6.9,0.1-10.5,0.1c-3.6,0-7.3,0.1-10.8,0.2c-7.3,0.1-14.5,0.3-21.3,0.4c-6.9,0.1-13.1,0.2-18.7,0.3
							c-5.5,0.1-10.1,0.1-13.2,0.2c-3.2,0-5,0-5,0c-0.7,0-1.3,0.2-1.3,0.5C486.8,411,486.9,411.5,487.9,411.5
							C487.7,411.4,487.7,411.4,487.9,411.5"/>
					</g>
					<g>
						<g>
							<path class="st5" d="M585.9,411.4c2.8,0,5.1-0.1,7.5-0.1c2.2-0.1,4.1-0.1,5.7-0.2s2.9-0.1,3.6-0.1c0.8,0,1.3-0.1,1.3-0.1
								c0.7-0.1,1.3-0.3,1.2-0.6c0-0.2-0.6-0.4-1.1-0.4c0,0-0.5,0-1.2-0.1c-0.8-0.1-2.1-0.1-3.6-0.2s-3.5-0.1-5.7-0.3
								c-2.2-0.1-4.7-0.1-7.4-0.2c-2.7-0.1-5.7-0.1-8.8-0.1c-3.2,0-6.4,0-9.8,0.1s-6.9,0.1-10.5,0.1s-7.3,0.1-10.8,0.2
								c-7.3,0.1-14.5,0.3-21.3,0.4c-6.9,0.1-13.1,0.2-18.7,0.3c-5.5,0.1-10.1,0.1-13.2,0.2c-3.2,0-5,0-5,0c-0.7,0-1.3,0.2-1.3,0.5
								c0,0.7,0.1,0.5,1.1,0.5c-0.1-0.1-0.1-0.1,0,0"/>
							<path class="st5" d="M487.9,411.5c0,0,1.9-0.1,5-0.1c3.2-0.1,7.8-0.1,13.2-0.2c5.5,0,11.9-0.1,18.7-0.1
								c6.8,0,14.1,0.1,21.3,0.1c3.6,0,7.3,0.1,10.8,0.1s7.2,0.1,10.5,0.1"/>
						</g>
					</g>
				</g>
			</g>
			<g>
				<g>
					<path id="c7z7e1BDi2_6_" class="st1" d="M486.2,460.7c0,0,0-1.4,0.1-3.5c0.1-2.2,0.1-5.3,0.2-9.1c0-3.7-0.1-8.2-0.2-12.9
						c0-4.7-0.2-9.6-0.4-14.7c-0.1-2.5-0.2-4.9-0.2-7.4c-0.1-2.5-0.2-4.9-0.2-7.3c-0.1-2.3-0.1-4.7-0.1-6.8c0-2.1,0-4.2,0-6.1
						s0.1-3.6,0.1-5.2c0.1-1.5,0.2-2.8,0.2-4c0.1-1.1,0.2-2,0.2-2.5c0-0.2,0.2-0.9,0.2-0.9c0.2-0.8,1.1-0.8,0.7-0.8
						c-0.4,0,0.8,0.3,1,0.6v0.4c0,0,0,0.3,0,0.4v0.2c0.1,1.5,0-0.1,0.1,1.7c0.1,1.9,0.1,6.1,0.1,8.5c0,2.3,0.1,9.3,0,11.7
						c0,2.5,0.2,7,0.1,9.6c-0.2,5.1,0,17.6-0.1,22.3c-0.1,4.7,0.2,9,0.1,12.9c-0.1,3.8-0.2,6.9-0.2,9.1s0,3.5,0,3.5
						c0,0.5-0.2,1-0.7,1C486.8,461.9,486.3,461.5,486.2,460.7C486.3,460.8,486.3,460.8,486.2,460.7"/>
				</g>
			</g>
			<g>
				<g>
					<path id="c7z7e1BDi2_5_" class="st1" d="M603.9,380.5C604,380.4,604,380.4,603.9,380.5c0.1-0.7,0.6-1.2,1-1
						c0.5,0,0.7,0.5,0.7,1c0,0,0,1.2,0,3.5s0.1,5.3,0.2,9.1c0.2,3.8-0.2,8.1-0.1,12.8s-0.1,17.1,0.1,22.2c0.1,2.6-0.1,7.1-0.1,9.6
						c0.1,2.5,0,9.4,0,11.7c0,2.5,0,6.7-0.1,8.5c-0.1,1.8,0,0.3-0.1,1.7v0.2c0,0.1,0,0.4,0,0.4l-0.1,0.5l-0.8,0.1
						c0,0-1.3,0.1-0.8-0.3c0,0-0.1-0.7-0.2-0.9c-0.1-0.5-0.2-1.4-0.2-2.5s-0.1-2.5-0.2-3.9c0-1.6-0.1-3.3-0.1-5.2s0-3.9,0-6
						s0-4.4,0.1-6.8c0-2.3,0.1-4.8,0.2-7.3s0.2-4.9,0.2-7.4c0.1-5.1,0.4-10,0.4-14.7c0.2-4.7,0.2-9.1,0.2-12.8
						c-0.1-3.8-0.1-6.9-0.2-9.1C603.9,381.9,603.9,380.5,603.9,380.5"/>
				</g>
			</g>
		</g>
		<g id="b3tveFeZ5t_8_">
			<g>
				<text transform="matrix(1 0 0 1 527.713 402.2414)" class="st1 st6 st7">field</text>
			</g>
		</g>
		<g id="b3tveFeZ5t_7_">
			<g>
				<text transform="matrix(1 0 0 1 497.3716 430.1792)" class="st1 st6 st8">name: „Messung“</text>
			</g>
		</g>
		<g id="b3tveFeZ5t_6_">
			<g>
				<text transform="matrix(1 0 0 1 497.3719 449.8415)" class="st1 st6 st8">value: „1“</text>
			</g>
		</g>
	</g>
	<g>
		<g>
			<g>
				<g>
					<path id="a1Y7jzatDS_7_" class="st1" d="M747.3,299.5c0,0-2,0-5.1-0.1c-3.3-0.1-8,0-13.6-0.1c-5.6,0.1-12.3,0-19.3,0.1
						s-14.5,0.2-22,0.3c-3.8,0.1-7.5,0.1-11.1,0.2c-3.6,0.1-7.4,0.1-10.9,0.2c-3.5,0.1-7,0.1-10.1,0.1c-3.1,0-6.3,0.1-9,0
						c-2.9,0-5.4-0.1-7.8-0.1c-2.3-0.1-4.3-0.1-5.9-0.1c-1.6-0.1-3-0.1-3.8-0.1c-0.9,0-1.4-0.1-1.4-0.1c-0.9-0.1-1.4-0.3-1.3-0.6
						c0-0.2,0.5-0.4,1.1-0.4c0,0,0.5,0,1.3-0.1c0.9-0.1,2.1-0.1,3.8-0.3c1.6-0.1,3.6-0.2,5.9-0.3c2.3-0.1,4.9-0.2,7.6-0.3
						c2.8-0.1,5.9-0.1,9.1-0.1c3.3,0,6.6-0.1,10.1-0.1c3.5,0,7.1,0,10.9,0.1c3.8,0,7.5,0.1,11.1,0.1c7.5,0.1,15,0.2,22,0.3
						c7.1,0.1,13.5,0.1,19.3,0.2c5.6,0,10.4,0.1,13.6,0.1c3.3,0,5.1,0,5.1,0c0.8,0,1.4,0.2,1.4,0.4
						C749,299.3,748.3,299.5,747.3,299.5C747.5,299.5,747.5,299.5,747.3,299.5"/>
				</g>
				<g>
					<g>
						<path class="st5" d="M747.3,299.5c0,0-2,0-5.1-0.1c-3.3-0.1-8,0-13.6-0.1c-5.6,0.1-12.3,0-19.3,0.1s-14.5,0.2-22,0.3
							c-3.8,0.1-7.5,0.1-11.1,0.2c-3.6,0.1-7.4,0.1-10.9,0.2c-3.5,0.1-7,0.1-10.1,0.1c-3.1,0-6.3,0.1-9,0c-2.9,0-5.4-0.1-7.8-0.1
							c-2.3-0.1-4.3-0.1-5.9-0.1c-1.6-0.1-3-0.1-3.8-0.1c-0.9,0-1.4-0.1-1.4-0.1c-0.9-0.1-1.4-0.3-1.3-0.6c0-0.2,0.5-0.4,1.1-0.4
							c0,0,0.5,0,1.3-0.1c0.9-0.1,2.1-0.1,3.8-0.3c1.6-0.1,3.6-0.2,5.9-0.3c2.3-0.1,4.9-0.2,7.6-0.3c2.8-0.1,5.9-0.1,9.1-0.1
							c3.3,0,6.6-0.1,10.1-0.1c3.5,0,7.1,0,10.9,0.1c3.8,0,7.5,0.1,11.1,0.1c7.5,0.1,15,0.2,22,0.3c7.1,0.1,13.5,0.1,19.3,0.2
							c5.6,0,10.4,0.1,13.6,0.1c3.3,0,5.1,0,5.1,0c0.8,0,1.4,0.2,1.4,0.4C749,299.3,748.3,299.5,747.3,299.5
							C747.5,299.5,747.5,299.5,747.3,299.5"/>
					</g>
				</g>
			</g>
			<g>
				<g>
					<path id="a8OtUzgEu8_10_" class="st1" d="M627.6,341.2c0,0,2-0.1,5.1-0.1c3.3-0.1,8-0.1,13.6-0.2c5.6,0,12.3-0.1,19.3-0.1
						s14.5,0.1,22,0.1c3.8,0,7.5,0.1,11.1,0.1s7.4,0.1,10.9,0.1s7,0,10.1,0c3.1,0,6.3,0,9-0.1c2.9,0,5.3-0.1,7.8-0.1
						c2.3-0.1,4.3-0.1,5.9-0.2c1.6-0.1,3-0.1,3.8-0.1c0.9,0,1.4-0.1,1.4-0.1c0.8-0.1,1.4-0.3,1.3-0.6c0-0.2-0.6-0.4-1.1-0.4
						c0,0-0.5,0-1.3-0.1c-0.9-0.1-2.1-0.1-3.8-0.2c-1.6-0.1-3.6-0.1-5.9-0.3c-2.3-0.1-4.9-0.1-7.6-0.2s-5.9-0.1-9.1-0.1
						c-3.3,0-6.6,0-10.1,0.1s-7.1,0.1-10.9,0.1s-7.5,0.1-11.1,0.2c-7.5,0.1-15,0.3-22,0.4c-7.1,0.1-13.5,0.2-19.3,0.3
						c-5.6,0.1-10.4,0.1-13.6,0.2c-3.3,0-5.1,0-5.1,0c-0.8,0-1.4,0.2-1.4,0.5C626,341.1,626.6,341.2,627.6,341.2
						C627.5,341.2,627.5,341.2,627.6,341.2"/>
				</g>
				<g>
					<g>
						<path class="st5" d="M627.6,341.2c0,0,2-0.1,5.1-0.1c3.3-0.1,8-0.1,13.6-0.2c5.6,0,12.3-0.1,19.3-0.1s14.5,0.1,22,0.1
							c3.8,0,7.5,0.1,11.1,0.1s7.4,0.1,10.9,0.1s7,0,10.1,0c3.1,0,6.3,0,9-0.1c2.9,0,5.3-0.1,7.8-0.1c2.3-0.1,4.3-0.1,5.9-0.2
							c1.6-0.1,3-0.1,3.8-0.1c0.9,0,1.4-0.1,1.4-0.1c0.8-0.1,1.4-0.3,1.3-0.6c0-0.2-0.6-0.4-1.1-0.4c0,0-0.5,0-1.3-0.1
							c-0.9-0.1-2.1-0.1-3.8-0.2c-1.6-0.1-3.6-0.1-5.9-0.3c-2.3-0.1-4.9-0.1-7.6-0.2s-5.9-0.1-9.1-0.1c-3.3,0-6.6,0-10.1,0.1
							s-7.1,0.1-10.9,0.1s-7.5,0.1-11.1,0.2c-7.5,0.1-15,0.3-22,0.4c-7.1,0.1-13.5,0.2-19.3,0.3c-5.6,0.1-10.4,0.1-13.6,0.2
							c-3.3,0-5.1,0-5.1,0c-0.8,0-1.4,0.2-1.4,0.5C626,341.1,626.6,341.2,627.6,341.2C627.5,341.2,627.5,341.2,627.6,341.2"/>
					</g>
				</g>
			</g>
			<g>
				<g>
					<path id="a8OtUzgEu8_9_" class="st1" d="M630.8,462.1c0,0,1.9-0.1,5-0.1c3.2-0.1,7.8-0.1,13.3-0.2c5.5,0,11.9-0.1,18.7-0.1
						c6.8,0,14.1,0.1,21.4,0.1c3.6,0,7.3,0.1,10.8,0.1c3.5,0,7.2,0.1,10.6,0.1c3.4,0,6.8,0,9.8,0c3,0,6.1,0,8.8-0.1
						c2.8,0,5.1-0.1,7.5-0.1c2.2-0.1,4.1-0.1,5.7-0.2c1.6-0.1,2.9-0.1,3.6-0.1c0.9,0,1.3-0.1,1.3-0.1c0.7-0.1,1.3-0.4,1.2-0.7
						c0-0.2-0.6-0.5-1.1-0.5c0,0-0.5,0-1.2-0.1c-0.9-0.1-2.1-0.1-3.6-0.2c-1.6-0.1-3.5-0.1-5.7-0.4c-2.2-0.1-4.7-0.1-7.4-0.2
						c-2.7-0.1-5.7-0.1-8.9-0.1s-6.4,0-9.8,0.1c-3.4,0.1-6.9,0.1-10.6,0.1s-7.3,0.1-10.8,0.2c-7.3,0.1-14.6,0.4-21.4,0.5
						c-6.9,0.1-13.1,0.2-18.7,0.4c-5.5,0.1-10.1,0.1-13.3,0.2c-3.2,0-5,0-5,0c-0.7,0-1.3,0.2-1.3,0.6
						C629.3,462,629.9,462.1,630.8,462.1C630.7,462.1,630.7,462.1,630.8,462.1"/>
				</g>
				<g>
					<g>
						<path class="st5" d="M630.8,462.1c0,0,1.9-0.1,5-0.1c3.2-0.1,7.8-0.1,13.3-0.2c5.5,0,11.9-0.1,18.7-0.1
							c6.8,0,14.1,0.1,21.4,0.1c3.6,0,7.3,0.1,10.8,0.1c3.5,0,7.2,0.1,10.6,0.1c3.4,0,6.8,0,9.8,0c3,0,6.1,0,8.8-0.1
							c2.8,0,5.1-0.1,7.5-0.1c2.2-0.1,4.1-0.1,5.7-0.2c1.6-0.1,2.9-0.1,3.6-0.1c0.9,0,1.3-0.1,1.3-0.1c0.7-0.1,1.3-0.4,1.2-0.7
							c0-0.2-0.6-0.5-1.1-0.5c0,0-0.5,0-1.2-0.1c-0.9-0.1-2.1-0.1-3.6-0.2c-1.6-0.1-3.5-0.1-5.7-0.4c-2.2-0.1-4.7-0.1-7.4-0.2
							c-2.7-0.1-5.7-0.1-8.9-0.1s-6.4,0-9.8,0.1c-3.4,0.1-6.9,0.1-10.6,0.1s-7.3,0.1-10.8,0.2c-7.3,0.1-14.6,0.4-21.4,0.5
							c-6.9,0.1-13.1,0.2-18.7,0.4c-5.5,0.1-10.1,0.1-13.3,0.2c-3.2,0-5,0-5,0c-0.7,0-1.3,0.2-1.3,0.6
							C629.3,462,629.9,462.1,630.8,462.1C630.7,462.1,630.7,462.1,630.8,462.1"/>
					</g>
				</g>
			</g>
			<g>
				<g>
					<path id="bHPvHQc13_4_" class="st1" d="M746.8,340c0,0,0.1-0.7,0.1-1.8c0.1-1.1,0.1-2.7,0.3-4.6c0-1.9-0.3-4.1-0.4-6.5
						c0-2.4-0.3-5-0.5-7.5c-0.1-1.3-0.3-2.5-0.4-3.8c-0.1-1.3-0.3-2.5-0.3-3.8c-0.1-1.2-0.1-2.4-0.1-3.4c0-1.1,0-2.2,0-3.1
						c0-1,0.1-1.8,0.1-2.6c0.1-0.8,0.3-1.5,0.3-2c0.1-0.6,0.3-1,0.4-1.3c0-0.3,0.3-0.4,0.3-0.4c0.1-0.3,0.8-0.4,1.3-0.4
						s0.9,0.2,1,0.4c0,0,0,0.2,0.3,0.4c0.1,0.3-0.3-0.6-0.1-0.1c0.3,0.6-0.1-0.6,0,0.1c0.1,0.8,0-0.1,0.1,0.9s0.1,3.1,0.1,4.3
						c0,1.2,0.1,4.7,0,6c0,1.3,0.3,3.6,0.1,4.9c-0.3,2.6,0,9-0.1,11.4s0.4,4.6,0.1,6.5c-0.1,1.9-0.3,3.6-0.3,4.6s0,1.7,0,1.7
						c0,0.3-0.5,0.5-1.1,0.5C747.3,340.5,747,340.4,746.8,340C747,340,747,340,746.8,340"/>
				</g>
				<g>
					<g>
						<path class="st5" d="M746.8,340c0,0,0.1-0.7,0.1-1.8c0.1-1.1,0.1-2.7,0.3-4.6c0-1.9-0.3-4.1-0.4-6.5c0-2.4-0.3-5-0.5-7.5
							c-0.1-1.3-0.3-2.5-0.4-3.8c-0.1-1.3-0.3-2.5-0.3-3.8c-0.1-1.2-0.1-2.4-0.1-3.4c0-1.1,0-2.2,0-3.1c0-1,0.1-1.8,0.1-2.6
							c0.1-0.8,0.3-1.5,0.3-2c0.1-0.6,0.3-1,0.4-1.3c0-0.3,0.3-0.4,0.3-0.4c0.1-0.3,0.8-0.4,1.3-0.4s0.9,0.2,1,0.4
							c0,0,0,0.2,0.3,0.4c0.1,0.3-0.3-0.6-0.1-0.1c0.3,0.6-0.1-0.6,0,0.1c0.1,0.8,0-0.1,0.1,0.9s0.1,3.1,0.1,4.3c0,1.2,0.1,4.7,0,6
							c0,1.3,0.3,3.6,0.1,4.9c-0.3,2.6,0,9-0.1,11.4s0.4,4.6,0.1,6.5c-0.1,1.9-0.3,3.6-0.3,4.6s0,1.7,0,1.7c0,0.3-0.5,0.5-1.1,0.5
							C747.3,340.5,747,340.4,746.8,340C747,340,747,340,746.8,340"/>
					</g>
				</g>
			</g>
			<g>
				<g>
					<path id="c7z7e1BDi2_10_" class="st1" d="M626.1,340.6c0,0,0-0.7,0.1-1.8c0.1-1.1,0.1-2.7,0.3-4.7c0-1.9-0.1-4.2-0.4-6.6
						c0-2.4-0.4-5-0.5-7.6c-0.1-1.3-0.3-2.5-0.4-3.8c-0.1-1.3-0.3-2.5-0.3-3.8c-0.1-1.2-0.1-2.4-0.1-3.5s0-2.2,0-3.1
						c0-1,0.1-1.8,0.1-2.7c0.1-0.8,0.3-1.5,0.3-2c0.1-0.6,0.3-1,0.4-1.3c0-0.3,0.3-0.4,0.3-0.4c0.1-0.3,0.8-0.4,1.3-0.4
						s0.9,0.2,1,0.4c0,0,0,0.2,0.3,0.4c0.1,0.3-0.3-0.6-0.1-0.1c0.3,0.6-0.1-0.6,0,0.1c0.1,0.8,0-0.1,0.1,0.9s0.1,3.1,0.1,4.4
						c0,1.2,0.1,4.8,0,6c0,1.3,0.3,3.6,0.1,5c-0.3,2.6,0,9-0.1,11.4s0.4,4.6,0.1,6.6c-0.1,2-0.3,3.6-0.3,4.7s0,1.8,0,1.8
						c0,0.3-0.5,0.5-1.1,0.5C626.8,341.2,626.3,341,626.1,340.6C626.3,340.7,626.3,340.7,626.1,340.6"/>
				</g>
				<g>
					<g>
						<path class="st5" d="M626.1,340.6c0,0,0-0.7,0.1-1.8c0.1-1.1,0.1-2.7,0.3-4.7c0-1.9-0.1-4.2-0.4-6.6c0-2.4-0.4-5-0.5-7.6
							c-0.1-1.3-0.3-2.5-0.4-3.8c-0.1-1.3-0.3-2.5-0.3-3.8c-0.1-1.2-0.1-2.4-0.1-3.5s0-2.2,0-3.1c0-1,0.1-1.8,0.1-2.7
							c0.1-0.8,0.3-1.5,0.3-2c0.1-0.6,0.3-1,0.4-1.3c0-0.3,0.3-0.4,0.3-0.4c0.1-0.3,0.8-0.4,1.3-0.4s0.9,0.2,1,0.4
							c0,0,0,0.2,0.3,0.4c0.1,0.3-0.3-0.6-0.1-0.1c0.3,0.6-0.1-0.6,0,0.1c0.1,0.8,0-0.1,0.1,0.9s0.1,3.1,0.1,4.4c0,1.2,0.1,4.8,0,6
							c0,1.3,0.3,3.6,0.1,5c-0.3,2.6,0,9-0.1,11.4s0.4,4.6,0.1,6.6c-0.1,2-0.3,3.6-0.3,4.7s0,1.8,0,1.8c0,0.3-0.5,0.5-1.1,0.5
							C626.8,341.2,626.3,341,626.1,340.6C626.3,340.7,626.3,340.7,626.1,340.6"/>
					</g>
				</g>
			</g>
		</g>
		<g id="b3tveFeZ5t_13_">
			<g>
				<text transform="matrix(1 0 0 1 660.9714 325.5912)" class="st1 st6 st7">record</text>
			</g>
		</g>
		<g>
			<g>
				<path id="bKr4rEUKz_4_" class="st1" d="M687.7,379.1c0,0,0-0.5,0.1-1.4c0.1-0.8,0.1-2.1,0.1-3.6c0,0-0.1-14.4-0.1-15.8
					c-0.1-1.3-0.1-3.5-0.1-4.8c-0.1-1.3-0.1-2-0.1-3.1c0-1.2,0-2.3,0-3.3s-0.1-3.2,0-3.8c0-0.6,0-1,0.1-1.4c0-0.3,0.1-0.5,0.1-0.5
					c0-0.3,0.1-0.5,0.3-0.5s0.2,0.2,0.3,0.4c0,0,0,0.2,0.1,0.5c0,0.3,0.1,0.8,0.1,1.4c0.1,0.6,0.1,1.3,0.2,2.1
					c0,0.8,0.1,1.8,0.1,2.8c0.1,1,0.1,2.2,0.1,3.3c0,1.2,0.1,2.4,0.1,3.6c0,1.3,0,2.6,0,4c0,1.3,0,2.7,0,4c0,2.7-0.1,3.9,0,5.8
					c-0.1,1.8-0.1,3.5-0.2,5c0,1.5-0.1,2.7-0.1,3.6s0,1.4,0,1.4c0,0.2-0.1,0.4-0.4,0.4C687.8,379.5,687.7,379.3,687.7,379.1
					L687.7,379.1"/>
			</g>
			<g>
				<g>
					<path class="st5" d="M687.7,379.1c0,0,0-0.5,0.1-1.4c0.1-0.8,0.1-2.1,0.1-3.6c0,0-0.1-14.4-0.1-15.8c-0.1-1.3-0.1-3.5-0.1-4.8
						c-0.1-1.3-0.1-2-0.1-3.1c0-1.2,0-2.3,0-3.3s-0.1-3.2,0-3.8c0-0.6,0-1,0.1-1.4c0-0.3,0.1-0.5,0.1-0.5c0-0.3,0.1-0.5,0.3-0.5
						s0.2,0.2,0.3,0.4c0,0,0,0.2,0.1,0.5c0,0.3,0.1,0.8,0.1,1.4c0.1,0.6,0.1,1.3,0.2,2.1c0,0.8,0.1,1.8,0.1,2.8
						c0.1,1,0.1,2.2,0.1,3.3c0,1.2,0.1,2.4,0.1,3.6c0,1.3,0,2.6,0,4c0,1.3,0,2.7,0,4c0,2.7-0.1,3.9,0,5.8c-0.1,1.8-0.1,3.5-0.2,5
						c0,1.5-0.1,2.7-0.1,3.6s0,1.4,0,1.4c0,0.2-0.1,0.4-0.4,0.4C687.8,379.5,687.7,379.3,687.7,379.1L687.7,379.1"/>
				</g>
			</g>
		</g>
		<g>
			<g>
				<g>
					<g>
						<path id="a1Y7jzatDS_6_" class="st1" d="M747.3,380.3c0,0-1.9,0-5-0.1c-3.2-0.1-7.9,0-13.3-0.1c-5.5,0.1-12,0-18.8,0.1
							c-6.9,0.1-14.2,0.2-21.6,0.3c-3.6,0.1-7.4,0.1-10.9,0.2s-7.3,0.1-10.7,0.2c-3.4,0.1-6.9,0.1-9.9,0.1c-3,0.1-6.1,0.1-8.8,0
							c-2.8,0-5.2-0.1-7.6-0.1c-2.2-0.1-4.1-0.1-5.7-0.1c-1.6-0.1-2.9-0.1-3.6-0.1c-0.8,0-1.3-0.1-1.3-0.1c-0.8-0.1-0.8-0.1-0.7-0.5
							c0-0.5,0.6-0.5,0.6-0.5s0.5,0,1.2-0.1c0.8-0.1,2.1-0.1,3.6-0.3c1.6-0.1,3.5-0.2,5.7-0.3c2.2-0.1,4.7-0.2,7.5-0.3
							c2.8-0.1,5.7-0.1,9-0.1c3.2,0,6.4-0.1,9.9-0.1c3.4,0,7,0,10.7,0.1c3.6,0,7.4,0.1,10.9,0.1c7.4,0.1,14.7,0.2,21.6,0.3
							c7,0.1,13.2,0.1,18.8,0.2c5.5,0,10.2,0.1,13.3,0.1s5,0,5,0c0.7,0,1.3,0.2,1.3,0.4C749,380,748.3,380.2,747.3,380.3
							C747.5,380.2,747.5,380.2,747.3,380.3"/>
					</g>
					<g>
						<g>
							<path class="st5" d="M631.1,379.7c0.8-0.1,2.1-0.1,3.6-0.3c1.6-0.1,3.5-0.2,5.7-0.3c2.2-0.1,4.7-0.2,7.5-0.3s5.7-0.1,9-0.1
								c3.2,0,6.4-0.1,9.9-0.1c3.4,0,7,0,10.7,0.1c3.6,0,7.4,0.1,10.9,0.1c7.4,0.1,14.7,0.2,21.6,0.3c7,0.1,13.2,0.1,18.8,0.2
								c5.5,0,10.2,0.1,13.3,0.1s5,0,5,0c0.7,0,1.3,0.2,1.3,0.4c0.5,0.2-0.1,0.4-1.1,0.4c0.1-0.1,0.1-0.1,0,0"/>
							<path class="st5" d="M747.3,380.3c0,0-1.9,0-5-0.1c-3.2-0.1-7.9,0-13.3-0.1c-5.5,0.1-12,0-18.8,0.1
								c-6.9,0.1-14.2,0.2-21.6,0.3c-3.6,0.1-7.4,0.1-10.9,0.2s-7.3,0.1-10.7,0.2c-3.4,0.1-6.9,0.1-9.9,0.1c-3,0.1-6.1,0.1-8.8,0
								c-2.8,0-5.2-0.1-7.6-0.1c-2.2-0.1-4.1-0.1-5.7-0.1c-1.6-0.1-2.9-0.1-3.6-0.1c-0.8,0-1.3-0.1-1.3-0.1
								c-0.8-0.1-0.8-0.3-0.7-0.5"/>
						</g>
					</g>
				</g>
				<g>
					<g>
						<path id="a8OtUzgEu8_8_" class="st1" d="M631,411.5c0,0,1.9-0.1,5-0.1c3.2-0.1,7.8-0.1,13.2-0.2c5.5,0,11.9-0.1,18.7-0.1
							c6.8,0,14.1,0.1,21.3,0.1c3.6,0,7.3,0.1,10.8,0.1c3.5,0,7.2,0.1,10.5,0.1c3.4,0,6.8,0,9.8,0s6.1,0,8.7-0.1
							c2.8,0,5.1-0.1,7.5-0.1c2.2-0.1,4.1-0.1,5.7-0.2s2.9-0.1,3.6-0.1c0.8,0,1.3-0.1,1.3-0.1c0.7-0.1,1.3-0.3,1.2-0.6
							c0-0.2-0.6-0.4-1.1-0.4c0,0-0.5,0-1.2-0.1c-0.8-0.1-2.1-0.1-3.6-0.2s-3.5-0.1-5.7-0.3c-2.2-0.1-4.7-0.1-7.4-0.2
							c-2.7-0.1-5.7-0.1-8.8-0.1s-6.4,0-9.8,0.1c-3.4,0.1-6.9,0.1-10.5,0.1c-3.6,0-7.3,0.1-10.8,0.2c-7.3,0.1-14.5,0.3-21.3,0.4
							c-6.9,0.1-13.1,0.2-18.7,0.3c-5.5,0.1-10.1,0.1-13.2,0.2c-3.2,0-5,0-5,0c-0.7,0-1.3,0.2-1.3,0.5
							C629.9,411,630,411.5,631,411.5C630.9,411.4,630.9,411.4,631,411.5"/>
					</g>
					<g>
						<g>
							<path class="st5" d="M729.1,411.4c2.8,0,5.1-0.1,7.5-0.1c2.2-0.1,4.1-0.1,5.7-0.2s2.9-0.1,3.6-0.1c0.8,0,1.3-0.1,1.3-0.1
								c0.7-0.1,1.3-0.3,1.2-0.6c0-0.2-0.6-0.4-1.1-0.4c0,0-0.5,0-1.2-0.1c-0.8-0.1-2.1-0.1-3.6-0.2s-3.5-0.1-5.7-0.3
								c-2.2-0.1-4.7-0.1-7.4-0.2c-2.7-0.1-5.7-0.1-8.8-0.1s-6.4,0-9.8,0.1c-3.4,0.1-6.9,0.1-10.5,0.1c-3.6,0-7.3,0.1-10.8,0.2
								c-7.3,0.1-14.5,0.3-21.3,0.4c-6.9,0.1-13.1,0.2-18.7,0.3c-5.5,0.1-10.1,0.1-13.2,0.2c-3.2,0-5,0-5,0c-0.7,0-1.3,0.2-1.3,0.5
								c0,0.7,0.1,0.5,1.1,0.5c-0.1-0.1-0.1-0.1,0,0"/>
							<path class="st5" d="M631,411.5c0,0,1.9-0.1,5-0.1c3.2-0.1,7.8-0.1,13.2-0.2c5.5,0,11.9-0.1,18.7-0.1
								c6.8,0,14.1,0.1,21.3,0.1c3.6,0,7.3,0.1,10.8,0.1c3.5,0,7.2,0.1,10.5,0.1"/>
						</g>
					</g>
				</g>
			</g>
			<g>
				<g>
					<path id="c7z7e1BDi2_9_" class="st1" d="M629.3,460.7c0,0,0-1.4,0.1-3.5c0.1-2.2,0.1-5.3,0.2-9.1c0-3.7-0.1-8.2-0.2-12.9
						c0-4.7-0.2-9.6-0.4-14.7c-0.1-2.5-0.2-4.9-0.2-7.4c-0.1-2.5-0.2-4.9-0.2-7.3c-0.1-2.3-0.1-4.7-0.1-6.8c0-2.1,0-4.2,0-6.1
						s0.1-3.6,0.1-5.2c0.1-1.5,0.2-2.8,0.2-4c0.1-1.1,0.2-2,0.2-2.5c0-0.2,0.2-0.9,0.2-0.9c0.2-0.8,1.1-0.8,0.7-0.8
						c-0.4,0,0.8,0.3,1,0.6v0.4c0,0,0,0.3,0,0.4v0.2c0.1,1.5,0-0.1,0.1,1.7c0.1,1.9,0.1,6.1,0.1,8.5c0,2.3,0.1,9.3,0,11.7
						c0,2.5,0.2,7,0.1,9.6c-0.2,5.1,0,17.6-0.1,22.3c-0.1,4.7,0.2,9,0.1,12.9c-0.1,3.8-0.2,6.9-0.2,9.1s0,3.5,0,3.5
						c0,0.5-0.2,1-0.7,1C629.9,461.9,629.4,461.5,629.3,460.7C629.4,460.8,629.4,460.8,629.3,460.7"/>
				</g>
			</g>
			<g>
				<g>
					<path id="c7z7e1BDi2_8_" class="st1" d="M747,380.5C747.1,380.4,747.1,380.4,747,380.5c0.1-0.7,0.6-1.2,1-1
						c0.5,0,0.7,0.5,0.7,1c0,0,0,1.2,0,3.5s0.1,5.3,0.2,9.1c0.2,3.8-0.2,8.1-0.1,12.8c0.1,4.7-0.1,17.1,0.1,22.2
						c0.1,2.6-0.1,7.1-0.1,9.6c0.1,2.5,0,9.4,0,11.7c0,2.5,0,6.7-0.1,8.5c-0.1,1.8,0,0.3-0.1,1.7v0.2c0,0.1,0,0.4,0,0.4l-0.1,0.5
						l-0.8,0.1c0,0-1.3,0.1-0.8-0.3c0,0-0.1-0.7-0.2-0.9c-0.1-0.5-0.2-1.4-0.2-2.5s-0.1-2.5-0.2-3.9c0-1.6-0.1-3.3-0.1-5.2
						s0-3.9,0-6s0-4.4,0.1-6.8c0-2.3,0.1-4.8,0.2-7.3c0.1-2.5,0.2-4.9,0.2-7.4c0.1-5.1,0.4-10,0.4-14.7c0.2-4.7,0.2-9.1,0.2-12.8
						c-0.1-3.8-0.1-6.9-0.2-9.1C747,381.9,747,380.5,747,380.5"/>
				</g>
			</g>
		</g>
		<g id="b3tveFeZ5t_12_">
			<g>
				<text transform="matrix(1 0 0 1 669.8765 402.2414)" class="st1 st6 st7">field</text>
			</g>
		</g>
		<g id="b3tveFeZ5t_11_">
			<g>
				<text transform="matrix(1 0 0 1 639.535 430.1792)" class="st1 st6 st8">name: „Messung“</text>
			</g>
		</g>
		<g id="b3tveFeZ5t_10_">
			<g>
				<text transform="matrix(1 0 0 1 639.5353 449.8415)" class="st1 st6 st8">value: „2“</text>
			</g>
		</g>
	</g>
	<g>
		<g>
			<g>
				<g>
					<path id="a1Y7jzatDS_9_" class="st1" d="M893.2,299.5c0,0-2,0-5.1-0.1c-3.3-0.1-8,0-13.6-0.1c-5.6,0.1-12.3,0-19.3,0.1
						s-14.5,0.2-22,0.3c-3.8,0.1-7.5,0.1-11.1,0.2c-3.6,0.1-7.4,0.1-10.9,0.2s-7,0.1-10.1,0.1c-3.1,0-6.3,0.1-9,0
						c-2.9,0-5.4-0.1-7.8-0.1c-2.3-0.1-4.3-0.1-5.9-0.1c-1.6-0.1-3-0.1-3.8-0.1c-0.9,0-1.4-0.1-1.4-0.1c-0.9-0.1-1.4-0.3-1.3-0.6
						c0-0.2,0.5-0.4,1.1-0.4c0,0,0.5,0,1.3-0.1c0.9-0.1,2.1-0.1,3.8-0.3c1.6-0.1,3.6-0.2,5.9-0.3c2.3-0.1,4.9-0.2,7.6-0.3
						c2.8-0.1,5.9-0.1,9.1-0.1c3.3,0,6.6-0.1,10.1-0.1s7.1,0,10.9,0.1c3.8,0,7.5,0.1,11.1,0.1c7.5,0.1,15,0.2,22,0.3
						c7.1,0.1,13.5,0.1,19.3,0.2c5.6,0,10.4,0.1,13.6,0.1c3.3,0,5.1,0,5.1,0c0.8,0,1.4,0.2,1.4,0.4
						C894.8,299.3,894.2,299.5,893.2,299.5C893.3,299.5,893.3,299.5,893.2,299.5"/>
				</g>
				<g>
					<g>
						<path class="st5" d="M893.2,299.5c0,0-2,0-5.1-0.1c-3.3-0.1-8,0-13.6-0.1c-5.6,0.1-12.3,0-19.3,0.1s-14.5,0.2-22,0.3
							c-3.8,0.1-7.5,0.1-11.1,0.2c-3.6,0.1-7.4,0.1-10.9,0.2s-7,0.1-10.1,0.1c-3.1,0-6.3,0.1-9,0c-2.9,0-5.4-0.1-7.8-0.1
							c-2.3-0.1-4.3-0.1-5.9-0.1c-1.6-0.1-3-0.1-3.8-0.1c-0.9,0-1.4-0.1-1.4-0.1c-0.9-0.1-1.4-0.3-1.3-0.6c0-0.2,0.5-0.4,1.1-0.4
							c0,0,0.5,0,1.3-0.1c0.9-0.1,2.1-0.1,3.8-0.3c1.6-0.1,3.6-0.2,5.9-0.3c2.3-0.1,4.9-0.2,7.6-0.3c2.8-0.1,5.9-0.1,9.1-0.1
							c3.3,0,6.6-0.1,10.1-0.1s7.1,0,10.9,0.1c3.8,0,7.5,0.1,11.1,0.1c7.5,0.1,15,0.2,22,0.3c7.1,0.1,13.5,0.1,19.3,0.2
							c5.6,0,10.4,0.1,13.6,0.1c3.3,0,5.1,0,5.1,0c0.8,0,1.4,0.2,1.4,0.4C894.8,299.3,894.2,299.5,893.2,299.5
							C893.3,299.5,893.3,299.5,893.2,299.5"/>
					</g>
				</g>
			</g>
			<g>
				<g>
					<path id="a8OtUzgEu8_13_" class="st1" d="M773.5,341.2c0,0,2-0.1,5.1-0.1c3.3-0.1,8-0.1,13.6-0.2c5.6,0,12.3-0.1,19.3-0.1
						c7,0,14.5,0.1,22,0.1c3.8,0,7.5,0.1,11.1,0.1s7.4,0.1,10.9,0.1c3.5,0,7,0,10.1,0c3.1,0,6.3,0,9-0.1c2.9,0,5.3-0.1,7.8-0.1
						c2.3-0.1,4.3-0.1,5.9-0.2c1.6-0.1,3-0.1,3.8-0.1c0.9,0,1.4-0.1,1.4-0.1c0.8-0.1,1.4-0.3,1.3-0.6c0-0.2-0.6-0.4-1.1-0.4
						c0,0-0.5,0-1.3-0.1c-0.9-0.1-2.1-0.1-3.8-0.2c-1.6-0.1-3.6-0.1-5.9-0.3c-2.3-0.1-4.9-0.1-7.6-0.2c-2.8-0.1-5.9-0.1-9.1-0.1
						s-6.6,0-10.1,0.1c-3.5,0.1-7.1,0.1-10.9,0.1s-7.5,0.1-11.1,0.2c-7.5,0.1-15,0.3-22,0.4c-7.1,0.1-13.5,0.2-19.3,0.3
						c-5.6,0.1-10.4,0.1-13.6,0.2c-3.3,0-5.1,0-5.1,0c-0.8,0-1.4,0.2-1.4,0.5C771.9,341.1,772.5,341.2,773.5,341.2
						C773.4,341.2,773.4,341.2,773.5,341.2"/>
				</g>
				<g>
					<g>
						<path class="st5" d="M773.5,341.2c0,0,2-0.1,5.1-0.1c3.3-0.1,8-0.1,13.6-0.2c5.6,0,12.3-0.1,19.3-0.1c7,0,14.5,0.1,22,0.1
							c3.8,0,7.5,0.1,11.1,0.1s7.4,0.1,10.9,0.1c3.5,0,7,0,10.1,0c3.1,0,6.3,0,9-0.1c2.9,0,5.3-0.1,7.8-0.1c2.3-0.1,4.3-0.1,5.9-0.2
							c1.6-0.1,3-0.1,3.8-0.1c0.9,0,1.4-0.1,1.4-0.1c0.8-0.1,1.4-0.3,1.3-0.6c0-0.2-0.6-0.4-1.1-0.4c0,0-0.5,0-1.3-0.1
							c-0.9-0.1-2.1-0.1-3.8-0.2c-1.6-0.1-3.6-0.1-5.9-0.3c-2.3-0.1-4.9-0.1-7.6-0.2c-2.8-0.1-5.9-0.1-9.1-0.1s-6.6,0-10.1,0.1
							c-3.5,0.1-7.1,0.1-10.9,0.1s-7.5,0.1-11.1,0.2c-7.5,0.1-15,0.3-22,0.4c-7.1,0.1-13.5,0.2-19.3,0.3c-5.6,0.1-10.4,0.1-13.6,0.2
							c-3.3,0-5.1,0-5.1,0c-0.8,0-1.4,0.2-1.4,0.5C771.9,341.1,772.5,341.2,773.5,341.2C773.4,341.2,773.4,341.2,773.5,341.2"/>
					</g>
				</g>
			</g>
			<g>
				<g>
					<path id="a8OtUzgEu8_12_" class="st1" d="M774.7,462.1c0,0,1.9-0.1,5-0.1c3.2-0.1,7.8-0.1,13.3-0.2c5.5,0,11.9-0.1,18.7-0.1
						c6.8,0,14.1,0.1,21.4,0.1c3.6,0,7.3,0.1,10.8,0.1s7.2,0.1,10.6,0.1c3.4,0,6.8,0,9.8,0c3,0,6.1,0,8.8-0.1c2.8,0,5.1-0.1,7.5-0.1
						c2.2-0.1,4.1-0.1,5.7-0.2s2.9-0.1,3.6-0.1c0.9,0,1.3-0.1,1.3-0.1c0.7-0.1,1.3-0.4,1.2-0.7c0-0.2-0.6-0.5-1.1-0.5
						c0,0-0.5,0-1.2-0.1c-0.9-0.1-2.1-0.1-3.6-0.2c-1.6-0.1-3.5-0.1-5.7-0.4c-2.2-0.1-4.7-0.1-7.4-0.2c-2.7-0.1-5.7-0.1-8.9-0.1
						s-6.4,0-9.8,0.1c-3.4,0.1-6.9,0.1-10.6,0.1s-7.3,0.1-10.8,0.2c-7.3,0.1-14.6,0.4-21.4,0.5c-6.9,0.1-13.1,0.2-18.7,0.4
						c-5.5,0.1-10.1,0.1-13.3,0.2c-3.2,0-5,0-5,0c-0.7,0-1.3,0.2-1.3,0.6C773.1,462,773.7,462.1,774.7,462.1
						C774.6,462.1,774.6,462.1,774.7,462.1"/>
				</g>
			</g>
			<g>
				<g>
					<path id="bHPvHQc13_5_" class="st1" d="M892.7,340c0,0,0.1-0.7,0.1-1.8c0.1-1.1,0.1-2.7,0.3-4.6c0-1.9-0.3-4.1-0.4-6.5
						c0-2.4-0.3-5-0.5-7.5c-0.1-1.3-0.3-2.5-0.4-3.8c-0.1-1.3-0.3-2.5-0.3-3.8c-0.1-1.2-0.1-2.4-0.1-3.4c0-1.1,0-2.2,0-3.1
						c0-1,0.1-1.8,0.1-2.6c0.1-0.8,0.3-1.5,0.3-2c0.1-0.6,0.3-1,0.4-1.3c0-0.3,0.3-0.4,0.3-0.4c0.1-0.3,0.8-0.4,1.3-0.4
						s0.9,0.2,1,0.4c0,0,0,0.2,0.3,0.4c0.1,0.3-0.3-0.6-0.1-0.1c0.3,0.6-0.1-0.6,0,0.1c0.1,0.8,0-0.1,0.1,0.9s0.1,3.1,0.1,4.3
						c0,1.2,0.1,4.7,0,6c0,1.3,0.3,3.6,0.1,4.9c-0.3,2.6,0,9-0.1,11.4s0.4,4.6,0.1,6.5c-0.1,1.9-0.3,3.6-0.3,4.6s0,1.7,0,1.7
						c0,0.3-0.5,0.5-1.1,0.5C893.2,340.5,892.8,340.4,892.7,340C892.8,340,892.8,340,892.7,340"/>
				</g>
				<g>
					<g>
						<path class="st5" d="M892.7,340c0,0,0.1-0.7,0.1-1.8c0.1-1.1,0.1-2.7,0.3-4.6c0-1.9-0.3-4.1-0.4-6.5c0-2.4-0.3-5-0.5-7.5
							c-0.1-1.3-0.3-2.5-0.4-3.8c-0.1-1.3-0.3-2.5-0.3-3.8c-0.1-1.2-0.1-2.4-0.1-3.4c0-1.1,0-2.2,0-3.1c0-1,0.1-1.8,0.1-2.6
							c0.1-0.8,0.3-1.5,0.3-2c0.1-0.6,0.3-1,0.4-1.3c0-0.3,0.3-0.4,0.3-0.4c0.1-0.3,0.8-0.4,1.3-0.4s0.9,0.2,1,0.4
							c0,0,0,0.2,0.3,0.4c0.1,0.3-0.3-0.6-0.1-0.1c0.3,0.6-0.1-0.6,0,0.1c0.1,0.8,0-0.1,0.1,0.9s0.1,3.1,0.1,4.3c0,1.2,0.1,4.7,0,6
							c0,1.3,0.3,3.6,0.1,4.9c-0.3,2.6,0,9-0.1,11.4s0.4,4.6,0.1,6.5c-0.1,1.9-0.3,3.6-0.3,4.6s0,1.7,0,1.7c0,0.3-0.5,0.5-1.1,0.5
							C893.2,340.5,892.8,340.4,892.7,340C892.8,340,892.8,340,892.7,340"/>
					</g>
				</g>
			</g>
			<g>
				<g>
					<path id="c7z7e1BDi2_13_" class="st1" d="M772,340.6c0,0,0-0.7,0.1-1.8c0.1-1.1,0.1-2.7,0.3-4.7c0-1.9-0.1-4.2-0.4-6.6
						c0-2.4-0.4-5-0.5-7.6c-0.1-1.3-0.3-2.5-0.4-3.8c-0.1-1.3-0.3-2.5-0.3-3.8c-0.1-1.2-0.1-2.4-0.1-3.5s0-2.2,0-3.1
						c0-1,0.1-1.8,0.1-2.7c0.1-0.8,0.3-1.5,0.3-2c0.1-0.6,0.3-1,0.4-1.3c0-0.3,0.3-0.4,0.3-0.4c0.1-0.3,0.8-0.4,1.3-0.4
						s0.9,0.2,1,0.4c0,0,0,0.2,0.3,0.4c0.1,0.3-0.3-0.6-0.1-0.1c0.3,0.6-0.1-0.6,0,0.1c0.1,0.8,0-0.1,0.1,0.9s0.1,3.1,0.1,4.4
						c0,1.2,0.1,4.8,0,6c0,1.3,0.3,3.6,0.1,5c-0.3,2.6,0,9-0.1,11.4s0.4,4.6,0.1,6.6c-0.1,2-0.3,3.6-0.3,4.7s0,1.8,0,1.8
						c0,0.3-0.5,0.5-1.1,0.5C772.6,341.2,772.1,341,772,340.6C772.1,340.7,772.1,340.7,772,340.6"/>
				</g>
				<g>
					<g>
						<path class="st5" d="M772,340.6c0,0,0-0.7,0.1-1.8c0.1-1.1,0.1-2.7,0.3-4.7c0-1.9-0.1-4.2-0.4-6.6c0-2.4-0.4-5-0.5-7.6
							c-0.1-1.3-0.3-2.5-0.4-3.8c-0.1-1.3-0.3-2.5-0.3-3.8c-0.1-1.2-0.1-2.4-0.1-3.5s0-2.2,0-3.1c0-1,0.1-1.8,0.1-2.7
							c0.1-0.8,0.3-1.5,0.3-2c0.1-0.6,0.3-1,0.4-1.3c0-0.3,0.3-0.4,0.3-0.4c0.1-0.3,0.8-0.4,1.3-0.4s0.9,0.2,1,0.4
							c0,0,0,0.2,0.3,0.4c0.1,0.3-0.3-0.6-0.1-0.1c0.3,0.6-0.1-0.6,0,0.1c0.1,0.8,0-0.1,0.1,0.9s0.1,3.1,0.1,4.4c0,1.2,0.1,4.8,0,6
							c0,1.3,0.3,3.6,0.1,5c-0.3,2.6,0,9-0.1,11.4s0.4,4.6,0.1,6.6c-0.1,2-0.3,3.6-0.3,4.7s0,1.8,0,1.8c0,0.3-0.5,0.5-1.1,0.5
							C772.6,341.2,772.1,341,772,340.6C772.1,340.7,772.1,340.7,772,340.6"/>
					</g>
				</g>
			</g>
		</g>
		<g id="b3tveFeZ5t_17_">
			<g>
				<text transform="matrix(1 0 0 1 806.835 325.5912)" class="st1 st6 st7">record</text>
			</g>
		</g>
		<g>
			<g>
				<path id="bKr4rEUKz_5_" class="st1" d="M831.6,379.1c0,0,0-0.5,0.1-1.4c0.1-0.8,0.1-2.1,0.1-3.6c0,0-0.1-14.4-0.1-15.8
					c-0.1-1.3-0.1-3.5-0.1-4.8c-0.1-1.3-0.1-2-0.1-3.1c0-1.2,0-2.3,0-3.3s-0.1-3.2,0-3.8c0-0.6,0-1,0.1-1.4c0-0.3,0.1-0.5,0.1-0.5
					c0-0.3,0.1-0.5,0.3-0.5s0.2,0.2,0.3,0.4c0,0,0,0.2,0.1,0.5c0,0.3,0.1,0.8,0.1,1.4c0.1,0.6,0.1,1.3,0.2,2.1
					c0,0.8,0.1,1.8,0.1,2.8c0.1,1,0.1,2.2,0.1,3.3c0,1.2,0.1,2.4,0.1,3.6c0,1.3,0,2.6,0,4c0,1.3,0,2.7,0,4c0,2.7-0.1,3.9,0,5.8
					c-0.1,1.8-0.1,3.5-0.2,5c0,1.5-0.1,2.7-0.1,3.6s0,1.4,0,1.4c0,0.2-0.1,0.4-0.4,0.4C831.7,379.5,831.6,379.3,831.6,379.1
					L831.6,379.1"/>
			</g>
			<g>
				<g>
					<path class="st5" d="M831.6,379.1c0,0,0-0.5,0.1-1.4c0.1-0.8,0.1-2.1,0.1-3.6c0,0-0.1-14.4-0.1-15.8c-0.1-1.3-0.1-3.5-0.1-4.8
						c-0.1-1.3-0.1-2-0.1-3.1c0-1.2,0-2.3,0-3.3s-0.1-3.2,0-3.8c0-0.6,0-1,0.1-1.4c0-0.3,0.1-0.5,0.1-0.5c0-0.3,0.1-0.5,0.3-0.5
						s0.2,0.2,0.3,0.4c0,0,0,0.2,0.1,0.5c0,0.3,0.1,0.8,0.1,1.4c0.1,0.6,0.1,1.3,0.2,2.1c0,0.8,0.1,1.8,0.1,2.8
						c0.1,1,0.1,2.2,0.1,3.3c0,1.2,0.1,2.4,0.1,3.6c0,1.3,0,2.6,0,4c0,1.3,0,2.7,0,4c0,2.7-0.1,3.9,0,5.8c-0.1,1.8-0.1,3.5-0.2,5
						c0,1.5-0.1,2.7-0.1,3.6s0,1.4,0,1.4c0,0.2-0.1,0.4-0.4,0.4C831.7,379.5,831.6,379.3,831.6,379.1L831.6,379.1"/>
				</g>
			</g>
		</g>
		<g>
			<g>
				<g>
					<g>
						<path id="a1Y7jzatDS_8_" class="st1" d="M891.1,380.3c0,0-1.9,0-5-0.1c-3.2-0.1-7.9,0-13.3-0.1c-5.5,0.1-12,0-18.8,0.1
							c-6.9,0.1-14.2,0.2-21.6,0.3c-3.6,0.1-7.4,0.1-10.9,0.2s-7.3,0.1-10.7,0.2c-3.4,0.1-6.9,0.1-9.9,0.1c-3,0.1-6.1,0.1-8.8,0
							c-2.8,0-5.2-0.1-7.6-0.1c-2.2-0.1-4.1-0.1-5.7-0.1c-1.6-0.1-2.9-0.1-3.6-0.1c-0.8,0-1.3-0.1-1.3-0.1c-0.8-0.1-0.8-0.1-0.7-0.5
							c0-0.5,0.6-0.5,0.6-0.5s0.5,0,1.2-0.1c0.8-0.1,2.1-0.1,3.6-0.3c1.6-0.1,3.5-0.2,5.7-0.3c2.2-0.1,4.7-0.2,7.5-0.3
							c2.8-0.1,5.7-0.1,9-0.1c3.2,0,6.4-0.1,9.9-0.1c3.4,0,7,0,10.7,0.1c3.6,0,7.4,0.1,10.9,0.1c7.4,0.1,14.7,0.2,21.6,0.3
							c7,0.1,13.2,0.1,18.8,0.2c5.5,0,10.2,0.1,13.3,0.1c3.2,0,5,0,5,0c0.7,0,1.3,0.2,1.3,0.4C892.8,380,892.2,380.2,891.1,380.3
							C891.4,380.2,891.4,380.2,891.1,380.3"/>
					</g>
					<g>
						<g>
							<path class="st5" d="M775,379.7c0.8-0.1,2.1-0.1,3.6-0.3c1.6-0.1,3.5-0.2,5.7-0.3c2.2-0.1,4.7-0.2,7.5-0.3
								c2.8-0.1,5.7-0.1,9-0.1c3.2,0,6.4-0.1,9.9-0.1c3.4,0,7,0,10.7,0.1c3.6,0,7.4,0.1,10.9,0.1c7.4,0.1,14.7,0.2,21.6,0.3
								c7,0.1,13.2,0.1,18.8,0.2c5.5,0,10.2,0.1,13.3,0.1s5,0,5,0c0.7,0,1.3,0.2,1.3,0.4c0.5,0.2-0.1,0.4-1.1,0.4
								c0.1-0.1,0.1-0.1,0,0"/>
							<path class="st5" d="M891.1,380.3c0,0-1.9,0-5-0.1c-3.2-0.1-7.9,0-13.3-0.1c-5.5,0.1-12,0-18.8,0.1
								c-6.9,0.1-14.2,0.2-21.6,0.3c-3.6,0.1-7.4,0.1-10.9,0.2s-7.3,0.1-10.7,0.2c-3.4,0.1-6.9,0.1-9.9,0.1c-3,0.1-6.1,0.1-8.8,0
								c-2.8,0-5.2-0.1-7.6-0.1c-2.2-0.1-4.1-0.1-5.7-0.1c-1.6-0.1-2.9-0.1-3.6-0.1c-0.8,0-1.3-0.1-1.3-0.1
								c-0.8-0.1-0.8-0.3-0.7-0.5"/>
						</g>
					</g>
				</g>
				<g>
					<g>
						<path id="a8OtUzgEu8_11_" class="st1" d="M774.9,411.5c0,0,1.9-0.1,5-0.1c3.2-0.1,7.8-0.1,13.2-0.2c5.5,0,11.9-0.1,18.7-0.1
							c6.8,0,14.1,0.1,21.3,0.1c3.6,0,7.3,0.1,10.8,0.1s7.2,0.1,10.5,0.1c3.4,0,6.8,0,9.8,0s6.1,0,8.7-0.1c2.8,0,5.1-0.1,7.5-0.1
							c2.2-0.1,4.1-0.1,5.7-0.2s2.9-0.1,3.6-0.1c0.8,0,1.3-0.1,1.3-0.1c0.7-0.1,1.3-0.3,1.2-0.6c0-0.2-0.6-0.4-1.1-0.4
							c0,0-0.5,0-1.2-0.1c-0.8-0.1-2.1-0.1-3.6-0.2c-1.6-0.1-3.5-0.1-5.7-0.3c-2.2-0.1-4.7-0.1-7.4-0.2c-2.7-0.1-5.7-0.1-8.8-0.1
							s-6.4,0-9.8,0.1c-3.4,0.1-6.9,0.1-10.5,0.1c-3.6,0-7.3,0.1-10.8,0.2c-7.3,0.1-14.5,0.3-21.3,0.4c-6.9,0.1-13.1,0.2-18.7,0.3
							c-5.5,0.1-10.1,0.1-13.2,0.2c-3.2,0-5,0-5,0c-0.7,0-1.3,0.2-1.3,0.5C773.8,411,773.9,411.5,774.9,411.5
							C774.8,411.4,774.8,411.4,774.9,411.5"/>
					</g>
					<g>
						<g>
							<path class="st5" d="M872.9,411.4c2.8,0,5.1-0.1,7.5-0.1c2.2-0.1,4.1-0.1,5.7-0.2c1.6-0.1,2.9-0.1,3.6-0.1
								c0.8,0,1.3-0.1,1.3-0.1c0.7-0.1,1.3-0.3,1.2-0.6c0-0.2-0.6-0.4-1.1-0.4c0,0-0.5,0-1.2-0.1c-0.8-0.1-2.1-0.1-3.6-0.2
								c-1.6-0.1-3.5-0.1-5.7-0.3c-2.2-0.1-4.7-0.1-7.4-0.2c-2.7-0.1-5.7-0.1-8.8-0.1c-3.2,0-6.4,0-9.8,0.1
								c-3.4,0.1-6.9,0.1-10.5,0.1c-3.6,0-7.3,0.1-10.8,0.2c-7.3,0.1-14.5,0.3-21.3,0.4c-6.9,0.1-13.1,0.2-18.7,0.3
								c-5.5,0.1-10.1,0.1-13.2,0.2c-3.2,0-5,0-5,0c-0.7,0-1.3,0.2-1.3,0.5c0,0.7,0.1,0.5,1.1,0.5c-0.1-0.1-0.1-0.1,0,0"/>
							<path class="st5" d="M774.9,411.5c0,0,1.9-0.1,5-0.1c3.2-0.1,7.8-0.1,13.2-0.2c5.5,0,11.9-0.1,18.7-0.1
								c6.8,0,14.1,0.1,21.3,0.1c3.6,0,7.3,0.1,10.8,0.1s7.2,0.1,10.5,0.1"/>
						</g>
					</g>
				</g>
			</g>
			<g>
				<g>
					<path id="c7z7e1BDi2_12_" class="st1" d="M773.2,460.7c0,0,0-1.4,0.1-3.5c0.1-2.2,0.1-5.3,0.2-9.1c0-3.7-0.1-8.2-0.2-12.9
						c0-4.7-0.2-9.6-0.4-14.7c-0.1-2.5-0.2-4.9-0.2-7.4c-0.1-2.5-0.2-4.9-0.2-7.3c-0.1-2.3-0.1-4.7-0.1-6.8c0-2.1,0-4.2,0-6.1
						s0.1-3.6,0.1-5.2c0.1-1.5,0.2-2.8,0.2-4c0.1-1.1,0.2-2,0.2-2.5c0-0.2,0.2-0.9,0.2-0.9c0.2-0.8,1.1-0.8,0.7-0.8
						c-0.4,0,0.8,0.3,1,0.6v0.4c0,0,0,0.3,0,0.4v0.2c0.1,1.5,0-0.1,0.1,1.7c0.1,1.9,0.1,6.1,0.1,8.5c0,2.3,0.1,9.3,0,11.7
						c0,2.5,0.2,7,0.1,9.6c-0.2,5.1,0,17.6-0.1,22.3c-0.1,4.7,0.2,9,0.1,12.9c-0.1,3.8-0.2,6.9-0.2,9.1s0,3.5,0,3.5
						c0,0.5-0.2,1-0.7,1C773.8,461.9,773.3,461.5,773.2,460.7C773.3,460.8,773.3,460.8,773.2,460.7"/>
				</g>
			</g>
			<g>
				<g>
					<path id="c7z7e1BDi2_11_" class="st1" d="M890.9,380.5C891,380.4,891,380.4,890.9,380.5c0.1-0.7,0.6-1.2,1-1
						c0.5,0,0.7,0.5,0.7,1c0,0,0,1.2,0,3.5s0.1,5.3,0.2,9.1c0.2,3.8-0.2,8.1-0.1,12.8s-0.1,17.1,0.1,22.2c0.1,2.6-0.1,7.1-0.1,9.6
						c0.1,2.5,0,9.4,0,11.7c0,2.5,0,6.7-0.1,8.5c-0.1,1.8,0,0.3-0.1,1.7v0.2c0,0.1,0,0.4,0,0.4l-0.1,0.5l-0.8,0.1
						c0,0-1.3,0.1-0.8-0.3c0,0-0.1-0.7-0.2-0.9c-0.1-0.5-0.2-1.4-0.2-2.5s-0.1-2.5-0.2-3.9c0-1.6-0.1-3.3-0.1-5.2s0-3.9,0-6
						s0-4.4,0.1-6.8c0-2.3,0.1-4.8,0.2-7.3c0.1-2.5,0.2-4.9,0.2-7.4c0.1-5.1,0.4-10,0.4-14.7c0.2-4.7,0.2-9.1,0.2-12.8
						c-0.1-3.8-0.1-6.9-0.2-9.1C890.9,381.9,890.9,380.5,890.9,380.5"/>
				</g>
			</g>
		</g>
		<g id="b3tveFeZ5t_16_">
			<g>
				<text transform="matrix(1 0 0 1 815.7401 402.2414)" class="st1 st6 st7">field</text>
			</g>
		</g>
		<g id="b3tveFeZ5t_15_">
			<g>
				<text transform="matrix(1 0 0 1 785.3987 430.1792)" class="st1 st6 st8">name: „Messung“</text>
			</g>
		</g>
		<g id="b3tveFeZ5t_14_">
			<g>
				<text transform="matrix(1 0 0 1 785.3989 449.8415)" class="st1 st6 st8">value: „3“</text>
			</g>
		</g>
	</g>
</g>
</svg>
