<?xml version="1.0" encoding="UTF-8" standalone="no"?>
<svg
   xmlns:dc="http://purl.org/dc/elements/1.1/"
   xmlns:cc="http://creativecommons.org/ns#"
   xmlns:rdf="http://www.w3.org/1999/02/22-rdf-syntax-ns#"
   xmlns:svg="http://www.w3.org/2000/svg"
   xmlns="http://www.w3.org/2000/svg"
   xmlns:sodipodi="http://sodipodi.sourceforge.net/DTD/sodipodi-0.dtd"
   xmlns:inkscape="http://www.inkscape.org/namespaces/inkscape"
   id="svg403"
   viewBox="0 0 80 80"
   inkscape:version="0.92.4 (5da689c313, 2019-01-14)"
   version="1.1"
   sodipodi:docname="Dokument.svg">
  <sodipodi:namedview
     id="namedview3803"
     inkscape:current-layer="layer1"
     inkscape:window-maximized="1"
     inkscape:window-y="-9"
     inkscape:window-x="-9"
     inkscape:cy="45.598264"
     inkscape:cx="18.285222"
     inkscape:zoom="5.275"
     inkscape:pagecheckerboard="true"
     showgrid="false"
     inkscape:window-height="1001"
     inkscape:window-width="1920"
     inkscape:pageshadow="2"
     inkscape:pageopacity="0"
     guidetolerance="10"
     gridtolerance="10"
     objecttolerance="10"
     borderopacity="1"
     bordercolor="#666666"
     pagecolor="#ffffff"
     showguides="true"
     inkscape:guide-bbox="true">
    <sodipodi:guide
       position="54.976303,73.175355"
       orientation="0,1"
       id="guide13574"
       inkscape:locked="false" />
    <sodipodi:guide
       position="55.734597,9.0995261"
       orientation="0,1"
       id="guide13576"
       inkscape:locked="false" />
    <sodipodi:guide
       position="21.421801,47.962085"
       orientation="1,0"
       id="guide13578"
       inkscape:locked="false" />
    <sodipodi:guide
       position="56.303318,43.033175"
       orientation="1,0"
       id="guide13580"
       inkscape:locked="false" />
    <sodipodi:guide
       position="44.170616,49.099526"
       orientation="0,1"
       id="guide13582"
       inkscape:locked="false" />
  </sodipodi:namedview>
  <defs
     id="defs397" />
  <metadata
     id="metadata400">
    <rdf:rdf>
      <cc:work
         rdf:about="">
        <dc:format>image/svg+xml</dc:format>
        <dc:type
           rdf:resource="http://purl.org/dc/dcmitype/StillImage" />
        <dc:title />
      </cc:work>
    </rdf:rdf>
    <rdf:RDF>
      <cc:Work
         rdf:about="">
        <dc:format>image/svg+xml</dc:format>
        <dc:type
           rdf:resource="http://purl.org/dc/dcmitype/StillImage" />
        <dc:title></dc:title>
      </cc:Work>
    </rdf:RDF>
  </metadata>
  <g
     id="layer1">
    <flowroot
       id="flowRoot1257"
       style="font-style:normal;font-weight:normal;font-size:40px;font-family:sans-serif;opacity:1;fill:#000000;fill-opacity:1;stroke:none"
       xml:space="preserve"
       transform="translate(-5.961085)"><flowregion
         id="flowRegion1259"><rect
           id="rect1261"
           x="66.7746"
           y="95.3239"
           width="79.0452"
           height="66.4114" /></flowregion><flowpara
         id="flowPara1263" /></flowroot>    <text
       id="text1271"
       style="font-style:normal;font-weight:normal;font-size:10.5833px;font-family:sans-serif;opacity:1;fill:#000000;fill-opacity:1;stroke:none;stroke-width:0.264583"
       x="44.3107"
       y="30.8323"
       xml:space="preserve"><tspan
         id="tspan1269"
         style="stroke-width:0.264583"
         x="44.3107"
         y="40.1961" /></text>
    <g
       transform="matrix(1.4443197,0,0,1.4480695,-68.338175,-171.6909)"
       id="g4047">
      <g
         transform="translate(7.5000001,82.500001)"
         id="g4076">
        <path
           sodipodi:nodetypes="cccccccccccccccccccccccccc"
           style="font-family:OCRAStd;fill:none;stroke:#ffffff;stroke-miterlimit:10"
           inkscape:connector-curvature="0"
           class="st9"
           d="m 78.72279,70.97655 c 0,0 0.0132,-5.26564 -0.88685,-7.86564 -1.64375,-3.9875 -5.56799,-4.03805 -5.56799,-4.03805 L 67.772319,62.029176 62.91855,59.19185 c -5.4277,-0.0649 -6.17914,3.18064 -6.17914,3.18064 -1.56766,3.25767 -0.76591,10.24227 -1.2277,16.27148 0.1,0.8 0.11612,1.71815 1.16798,0.94194 v 0 c 0.4,0.4 0.65524,0.4 1.55524,0.5 0.4,0 0.68895,-0.59887 0.78895,-0.99887 0.4,-3.6 -1.04419,-8.90113 2.35581,-11.10113 v 0 l 0.0326,2.82245 c -0.15569,5.00978 -0.26536,8.80639 -0.12097,13.95231 v 0.3 c -0.1,0.2 0,0.5 0.3,0.6 6.35116,0.19724 6.04327,-0.32326 10.39984,-0.0975 0.93906,0.0633 1.39819,0.19998 1.39819,-0.25314 0.4,-11.5 0.62143,-6.1819 0.24617,-17.51561 1.24053,0.11269 1.7337,5.8468 1.7337,5.8468 0.23146,2.23484 -0.14757,3.44497 1.25243,5.74497 0.2,0.3 0.15806,0.4 0.45806,0.3 0.5,0.2 1.1,0 1.2,-0.7 0.30793,-3.37177 0.3612,-2.03341 0.3288,-5.17244 z"
           id="path913-0-1-0" />
        <path
           style="fill:#d5e5ff;stroke:#ffffff;stroke-width:0.80115616px;stroke-linecap:butt;stroke-linejoin:miter;stroke-opacity:0.95522383"
           d="m 78.61806,66.59248 -3.82861,3.20527"
           id="path5212-2-2"
           inkscape:connector-curvature="0"
           sodipodi:nodetypes="cc"
           inkscape:transform-center-x="-0.42892241"
           inkscape:transform-center-y="-2.8435128" />
        <path
           style="fill:#d5e5ff;stroke:#ffffff;stroke-width:0.80115616px;stroke-linecap:butt;stroke-linejoin:miter;stroke-opacity:0.95522383"
           d="m 55.57456,66.13108 c 2.13624,1.82432 5.45181,4.6774 3.90043,3.26051"
           id="path5212-2-5-2"
           inkscape:connector-curvature="0"
           sodipodi:nodetypes="cc"
           inkscape:transform-center-x="0.42892241"
           inkscape:transform-center-y="-2.8435128" />
        <g
           id="g4020">
          <path
             id="path911-8-1-1"
             d="m 74.24714,45.42969 c -0.5,-1.1 -1.2,-2.1 -2.4,-2.8 -0.4,-0.3 -0.9,-0.4 -1.3,-0.5 -1.3,-0.5 -2.8,-0.7 -4.3,-0.5 -6.9,1.1 -8.9,10.7 -2.9,14.1 1.9,1.1 5.8,1.7 8,0.6 1.3,-0.3 2.6,-1.1 3.4,-2.3 1.7,-2.5 0.9,-6.1 -0.5,-8.6 z"
             class="st9"
             inkscape:connector-curvature="0"
             style="font-family:OCRAStd;fill:none;stroke:#ffffff;stroke-miterlimit:10" />
          <path
             inkscape:connector-curvature="0"
             id="path5289-5"
             d="M 62.26232,58.7856 Z"
             style="fill:none;stroke:#000000;stroke-width:1px;stroke-linecap:butt;stroke-linejoin:miter;stroke-opacity:1" />
          <g
             transform="translate(-541.21841,-335.55713)"
             id="g5703">
            <g
               id="g5646">
              <g
                 style="fill:#ffffff;fill-opacity:1"
                 id="g5644">
                <path
                   style="fill:#ffffff;fill-opacity:1;stroke-width:0.08150758"
                   sodipodi:nodetypes="cccscccsccsccscccccccccccccccccccccccccccccc"
                   inkscape:connector-curvature="0"
                   d="m 611.23603,410.81157 -1.15162,-10.16898 0.69807,-0.95617 c 0.2963,0.17775 0.76268,0.53546 1.19068,0.53546 0.43535,0 0.77608,-0.22781 0.97643,-0.56659 l 2.65626,-3.96875 0.56298,-0.54718 c -0.26695,-0.72517 -2.49734,-1.20022 -3.46127,-0.62881 -0.75287,0.4463 -2.34316,1.49246 -2.34316,1.49246 l -1.37367,0.89826 c 0,0 -3.05408,-1.76534 -4.28338,-2.3374 -1.5066,-0.7011 -2.37408,-0.0208 -2.72824,0.86157 l 3.06157,4.42113 c 0,0 0.31535,0.37881 0.74981,0.37881 0.42587,0 0.94875,-0.35868 1.24937,-0.53896 l 0.62437,0.99212 -0.77238,10.13303 0.84428,1.09075 1.24425,1.48654 0.032,-0.0363 0.20168,-0.22883 z m 3.65281,-15.44194 -2.8531,4.02006 c -0.0487,-0.0288 -1.28821,-0.81536 -2.55524,-1.57504 l 4.07199,-2.75703 z m -4.75152,4.09527 -0.50719,0.64463 -1.52643,-0.006 -0.50719,-0.64463 1.39422,-0.7961 z m -4.38832,-0.0694 -3.03153,-4.05825 1.3669,-0.0313 c 0,0 3.12498,1.671 4.28372,2.51034 -1.22884,0.73673 -2.61909,1.57917 -2.61909,1.57917 z m 1.84556,11.41605 0.71446,-9.58419 1.1156,0.006 1.14439,9.57819 -1.58095,1.6397 z"
                   id="path5642" />
              </g>
            </g>
            <g
               id="g5648" />
            <g
               id="g5650" />
            <g
               id="g5652" />
            <g
               id="g5654" />
            <g
               id="g5656" />
            <g
               id="g5658" />
            <g
               id="g5660" />
            <g
               id="g5662" />
            <g
               id="g5664" />
            <g
               id="g5666" />
            <g
               id="g5668" />
            <g
               id="g5670" />
            <g
               id="g5672" />
            <g
               id="g5674" />
            <g
               id="g5676" />
          </g>
        </g>
      </g>
    </g>
  </g>
</svg>
