<?xml version="1.0" encoding="UTF-8" standalone="no"?>
<svg
   xmlns:dc="http://purl.org/dc/elements/1.1/"
   xmlns:cc="http://creativecommons.org/ns#"
   xmlns:rdf="http://www.w3.org/1999/02/22-rdf-syntax-ns#"
   xmlns:svg="http://www.w3.org/2000/svg"
   xmlns="http://www.w3.org/2000/svg"
   xmlns:sodipodi="http://sodipodi.sourceforge.net/DTD/sodipodi-0.dtd"
   xmlns:inkscape="http://www.inkscape.org/namespaces/inkscape"
   id="svg403"
   viewBox="0 0 80 80"
   inkscape:version="0.92.4 (5da689c313, 2019-01-14)"
   version="1.1"
   sodipodi:docname="Dokument.svg">
  <sodipodi:namedview
     id="namedview3803"
     inkscape:current-layer="layer1"
     inkscape:window-maximized="1"
     inkscape:window-y="-9"
     inkscape:window-x="-9"
     inkscape:cy="45.598264"
     inkscape:cx="18.285222"
     inkscape:zoom="5.275"
     inkscape:pagecheckerboard="true"
     showgrid="false"
     inkscape:window-height="1001"
     inkscape:window-width="1920"
     inkscape:pageshadow="2"
     inkscape:pageopacity="0"
     guidetolerance="10"
     gridtolerance="10"
     objecttolerance="10"
     borderopacity="1"
     bordercolor="#666666"
     pagecolor="#ffffff"
     showguides="true"
     inkscape:guide-bbox="true">
    <sodipodi:guide
       position="54.976303,73.175355"
       orientation="0,1"
       id="guide13574"
       inkscape:locked="false" />
    <sodipodi:guide
       position="55.734597,9.0995261"
       orientation="0,1"
       id="guide13576"
       inkscape:locked="false" />
    <sodipodi:guide
       position="21.421801,47.962085"
       orientation="1,0"
       id="guide13578"
       inkscape:locked="false" />
    <sodipodi:guide
       position="56.303318,43.033175"
       orientation="1,0"
       id="guide13580"
       inkscape:locked="false" />
    <sodipodi:guide
       position="44.170616,49.099526"
       orientation="0,1"
       id="guide13582"
       inkscape:locked="false" />
  </sodipodi:namedview>
  <defs
     id="defs397" />
  <metadata
     id="metadata400">
    <rdf:rdf>
      <cc:work
         rdf:about="">
        <dc:format>image/svg+xml</dc:format>
        <dc:type
           rdf:resource="http://purl.org/dc/dcmitype/StillImage" />
        <dc:title />
      </cc:work>
    </rdf:rdf>
    <rdf:RDF>
      <cc:Work
         rdf:about="">
        <dc:format>image/svg+xml</dc:format>
        <dc:type
           rdf:resource="http://purl.org/dc/dcmitype/StillImage" />
        <dc:title></dc:title>
      </cc:Work>
    </rdf:RDF>
  </metadata>
  <g
     id="layer1">
    <flowroot
       id="flowRoot1257"
       style="font-style:normal;font-weight:normal;font-size:40px;font-family:sans-serif;opacity:1;fill:#000000;fill-opacity:1;stroke:none"
       xml:space="preserve"
       transform="translate(-5.961085)"><flowregion
         id="flowRegion1259"><rect
           id="rect1261"
           x="66.7746"
           y="95.3239"
           width="79.0452"
           height="66.4114" /></flowregion><flowpara
         id="flowPara1263" /></flowroot>    <text
       id="text1271"
       style="font-style:normal;font-weight:normal;font-size:10.5833px;font-family:sans-serif;opacity:1;fill:#000000;fill-opacity:1;stroke:none;stroke-width:0.264583"
       x="44.3107"
       y="30.8323"
       xml:space="preserve"><tspan
         id="tspan1269"
         style="stroke-width:0.264583"
         x="44.3107"
         y="40.1961" /></text>
    <g
       transform="matrix(1.3315984,0,0,1.3315984,-10.755334,-44.066593)"
       id="g4135">
      <path
         sodipodi:nodetypes="ccccccc"
         id="path911-8-1-1-7"
         d="m 44.09338,48.56528 c -0.45997,-1.06579 0.2219,-2.34406 -2.20785,-4.30392 -2.38463,-1.48182 -4.98999,-1.23788 -7.18458,-0.92471 -6.34756,1.06579 -7.7455,10.36727 -2.22587,13.66155 1.74787,1.06579 5.24724,1.8681 7.2711,0.80231 1.19592,-0.29067 2.83472,-1.99574 3.21618,-2.44945 1.56389,-2.42226 1.22569,-4.14255 1.13102,-6.78578 z"
         class="st9"
         inkscape:connector-curvature="0"
         style="font-family:OCRAStd;fill:none;stroke:#ffffff;stroke-width:0.94410336;stroke-miterlimit:10" />
      <path
         id="path913-0-1-0-4"
         d="m 48.47279,72.22655 c 0,0 0.0132,-5.26564 -0.88685,-7.86564 -1.64375,-3.9875 -5.56799,-4.03805 -5.56799,-4.03805 l -4.70776,3.00051 -4.64164,-2.88152 c -5.4277,-0.0649 -6.17914,3.18064 -6.17914,3.18064 -1.56766,3.25767 -0.76591,10.24227 -1.2277,16.27148 0.1,0.8 0.11612,1.71815 1.16798,0.94194 v 0 c 0.4,0.4 0.65524,0.4 1.55524,0.5 0.4,0 0.68895,-0.59887 0.78895,-0.99887 0.4,-3.6 -1.04419,-8.90113 2.35581,-11.10113 v 0 l 0.0326,2.82245 c -0.15569,5.00978 -0.26536,8.80639 -0.12097,13.95231 v 0.3 c -0.1,0.2 0,0.5 0.3,0.6 6.35116,0.19724 6.04327,-0.32326 10.39984,-0.0975 0.93906,0.0633 1.39819,0.19998 1.39819,-0.25314 0.4,-11.5 0.62143,-6.1819 0.24617,-17.51561 1.24053,0.11269 1.7337,5.8468 1.7337,5.8468 0.23146,2.23484 -0.14757,3.44497 1.25243,5.74497 0.2,0.3 0.15806,0.4 0.45806,0.3 0.5,0.2 1.1,0 1.2,-0.7 0.30793,-3.37177 0.3612,-2.03341 0.3288,-5.17244 z"
         class="st9"
         inkscape:connector-curvature="0"
         style="font-family:OCRAStd;fill:none;stroke:#ffffff;stroke-miterlimit:10"
         sodipodi:nodetypes="cccccccccccccccccccccccccc" />
      <path
         inkscape:transform-center-y="-2.8435128"
         inkscape:transform-center-x="-0.42892241"
         sodipodi:nodetypes="cc"
         inkscape:connector-curvature="0"
         id="path5212-2-2-7"
         d="m 48.36806,67.84248 -3.82861,3.20527"
         style="fill:#d5e5ff;stroke:#ffffff;stroke-width:0.80115616px;stroke-linecap:butt;stroke-linejoin:miter;stroke-opacity:0.95522383" />
      <path
         inkscape:transform-center-y="-2.8435128"
         inkscape:transform-center-x="0.42892241"
         sodipodi:nodetypes="cc"
         inkscape:connector-curvature="0"
         id="path5212-2-5-2-9"
         d="m 25.32456,67.38108 c 2.13624,1.82432 5.45181,4.6774 3.90043,3.26051"
         style="fill:#d5e5ff;stroke:#ffffff;stroke-width:0.80115616px;stroke-linecap:butt;stroke-linejoin:miter;stroke-opacity:0.95522383" />
      <path
         inkscape:connector-curvature="0"
         id="path5289-5-5"
         d="M 32.01232,60.0356 Z"
         style="fill:none;stroke:#000000;stroke-width:1px;stroke-linecap:butt;stroke-linejoin:miter;stroke-opacity:1" />
      <g
         style="fill:#ffffff;fill-opacity:1"
         transform="matrix(0.01767223,0,0,0.01620872,32.57335,67.56951)"
         id="g5640">
        <g
           style="fill:#ffffff;fill-opacity:1"
           id="g5581">
          <g
             style="fill:#ffffff;fill-opacity:1"
             id="g5579">
            <path
               style="fill:#ffffff;fill-opacity:1"
               inkscape:connector-curvature="0"
               d="m 164.055,295.441 c -38.124,0 -69.141,31.017 -69.141,69.141 0,38.124 31.016,69.141 69.141,69.141 38.124,0 69.141,-31.017 69.141,-69.141 0,-38.124 -31.017,-69.141 -69.141,-69.141 z m 0,124.454 c -30.498,0 -55.313,-24.815 -55.313,-55.313 0,-30.498 24.815,-55.313 55.313,-55.313 30.498,0 55.313,24.814 55.313,55.313 0,30.498 -24.815,55.313 -55.313,55.313 z"
               id="path5573" />
            <path
               style="fill:#ffffff;fill-opacity:1"
               inkscape:connector-curvature="0"
               d="m 528.231,148.606 -3.243,-20.493 c -2.676,-16.94 -18.641,-28.549 -35.594,-25.852 l -7.073,1.12 c -9.016,1.404 -18.122,-2.379 -23.792,-9.908 -6.651,-8.85 -14.513,-16.712 -23.356,-23.363 -7.536,-5.669 -11.339,-14.789 -9.901,-23.798 l 1.12,-7.066 c 1.3,-8.187 -0.685,-16.401 -5.58,-23.149 -4.895,-6.741 -12.1,-11.159 -20.286,-12.452 l -20.487,-3.25 c -16.912,-2.724 -32.904,8.919 -35.594,25.859 l -1.12,7.087 c -1.431,9.03 -7.855,16.525 -16.76,19.553 -10.495,3.568 -20.403,8.595 -29.447,14.928 -7.771,5.435 -17.631,6.244 -25.748,2.116 l -6.326,-3.229 c -15.266,-7.792 -34.052,-1.687 -41.858,13.593 l -9.403,18.488 c -3.761,7.384 -4.418,15.812 -1.846,23.729 2.572,7.917 8.055,14.354 15.432,18.115 l 8.511,4.342 c 7.612,3.879 12.604,11.249 13.358,19.719 0.525,5.918 2.067,21.136 4.978,34.619 1.832,8.456 -0.63,17.064 -6.562,22.996 l -6.34,6.347 c -0.666,0.666 -1.292,1.361 -1.889,2.076 -2.321,-11.148 -10.686,-20.627 -22.413,-23.768 L 196.989,201.6 c -8,-2.157 -16.387,-1.044 -23.598,3.132 -7.212,4.163 -12.37,10.869 -14.513,18.869 l -3.499,13.033 c -1.721,6.43 -6.969,11.374 -13.351,12.584 -5.67,1.065 -11.311,2.566 -16.746,4.46 -6.064,2.102 -13.026,0.436 -17.728,-4.266 l -9.514,-9.507 c -12.135,-12.134 -31.882,-12.12 -44.002,0 L 39.38,254.563 c -5.856,5.857 -9.085,13.676 -9.085,22.008 0,8.332 3.229,16.145 9.085,22.015 l 9.507,9.507 c 4.695,4.695 6.368,11.657 4.259,17.728 -1.895,5.434 -3.395,11.07 -4.46,16.746 -1.196,6.382 -6.14,11.629 -12.577,13.358 l -13.033,3.492 c -8,2.144 -14.7,7.302 -18.869,14.513 -4.162,7.218 -5.282,15.598 -3.132,23.598 l 5.359,20.023 c 4.446,16.573 21.51,26.468 38.118,22.008 l 12.923,-3.464 c 6.478,-1.729 13.33,0.407 17.859,5.6 1.783,2.06 3.657,4.065 5.6,6.001 1.949,1.956 3.962,3.823 6.015,5.614 5.192,4.515 7.342,11.36 5.6,17.852 l -3.464,12.923 c -4.432,16.574 5.442,33.665 22.008,38.118 l 20.023,5.358 c 2.662,0.712 5.365,1.065 8.062,1.065 5.393,0 10.724,-1.424 15.535,-4.19 7.212,-4.163 12.37,-10.869 14.513,-18.869 l 3.499,-13.04 c 1.722,-6.43 6.969,-11.374 13.358,-12.577 5.669,-1.072 11.304,-2.572 16.739,-4.46 6.057,-2.116 13.026,-0.443 17.728,4.259 l 9.514,9.514 c 12.128,12.127 31.875,12.114 44.002,0 l 14.658,-14.665 c 5.856,-5.856 9.085,-13.676 9.085,-22.001 0,-8.332 -3.222,-16.152 -9.085,-22.008 l -9.507,-9.514 c -4.695,-4.695 -6.368,-11.657 -4.259,-17.728 1.895,-5.434 3.395,-11.069 4.46,-16.746 1.196,-6.382 6.14,-11.629 12.577,-13.351 l 13.033,-3.499 c 8,-2.144 14.7,-7.302 18.869,-14.513 4.162,-7.218 5.282,-15.598 3.132,-23.598 l -5.358,-20.023 c -3.148,-11.721 -12.622,-20.093 -23.754,-22.42 0.703,-0.588 1.39,-1.206 2.05,-1.866 l 6.347,-6.347 c 5.939,-5.94 14.54,-8.394 23.003,-6.562 13.434,2.904 28.68,4.453 34.619,4.985 8.463,0.753 15.833,5.739 19.712,13.351 l 4.342,8.511 c 5.49,10.779 16.435,16.988 27.781,16.988 4.743,0 9.562,-1.086 14.064,-3.381 l 18.482,-9.417 c 15.287,-7.785 21.385,-26.564 13.6,-41.837 l -3.229,-6.34 c -4.134,-8.117 -3.326,-17.983 2.109,-25.741 6.341,-9.057 11.36,-18.965 14.928,-29.454 3.028,-8.906 10.523,-15.329 19.553,-16.76 l 7.087,-1.12 c 8.186,-1.293 15.391,-5.717 20.286,-12.459 4.895,-6.742 6.88,-14.956 5.58,-23.142 z M 255.972,287.331 c 2.698,2.695 5.772,4.787 9.051,6.284 -4.615,-0.302 -9.028,-2.44 -12.252,-6.142 -1.783,-2.06 -3.657,-4.065 -5.607,-6.008 -1.949,-1.956 -3.955,-3.823 -6.008,-5.614 -3.717,-3.228 -5.865,-7.655 -6.151,-12.294 1.519,3.349 3.635,6.431 6.309,9.102 z m 52.36,27.849 5.358,20.023 c 1.19,4.439 0.567,9.092 -1.749,13.109 -2.323,4.01 -6.043,6.88 -10.482,8.069 l -13.033,3.499 c -11.539,3.084 -20.41,12.563 -22.588,24.144 -0.94,5.006 -2.268,9.977 -3.927,14.769 -3.838,11.049 -0.878,23.626 7.543,32.047 l 9.507,9.514 c 3.249,3.25 5.04,7.592 5.04,12.231 0,4.632 -1.79,8.974 -5.04,12.224 l -14.658,14.665 c -6.492,6.486 -17.956,6.492 -24.448,0 l -9.514,-9.514 c -8.421,-8.421 -20.977,-11.394 -32.047,-7.543 -4.799,1.659 -9.763,2.98 -14.762,3.927 -11.588,2.184 -21.067,11.048 -24.151,22.588 l -3.499,13.04 c -1.189,4.439 -4.052,8.152 -8.069,10.475 -4.017,2.316 -8.656,2.931 -13.109,1.749 l -20.023,-5.358 C 105.478,506.37 99.989,496.87 102.45,487.66 l 3.464,-12.923 c 3.119,-11.636 -0.663,-23.853 -9.88,-31.86 -1.812,-1.583 -3.582,-3.222 -5.317,-4.964 -1.729,-1.721 -3.368,-3.498 -4.944,-5.303 -6.16,-7.08 -14.796,-10.952 -23.75,-10.952 -2.696,0 -5.428,0.352 -8.132,1.079 l -12.923,3.464 C 31.779,428.656 22.265,423.18 19.79,413.97 l -5.358,-20.023 c -1.19,-4.439 -0.567,-9.092 1.749,-13.109 2.323,-4.01 6.043,-6.88 10.482,-8.069 l 13.04,-3.492 c 11.54,-3.097 20.411,-12.577 22.582,-24.151 0.94,-5.006 2.268,-9.977 3.927,-14.769 3.838,-11.049 0.878,-23.626 -7.543,-32.047 l -9.507,-9.507 c -3.249,-3.25 -5.04,-7.598 -5.04,-12.231 0,-4.633 1.791,-8.975 5.054,-12.238 l 14.658,-14.658 c 6.485,-6.492 17.949,-6.499 24.448,0 l 9.514,9.507 c 8.421,8.428 20.984,11.387 32.054,7.55 4.792,-1.666 9.749,-2.987 14.762,-3.927 11.581,-2.191 21.06,-11.062 24.144,-22.595 l 3.499,-13.033 c 1.189,-4.439 4.052,-8.159 8.069,-10.475 4.024,-2.323 8.663,-2.945 13.109,-1.756 l 20.023,5.365 c 9.21,2.461 14.692,11.961 12.231,21.171 l -3.464,12.923 c -3.125,11.643 0.663,23.86 9.88,31.86 1.812,1.583 3.588,3.235 5.317,4.964 1.729,1.721 3.368,3.498 4.944,5.303 8.006,9.216 20.224,13.005 31.867,9.88 l 12.923,-3.464 c 9.23,-2.455 18.71,3.028 21.178,12.231 z M 511.468,163.616 c -2.731,3.755 -6.727,6.216 -11.256,6.935 l -7.087,1.12 c -14.111,2.227 -25.789,12.183 -30.484,25.956 -3.14,9.251 -7.565,17.99 -13.165,25.976 -8.373,11.961 -9.563,27.269 -3.098,39.943 l 3.229,6.34 c 4.322,8.483 0.94,18.917 -7.557,23.245 l -18.481,9.417 c -4.093,2.081 -8.76,2.447 -13.178,1.009 -4.411,-1.432 -7.986,-4.474 -10.067,-8.567 l -4.342,-8.511 c -6.056,-11.878 -17.575,-19.671 -30.809,-20.846 -12.003,-1.078 -23.999,-2.8 -32.925,-4.729 -2.828,-0.609 -5.663,-0.906 -8.463,-0.906 -10.191,0 -19.968,3.935 -27.229,11.213 l -6.347,6.347 c -6.727,6.734 -17.693,6.741 -24.441,0 l -14.665,-14.672 c -3.249,-3.249 -5.033,-7.585 -5.033,-12.224 0,-4.632 1.783,-8.974 5.033,-12.224 l 6.34,-6.347 c 9.272,-9.272 13.123,-22.609 10.302,-35.691 -1.942,-8.961 -3.664,-20.971 -4.722,-32.932 -1.182,-13.24 -8.981,-24.759 -20.853,-30.802 l -8.511,-4.342 c -8.497,-4.328 -11.878,-14.754 -7.55,-23.245 l 9.403,-18.488 c 4.328,-8.497 14.755,-11.878 23.252,-7.557 l 6.326,3.229 c 12.688,6.471 27.995,5.275 39.95,-3.098 7.979,-5.579 16.718,-10.018 25.976,-13.171 13.78,-4.688 23.73,-16.366 25.956,-30.478 l 1.12,-7.08 c 1.493,-9.417 10.419,-15.812 19.781,-14.374 l 20.487,3.25 c 4.535,0.726 8.532,3.181 11.256,6.928 2.724,3.754 3.83,8.31 3.111,12.846 l -1.12,7.073 c -2.226,14.077 3.61,28.251 15.253,37.004 7.799,5.87 14.741,12.812 20.611,20.618 8.76,11.644 22.962,17.5 37.011,15.253 l 7.073,-1.12 c 9.389,-1.438 18.288,4.958 19.781,14.368 l 3.243,20.487 v 0.007 c 0.719,4.529 -0.38,9.093 -3.111,12.84 z"
               id="path5575" />
            <path
               style="fill:#ffffff;fill-opacity:1"
               inkscape:connector-curvature="0"
               d="m 364.565,108.759 c -30.498,0 -55.313,24.815 -55.313,55.313 0,30.498 24.815,55.313 55.313,55.313 30.498,0 55.313,-24.815 55.313,-55.313 0,-30.498 -24.815,-55.313 -55.313,-55.313 z m 0,96.798 c -22.879,0 -41.485,-18.606 -41.485,-41.485 0,-22.879 18.606,-41.485 41.485,-41.485 22.879,0 41.485,18.606 41.485,41.485 0,22.879 -18.606,41.485 -41.485,41.485 z"
               id="path5577" />
          </g>
        </g>
        <g
           style="fill:#ffffff;fill-opacity:1"
           id="g5583" />
        <g
           style="fill:#ffffff;fill-opacity:1"
           id="g5585" />
        <g
           style="fill:#ffffff;fill-opacity:1"
           id="g5587" />
        <g
           style="fill:#ffffff;fill-opacity:1"
           id="g5589" />
        <g
           style="fill:#ffffff;fill-opacity:1"
           id="g5591" />
        <g
           style="fill:#ffffff;fill-opacity:1"
           id="g5593" />
        <g
           style="fill:#ffffff;fill-opacity:1"
           id="g5595" />
        <g
           style="fill:#ffffff;fill-opacity:1"
           id="g5597" />
        <g
           style="fill:#ffffff;fill-opacity:1"
           id="g5599" />
        <g
           style="fill:#ffffff;fill-opacity:1"
           id="g5601" />
        <g
           style="fill:#ffffff;fill-opacity:1"
           id="g5603" />
        <g
           style="fill:#ffffff;fill-opacity:1"
           id="g5605" />
        <g
           style="fill:#ffffff;fill-opacity:1"
           id="g5607" />
        <g
           style="fill:#ffffff;fill-opacity:1"
           id="g5609" />
        <g
           style="fill:#ffffff;fill-opacity:1"
           id="g5611" />
      </g>
      <g
         id="g5554"
         transform="matrix(0.03964775,0,0,0.0338392,24.893074,38.730761)"
         style="fill:#ffffff;fill-opacity:1">
        <g
           id="g5495"
           style="fill:#ffffff;fill-opacity:1">
          <g
             id="g5493"
             style="fill:#ffffff;fill-opacity:1">
            <g
               id="g5491"
               style="fill:#ffffff;fill-opacity:1">
              <path
                 id="path5487"
                 d="M 108.72164,219.51012 H 69.202637 c 6.676,-91 157.940463,-220.6114238 250.614463,-220.6114238 73.334,0 139.692,46.1899998 165.125,114.9390038 3.832,10.359 29.63795,35.82962 29.63795,35.82962 10.359,-3.833 -4.05377,-7.02564 -7.88577,-17.38564 -15.158,-40.976002 -56.27444,-67.728635 -92.06144,-93.090635 -36.61,-25.945 -79.754,-39.65900006 -124.767,-39.65900006 -57.695,0 -122.00292,20.71384206 -162.79992,61.51084206 C 86.800921,101.30789 29.326637,173.40412 28.748637,230.25712 c -23.9019997,13.85 -40.027,39.696 -40.027,69.253 v 68 c 0,44.112 35.888,80 80,80 h 40.000003 c 11.046,0 20,-8.954 20,-20 v -188 c 0,-11.046 -8.954,-20 -20,-20 z m -20.000003,188 h -20 c -22.056,0 -40,-17.944 -40,-40 v -68 c 0,-22.056 17.944,-40 40,-40 h 20 z"
                 inkscape:connector-curvature="0"
                 style="fill:#ffffff;fill-opacity:1"
                 sodipodi:nodetypes="scsccccsscssssssscsssscc" />
              <path
                 id="path5489"
                 d="m 518.9443,206.91801 h -40 c -11.046,0 -20,8.954 -20,20 v 137 51 21 c 0,11.028 -8.972,20 -20,20 h -61 v 0.634 c -6.822,-12.303 -19.936,-20.634 -35,-20.634 -22.091,0 -40,17.909 -40,40 0,22.091 17.909,40 40,40 15.064,0 28.178,-8.331 35,-20.634 v 0.634 h 61 c 33.084,0 60,-26.916 60,-60 v -1 h 20 c 44.112,0 80,-35.888 80,-80 v -68 c 0,-44.112 -35.888,-80 -80,-80 z m 40,148 c 0,22.056 -17.944,40 -40,40 h -20 v -31 -117 h 20 c 22.056,0 40,17.944 40,40 z"
                 inkscape:connector-curvature="0"
                 style="fill:#ffffff;fill-opacity:1" />
              <path
                 id="path5487-4"
                 d="m 479.4252,206.91801 h 39.5191 c -6.676,-91 -128.01553,-182.561385 -220.6633,-179.978098 -66.24028,1.84697 -177.208,32.311995 -202.641,101.060998 -3.832,10.359 -15.336,15.65 -25.697,11.819 -10.359,-3.833 21.865,-1.459 25.697,-11.819 15.158,-40.976003 42.087,-76.040003 77.874,-101.401998 36.61,-25.94499983 79.7541,-39.659 124.767,-39.659 57.695,0 122.003,20.7138002 162.8,61.510795 40.265,40.265 97.7393,112.361303 98.3173,169.214303 23.902,13.85 40.027,39.696 40.027,69.253 v 68 c 0,44.112 -35.888,80 -80,80 h -40.0001 c -11.046,0 -20,-8.954 -20,-20 v -188 c 0,-11.046 8.954,-20 20,-20 z m 20.0001,188 h 20 c 22.056,0 40,-17.944 40,-40 v -68 c 0,-22.056 -17.944,-40 -40,-40 h -20 z"
                 inkscape:connector-curvature="0"
                 style="fill:#ffffff;fill-opacity:1;stroke-width:0.99999988"
                 sodipodi:nodetypes="scsccccsscssssssscsssscc" />
            </g>
          </g>
        </g>
        <g
           id="g5497"
           style="fill:#ffffff;fill-opacity:1" />
        <g
           id="g5499"
           style="fill:#ffffff;fill-opacity:1" />
        <g
           id="g5501"
           style="fill:#ffffff;fill-opacity:1" />
        <g
           id="g5503"
           style="fill:#ffffff;fill-opacity:1" />
        <g
           id="g5505"
           style="fill:#ffffff;fill-opacity:1" />
        <g
           id="g5507"
           style="fill:#ffffff;fill-opacity:1" />
        <g
           id="g5509"
           style="fill:#ffffff;fill-opacity:1" />
        <g
           id="g5511"
           style="fill:#ffffff;fill-opacity:1" />
        <g
           id="g5513"
           style="fill:#ffffff;fill-opacity:1" />
        <g
           id="g5515"
           style="fill:#ffffff;fill-opacity:1" />
        <g
           id="g5517"
           style="fill:#ffffff;fill-opacity:1" />
        <g
           id="g5519"
           style="fill:#ffffff;fill-opacity:1" />
        <g
           id="g5521"
           style="fill:#ffffff;fill-opacity:1" />
        <g
           id="g5523"
           style="fill:#ffffff;fill-opacity:1" />
        <g
           id="g5525"
           style="fill:#ffffff;fill-opacity:1" />
      </g>
    </g>
  </g>
</svg>
