<?xml version="1.0" encoding="UTF-8" standalone="no"?>
<svg
   xmlns:dc="http://purl.org/dc/elements/1.1/"
   xmlns:cc="http://creativecommons.org/ns#"
   xmlns:rdf="http://www.w3.org/1999/02/22-rdf-syntax-ns#"
   xmlns:svg="http://www.w3.org/2000/svg"
   xmlns="http://www.w3.org/2000/svg"
   xmlns:sodipodi="http://sodipodi.sourceforge.net/DTD/sodipodi-0.dtd"
   xmlns:inkscape="http://www.inkscape.org/namespaces/inkscape"
   id="svg403"
   viewBox="0 0 80 80"
   inkscape:version="0.92.4 (5da689c313, 2019-01-14)"
   version="1.1"
   sodipodi:docname="Dokument.svg">
  <sodipodi:namedview
     id="namedview3803"
     inkscape:current-layer="layer1"
     inkscape:window-maximized="1"
     inkscape:window-y="-9"
     inkscape:window-x="-9"
     inkscape:cy="45.598264"
     inkscape:cx="18.285222"
     inkscape:zoom="5.275"
     inkscape:pagecheckerboard="true"
     showgrid="false"
     inkscape:window-height="1001"
     inkscape:window-width="1920"
     inkscape:pageshadow="2"
     inkscape:pageopacity="0"
     guidetolerance="10"
     gridtolerance="10"
     objecttolerance="10"
     borderopacity="1"
     bordercolor="#666666"
     pagecolor="#ffffff" />
  <defs
     id="defs397" />
  <metadata
     id="metadata400">
    <rdf:rdf>
      <cc:work
         rdf:about="">
        <dc:format>image/svg+xml</dc:format>
        <dc:type
           rdf:resource="http://purl.org/dc/dcmitype/StillImage" />
        <dc:title />
      </cc:work>
    </rdf:rdf>
    <rdf:RDF>
      <cc:Work
         rdf:about="">
        <dc:format>image/svg+xml</dc:format>
        <dc:type
           rdf:resource="http://purl.org/dc/dcmitype/StillImage" />
        <dc:title></dc:title>
      </cc:Work>
    </rdf:RDF>
  </metadata>
  <g
     id="layer1">
    <flowroot
       id="flowRoot1257"
       style="font-style:normal;font-weight:normal;font-size:40px;font-family:sans-serif;opacity:1;fill:#000000;fill-opacity:1;stroke:none"
       xml:space="preserve"
       transform="translate(-5.961085)"><flowregion
         id="flowRegion1259"><rect
           id="rect1261"
           x="66.7746"
           y="95.3239"
           width="79.0452"
           height="66.4114" /></flowregion><flowpara
         id="flowPara1263" /></flowroot>    <text
       id="text1271"
       style="font-style:normal;font-weight:normal;font-size:10.5833px;font-family:sans-serif;opacity:1;fill:#000000;fill-opacity:1;stroke:none;stroke-width:0.264583"
       x="44.3107"
       y="30.8323"
       xml:space="preserve"><tspan
         id="tspan1269"
         style="stroke-width:0.264583"
         x="44.3107"
         y="40.1961" /></text>
    <g
       transform="matrix(1.4187015,0,0,1.4187015,-100.62601,-50.243834)"
       id="g4085">
      <path
         id="path911-8-1"
         d="m 104.71962,44.84466 c -0.5,-1.1 -1.2,-2.1 -2.4,-2.8 -0.4,-0.3 -0.9,-0.4 -1.3,-0.5 -1.3,-0.5 -2.8,-0.7 -4.3,-0.5 -6.9,1.1 -8.9,10.7 -2.9,14.1 1.9,1.1 5.8,1.7 8,0.6 1.3,-0.3 2.6,-1.1 3.4,-2.3 1.7,-2.5 0.9,-6.1 -0.5,-8.6 z"
         class="st9"
         inkscape:connector-curvature="0"
         style="font-family:OCRAStd;fill:none;stroke:#ffffff;stroke-miterlimit:10" />
      <path
         id="path913-0-1"
         d="m 110.19527,70.45402 c 0,0 0.0132,-5.26564 -0.88685,-7.86564 -1.64375,-3.9875 -5.56799,-4.03805 -5.56799,-4.03805 l -4.70776,3.00051 -4.64164,-2.88152 c -5.4277,-0.0649 -6.17914,3.18064 -6.17914,3.18064 -1.56766,3.25767 -0.76591,10.24227 -1.2277,16.27148 0.1,0.8 0.11612,1.71815 1.16798,0.94194 v 0 c 0.4,0.4 0.65524,0.4 1.55524,0.5 0.4,0 0.68895,-0.59887 0.78895,-0.99887 0.4,-3.6 -1.04419,-8.90113 2.35581,-11.10113 v 0 l 0.0326,2.82245 c -0.15569,5.00978 -0.26536,8.80639 -0.12097,13.95231 v 0.3 c -0.1,0.2 0,0.5 0.3,0.6 6.35116,0.19724 6.04327,-0.32326 10.39984,-0.0975 0.93906,0.0633 1.39819,0.19998 1.39819,-0.25314 0.4,-11.5 0.62143,-6.1819 0.24617,-17.51561 1.24053,0.11269 1.7337,5.8468 1.7337,5.8468 0.23146,2.23484 -0.14757,3.44497 1.25243,5.74497 0.2,0.3 0.15806,0.4 0.45806,0.3 0.5,0.2 1.1,0 1.2,-0.7 0.30793,-3.37177 0.3612,-2.03341 0.3288,-5.17244 z"
         class="st9"
         inkscape:connector-curvature="0"
         style="font-family:OCRAStd;fill:none;stroke:#ffffff;stroke-miterlimit:10"
         sodipodi:nodetypes="cccccccccccccccccccccccccc" />
      <path
         inkscape:transform-center-y="-2.8435128"
         inkscape:transform-center-x="-0.42892241"
         sodipodi:nodetypes="cc"
         inkscape:connector-curvature="0"
         id="path5212-2"
         d="m 110.09054,66.06995 -3.82861,3.20527"
         style="fill:#d5e5ff;stroke:#ffffff;stroke-width:0.80115616px;stroke-linecap:butt;stroke-linejoin:miter;stroke-opacity:0.95522383" />
      <path
         inkscape:transform-center-y="-2.8435128"
         inkscape:transform-center-x="0.42892241"
         sodipodi:nodetypes="cc"
         inkscape:connector-curvature="0"
         id="path5212-2-5"
         d="m 87.04704,65.60855 c 2.13624,1.82432 5.45181,4.6774 3.90043,3.26051"
         style="fill:#d5e5ff;stroke:#ffffff;stroke-width:0.80115616px;stroke-linecap:butt;stroke-linejoin:miter;stroke-opacity:0.95522383" />
      <path
         inkscape:connector-curvature="0"
         id="path5289"
         d="M 93.7348,58.26307 Z"
         style="fill:none;stroke:#000000;stroke-width:1px;stroke-linecap:butt;stroke-linejoin:miter;stroke-opacity:1" />
      <text
         transform="scale(0.84643967,1.1814191)"
         id="text5293"
         y="59.061089"
         x="112.8324"
         style="font-style:normal;font-weight:normal;font-size:4.23889971px;line-height:1.25;font-family:sans-serif;letter-spacing:0px;word-spacing:0px;fill:#ffffff;fill-opacity:1;stroke:none;stroke-width:0.10597248"
         xml:space="preserve"><tspan
           style="fill:#ffffff;fill-opacity:1;stroke-width:0.10597248"
           y="59.061089"
           x="112.8324"
           id="tspan5291"
           sodipodi:role="line">&lt;/&gt;</tspan></text>
    </g>
  </g>
</svg>
