<?xml version="1.0" encoding="utf-8"?>
<!DOCTYPE svg PUBLIC "-//W3C//DTD SVG 1.1//EN" "http://www.w3.org/Graphics/SVG/1.1/DTD/svg11.dtd" [
	<!ENTITY ns_svg "http://www.w3.org/2000/svg">
	<!ENTITY ns_xlink "http://www.w3.org/1999/xlink">
]>
<svg  version="1.1" id="Ebene_1" xmlns="&ns_svg;" xmlns:xlink="&ns_xlink;"
	 viewBox="0 0 66.1 78.883" overflow="visible" enable-background="new 0 0 66.1 78.883" xml:space="preserve">
<g>
	<rect x="30.417" y="7.3" fill="none" stroke="#3F3F3F" stroke-width="2" width="6.825" height="7.692"/>
	<circle fill="none" stroke="#3F3F3F" stroke-width="3" cx="33.261" cy="46.059" r="31.324"/>
	<path fill="#3F3F3F" stroke="#3F3F3F" d="M13.137,13.728c-0.756-0.837-2.046-0.902-2.881-0.145L1.173,21.79
		c-0.836,0.755-0.902,2.045-0.146,2.883l0,0c0.756,0.836,2.045,0.901,2.881,0.145l9.083-8.208
		C13.827,15.854,13.893,14.565,13.137,13.728L13.137,13.728z"/>
	<polygon fill="none" stroke="#3F3F3F" stroke-width="2" points="4.146,23.775 11.94,16.9 15.116,20 7.321,26.875 	"/>
	<path fill="#3F3F3F" stroke="#3F3F3F" d="M33.261,46.06l0.063-27.375c0,0,21.266-0.074,26.043,26.888H33.7"/>
	<line fill="none" stroke="#3F3F3F" stroke-width="4" x1="5.496" y1="46.106" x2="11.458" y2="46.106"/>
	<line fill="none" stroke="#3F3F3F" stroke-width="4" x1="33.534" y1="73.841" x2="33.534" y2="67.778"/>
	<circle fill="#3F3F3F" stroke="#3F3F3F" cx="34.029" cy="6.266" r="5.766"/>
	<path fill="#3F3F3F" stroke="#3F3F3F" d="M53.276,13.701c-0.781,0.812-0.758,2.103,0.053,2.884l8.813,8.498
		c0.813,0.782,2.104,0.758,2.887-0.054l0,0c0.781-0.813,0.758-2.104-0.053-2.886l-8.814-8.495
		C55.353,12.865,54.06,12.888,53.276,13.701L53.276,13.701z"/>
	<polygon fill="none" stroke="#3F3F3F" stroke-width="2" points="58.913,27.04 51.118,20.166 54.294,17.064 62.089,23.94 	"/>
</g>
</svg>
