<?xml version="1.0" encoding="utf-8"?>
<!DOCTYPE svg PUBLIC "-//W3C//DTD SVG 1.1//EN" "http://www.w3.org/Graphics/SVG/1.1/DTD/svg11.dtd" [
	<!ENTITY ns_svg "http://www.w3.org/2000/svg">
	<!ENTITY ns_xlink "http://www.w3.org/1999/xlink">
]>
<svg  version="1.1" id="Ebene_1" xmlns="&ns_svg;" xmlns:xlink="&ns_xlink;"
	 viewBox="0 0 77.293 71.926" overflow="visible" enable-background="new 0 0 77.293 71.926" xml:space="preserve">
<g>
	<line fill="none" stroke="#474747" stroke-width="2" x1="2" y1="14.336" x2="62.381" y2="14.336"/>
	<g>
		<g>
			<path fill="none" stroke="#3F3F3F" stroke-width="4" d="M35.417,52.912c0-12.358,10.018-22.374,22.377-22.374
				c1.57,0,3.107,0.166,4.588,0.475V4.933H2v61.318h37.857C37.081,62.523,35.417,57.917,35.417,52.912z"/>
		</g>
	</g>
	<circle fill="none" stroke="#404040" stroke-width="3" cx="58.225" cy="52.857" r="17.569"/>
	<line fill="none" stroke="#404040" stroke-width="2" x1="57.729" y1="38.907" x2="57.729" y2="53.858"/>
	<line fill="none" stroke="#404040" stroke-width="2" x1="57.104" y1="53.672" x2="69.471" y2="53.672"/>
	<path fill="#474747" stroke="#404040" d="M57.664,51.987c0.814,0,1.473,0.659,1.473,1.473s-0.658,1.474-1.473,1.474
		c-0.816,0-1.477-0.66-1.477-1.474S56.848,51.987,57.664,51.987z"/>
	<line fill="none" stroke="#404040" stroke-width="2" x1="11.486" y1="20.021" x2="11.486" y2="55.777"/>
	<line fill="none" stroke="#404040" stroke-width="2" x1="47.797" y1="19.913" x2="47.797" y2="27.95"/>
	<line fill="none" stroke="#404040" stroke-width="2" x1="28.49" y1="19.913" x2="28.49" y2="55.951"/>
	<line fill="none" stroke="#404040" stroke-width="2" x1="7.545" y1="25.777" x2="54.098" y2="25.777"/>
	<line fill="none" stroke="#404040" stroke-width="2" x1="7.359" y1="35.852" x2="33.344" y2="35.852"/>
	<line fill="none" stroke="#404040" stroke-width="2" x1="7.4" y1="47.363" x2="31.884" y2="47.363"/>
	<line fill="none" stroke="#404040" stroke-width="4" x1="11.259" y1="0.133" x2="11.259" y2="10.209"/>
	<line fill="none" stroke="#404040" stroke-width="4" x1="53.299" y1="0" x2="53.299" y2="10.074"/>
	<line fill="none" stroke="#404040" stroke-width="3" x1="43.031" y1="53.8" x2="46.307" y2="53.8"/>
	<line fill="none" stroke="#404040" stroke-width="3" x1="57.994" y1="67.921" x2="57.994" y2="64.646"/>
</g>
</svg>
