<?xml version="1.0" encoding="utf-8"?>
<!-- Generator: Adobe Illustrator 12.0.0, SVG Export Plug-In . SVG Version: 6.00 Build 51448)  -->
<!DOCTYPE svg PUBLIC "-//W3C//DTD SVG 1.1//EN" "http://www.w3.org/Graphics/SVG/1.1/DTD/svg11.dtd" [
	<!ENTITY ns_svg "http://www.w3.org/2000/svg">
	<!ENTITY ns_xlink "http://www.w3.org/1999/xlink">
]>
<svg  version="1.1" id="Ebene_1" xmlns="&ns_svg;" xmlns:xlink="&ns_xlink;" width="649.111" height="205.044"
	 viewBox="0 0 649.111 205.044" overflow="visible" enable-background="new 0 0 649.111 205.044" xml:space="preserve">
<rect x="3" y="3" fill="none" stroke="#000000" stroke-width="6" width="643.111" height="199.044"/>
<g>
	<path d="M194.908,170.669c-0.477,0-1.287-0.096-1.287,0.643c0,0.382,0.286,0.524,0.62,0.668l5.719,2.597
		c1.478,0.667,2.24,1.597,2.24,3.241c0,2.312-1.572,3.407-3.765,3.407h-3.527c-1.191,0-2.001-0.048-2.859-0.715
		c-0.429-0.334-1.048-0.763-1.048-1.334c0-0.644,0.548-1.145,1.191-1.145c0.357,0,0.62,0.119,0.882,0.405
		c0.405,0.453,1.12,0.501,1.834,0.501h3.098c0.811,0,1.907,0.071,1.907-1.264c0-0.548-0.667-0.905-1.191-1.144l-5.385-2.454
		c-1.263-0.572-2.002-1.311-2.002-2.788c0-1.811,1.43-2.907,3.146-2.907h3.908c1.263,0,1.787,0.071,2.645,0.786
		c0.429,0.357,0.906,0.644,0.906,1.287s-0.548,1.144-1.168,1.144c-0.429,0-0.691-0.167-0.977-0.477
		c-0.381-0.405-0.787-0.452-1.406-0.452H194.908z"/>
	<path d="M214.542,170.669c-0.238,0-0.477,0.071-0.715,0.214l-3.384,2.121v6.648c0,0.786-0.167,1.572-1.144,1.572
		c-0.978,0-1.144-0.786-1.144-1.572v-14.417c0-0.786,0.166-1.572,1.144-1.572c0.977,0,1.144,0.786,1.144,1.572v5.123l1.858-1.215
		c0.596-0.381,1.287-0.763,2.05-0.763h1.524c0.453,0,1.263,0,2.217,0.834c1.024,0.882,0.977,1.858,1.024,3.098l0.238,7.196
		c0.023,0.811-0.096,1.716-1.12,1.716c-0.93,0-1.12-0.786-1.144-1.549l-0.238-7.054c-0.048-1.096,0.023-1.953-1.264-1.953H214.542z"
		/>
	<path d="M229.148,170.669c-0.667,0-1.572-0.144-1.572-1.145c0-0.977,0.811-1.144,1.572-1.144h3.146c1.191,0,2.05,0.119,2.955,1.024
		c0.882,0.882,1.001,1.573,1.024,2.717l0.238,7.769c0.024,0.667-0.31,1.334-1.072,1.334c-0.596,0-1.191-0.5-1.167-1.144l-1.573,0.81
		c-0.644,0.334-0.667,0.334-1.405,0.334h-2.192c-1.025,0-1.764-0.119-2.598-0.811c-0.953-0.786-1.191-1.62-1.191-2.812v-1.001
		c0-1.096,0.262-1.787,1.12-2.55c0.786-0.69,1.668-0.857,2.669-0.857h4.908v-0.524c0-1.716-0.381-2.001-2.025-2.001H229.148z
		 M229.125,175.481c-0.619,0-1.525,0.167-1.525,1.001v1.525c0,0.763,0.93,0.93,1.478,0.93h2.526l2.525-1.311v-0.501
		c0-1.263-0.357-1.645-1.62-1.645H229.125z"/>
	<path d="M253.667,176.269c0,1.644-0.119,2.264-1.453,3.312l-1.382,1.097c-0.477,0.381-1.216,1.024-1.835,1.024h-1.549
		c-1.025,0-1.502-0.667-2.24-1.358l-0.453-0.429v4.599c0,0.786-0.166,1.573-1.144,1.573c-0.977,0-1.144-0.787-1.144-1.573v-14.439
		c0-0.811,0.096-1.692,1.144-1.692c0.93,0,1.144,0.739,1.144,1.501v0.286l0.453-0.405c0.596-0.523,1.501-1.382,2.145-1.382h1.573
		c0.548,0,1.286,0.572,1.906,1.049l1.382,1.072c1.334,1.048,1.453,1.691,1.453,3.312V176.269z M251.38,173.504
		c0-0.429-0.119-0.69-0.477-1.001l-1.716-1.43c-0.215-0.19-0.477-0.404-0.786-0.404h-0.596c-0.334,0-0.739,0.429-0.978,0.667
		l-1.43,1.358c-0.477,0.452-0.644,0.715-0.644,1.215v2.24c0,0.333,0.096,0.763,0.334,0.977l1.739,1.645
		c0.334,0.333,0.691,0.644,0.978,0.644h0.596c0.31,0,0.571-0.215,0.786-0.405l1.716-1.43c0.357-0.31,0.477-0.572,0.477-1.001
		V173.504z"/>
	<path d="M263.819,181.225c-0.954,0-1.335,0-2.05-0.619l-0.977-0.858c-0.906-0.81-1.168-1.334-1.168-2.573v-4.408
		c0-1.216,0.167-1.931,1.12-2.74l0.81-0.691c1.072-0.929,1.597-0.953,2.526-0.953h2.097c1.12,0,1.645,0.119,2.526,0.834l0.929,0.739
		c1.049,0.834,1.191,1.715,1.191,2.979v1.834c0,1.312-0.214,1.692-1.572,1.692h-7.34v0.763c0,0.214,0.167,0.5,0.334,0.667
		l0.572,0.619c0.31,0.334,0.762,0.43,1.524,0.43h4.909c0.763,0,1.572,0.166,1.572,1.144c0,1.001-0.905,1.144-1.572,1.144H263.819z
		 M261.912,174.171h6.625v-1.382c0-0.429,0.023-0.786-0.286-1.072l-0.882-0.763c-0.286-0.262-0.738-0.285-1.096-0.285h-1.931
		c-0.429,0-0.786,0-1.167,0.262l-0.787,0.572c-0.285,0.214-0.477,0.381-0.477,1.048V174.171z"/>
	<path d="M302.849,171.265v-1.311c0-0.787,0.167-1.573,1.144-1.573s1.144,0.786,1.144,1.573v0.929c0,0.572-0.048,0.953-0.286,1.454
		l-5.766,12.558c-0.501,1.072-0.763,1.191-1.812,1.191h-1.764c-0.667,0-1.572-0.144-1.572-1.145c0-0.977,0.811-1.144,1.572-1.144
		h1.573l1.691-3.503h-0.119c-0.953,0-1.001-0.429-1.358-1.215l-2.812-6.22c-0.31-0.69-0.548-1.215-0.548-1.882v-1.024
		c0-0.787,0.167-1.573,1.144-1.573c0.978,0,1.144,0.786,1.144,1.573v1.311l3.074,6.743h0.501L302.849,171.265z"/>
	<path d="M311.093,172.646c0-1.525,0.31-2.05,1.453-2.979c1.12-0.93,1.645-1.287,3.241-1.287h1.811c1.597,0,2.121,0.357,3.241,1.287
		c1.144,0.929,1.453,1.453,1.453,2.979v4.313c0,1.502-0.381,2.073-1.572,3.074s-1.668,1.191-3.122,1.191h-1.811
		c-1.454,0-1.931-0.19-3.122-1.191s-1.572-1.572-1.572-3.074V172.646z M313.38,176.959c0,0.477,0.167,0.787,0.834,1.358
		c0.501,0.429,0.858,0.62,1.573,0.62h1.811c0.715,0,1.072-0.191,1.573-0.62c0.667-0.571,0.834-0.882,0.834-1.358v-4.313
		c0-0.477-0.167-0.786-0.834-1.358c-0.501-0.429-0.858-0.619-1.573-0.619h-1.811c-0.715,0-1.072,0.19-1.573,0.619
		c-0.667,0.572-0.834,0.882-0.834,1.358V176.959z"/>
	<path d="M339.449,179.533c0,0.523,0.096,1.691-1.12,1.691c-0.977,0-1.144-0.811-1.144-1.597v-0.381l-1.858,1.215
		c-0.738,0.477-1.358,0.763-1.978,0.763h-1.692c-0.644,0-1.358-0.19-2.12-0.834c-1.025-0.882-1.001-1.858-1.049-3.098l-0.238-7.196
		c-0.023-0.834,0.096-1.716,1.144-1.716c0.978,0,1.097,0.834,1.12,1.573l0.238,7.029c0.023,0.524,0.048,1.144,0.238,1.478
		c0.19,0.333,0.786,0.477,1.335,0.477h0.762c0.263,0,0.501-0.072,0.715-0.215l3.36-2.121v-6.647c0-0.787,0.167-1.573,1.144-1.573
		s1.144,0.786,1.144,1.573V179.533z"/>
	<path d="M345.406,170.073c0-0.834,0.096-1.692,1.144-1.692c0.905,0,1.144,0.763,1.144,1.525v0.929l1.788-1.477
		c0.643-0.524,1.311-0.978,2.025-0.978h1.834c0.882,0,1.621,0.286,2.24,0.905c0.763,0.763,1.024,1.549,1.024,2.598
		c0,0.786-0.143,1.597-1.12,1.597c-0.834,0-1.167-0.667-1.167-1.406c0-0.381,0-0.667-0.238-1.001
		c-0.286-0.404-0.834-0.404-1.382-0.404h-0.668c-0.429,0-0.738,0.214-1.144,0.548l-3.193,2.645v5.791
		c0,0.786-0.166,1.572-1.144,1.572c-0.977,0-1.144-0.786-1.144-1.572V170.073z"/>
	<path d="M383.078,170.669h-0.643c-0.668,0-1.573-0.144-1.573-1.145c0-0.977,0.811-1.144,1.573-1.144h0.643v-0.31
		c0-1.311,0.072-2.264,1.097-3.265c1.096-1.048,2.121-1.144,3.526-1.144h1.549c0.786,0,1.668,0.071,1.668,1.144
		c0,0.978-0.786,1.144-1.572,1.144h-1.787c-1.549,0-2.192,0.311-2.192,1.979v0.452h2.025c0.763,0,1.572,0.167,1.572,1.144
		c0,1.001-0.905,1.145-1.572,1.145h-2.025v8.983c0,0.786-0.167,1.572-1.144,1.572c-0.978,0-1.145-0.786-1.145-1.572V170.669z"/>
	<path d="M403.666,178.938h1.716c0.763,0,1.572,0.166,1.572,1.144c0,1.001-0.905,1.144-1.572,1.144h-5.814
		c-0.667,0-1.572-0.143-1.572-1.144c0-0.978,0.81-1.144,1.572-1.144h1.812V165.95h-1.812c-0.667,0-1.572-0.143-1.572-1.144
		c0-0.977,0.81-1.144,1.572-1.144h2.407c1.311,0,1.691,0.238,1.691,1.597V178.938z"/>
	<path d="M414.031,172.646c0-1.525,0.31-2.05,1.453-2.979c1.12-0.93,1.645-1.287,3.241-1.287h1.811c1.597,0,2.121,0.357,3.241,1.287
		c1.144,0.929,1.453,1.453,1.453,2.979v4.313c0,1.502-0.381,2.073-1.572,3.074s-1.668,1.191-3.122,1.191h-1.811
		c-1.454,0-1.931-0.19-3.122-1.191s-1.572-1.572-1.572-3.074V172.646z M416.318,176.959c0,0.477,0.167,0.787,0.834,1.358
		c0.501,0.429,0.858,0.62,1.573,0.62h1.811c0.715,0,1.072-0.191,1.573-0.62c0.667-0.571,0.834-0.882,0.834-1.358v-4.313
		c0-0.477-0.167-0.786-0.834-1.358c-0.501-0.429-0.858-0.619-1.573-0.619h-1.811c-0.715,0-1.072,0.19-1.573,0.619
		c-0.667,0.572-0.834,0.882-0.834,1.358V176.959z"/>
	<path d="M437.93,175.935l1.239,2.121l0.715-2.121l0.238-5.909c0.024-0.786,0.167-1.645,1.144-1.645c1.001,0,1.145,0.858,1.12,1.645
		l-0.238,6.362l-1.12,3.384c-0.238,0.69-0.357,1.453-1.167,1.453h-0.882c-0.405,0-0.738-0.429-0.953-0.738l-1.239-1.859
		l-1.239,1.859c-0.214,0.31-0.548,0.738-0.953,0.738h-0.882c-0.81,0-0.929-0.763-1.167-1.453l-1.12-3.384l-0.238-6.362
		c-0.023-0.786,0.119-1.645,1.12-1.645c0.977,0,1.12,0.858,1.144,1.645l0.238,5.909l0.715,2.121l1.239-2.121v-2.097
		c0-0.786,0.167-1.597,1.144-1.597c0.978,0,1.144,0.811,1.144,1.597V175.935z"/>
</g>
<line fill="none" stroke="#000000" stroke-width="2" x1="25.575" y1="180.315" x2="169.157" y2="180.315"/>
<line fill="none" stroke="#000000" stroke-width="2" x1="474.089" y1="180.813" x2="632.21" y2="180.813"/>
<g>
	<rect x="49.602" y="61.625" fill-rule="evenodd" clip-rule="evenodd" fill="none" width="572" height="109"/>
	<path d="M60.337,62.48c0-3.04,1.33-4.75,4.75-4.75s4.75,1.71,4.75,4.75v21.85l28.975-24.605c1.14-0.95,2.375-1.9,3.895-1.9
		c2.755,0,4.56,2.28,4.56,4.94c0,1.615-1.045,2.945-2.185,3.99l-32.774,27.93l32.584,27.93c1.235,1.045,2.375,2.375,2.375,4.085
		c0,2.66-1.805,4.94-4.56,4.94c-1.995,0-3.61-1.711-5.13-2.851l-27.74-23.845v21.945c0,3.039-1.33,4.75-4.75,4.75
		s-4.75-1.711-4.75-4.75V62.48z"/>
	<path d="M170.915,122.141c2.47,0,4.75,1.33,4.75,4.75s-2.28,4.75-4.75,4.75h-42.18V57.73h42.18c2.47,0,4.75,1.33,4.75,4.75
		s-2.28,4.75-4.75,4.75h-32.68v22.705H152.2c2.47,0,4.75,1.33,4.75,4.75s-2.28,4.75-4.75,4.75h-13.965v22.705H170.915z"/>
	<path d="M225.349,126.891c0,3.039-1.33,4.75-4.75,4.75s-4.75-1.711-4.75-4.75v-30.4l-18.715-24.32v-9.69
		c0-3.04,1.33-4.75,4.75-4.75s4.75,1.71,4.75,4.75v6.46l13.965,18.145l13.965-18.145v-6.46c0-3.04,1.33-4.75,4.75-4.75
		s4.75,1.71,4.75,4.75v9.69l-18.715,24.32V126.891z"/>
	<path d="M309.137,113.021c1.899,2.47,3.325,4.655,3.325,7.885c0,7.125-5.416,10.735-11.971,10.735h-20.899
		c-3.61,0-6.745-0.666-9.595-3.041c-2.565-2.09-4.465-5.51-4.465-8.834c0-3.041,1.71-5.7,5.035-5.7c2.755,0,4.465,2.28,4.465,4.845
		c0,2.85,1.52,3.23,4.18,3.23h20.615c0.76,0,3.135,0.285,3.135-1.141c0-0.76-1.33-2.185-1.711-2.755l-32.584-41.895
		c-1.995-2.565-3.135-4.465-3.135-7.79c0-3.8,1.805-7.03,5.035-9.12c2.66-1.71,4.845-1.71,7.885-1.71h20.14
		c3.61,0,6.649,0.76,9.405,3.135c2.469,2.185,4.465,5.7,4.465,9.025c0,3.04-1.521,5.51-4.94,5.51c-2.851,0-4.56-1.805-4.56-4.465
		c0-3.23-1.615-3.705-4.561-3.705h-20.14c-1.045,0-3.23-0.285-3.23,1.33c0,0.855,1.045,1.995,1.425,2.565L309.137,113.021z"/>
	<path d="M359.486,131.641c-7.125,0-11.211-2.851-14.25-9.025l-8.74-17.67c-1.615-3.23-2.564-6.27-2.564-9.975
		c0-4.18,0.76-6.745,2.66-10.545l8.739-17.575c3.229-6.555,7.315-9.12,14.63-9.12h16.15c2.09,0,4.75,1.14,4.75,4.75
		c0,3.42-2.565,4.75-4.75,4.75h-15.865c-4.085,0-4.75,0.38-6.555,3.99l-8.266,16.53c-1.234,2.565-1.994,4.275-1.994,7.22
		c0,2.66,0.854,4.275,1.994,6.555l8.075,16.436c1.899,3.895,2.851,4.18,7.125,4.18h15.485c2.09,0,4.75,1.14,4.75,4.75
		c0,3.42-2.565,4.75-4.75,4.75H359.486z"/>
	<path d="M446.789,84.425c1.805,3.705,2.471,6.46,2.471,10.545c0,4.56-1.235,7.411-3.135,11.305l-8.74,17.48
		c-2.28,4.559-6.08,7.885-11.59,7.885s-9.311-3.326-11.59-7.885l-8.74-17.48c-1.9-3.895-3.135-6.745-3.135-11.305
		c0-4.085,0.664-6.84,2.47-10.545l9.5-18.905c2.28-4.465,6.175-7.79,11.495-7.79c5.319,0,9.215,3.325,11.494,7.79L446.789,84.425z
		 M429.024,70.081c-0.76-1.52-1.235-2.85-3.229-2.85c-1.996,0-2.471,1.33-3.23,2.85l-8.55,17.195
		c-1.425,2.755-2.185,4.56-2.185,7.695c0,2.47,0.569,4.18,1.614,6.27l9.12,18.05c0.665,1.33,1.33,2.851,3.23,2.851
		c1.899,0,2.564-1.521,3.229-2.851l9.12-18.05c1.045-2.09,1.615-3.8,1.615-6.27c0-3.135-0.76-4.94-2.186-7.695L429.024,70.081z"/>
	<path d="M480.228,126.891c0,3.039-1.33,4.75-4.75,4.75s-4.75-1.711-4.75-4.75V57.73h31.92c7.504,0,15.01,5.32,15.01,13.775v6.555
		c0,8.93-7.41,13.49-15.01,13.49h-8.74l21.375,30.59c1.045,1.425,2.375,3.229,2.375,5.035c0,2.659-2.186,4.465-4.846,4.465
		c-1.9,0-3.135-1.141-4.18-2.66l-26.22-37.43h-2.185V126.891z M480.228,82.05h21.09c2.66,0,6.84-0.19,6.84-3.99v-6.555
		c0-3.8-3.896-4.275-6.745-4.275h-21.185V82.05z"/>
	<path d="M581.306,122.141c2.47,0,4.75,1.33,4.75,4.75s-2.28,4.75-4.75,4.75h-42.18V57.73h42.18c2.47,0,4.75,1.33,4.75,4.75
		s-2.28,4.75-4.75,4.75h-32.68v22.705h13.965c2.47,0,4.75,1.33,4.75,4.75s-2.28,4.75-4.75,4.75h-13.965v22.705H581.306z"/>
</g>
</svg>
