<svg xmlns="http://www.w3.org/2000/svg" viewBox="0 0 416 416">
  <path d="m 281.816,230.57 c -16.186,0 -30.697,7.171 -40.634,18.461 l -25.463,-18.026 c 2.703,-7.442 4.255,-15.433 4.255,-23.797 0,-8.219 -1.498,-16.076 -4.112,-23.408 l 25.406,-17.835 c 9.936,11.233 24.409,18.365 40.548,18.365 29.875,0 54.184,-24.305 54.184,-54.184 0,-29.879 -24.309,-54.183999 -54.184,-54.183999 -29.875,0 -54.184,24.304999 -54.184,54.183999 0,5.348 0.808,10.505 2.258,15.389 l -25.423,17.844 c -10.62,-13.175 -25.911,-22.374 -43.333,-25.182 v -30.64 c 24.544,-5.155 43.037,-26.961999 43.037,-53.018999 0,-29.879 -24.309,-54.18399985 -54.184,-54.18399985 -29.875,0 -54.184,24.30499985 -54.184,54.18399985 0,25.708 18.014,47.245999 42.067,52.768999 v 31.038 C 105.044,144.107 80,172.755 80,207.208 c 0,34.621 25.292,63.374 58.355,68.94 v 32.774 c -24.299,5.341 -42.552,27.011 -42.552,52.894 0,29.879 24.309,54.184 54.184,54.184 29.875,0 54.184,-24.305 54.184,-54.184 0,-25.883 -18.253,-47.553 -42.552,-52.894 v -32.775 a 69.965,69.965 0 0 0 42.6,-24.776 l 25.633,18.143 c -1.423,4.84 -2.22,9.946 -2.22,15.24 0,29.879 24.309,54.184 54.184,54.184 29.875,0 54.184,-24.305 54.184,-54.184 0,-29.879 -24.309,-54.184 -54.184,-54.184 z m 0,-126.695 c 14.487,0 26.27,11.788 26.27,26.271 0,14.483 -11.783,26.27 -26.27,26.27 -14.487,0 -26.27,-11.787 -26.27,-26.27 0,-14.483 11.783,-26.271 26.27,-26.271 z m -158.1,-49.336999 c 0,-14.483 11.784,-26.27 26.271,-26.27 14.487,0 26.27,11.787 26.27,26.27 0,14.483 -11.783,26.27 -26.27,26.27 -14.487,0 -26.271,-11.787 -26.271,-26.27 z M 176.257,361.816 c 0,14.483 -11.783,26.27 -26.27,26.27 -14.487,0 -26.271,-11.787 -26.271,-26.27 0,-14.483 11.784,-26.27 26.271,-26.27 14.487,0 26.27,11.787 26.27,26.27 z m -26.272,-117.97 c -20.205,0 -36.642,-16.434 -36.642,-36.638 0,-20.205 16.437,-36.642 36.642,-36.642 20.204,0 36.641,16.437 36.641,36.642 0,20.204 -16.437,36.638 -36.641,36.638 z m 131.831,67.179 c -14.487,0 -26.27,-11.788 -26.27,-26.271 0,-14.483 11.783,-26.27 26.27,-26.27 14.487,0 26.27,11.787 26.27,26.27 0,14.483 -11.783,26.271 -26.27,26.271 z" style="fill:#ffffff" />
</svg>
